<svg width="11" height="12" viewBox="0 0 11 12" fill="none" xmlns="http://www.w3.org/2000/svg">
<rect x="0.5" y="1" width="10" height="10" rx="5" fill="black" fill-opacity="0.95"/>
<rect x="0.5" y="1" width="10" height="10" rx="5" stroke="#646464"/>
<path d="M3.16699 7.74994C3.16699 7.85724 3.25397 7.94422 3.36127 7.94422C3.46856 7.94422 3.55554 7.85724 3.55554 7.74994C3.55554 7.64265 3.46856 7.55566 3.36127 7.55566C3.25397 7.55566 3.16699 7.64265 3.16699 7.74994Z" fill="#1CE7C2" fill-opacity="0.9"/>
<path d="M3.16699 7.36127C3.16699 7.46857 3.25397 7.55555 3.36127 7.55555C3.46856 7.55555 3.55554 7.46857 3.55554 7.36127C3.55554 7.25398 3.46856 7.16699 3.36127 7.16699C3.25397 7.16699 3.16699 7.25398 3.16699 7.36127Z" fill="#1CE7C2" fill-opacity="0.9"/>
<path d="M3.16699 6.9726C3.16699 7.07989 3.25397 7.16688 3.36127 7.16688C3.46856 7.16688 3.55554 7.07989 3.55554 6.9726C3.55554 6.8653 3.46856 6.77832 3.36127 6.77832C3.25397 6.77832 3.16699 6.8653 3.16699 6.9726Z" fill="#1CE7C2" fill-opacity="0.9"/>
<path d="M3.16699 6.58393C3.16699 6.69122 3.25397 6.77821 3.36127 6.77821C3.46856 6.77821 3.55554 6.69122 3.55554 6.58393C3.55554 6.47663 3.46856 6.38965 3.36127 6.38965C3.25397 6.38965 3.16699 6.47663 3.16699 6.58393Z" fill="#9F9F9F" fill-opacity="0.9"/>
<path d="M3.16699 6.19526C3.16699 6.30255 3.25397 6.38953 3.36127 6.38953C3.46856 6.38953 3.55554 6.30255 3.55554 6.19526C3.55554 6.08796 3.46856 6.00098 3.36127 6.00098C3.25397 6.00098 3.16699 6.08796 3.16699 6.19526Z" fill="#9F9F9F" fill-opacity="0.9"/>
<path d="M3.55566 8.13764C3.55566 8.24493 3.64264 8.33192 3.74994 8.33192C3.85723 8.33192 3.94421 8.24493 3.94421 8.13764C3.94421 8.03034 3.85723 7.94336 3.74994 7.94336C3.64264 7.94336 3.55566 8.03034 3.55566 8.13764Z" fill="#1CE7C2" fill-opacity="0.9"/>
<path d="M3.55566 7.74994C3.55566 7.85724 3.64264 7.94422 3.74994 7.94422C3.85723 7.94422 3.94421 7.85724 3.94421 7.74994C3.94421 7.64265 3.85723 7.55566 3.74994 7.55566C3.64264 7.55566 3.55566 7.64265 3.55566 7.74994Z" fill="#1CE7C2" fill-opacity="0.7"/>
<path d="M3.55566 7.36127C3.55566 7.46857 3.64264 7.55555 3.74994 7.55555C3.85723 7.55555 3.94421 7.46857 3.94421 7.36127C3.94421 7.25398 3.85723 7.16699 3.74994 7.16699C3.64264 7.16699 3.55566 7.25398 3.55566 7.36127Z" fill="#1CE7C2" fill-opacity="0.7"/>
<path d="M3.55566 6.9726C3.55566 7.07989 3.64264 7.16688 3.74994 7.16688C3.85723 7.16688 3.94421 7.07989 3.94421 6.9726C3.94421 6.8653 3.85723 6.77832 3.74994 6.77832C3.64264 6.77832 3.55566 6.8653 3.55566 6.9726Z" fill="#1CE7C2" fill-opacity="0.7"/>
<path d="M3.55566 6.58393C3.55566 6.69122 3.64264 6.77821 3.74994 6.77821C3.85723 6.77821 3.94421 6.69122 3.94421 6.58393C3.94421 6.47663 3.85723 6.38965 3.74994 6.38965C3.64264 6.38965 3.55566 6.47663 3.55566 6.58393Z" fill="#9F9F9F" fill-opacity="0.7"/>
<path d="M3.55566 6.19526C3.55566 6.30255 3.64264 6.38953 3.74994 6.38953C3.85723 6.38953 3.94421 6.30255 3.94421 6.19526C3.94421 6.08796 3.85723 6.00098 3.74994 6.00098C3.64264 6.00098 3.55566 6.08796 3.55566 6.19526Z" fill="#9F9F9F" fill-opacity="0.9"/>
<path d="M3.55566 5.80658C3.55566 5.91388 3.64264 6.00086 3.74994 6.00086C3.85723 6.00086 3.94421 5.91388 3.94421 5.80658C3.94421 5.69929 3.85723 5.6123 3.74994 5.6123C3.64264 5.6123 3.55566 5.69929 3.55566 5.80658Z" fill="#9F9F9F" fill-opacity="0.9"/>
<path d="M3.55566 5.41791C3.55566 5.52521 3.64264 5.61219 3.74994 5.61219C3.85723 5.61219 3.94421 5.52521 3.94421 5.41791C3.94421 5.31062 3.85723 5.22363 3.74994 5.22363C3.64264 5.22363 3.55566 5.31062 3.55566 5.41791Z" fill="#9F9F9F" fill-opacity="0.9"/>
<path d="M3.94385 8.52826C3.94385 8.63556 4.03083 8.72254 4.13812 8.72254C4.24542 8.72254 4.3324 8.63556 4.3324 8.52826C4.3324 8.42097 4.24542 8.33398 4.13812 8.33398C4.03083 8.33398 3.94385 8.42097 3.94385 8.52826Z" fill="#1CE7C2" fill-opacity="0.7"/>
<path d="M3.94385 8.13764C3.94385 8.24493 4.03083 8.33192 4.13812 8.33192C4.24542 8.33192 4.3324 8.24493 4.3324 8.13764C4.3324 8.03034 4.24542 7.94336 4.13812 7.94336C4.03083 7.94336 3.94385 8.03034 3.94385 8.13764Z" fill="#1CE7C2" fill-opacity="0.5"/>
<path d="M3.94385 7.74994C3.94385 7.85724 4.03083 7.94422 4.13812 7.94422C4.24542 7.94422 4.3324 7.85724 4.3324 7.74994C4.3324 7.64265 4.24542 7.55566 4.13812 7.55566C4.03083 7.55566 3.94385 7.64265 3.94385 7.74994Z" fill="#1CE7C2" fill-opacity="0.5"/>
<path d="M3.94385 7.36127C3.94385 7.46857 4.03083 7.55555 4.13812 7.55555C4.24542 7.55555 4.3324 7.46857 4.3324 7.36127C4.3324 7.25398 4.24542 7.16699 4.13812 7.16699C4.03083 7.16699 3.94385 7.25398 3.94385 7.36127Z" fill="#1CE7C2" fill-opacity="0.5"/>
<path d="M3.94385 6.9726C3.94385 7.07989 4.03083 7.16688 4.13812 7.16688C4.24542 7.16688 4.3324 7.07989 4.3324 6.9726C4.3324 6.8653 4.24542 6.77832 4.13812 6.77832C4.03083 6.77832 3.94385 6.8653 3.94385 6.9726Z" fill="#1CE7C2" fill-opacity="0.7"/>
<path d="M3.94385 6.58393C3.94385 6.69122 4.03083 6.77821 4.13812 6.77821C4.24542 6.77821 4.3324 6.69122 4.3324 6.58393C4.3324 6.47663 4.24542 6.38965 4.13812 6.38965C4.03083 6.38965 3.94385 6.47663 3.94385 6.58393Z" fill="#9F9F9F" fill-opacity="0.7"/>
<path d="M3.94385 6.19526C3.94385 6.30255 4.03083 6.38953 4.13812 6.38953C4.24542 6.38953 4.3324 6.30255 4.3324 6.19526C4.3324 6.08796 4.24542 6.00098 4.13812 6.00098C4.03083 6.00098 3.94385 6.08796 3.94385 6.19526Z" fill="#9F9F9F" fill-opacity="0.7"/>
<path d="M3.94385 5.80658C3.94385 5.91388 4.03083 6.00086 4.13812 6.00086C4.24542 6.00086 4.3324 5.91388 4.3324 5.80658C4.3324 5.69929 4.24542 5.6123 4.13812 5.6123C4.03083 5.6123 3.94385 5.69929 3.94385 5.80658Z" fill="#9F9F9F" fill-opacity="0.7"/>
<path d="M3.94385 5.41791C3.94385 5.52521 4.03083 5.61219 4.13812 5.61219C4.24542 5.61219 4.3324 5.52521 4.3324 5.41791C4.3324 5.31062 4.24542 5.22363 4.13812 5.22363C4.03083 5.22363 3.94385 5.31062 3.94385 5.41791Z" fill="#9F9F9F" fill-opacity="0.9"/>
<path d="M3.94385 5.02729C3.94385 5.13458 4.03083 5.22157 4.13812 5.22157C4.24542 5.22157 4.3324 5.13458 4.3324 5.02729C4.3324 4.91999 4.24542 4.83301 4.13812 4.83301C4.03083 4.83301 3.94385 4.91999 3.94385 5.02729Z" fill="#9F9F9F" fill-opacity="0.9"/>
<path d="M3.94385 4.63962C3.94385 4.74691 4.03083 4.8349 4.13812 4.8349C4.24542 4.8349 4.3324 4.74691 4.3324 4.63962C4.3324 4.53232 4.24542 4.44434 4.13812 4.44434C4.03083 4.44434 3.94385 4.53232 3.94385 4.63962Z" fill="#9F9F9F" fill-opacity="0.9"/>
<path d="M4.33252 8.91791C4.33252 9.02521 4.4195 9.11219 4.52679 9.11219C4.63409 9.11219 4.72107 9.02521 4.72107 8.91791C4.72107 8.81062 4.63409 8.72363 4.52679 8.72363C4.4195 8.72363 4.33252 8.81062 4.33252 8.91791Z" fill="#1CE7C2" fill-opacity="0.7"/>
<path d="M4.33252 8.52826C4.33252 8.63556 4.4195 8.72254 4.52679 8.72254C4.63409 8.72254 4.72107 8.63556 4.72107 8.52826C4.72107 8.42097 4.63409 8.33398 4.52679 8.33398C4.4195 8.33398 4.33252 8.42097 4.33252 8.52826Z" fill="#1CE7C2" fill-opacity="0.5"/>
<path d="M4.33252 8.13764C4.33252 8.24493 4.4195 8.33192 4.52679 8.33192C4.63409 8.33192 4.72107 8.24493 4.72107 8.13764C4.72107 8.03034 4.63409 7.94336 4.52679 7.94336C4.4195 7.94336 4.33252 8.03034 4.33252 8.13764Z" fill="#1CE7C2" fill-opacity="0.4"/>
<path d="M4.33252 7.36127C4.33252 7.46857 4.4195 7.55555 4.52679 7.55555C4.63409 7.55555 4.72107 7.46857 4.72107 7.36127C4.72107 7.25398 4.63409 7.16699 4.52679 7.16699C4.4195 7.16699 4.33252 7.25398 4.33252 7.36127Z" fill="#1CE7C2" fill-opacity="0.4"/>
<path d="M4.33252 6.9726C4.33252 7.07989 4.4195 7.16688 4.52679 7.16688C4.63409 7.16688 4.72107 7.07989 4.72107 6.9726C4.72107 6.8653 4.63409 6.77832 4.52679 6.77832C4.4195 6.77832 4.33252 6.8653 4.33252 6.9726Z" fill="#1CE7C2" fill-opacity="0.5"/>
<path d="M4.33252 6.58393C4.33252 6.69122 4.4195 6.77821 4.52679 6.77821C4.63409 6.77821 4.72107 6.69122 4.72107 6.58393C4.72107 6.47663 4.63409 6.38965 4.52679 6.38965C4.4195 6.38965 4.33252 6.47663 4.33252 6.58393Z" fill="#9F9F9F" fill-opacity="0.866667"/>
<path d="M4.33252 6.19526C4.33252 6.30255 4.4195 6.38953 4.52679 6.38953C4.63409 6.38953 4.72107 6.30255 4.72107 6.19526C4.72107 6.08796 4.63409 6.00098 4.52679 6.00098C4.4195 6.00098 4.33252 6.08796 4.33252 6.19526Z" fill="#9F9F9F" fill-opacity="0.866667"/>
<path d="M4.33252 5.80658C4.33252 5.91388 4.4195 6.00086 4.52679 6.00086C4.63409 6.00086 4.72107 5.91388 4.72107 5.80658C4.72107 5.69929 4.63409 5.6123 4.52679 5.6123C4.4195 5.6123 4.33252 5.69929 4.33252 5.80658Z" fill="#9F9F9F" fill-opacity="0.7"/>
<path d="M4.33252 5.41791C4.33252 5.52521 4.4195 5.61219 4.52679 5.61219C4.63409 5.61219 4.72107 5.52521 4.72107 5.41791C4.72107 5.31062 4.63409 5.22363 4.52679 5.22363C4.4195 5.22363 4.33252 5.31062 4.33252 5.41791Z" fill="#9F9F9F" fill-opacity="0.7"/>
<path d="M4.33252 5.02729C4.33252 5.13458 4.4195 5.22157 4.52679 5.22157C4.63409 5.22157 4.72107 5.13458 4.72107 5.02729C4.72107 4.91999 4.63409 4.83301 4.52679 4.83301C4.4195 4.83301 4.33252 4.91999 4.33252 5.02729Z" fill="#9F9F9F" fill-opacity="0.7"/>
<path d="M4.33252 4.63962C4.33252 4.74691 4.4195 4.8349 4.52679 4.8349C4.63409 4.8349 4.72107 4.74691 4.72107 4.63962C4.72107 4.53232 4.63409 4.44434 4.52679 4.44434C4.4195 4.44434 4.33252 4.53232 4.33252 4.63962Z" fill="#9F9F9F" fill-opacity="0.9"/>
<path d="M4.33252 4.25092C4.33252 4.35821 4.4195 4.4452 4.52679 4.4452C4.63409 4.4452 4.72107 4.35821 4.72107 4.25092C4.72107 4.14363 4.63409 4.05664 4.52679 4.05664C4.4195 4.05664 4.33252 4.14363 4.33252 4.25092Z" fill="#9F9F9F" fill-opacity="0.9"/>
<path d="M4.72314 8.91791C4.72314 9.02521 4.81012 9.11219 4.91742 9.11219C5.02471 9.11219 5.11169 9.02521 5.11169 8.91791C5.11169 8.81062 5.02471 8.72363 4.91742 8.72363C4.81012 8.72363 4.72314 8.81062 4.72314 8.91791Z" fill="#1CE7C2" fill-opacity="0.5"/>
<path d="M4.72314 8.52826C4.72314 8.63556 4.81012 8.72254 4.91742 8.72254C5.02471 8.72254 5.11169 8.63556 5.11169 8.52826C5.11169 8.42097 5.02471 8.33398 4.91742 8.33398C4.81012 8.33398 4.72314 8.42097 4.72314 8.52826Z" fill="#1CE7C2" fill-opacity="0.4"/>
<path d="M4.72314 7.74994C4.72314 7.85724 4.81012 7.94422 4.91742 7.94422C5.02471 7.94422 5.11169 7.85724 5.11169 7.74994C5.11169 7.64265 5.02471 7.55566 4.91742 7.55566C4.81012 7.55566 4.72314 7.64265 4.72314 7.74994Z" fill="#1CE7C2" fill-opacity="0.4"/>
<path d="M4.72314 7.36127C4.72314 7.46857 4.81012 7.55555 4.91742 7.55555C5.02471 7.55555 5.11169 7.46857 5.11169 7.36127C5.11169 7.25398 5.02471 7.16699 4.91742 7.16699C4.81012 7.16699 4.72314 7.25398 4.72314 7.36127Z" fill="#1CE7C2" fill-opacity="0.4"/>
<path d="M4.72314 5.80658C4.72314 5.91388 4.81012 6.00086 4.91742 6.00086C5.02471 6.00086 5.11169 5.91388 5.11169 5.80658C5.11169 5.69929 5.02471 5.6123 4.91742 5.6123C4.81012 5.6123 4.72314 5.69929 4.72314 5.80658Z" fill="#9F9F9F" fill-opacity="0.866667"/>
<path d="M4.72314 5.41791C4.72314 5.52521 4.81012 5.61219 4.91742 5.61219C5.02471 5.61219 5.11169 5.52521 5.11169 5.41791C5.11169 5.31062 5.02471 5.22363 4.91742 5.22363C4.81012 5.22363 4.72314 5.31062 4.72314 5.41791Z" fill="#9F9F9F" fill-opacity="0.866667"/>
<path d="M4.72314 5.02729C4.72314 5.13458 4.81012 5.22157 4.91742 5.22157C5.02471 5.22157 5.11169 5.13458 5.11169 5.02729C5.11169 4.91999 5.02471 4.83301 4.91742 4.83301C4.81012 4.83301 4.72314 4.91999 4.72314 5.02729Z" fill="#9F9F9F" fill-opacity="0.7"/>
<path d="M4.72314 4.63962C4.72314 4.74691 4.81012 4.8349 4.91742 4.8349C5.02471 4.8349 5.11169 4.74691 5.11169 4.63962C5.11169 4.53232 5.02471 4.44434 4.91742 4.44434C4.81012 4.44434 4.72314 4.53232 4.72314 4.63962Z" fill="#9F9F9F" fill-opacity="0.7"/>
<path d="M4.72314 4.25092C4.72314 4.35821 4.81012 4.4452 4.91742 4.4452C5.02471 4.4452 5.11169 4.35821 5.11169 4.25092C5.11169 4.14363 5.02471 4.05664 4.91742 4.05664C4.81012 4.05664 4.72314 4.14363 4.72314 4.25092Z" fill="#9F9F9F" fill-opacity="0.9"/>
<path d="M4.72314 3.86029C4.72314 3.96759 4.81012 4.05457 4.91742 4.05457C5.02471 4.05457 5.11169 3.96759 5.11169 3.86029C5.11169 3.753 5.02471 3.66602 4.91742 3.66602C4.81012 3.66602 4.72314 3.753 4.72314 3.86029Z" fill="#9F9F9F" fill-opacity="0.9"/>
<path d="M5.11182 8.91791C5.11182 9.02521 5.1988 9.11219 5.30609 9.11219C5.41339 9.11219 5.50036 9.02521 5.50036 8.91791C5.50036 8.81062 5.41339 8.72363 5.30609 8.72363C5.1988 8.72363 5.11182 8.81062 5.11182 8.91791Z" fill="#1CE7C2" fill-opacity="0.5"/>
<path d="M5.11182 8.52826C5.11182 8.63556 5.1988 8.72254 5.30609 8.72254C5.41339 8.72254 5.50036 8.63556 5.50036 8.52826C5.50036 8.42097 5.41339 8.33398 5.30609 8.33398C5.1988 8.33398 5.11182 8.42097 5.11182 8.52826Z" fill="#1CE7C2" fill-opacity="0.4"/>
<path d="M5.11182 7.74994C5.11182 7.85724 5.1988 7.94422 5.30609 7.94422C5.41339 7.94422 5.50036 7.85724 5.50036 7.74994C5.50036 7.64265 5.41339 7.55566 5.30609 7.55566C5.1988 7.55566 5.11182 7.64265 5.11182 7.74994Z" fill="#1CE7C2" fill-opacity="0.4"/>
<path d="M5.11182 7.36127C5.11182 7.46857 5.1988 7.55555 5.30609 7.55555C5.41339 7.55555 5.50036 7.46857 5.50036 7.36127C5.50036 7.25398 5.41339 7.16699 5.30609 7.16699C5.1988 7.16699 5.11182 7.25398 5.11182 7.36127Z" fill="#1CE7C2" fill-opacity="0.4"/>
<path d="M5.11182 6.9726C5.11182 7.07989 5.1988 7.16688 5.30609 7.16688C5.41339 7.16688 5.50036 7.07989 5.50036 6.9726C5.50036 6.8653 5.41339 6.77832 5.30609 6.77832C5.1988 6.77832 5.11182 6.8653 5.11182 6.9726Z" fill="#1CE7C2" fill-opacity="0.4"/>
<path d="M5.11182 6.58393C5.11182 6.69122 5.1988 6.77821 5.30609 6.77821C5.41339 6.77821 5.50036 6.69122 5.50036 6.58393C5.50036 6.47663 5.41339 6.38965 5.30609 6.38965C5.1988 6.38965 5.11182 6.47663 5.11182 6.58393Z" fill="#9F9F9F" fill-opacity="0.4"/>
<path d="M5.11182 6.19526C5.11182 6.30255 5.1988 6.38953 5.30609 6.38953C5.41339 6.38953 5.50036 6.30255 5.50036 6.19526C5.50036 6.08796 5.41339 6.00098 5.30609 6.00098C5.1988 6.00098 5.11182 6.08796 5.11182 6.19526Z" fill="#9F9F9F" fill-opacity="0.866667"/>
<path d="M5.11133 5.80658C5.11133 5.91388 5.19831 6.00086 5.3056 6.00086C5.4129 6.00086 5.49988 5.91388 5.49988 5.80658C5.49988 5.69929 5.4129 5.6123 5.3056 5.6123C5.19831 5.6123 5.11133 5.69929 5.11133 5.80658Z" fill="#9F9F9F" fill-opacity="0.866667"/>
<path d="M5.11133 5.41791C5.11133 5.52521 5.19831 5.61219 5.3056 5.61219C5.4129 5.61219 5.49988 5.52521 5.49988 5.41791C5.49988 5.31062 5.4129 5.22363 5.3056 5.22363C5.19831 5.22363 5.11133 5.31062 5.11133 5.41791Z" fill="#9F9F9F" fill-opacity="0.7"/>
<path d="M5.11133 5.02729C5.11133 5.13458 5.19831 5.22157 5.3056 5.22157C5.4129 5.22157 5.49988 5.13458 5.49988 5.02729C5.49988 4.91999 5.4129 4.83301 5.3056 4.83301C5.19831 4.83301 5.11133 4.91999 5.11133 5.02729Z" fill="#9F9F9F" fill-opacity="0.7"/>
<path d="M5.11133 4.63962C5.11133 4.74691 5.19831 4.8349 5.3056 4.8349C5.4129 4.8349 5.49988 4.74691 5.49988 4.63962C5.49988 4.53232 5.4129 4.44434 5.3056 4.44434C5.19831 4.44434 5.11133 4.53232 5.11133 4.63962Z" fill="#9F9F9F" fill-opacity="0.7"/>
<path d="M5.11133 4.25092C5.11133 4.35821 5.19831 4.4452 5.3056 4.4452C5.4129 4.4452 5.49988 4.35821 5.49988 4.25092C5.49988 4.14363 5.4129 4.05664 5.3056 4.05664C5.19831 4.05664 5.11133 4.14363 5.11133 4.25092Z" fill="#9F9F9F" fill-opacity="0.7"/>
<path d="M5.11133 3.86029C5.11133 3.96759 5.19831 4.05457 5.3056 4.05457C5.4129 4.05457 5.49988 3.96759 5.49988 3.86029C5.49988 3.753 5.4129 3.66602 5.3056 3.66602C5.19831 3.66602 5.11133 3.753 5.11133 3.86029Z" fill="#9F9F9F" fill-opacity="0.9"/>
<path d="M5.11133 3.47162C5.11133 3.57892 5.19831 3.6659 5.3056 3.6659C5.4129 3.6659 5.49988 3.57892 5.49988 3.47162C5.49988 3.36433 5.4129 3.27734 5.3056 3.27734C5.19831 3.27734 5.11133 3.36433 5.11133 3.47162Z" fill="#9F9F9F" fill-opacity="0.9"/>
<path d="M5.5 8.91791C5.5 9.02521 5.58698 9.11219 5.69427 9.11219C5.80157 9.11219 5.88855 9.02521 5.88855 8.91791C5.88855 8.81062 5.80157 8.72363 5.69427 8.72363C5.58698 8.72363 5.5 8.81062 5.5 8.91791Z" fill="#1CE7C2" fill-opacity="0.5"/>
<path d="M5.5 8.52826C5.5 8.63556 5.58698 8.72254 5.69427 8.72254C5.80157 8.72254 5.88855 8.63556 5.88855 8.52826C5.88855 8.42097 5.80157 8.33398 5.69427 8.33398C5.58698 8.33398 5.5 8.42097 5.5 8.52826Z" fill="#1CE7C2" fill-opacity="0.4"/>
<path d="M5.5 7.74994C5.5 7.85724 5.58698 7.94422 5.69427 7.94422C5.80157 7.94422 5.88855 7.85724 5.88855 7.74994C5.88855 7.64265 5.80157 7.55566 5.69427 7.55566C5.58698 7.55566 5.5 7.64265 5.5 7.74994Z" fill="#1CE7C2" fill-opacity="0.4"/>
<path d="M5.5 7.36127C5.5 7.46857 5.58698 7.55555 5.69427 7.55555C5.80157 7.55555 5.88855 7.46857 5.88855 7.36127C5.88855 7.25398 5.80157 7.16699 5.69427 7.16699C5.58698 7.16699 5.5 7.25398 5.5 7.36127Z" fill="#1CE7C2" fill-opacity="0.4"/>
<path d="M5.5 6.9726C5.5 7.07989 5.58698 7.16688 5.69427 7.16688C5.80157 7.16688 5.88855 7.07989 5.88855 6.9726C5.88855 6.8653 5.80157 6.77832 5.69427 6.77832C5.58698 6.77832 5.5 6.8653 5.5 6.9726Z" fill="#1CE7C2" fill-opacity="0.4"/>
<path d="M5.5 6.58393C5.5 6.69122 5.58698 6.77821 5.69427 6.77821C5.80157 6.77821 5.88855 6.69122 5.88855 6.58393C5.88855 6.47663 5.80157 6.38965 5.69427 6.38965C5.58698 6.38965 5.5 6.47663 5.5 6.58393Z" fill="#9F9F9F" fill-opacity="0.866667"/>
<path d="M5.5 6.19526C5.5 6.30255 5.58698 6.38953 5.69427 6.38953C5.80157 6.38953 5.88855 6.30255 5.88855 6.19526C5.88855 6.08796 5.80157 6.00098 5.69427 6.00098C5.58698 6.00098 5.5 6.08796 5.5 6.19526Z" fill="#9F9F9F" fill-opacity="0.7"/>
<path d="M5.5 5.80658C5.5 5.91388 5.58698 6.00086 5.69427 6.00086C5.80157 6.00086 5.88855 5.91388 5.88855 5.80658C5.88855 5.69929 5.80157 5.6123 5.69427 5.6123C5.58698 5.6123 5.5 5.69929 5.5 5.80658Z" fill="#9F9F9F" fill-opacity="0.7"/>
<path d="M5.5 5.41791C5.5 5.52521 5.58698 5.61219 5.69427 5.61219C5.80157 5.61219 5.88855 5.52521 5.88855 5.41791C5.88855 5.31062 5.80157 5.22363 5.69427 5.22363C5.58698 5.22363 5.5 5.31062 5.5 5.41791Z" fill="#9F9F9F" fill-opacity="0.7"/>
<path d="M5.5 5.02729C5.5 5.13458 5.58698 5.22157 5.69427 5.22157C5.80157 5.22157 5.88855 5.13458 5.88855 5.02729C5.88855 4.91999 5.80157 4.83301 5.69427 4.83301C5.58698 4.83301 5.5 4.91999 5.5 5.02729Z" fill="#9F9F9F" fill-opacity="0.7"/>
<path d="M5.5 4.63962C5.5 4.74691 5.58698 4.8349 5.69427 4.8349C5.80157 4.8349 5.88855 4.74691 5.88855 4.63962C5.88855 4.53232 5.80157 4.44434 5.69427 4.44434C5.58698 4.44434 5.5 4.53232 5.5 4.63962Z" fill="#9F9F9F" fill-opacity="0.9"/>
<path d="M5.5 4.25092C5.5 4.35821 5.58698 4.4452 5.69427 4.4452C5.80157 4.4452 5.88855 4.35821 5.88855 4.25092C5.88855 4.14362 5.80157 4.05664 5.69427 4.05664C5.58698 4.05664 5.5 4.14362 5.5 4.25092Z" fill="#9F9F9F" fill-opacity="0.9"/>
<path d="M5.5 3.86029C5.5 3.96759 5.58698 4.05457 5.69427 4.05457C5.80157 4.05457 5.88855 3.96759 5.88855 3.86029C5.88855 3.753 5.80157 3.66602 5.69427 3.66602C5.58698 3.66602 5.5 3.753 5.5 3.86029Z" fill="#9F9F9F" fill-opacity="0.9"/>
<path d="M5.5 3.47162C5.5 3.57892 5.58698 3.6659 5.69427 3.6659C5.80157 3.6659 5.88855 3.57892 5.88855 3.47162C5.88855 3.36433 5.80157 3.27734 5.69427 3.27734C5.58698 3.27734 5.5 3.36433 5.5 3.47162Z" fill="#9F9F9F" fill-opacity="0.9"/>
<path d="M5.5 3.08295C5.5 3.19025 5.58698 3.27723 5.69427 3.27723C5.80157 3.27723 5.88855 3.19025 5.88855 3.08295C5.88855 2.97566 5.80157 2.88867 5.69427 2.88867C5.58698 2.88867 5.5 2.97566 5.5 3.08295Z" fill="#9F9F9F" fill-opacity="0.9"/>
<path d="M5.88867 8.91791C5.88867 9.02521 5.97665 9.11219 6.08395 9.11219C6.19124 9.11219 6.27922 9.02521 6.27922 8.91791C6.27922 8.81061 6.19124 8.72363 6.08395 8.72363C5.97665 8.72363 5.88867 8.81061 5.88867 8.91791Z" fill="#1CE7C2" fill-opacity="0.5"/>
<path d="M5.88867 8.52826C5.88867 8.63556 5.97665 8.72254 6.08395 8.72254C6.19124 8.72254 6.27922 8.63556 6.27922 8.52826C6.27922 8.42097 6.19124 8.33398 6.08395 8.33398C5.97665 8.33398 5.88867 8.42097 5.88867 8.52826Z" fill="#1CE7C2" fill-opacity="0.4"/>
<path d="M5.88867 7.74994C5.88867 7.85724 5.97665 7.94422 6.08395 7.94422C6.19124 7.94422 6.27922 7.85724 6.27922 7.74994C6.27922 7.64265 6.19124 7.55566 6.08395 7.55566C5.97665 7.55566 5.88867 7.64265 5.88867 7.74994Z" fill="#1CE7C2" fill-opacity="0.4"/>
<path d="M5.88867 7.36127C5.88867 7.46857 5.97665 7.55555 6.08395 7.55555C6.19124 7.55555 6.27922 7.46857 6.27922 7.36127C6.27922 7.25397 6.19124 7.16699 6.08395 7.16699C5.97665 7.16699 5.88867 7.25397 5.88867 7.36127Z" fill="#1CE7C2" fill-opacity="0.4"/>
<path d="M5.88867 5.80658C5.88867 5.91388 5.97665 6.00086 6.08395 6.00086C6.19124 6.00086 6.27922 5.91388 6.27922 5.80658C6.27922 5.69929 6.19124 5.6123 6.08395 5.6123C5.97665 5.6123 5.88867 5.69929 5.88867 5.80658Z" fill="#9F9F9F" fill-opacity="0.7"/>
<path d="M5.88867 5.41791C5.88867 5.52521 5.97665 5.61219 6.08395 5.61219C6.19124 5.61219 6.27922 5.52521 6.27922 5.41791C6.27922 5.31061 6.19124 5.22363 6.08395 5.22363C5.97665 5.22363 5.88867 5.31061 5.88867 5.41791Z" fill="#9F9F9F" fill-opacity="0.7"/>
<path d="M5.88867 5.02729C5.88867 5.13458 5.97665 5.22157 6.08395 5.22157C6.19124 5.22157 6.27922 5.13458 6.27922 5.02729C6.27922 4.91999 6.19124 4.83301 6.08395 4.83301C5.97665 4.83301 5.88867 4.91999 5.88867 5.02729Z" fill="#9F9F9F" fill-opacity="0.9"/>
<path d="M5.88867 4.63962C5.88867 4.74746 5.9761 4.8349 6.08395 4.8349C6.1918 4.8349 6.27922 4.74746 6.27922 4.63962C6.27922 4.53177 6.1918 4.44434 6.08395 4.44434C5.9761 4.44434 5.88867 4.53177 5.88867 4.63962Z" fill="#9F9F9F" fill-opacity="0.9"/>
<path d="M5.88867 4.25092C5.88867 4.35822 5.97665 4.4452 6.08395 4.4452C6.19124 4.4452 6.27922 4.35822 6.27922 4.25092C6.27922 4.14362 6.19124 4.05664 6.08395 4.05664C5.97665 4.05664 5.88867 4.14362 5.88867 4.25092Z" fill="#9F9F9F" fill-opacity="0.9"/>
<path d="M6.2793 8.91791C6.2793 9.02521 6.36628 9.11219 6.47357 9.11219C6.58087 9.11219 6.66785 9.02521 6.66785 8.91791C6.66785 8.81062 6.58087 8.72363 6.47357 8.72363C6.36628 8.72363 6.2793 8.81062 6.2793 8.91791Z" fill="#1CE7C2" fill-opacity="0.7"/>
<path d="M6.2793 8.52826C6.2793 8.63556 6.36628 8.72254 6.47357 8.72254C6.58087 8.72254 6.66785 8.63556 6.66785 8.52826C6.66785 8.42097 6.58087 8.33398 6.47357 8.33398C6.36628 8.33398 6.2793 8.42097 6.2793 8.52826Z" fill="#1CE7C2" fill-opacity="0.5"/>
<path d="M6.2793 8.13764C6.2793 8.24493 6.36628 8.33192 6.47357 8.33192C6.58087 8.33192 6.66785 8.24493 6.66785 8.13764C6.66785 8.03034 6.58087 7.94336 6.47357 7.94336C6.36628 7.94336 6.2793 8.03034 6.2793 8.13764Z" fill="#1CE7C2" fill-opacity="0.4"/>
<path d="M6.2793 7.36127C6.2793 7.46857 6.36628 7.55555 6.47357 7.55555C6.58087 7.55555 6.66785 7.46857 6.66785 7.36127C6.66785 7.25398 6.58087 7.16699 6.47357 7.16699C6.36628 7.16699 6.2793 7.25398 6.2793 7.36127Z" fill="#1CE7C2" fill-opacity="0.5"/>
<path d="M6.2793 6.9726C6.2793 7.07989 6.36628 7.16688 6.47357 7.16688C6.58087 7.16688 6.66785 7.07989 6.66785 6.9726C6.66785 6.8653 6.58087 6.77832 6.47357 6.77832C6.36628 6.77832 6.2793 6.8653 6.2793 6.9726Z" fill="#1CE7C2" fill-opacity="0.5"/>
<path d="M6.2793 6.58393C6.2793 6.69122 6.36628 6.77821 6.47357 6.77821C6.58087 6.77821 6.66785 6.69122 6.66785 6.58393C6.66785 6.47663 6.58087 6.38965 6.47357 6.38965C6.36628 6.38965 6.2793 6.47663 6.2793 6.58393Z" fill="#9F9F9F" fill-opacity="0.866667"/>
<path d="M6.2793 6.19526C6.2793 6.30255 6.36628 6.38953 6.47357 6.38953C6.58087 6.38953 6.66785 6.30255 6.66785 6.19526C6.66785 6.08796 6.58087 6.00098 6.47357 6.00098C6.36628 6.00098 6.2793 6.08796 6.2793 6.19526Z" fill="#9F9F9F" fill-opacity="0.866667"/>
<path d="M6.2793 5.80658C6.2793 5.91388 6.36628 6.00086 6.47357 6.00086C6.58087 6.00086 6.66785 5.91388 6.66785 5.80658C6.66785 5.69929 6.58087 5.6123 6.47357 5.6123C6.36628 5.6123 6.2793 5.69929 6.2793 5.80658Z" fill="#9F9F9F" fill-opacity="0.866667"/>
<path d="M6.2793 5.41791C6.2793 5.52521 6.36628 5.61219 6.47357 5.61219C6.58087 5.61219 6.66785 5.52521 6.66785 5.41791C6.66785 5.31062 6.58087 5.22363 6.47357 5.22363C6.36628 5.22363 6.2793 5.31062 6.2793 5.41791Z" fill="#9F9F9F" fill-opacity="0.7"/>
<path d="M6.2793 5.02729C6.2793 5.13458 6.36628 5.22157 6.47357 5.22157C6.58087 5.22157 6.66785 5.13458 6.66785 5.02729C6.66785 4.91999 6.58087 4.83301 6.47357 4.83301C6.36628 4.83301 6.2793 4.91999 6.2793 5.02729Z" fill="#9F9F9F" fill-opacity="0.9"/>
<path d="M6.66797 8.52826C6.66797 8.63556 6.75495 8.72254 6.86224 8.72254C6.96954 8.72254 7.05652 8.63556 7.05652 8.52826C7.05652 8.42097 6.96954 8.33398 6.86224 8.33398C6.75495 8.33398 6.66797 8.42097 6.66797 8.52826Z" fill="#1CE7C2" fill-opacity="0.7"/>
<path d="M6.66797 8.13764C6.66797 8.24493 6.75495 8.33192 6.86224 8.33192C6.96954 8.33192 7.05652 8.24493 7.05652 8.13764C7.05652 8.03034 6.96954 7.94336 6.86224 7.94336C6.75495 7.94336 6.66797 8.03034 6.66797 8.13764Z" fill="#1CE7C2" fill-opacity="0.5"/>
<path d="M6.66797 7.74994C6.66797 7.85724 6.75495 7.94422 6.86224 7.94422C6.96954 7.94422 7.05652 7.85724 7.05652 7.74994C7.05652 7.64265 6.96954 7.55566 6.86224 7.55566C6.75495 7.55566 6.66797 7.64265 6.66797 7.74994Z" fill="#1CE7C2" fill-opacity="0.5"/>
<path d="M6.66797 7.36127C6.66797 7.46857 6.75495 7.55555 6.86224 7.55555C6.96954 7.55555 7.05652 7.46857 7.05652 7.36127C7.05652 7.25398 6.96954 7.16699 6.86224 7.16699C6.75495 7.16699 6.66797 7.25398 6.66797 7.36127Z" fill="#1CE7C2" fill-opacity="0.5"/>
<path d="M6.66797 6.9726C6.66797 7.07989 6.75495 7.16688 6.86224 7.16688C6.96954 7.16688 7.05652 7.07989 7.05652 6.9726C7.05652 6.8653 6.96954 6.77832 6.86224 6.77832C6.75495 6.77832 6.66797 6.8653 6.66797 6.9726Z" fill="#1CE7C2" fill-opacity="0.7"/>
<path d="M6.66797 6.58393C6.66797 6.69122 6.75495 6.77821 6.86224 6.77821C6.96954 6.77821 7.05652 6.69122 7.05652 6.58393C7.05652 6.47663 6.96954 6.38965 6.86224 6.38965C6.75495 6.38965 6.66797 6.47663 6.66797 6.58393Z" fill="#9F9F9F" fill-opacity="0.7"/>
<path d="M6.66797 6.19526C6.66797 6.30255 6.75495 6.38953 6.86224 6.38953C6.96954 6.38953 7.05652 6.30255 7.05652 6.19526C7.05652 6.08796 6.96954 6.00098 6.86224 6.00098C6.75495 6.00098 6.66797 6.08796 6.66797 6.19526Z" fill="#9F9F9F" fill-opacity="0.7"/>
<path d="M6.66797 5.80658C6.66797 5.91388 6.75495 6.00086 6.86224 6.00086C6.96954 6.00086 7.05652 5.91388 7.05652 5.80658C7.05652 5.69929 6.96954 5.6123 6.86224 5.6123C6.75495 5.6123 6.66797 5.69929 6.66797 5.80658Z" fill="#9F9F9F" fill-opacity="0.7"/>
<path d="M6.66797 5.41791C6.66797 5.52521 6.75495 5.61219 6.86224 5.61219C6.96954 5.61219 7.05652 5.52521 7.05652 5.41791C7.05652 5.31062 6.96954 5.22363 6.86224 5.22363C6.75495 5.22363 6.66797 5.31062 6.66797 5.41791Z" fill="#9F9F9F" fill-opacity="0.7"/>
<path d="M7.05615 8.13764C7.05615 8.24493 7.14313 8.33192 7.25043 8.33192C7.35772 8.33192 7.4447 8.24493 7.4447 8.13764C7.4447 8.03034 7.35772 7.94336 7.25043 7.94336C7.14313 7.94336 7.05615 8.03034 7.05615 8.13764Z" fill="#1CE7C2" fill-opacity="0.9"/>
<path d="M7.05615 7.74994C7.05615 7.85724 7.14313 7.94422 7.25043 7.94422C7.35772 7.94422 7.4447 7.85724 7.4447 7.74994C7.4447 7.64265 7.35772 7.55566 7.25043 7.55566C7.14313 7.55566 7.05615 7.64265 7.05615 7.74994Z" fill="#1CE7C2" fill-opacity="0.7"/>
<path d="M7.05615 7.36127C7.05615 7.46857 7.14313 7.55555 7.25043 7.55555C7.35772 7.55555 7.4447 7.46857 7.4447 7.36127C7.4447 7.25398 7.35772 7.16699 7.25043 7.16699C7.14313 7.16699 7.05615 7.25398 7.05615 7.36127Z" fill="#1CE7C2" fill-opacity="0.7"/>
<path d="M7.05615 6.9726C7.05615 7.07989 7.14313 7.16688 7.25043 7.16688C7.35772 7.16688 7.4447 7.07989 7.4447 6.9726C7.4447 6.8653 7.35772 6.77832 7.25043 6.77832C7.14313 6.77832 7.05615 6.8653 7.05615 6.9726Z" fill="#1CE7C2" fill-opacity="0.7"/>
<path d="M7.05615 6.58393C7.05615 6.69122 7.14313 6.77821 7.25043 6.77821C7.35772 6.77821 7.4447 6.69122 7.4447 6.58393C7.4447 6.47663 7.35772 6.38965 7.25043 6.38965C7.14313 6.38965 7.05615 6.47663 7.05615 6.58393Z" fill="#9F9F9F" fill-opacity="0.7"/>
<path d="M7.05615 6.19526C7.05615 6.30255 7.14313 6.38953 7.25043 6.38953C7.35772 6.38953 7.4447 6.30255 7.4447 6.19526C7.4447 6.08796 7.35772 6.00098 7.25043 6.00098C7.14313 6.00098 7.05615 6.08796 7.05615 6.19526Z" fill="#9F9F9F" fill-opacity="0.7"/>
<path d="M7.05615 5.80658C7.05615 5.91388 7.14313 6.00086 7.25043 6.00086C7.35772 6.00086 7.4447 5.91388 7.4447 5.80658C7.4447 5.69929 7.35772 5.6123 7.25043 5.6123C7.14313 5.6123 7.05615 5.69929 7.05615 5.80658Z" fill="#9F9F9F" fill-opacity="0.7"/>
<path d="M7.44482 7.74994C7.44482 7.85724 7.5318 7.94422 7.6391 7.94422C7.74639 7.94422 7.83337 7.85724 7.83337 7.74994C7.83337 7.64265 7.74639 7.55566 7.6391 7.55566C7.5318 7.55566 7.44482 7.64265 7.44482 7.74994Z" fill="#1CE7C2" fill-opacity="0.9"/>
<path d="M7.44482 7.36127C7.44482 7.46857 7.5318 7.55555 7.6391 7.55555C7.74639 7.55555 7.83337 7.46857 7.83337 7.36127C7.83337 7.25398 7.74639 7.16699 7.6391 7.16699C7.5318 7.16699 7.44482 7.25398 7.44482 7.36127Z" fill="#1CE7C2" fill-opacity="0.9"/>
<path d="M7.44482 6.9726C7.44482 7.07989 7.5318 7.16688 7.6391 7.16688C7.74639 7.16688 7.83337 7.07989 7.83337 6.9726C7.83337 6.8653 7.74639 6.77832 7.6391 6.77832C7.5318 6.77832 7.44482 6.8653 7.44482 6.9726Z" fill="#1CE7C2" fill-opacity="0.9"/>
<path d="M7.44482 6.58393C7.44482 6.69122 7.5318 6.77821 7.6391 6.77821C7.74639 6.77821 7.83337 6.69122 7.83337 6.58393C7.83337 6.47663 7.74639 6.38965 7.6391 6.38965C7.5318 6.38965 7.44482 6.47663 7.44482 6.58393Z" fill="#9F9F9F" fill-opacity="0.9"/>
<path d="M7.44482 6.19526C7.44482 6.30255 7.5318 6.38953 7.6391 6.38953C7.74639 6.38953 7.83337 6.30255 7.83337 6.19526C7.83337 6.08796 7.74639 6.00098 7.6391 6.00098C7.5318 6.00098 7.44482 6.08796 7.44482 6.19526Z" fill="#9F9F9F" fill-opacity="0.9"/>
<path d="M7.44482 5.80658C7.44482 5.91388 7.5318 6.00086 7.6391 6.00086C7.74639 6.00086 7.83337 5.91388 7.83337 5.80658C7.83337 5.69929 7.74639 5.6123 7.6391 5.6123C7.5318 5.6123 7.44482 5.69929 7.44482 5.80658Z" fill="#9F9F9F" fill-opacity="0.9"/>
<path d="M2.77832 7.74994C2.77832 7.85724 2.8653 7.94422 2.97259 7.94422C3.07989 7.94422 3.16687 7.85724 3.16687 7.74994C3.16687 7.64265 3.07989 7.55566 2.97259 7.55566C2.8653 7.55566 2.77832 7.64265 2.77832 7.74994Z" fill="#1CE7C2"/>
<path d="M2.77832 7.36127C2.77832 7.46857 2.8653 7.55555 2.97259 7.55555C3.07989 7.55555 3.16687 7.46857 3.16687 7.36127C3.16687 7.25398 3.07989 7.16699 2.97259 7.16699C2.8653 7.16699 2.77832 7.25398 2.77832 7.36127Z" fill="#1CE7C2"/>
<path d="M2.77832 6.9726C2.77832 7.07989 2.8653 7.16688 2.97259 7.16688C3.07989 7.16688 3.16687 7.07989 3.16687 6.9726C3.16687 6.8653 3.07989 6.77832 2.97259 6.77832C2.8653 6.77832 2.77832 6.8653 2.77832 6.9726Z" fill="#1CE7C2"/>
<path d="M2.77832 6.58393C2.77832 6.69122 2.8653 6.77821 2.97259 6.77821C3.07989 6.77821 3.16687 6.69122 3.16687 6.58393C3.16687 6.47663 3.07989 6.38965 2.97259 6.38965C2.8653 6.38965 2.77832 6.47663 2.77832 6.58393Z" fill="#9F9F9F"/>
<path d="M2.77832 6.19526C2.77832 6.30255 2.8653 6.38953 2.97259 6.38953C3.07989 6.38953 3.16687 6.30255 3.16687 6.19526C3.16687 6.08796 3.07989 6.00098 2.97259 6.00098C2.8653 6.00098 2.77832 6.08796 2.77832 6.19526Z" fill="#9F9F9F"/>
<path d="M3.16699 8.13764C3.16699 8.24493 3.25397 8.33192 3.36127 8.33192C3.46856 8.33192 3.55554 8.24493 3.55554 8.13764C3.55554 8.03034 3.46856 7.94336 3.36127 7.94336C3.25397 7.94336 3.16699 8.03034 3.16699 8.13764Z" fill="#1CE7C2"/>
<path d="M3.16699 5.80658C3.16699 5.91388 3.25397 6.00086 3.36127 6.00086C3.46856 6.00086 3.55554 5.91388 3.55554 5.80658C3.55554 5.69929 3.46856 5.6123 3.36127 5.6123C3.25397 5.6123 3.16699 5.69929 3.16699 5.80658Z" fill="#9F9F9F"/>
<path d="M3.16699 5.41791C3.16699 5.52521 3.25397 5.61219 3.36127 5.61219C3.46856 5.61219 3.55554 5.52521 3.55554 5.41791C3.55554 5.31062 3.46856 5.22363 3.36127 5.22363C3.25397 5.22363 3.16699 5.31062 3.16699 5.41791Z" fill="#9F9F9F"/>
<path d="M3.55566 8.52826C3.55566 8.63556 3.64264 8.72254 3.74994 8.72254C3.85723 8.72254 3.94421 8.63556 3.94421 8.52826C3.94421 8.42097 3.85723 8.33398 3.74994 8.33398C3.64264 8.33398 3.55566 8.42097 3.55566 8.52826Z" fill="#1CE7C2"/>
<path d="M3.55566 5.02729C3.55566 5.13458 3.64264 5.22157 3.74994 5.22157C3.85723 5.22157 3.94421 5.13458 3.94421 5.02729C3.94421 4.91999 3.85723 4.83301 3.74994 4.83301C3.64264 4.83301 3.55566 4.91999 3.55566 5.02729Z" fill="#9F9F9F"/>
<path d="M3.55566 4.63962C3.55566 4.74691 3.64264 4.8349 3.74994 4.8349C3.85723 4.8349 3.94421 4.74691 3.94421 4.63962C3.94421 4.53232 3.85723 4.44434 3.74994 4.44434C3.64264 4.44434 3.55566 4.53232 3.55566 4.63962Z" fill="#9F9F9F"/>
<path d="M3.94385 8.91791C3.94385 9.02521 4.03083 9.11219 4.13812 9.11219C4.24542 9.11219 4.3324 9.02521 4.3324 8.91791C4.3324 8.81062 4.24542 8.72363 4.13812 8.72363C4.03083 8.72363 3.94385 8.81062 3.94385 8.91791Z" fill="#1CE7C2"/>
<path d="M3.94385 4.25092C3.94385 4.35821 4.03083 4.4452 4.13812 4.4452C4.24542 4.4452 4.3324 4.35821 4.3324 4.25092C4.3324 4.14363 4.24542 4.05664 4.13812 4.05664C4.03083 4.05664 3.94385 4.14363 3.94385 4.25092Z" fill="#9F9F9F"/>
<path d="M4.33252 9.30561C4.33252 9.4129 4.4195 9.49989 4.52679 9.49989C4.63409 9.49989 4.72107 9.4129 4.72107 9.30561C4.72107 9.19831 4.63409 9.11133 4.52679 9.11133C4.4195 9.11133 4.33252 9.19831 4.33252 9.30561Z" fill="#1CE7C2"/>
<path d="M4.33252 7.74994C4.33252 7.85724 4.4195 7.94422 4.52679 7.94422C4.63409 7.94422 4.72107 7.85724 4.72107 7.74994C4.72107 7.64265 4.63409 7.55566 4.52679 7.55566C4.4195 7.55566 4.33252 7.64265 4.33252 7.74994Z" fill="#1CE7C2" fill-opacity="0.4"/>
<path d="M4.33252 3.86029C4.33252 3.96759 4.4195 4.05457 4.52679 4.05457C4.63409 4.05457 4.72107 3.96759 4.72107 3.86029C4.72107 3.753 4.63409 3.66602 4.52679 3.66602C4.4195 3.66602 4.33252 3.753 4.33252 3.86029Z" fill="#9F9F9F"/>
<path d="M4.72314 9.30561C4.72314 9.4129 4.81012 9.49989 4.91742 9.49989C5.02471 9.49989 5.11169 9.4129 5.11169 9.30561C5.11169 9.19831 5.02471 9.11133 4.91742 9.11133C4.81012 9.11133 4.72314 9.19831 4.72314 9.30561Z" fill="#1CE7C2"/>
<path d="M4.72314 8.13764C4.72314 8.24493 4.81012 8.33192 4.91742 8.33192C5.02471 8.33192 5.11169 8.24493 5.11169 8.13764C5.11169 8.03034 5.02471 7.94336 4.91742 7.94336C4.81012 7.94336 4.72314 8.03034 4.72314 8.13764Z" fill="#1CE7C2" fill-opacity="0.4"/>
<path d="M4.72314 6.9726C4.72314 7.07989 4.81012 7.16688 4.91742 7.16688C5.02471 7.16688 5.11169 7.07989 5.11169 6.9726C5.11169 6.8653 5.02471 6.77832 4.91742 6.77832C4.81012 6.77832 4.72314 6.8653 4.72314 6.9726Z" fill="#1CE7C2" fill-opacity="0.4"/>
<path d="M4.72314 6.58393C4.72314 6.69122 4.81012 6.77821 4.91742 6.77821C5.02471 6.77821 5.11169 6.69122 5.11169 6.58393C5.11169 6.47663 5.02471 6.38965 4.91742 6.38965C4.81012 6.38965 4.72314 6.47663 4.72314 6.58393Z" fill="#9F9F9F" fill-opacity="0.866667"/>
<path d="M4.72314 6.19526C4.72314 6.30255 4.81012 6.38953 4.91742 6.38953C5.02471 6.38953 5.11169 6.30255 5.11169 6.19526C5.11169 6.08796 5.02471 6.00098 4.91742 6.00098C4.81012 6.00098 4.72314 6.08796 4.72314 6.19526Z" fill="#9F9F9F" fill-opacity="0.866667"/>
<path d="M4.72314 3.47162C4.72314 3.57892 4.81012 3.6659 4.91742 3.6659C5.02471 3.6659 5.11169 3.57892 5.11169 3.47162C5.11169 3.36433 5.02471 3.27734 4.91742 3.27734C4.81012 3.27734 4.72314 3.36433 4.72314 3.47162Z" fill="#9F9F9F"/>
<path d="M5.11182 9.30561C5.11182 9.4129 5.1988 9.49989 5.30609 9.49989C5.41339 9.49989 5.50036 9.4129 5.50036 9.30561C5.50036 9.19831 5.41339 9.11133 5.30609 9.11133C5.1988 9.11133 5.11182 9.19831 5.11182 9.30561Z" fill="#1CE7C2"/>
<path d="M5.11182 8.13764C5.11182 8.24493 5.1988 8.33192 5.30609 8.33192C5.41339 8.33192 5.50036 8.24493 5.50036 8.13764C5.50036 8.03034 5.41339 7.94336 5.30609 7.94336C5.1988 7.94336 5.11182 8.03034 5.11182 8.13764Z" fill="#1CE7C2" fill-opacity="0.4"/>
<path d="M5.11133 3.08295C5.11133 3.19025 5.19831 3.27723 5.3056 3.27723C5.4129 3.27723 5.49988 3.19025 5.49988 3.08295C5.49988 2.97566 5.4129 2.88867 5.3056 2.88867C5.19831 2.88867 5.11133 2.97566 5.11133 3.08295Z" fill="#9F9F9F"/>
<path d="M5.5 9.30561C5.5 9.4129 5.58698 9.49989 5.69427 9.49989C5.80157 9.49989 5.88855 9.4129 5.88855 9.30561C5.88855 9.19831 5.80157 9.11133 5.69427 9.11133C5.58698 9.11133 5.5 9.19831 5.5 9.30561Z" fill="#1CE7C2"/>
<path d="M5.5 8.13764C5.5 8.24493 5.58698 8.33192 5.69427 8.33192C5.80157 8.33192 5.88855 8.24493 5.88855 8.13764C5.88855 8.03034 5.80157 7.94336 5.69427 7.94336C5.58698 7.94336 5.5 8.03034 5.5 8.13764Z" fill="#1CE7C2" fill-opacity="0.4"/>
<path d="M5.5 2.69428C5.5 2.80157 5.58698 2.88856 5.69427 2.88856C5.80157 2.88856 5.88855 2.80157 5.88855 2.69428C5.88855 2.58698 5.80157 2.5 5.69427 2.5C5.58698 2.5 5.5 2.58698 5.5 2.69428Z" fill="#9F9F9F"/>
<path d="M5.88867 9.30561C5.88867 9.4129 5.97665 9.49989 6.08395 9.49989C6.19124 9.49989 6.27922 9.4129 6.27922 9.30561C6.27922 9.19831 6.19124 9.11133 6.08395 9.11133C5.97665 9.11133 5.88867 9.19831 5.88867 9.30561Z" fill="#1CE7C2"/>
<path d="M5.88867 8.13764C5.88867 8.24494 5.97665 8.33192 6.08395 8.33192C6.19124 8.33192 6.27922 8.24494 6.27922 8.13764C6.27922 8.03034 6.19124 7.94336 6.08395 7.94336C5.97665 7.94336 5.88867 8.03034 5.88867 8.13764Z" fill="#1CE7C2" fill-opacity="0.4"/>
<path d="M5.88867 6.9726C5.88867 7.0799 5.97665 7.16688 6.08395 7.16688C6.19124 7.16688 6.27922 7.0799 6.27922 6.9726C6.27922 6.8653 6.19124 6.77832 6.08395 6.77832C5.97665 6.77832 5.88867 6.8653 5.88867 6.9726Z" fill="#1CE7C2" fill-opacity="0.4"/>
<path d="M5.88867 6.58393C5.88867 6.69122 5.97665 6.77821 6.08395 6.77821C6.19124 6.77821 6.27922 6.69122 6.27922 6.58393C6.27922 6.47663 6.19124 6.38965 6.08395 6.38965C5.97665 6.38965 5.88867 6.47663 5.88867 6.58393Z" fill="#9F9F9F" fill-opacity="0.866667"/>
<path d="M5.88867 6.19526C5.88867 6.30255 5.97665 6.38953 6.08395 6.38953C6.19124 6.38953 6.27922 6.30255 6.27922 6.19526C6.27922 6.08796 6.19124 6.00098 6.08395 6.00098C5.97665 6.00098 5.88867 6.08796 5.88867 6.19526Z" fill="#9F9F9F" fill-opacity="0.866667"/>
<path d="M5.88867 3.86029C5.88867 3.96759 5.97665 4.05457 6.08395 4.05457C6.19124 4.05457 6.27922 3.96759 6.27922 3.86029C6.27922 3.753 6.19124 3.66602 6.08395 3.66602C5.97665 3.66602 5.88867 3.753 5.88867 3.86029Z" fill="#9F9F9F"/>
<path d="M5.88867 3.47162C5.88867 3.57892 5.97665 3.6659 6.08395 3.6659C6.19124 3.6659 6.27922 3.57892 6.27922 3.47162C6.27922 3.36433 6.19124 3.27734 6.08395 3.27734C5.97665 3.27734 5.88867 3.36433 5.88867 3.47162Z" fill="#9F9F9F"/>
<path d="M5.88867 3.08295C5.88867 3.19025 5.97665 3.27723 6.08395 3.27723C6.19124 3.27723 6.27922 3.19025 6.27922 3.08295C6.27922 2.97565 6.19124 2.88867 6.08395 2.88867C5.97665 2.88867 5.88867 2.97565 5.88867 3.08295Z" fill="#9F9F9F"/>
<path d="M6.2793 9.30561C6.2793 9.4129 6.36628 9.49989 6.47357 9.49989C6.58087 9.49989 6.66785 9.4129 6.66785 9.30561C6.66785 9.19831 6.58087 9.11133 6.47357 9.11133C6.36628 9.11133 6.2793 9.19831 6.2793 9.30561Z" fill="#1CE7C2"/>
<path d="M6.2793 7.74994C6.2793 7.85724 6.36628 7.94422 6.47357 7.94422C6.58087 7.94422 6.66785 7.85724 6.66785 7.74994C6.66785 7.64265 6.58087 7.55566 6.47357 7.55566C6.36628 7.55566 6.2793 7.64265 6.2793 7.74994Z" fill="#1CE7C2" fill-opacity="0.4"/>
<path d="M6.2793 4.63962C6.2793 4.74691 6.36628 4.8349 6.47357 4.8349C6.58087 4.8349 6.66785 4.74691 6.66785 4.63962C6.66785 4.53232 6.58087 4.44434 6.47357 4.44434C6.36628 4.44434 6.2793 4.53232 6.2793 4.63962Z" fill="#9F9F9F"/>
<path d="M6.2793 4.25092C6.2793 4.35821 6.36628 4.4452 6.47357 4.4452C6.58087 4.4452 6.66785 4.35821 6.66785 4.25092C6.66785 4.14363 6.58087 4.05664 6.47357 4.05664C6.36628 4.05664 6.2793 4.14363 6.2793 4.25092Z" fill="#9F9F9F"/>
<path d="M6.66797 8.91791C6.66797 9.02521 6.75495 9.11219 6.86224 9.11219C6.96954 9.11219 7.05652 9.02521 7.05652 8.91791C7.05652 8.81062 6.96954 8.72363 6.86224 8.72363C6.75495 8.72363 6.66797 8.81062 6.66797 8.91791Z" fill="#1CE7C2"/>
<path d="M7.05615 8.52826C7.05615 8.63556 7.14313 8.72254 7.25043 8.72254C7.35772 8.72254 7.4447 8.63556 7.4447 8.52826C7.4447 8.42097 7.35772 8.33398 7.25043 8.33398C7.14313 8.33398 7.05615 8.42097 7.05615 8.52826Z" fill="#1CE7C2"/>
<path d="M7.44482 8.13764C7.44482 8.24493 7.5318 8.33192 7.6391 8.33192C7.74639 8.33192 7.83337 8.24493 7.83337 8.13764C7.83337 8.03034 7.74639 7.94336 7.6391 7.94336C7.5318 7.94336 7.44482 8.03034 7.44482 8.13764Z" fill="#1CE7C2"/>
<path d="M7.44482 5.41791C7.44482 5.52521 7.5318 5.61219 7.6391 5.61219C7.74639 5.61219 7.83337 5.52521 7.83337 5.41791C7.83337 5.31062 7.74639 5.22363 7.6391 5.22363C7.5318 5.22363 7.44482 5.31062 7.44482 5.41791Z" fill="#9F9F9F"/>
<path d="M7.8335 7.74994C7.8335 7.85724 7.92048 7.94422 8.02777 7.94422C8.13506 7.94422 8.22204 7.85724 8.22204 7.74994C8.22204 7.64265 8.13506 7.55566 8.02777 7.55566C7.92048 7.55566 7.8335 7.64265 7.8335 7.74994Z" fill="#1CE7C2"/>
<path d="M7.8335 7.36127C7.8335 7.46857 7.92048 7.55555 8.02777 7.55555C8.13506 7.55555 8.22204 7.46857 8.22204 7.36127C8.22204 7.25398 8.13506 7.16699 8.02777 7.16699C7.92048 7.16699 7.8335 7.25398 7.8335 7.36127Z" fill="#1CE7C2"/>
<path d="M7.8335 6.9726C7.8335 7.07989 7.92048 7.16688 8.02777 7.16688C8.13506 7.16688 8.22204 7.07989 8.22204 6.9726C8.22204 6.8653 8.13506 6.77832 8.02777 6.77832C7.92048 6.77832 7.8335 6.8653 7.8335 6.9726Z" fill="#1CE7C2"/>
<path d="M7.8335 6.58393C7.8335 6.69122 7.92048 6.77821 8.02777 6.77821C8.13506 6.77821 8.22204 6.69122 8.22204 6.58393C8.22204 6.47663 8.13506 6.38965 8.02777 6.38965C7.92048 6.38965 7.8335 6.47663 7.8335 6.58393Z" fill="#9F9F9F"/>
<path d="M7.8335 6.19526C7.8335 6.30255 7.92048 6.38953 8.02777 6.38953C8.13506 6.38953 8.22204 6.30255 8.22204 6.19526C8.22204 6.08796 8.13506 6.00098 8.02777 6.00098C7.92048 6.00098 7.8335 6.08796 7.8335 6.19526Z" fill="#9F9F9F"/>
<path d="M7.8335 5.80658C7.8335 5.91388 7.92048 6.00086 8.02777 6.00086C8.13506 6.00086 8.22204 5.91388 8.22204 5.80658C8.22204 5.69929 8.13506 5.6123 8.02777 5.6123C7.92048 5.6123 7.8335 5.69929 7.8335 5.80658Z" fill="#9F9F9F"/>
</svg>
