<svg width="69" height="88" viewBox="0 0 69 88" fill="none" xmlns="http://www.w3.org/2000/svg">
<path d="M5.729 65.777C5.729 67.1185 6.8165 68.206 8.158 68.206C9.4995 68.206 10.587 67.1185 10.587 65.777C10.587 64.4355 9.4995 63.348 8.158 63.348C6.8165 63.348 5.729 64.4355 5.729 65.777Z" fill="#1CE7C2" fill-opacity="0.9"/>
<path d="M5.729 60.919C5.729 62.2605 6.8165 63.348 8.158 63.348C9.4995 63.348 10.587 62.2605 10.587 60.919C10.587 59.5775 9.4995 58.49 8.158 58.49C6.8165 58.49 5.729 59.5775 5.729 60.919Z" fill="#1CE7C2" fill-opacity="0.9"/>
<path d="M5.729 56.061C5.729 57.4024 6.8165 58.4899 8.158 58.4899C9.4995 58.4899 10.587 57.4024 10.587 56.061C10.587 54.7195 9.4995 53.632 8.158 53.632C6.8165 53.632 5.729 54.7195 5.729 56.061Z" fill="#1CE7C2" fill-opacity="0.9"/>
<path d="M5.729 51.203C5.729 52.5445 6.8165 53.632 8.158 53.632C9.4995 53.632 10.587 52.5445 10.587 51.203C10.587 49.8615 9.4995 48.774 8.158 48.774C6.8165 48.774 5.729 49.8615 5.729 51.203Z" fill="#1CE7C2" fill-opacity="0.9"/>
<path d="M5.729 46.3449C5.729 47.6864 6.8165 48.7739 8.158 48.7739C9.4995 48.7739 10.587 47.6864 10.587 46.3449C10.587 45.0034 9.4995 43.9159 8.158 43.9159C6.8165 43.9159 5.729 45.0034 5.729 46.3449Z" fill="#1CE7C2" fill-opacity="0.9"/>
<path d="M10.5874 70.6349C10.5874 71.9764 11.6749 73.0639 13.0164 73.0639C14.3579 73.0639 15.4454 71.9764 15.4454 70.6349C15.4454 69.2934 14.3579 68.2059 13.0164 68.2059C11.6749 68.2059 10.5874 69.2934 10.5874 70.6349Z" fill="#1CE7C2" fill-opacity="0.9"/>
<path d="M10.5874 65.777C10.5874 67.1185 11.6749 68.206 13.0164 68.206C14.3579 68.206 15.4454 67.1185 15.4454 65.777C15.4454 64.4355 14.3579 63.348 13.0164 63.348C11.6749 63.348 10.5874 64.4355 10.5874 65.777Z" fill="#1CE7C2" fill-opacity="0.7"/>
<path d="M10.5874 60.919C10.5874 62.2605 11.6749 63.348 13.0164 63.348C14.3579 63.348 15.4454 62.2605 15.4454 60.919C15.4454 59.5775 14.3579 58.49 13.0164 58.49C11.6749 58.49 10.5874 59.5775 10.5874 60.919Z" fill="#1CE7C2" fill-opacity="0.7"/>
<path d="M10.5874 56.061C10.5874 57.4024 11.6749 58.4899 13.0164 58.4899C14.3579 58.4899 15.4454 57.4024 15.4454 56.061C15.4454 54.7195 14.3579 53.632 13.0164 53.632C11.6749 53.632 10.5874 54.7195 10.5874 56.061Z" fill="#1CE7C2" fill-opacity="0.7"/>
<path d="M10.5874 51.203C10.5874 52.5445 11.6749 53.632 13.0164 53.632C14.3579 53.632 15.4454 52.5445 15.4454 51.203C15.4454 49.8615 14.3579 48.774 13.0164 48.774C11.6749 48.774 10.5874 49.8615 10.5874 51.203Z" fill="#1CE7C2" fill-opacity="0.7"/>
<path d="M10.5874 46.3449C10.5874 47.6864 11.6749 48.7739 13.0164 48.7739C14.3579 48.7739 15.4454 47.6864 15.4454 46.3449C15.4454 45.0034 14.3579 43.9159 13.0164 43.9159C11.6749 43.9159 10.5874 45.0034 10.5874 46.3449Z" fill="#1CE7C2" fill-opacity="0.9"/>
<path d="M10.5874 41.487C10.5874 42.8285 11.6749 43.916 13.0164 43.916C14.3579 43.916 15.4454 42.8285 15.4454 41.487C15.4454 40.1455 14.3579 39.058 13.0164 39.058C11.6749 39.058 10.5874 40.1455 10.5874 41.487Z" fill="#1CE7C2" fill-opacity="0.9"/>
<path d="M10.5874 36.6289C10.5874 37.9704 11.6749 39.0579 13.0164 39.0579C14.3579 39.0579 15.4454 37.9704 15.4454 36.6289C15.4454 35.2874 14.3579 34.1999 13.0164 34.1999C11.6749 34.1999 10.5874 35.2874 10.5874 36.6289Z" fill="#1CE7C2" fill-opacity="0.9"/>
<path d="M15.4451 75.518C15.4451 76.8595 16.5326 77.947 17.8741 77.947C19.2156 77.947 20.3031 76.8595 20.3031 75.518C20.3031 74.1765 19.2156 73.089 17.8741 73.089C16.5326 73.089 15.4451 74.1765 15.4451 75.518Z" fill="#1CE7C2" fill-opacity="0.7"/>
<path d="M15.4451 70.6349C15.4451 71.9764 16.5326 73.0639 17.8741 73.0639C19.2156 73.0639 20.3031 71.9764 20.3031 70.6349C20.3031 69.2934 19.2156 68.2059 17.8741 68.2059C16.5326 68.2059 15.4451 69.2934 15.4451 70.6349Z" fill="#1CE7C2" fill-opacity="0.5"/>
<path d="M15.4451 65.777C15.4451 67.1185 16.5326 68.206 17.8741 68.206C19.2156 68.206 20.3031 67.1185 20.3031 65.777C20.3031 64.4355 19.2156 63.348 17.8741 63.348C16.5326 63.348 15.4451 64.4355 15.4451 65.777Z" fill="#1CE7C2" fill-opacity="0.5"/>
<path d="M15.4451 60.919C15.4451 62.2605 16.5326 63.348 17.8741 63.348C19.2156 63.348 20.3031 62.2605 20.3031 60.919C20.3031 59.5775 19.2156 58.49 17.8741 58.49C16.5326 58.49 15.4451 59.5775 15.4451 60.919Z" fill="#1CE7C2" fill-opacity="0.5"/>
<path d="M15.4451 56.061C15.4451 57.4024 16.5326 58.4899 17.8741 58.4899C19.2156 58.4899 20.3031 57.4024 20.3031 56.061C20.3031 54.7195 19.2156 53.632 17.8741 53.632C16.5326 53.632 15.4451 54.7195 15.4451 56.061Z" fill="#1CE7C2" fill-opacity="0.7"/>
<path d="M15.4451 51.203C15.4451 52.5445 16.5326 53.632 17.8741 53.632C19.2156 53.632 20.3031 52.5445 20.3031 51.203C20.3031 49.8615 19.2156 48.774 17.8741 48.774C16.5326 48.774 15.4451 49.8615 15.4451 51.203Z" fill="#1CE7C2" fill-opacity="0.7"/>
<path d="M15.4451 46.3449C15.4451 47.6864 16.5326 48.7739 17.8741 48.7739C19.2156 48.7739 20.3031 47.6864 20.3031 46.3449C20.3031 45.0034 19.2156 43.9159 17.8741 43.9159C16.5326 43.9159 15.4451 45.0034 15.4451 46.3449Z" fill="#1CE7C2" fill-opacity="0.7"/>
<path d="M15.4451 41.487C15.4451 42.8285 16.5326 43.916 17.8741 43.916C19.2156 43.916 20.3031 42.8285 20.3031 41.487C20.3031 40.1455 19.2156 39.058 17.8741 39.058C16.5326 39.058 15.4451 40.1455 15.4451 41.487Z" fill="#1CE7C2" fill-opacity="0.7"/>
<path d="M15.4451 36.6289C15.4451 37.9704 16.5326 39.0579 17.8741 39.0579C19.2156 39.0579 20.3031 37.9704 20.3031 36.6289C20.3031 35.2874 19.2156 34.1999 17.8741 34.1999C16.5326 34.1999 15.4451 35.2874 15.4451 36.6289Z" fill="#1CE7C2" fill-opacity="0.9"/>
<path d="M15.4451 31.7459C15.4451 33.0874 16.5326 34.1749 17.8741 34.1749C19.2156 34.1749 20.3031 33.0874 20.3031 31.7459C20.3031 30.4044 19.2156 29.3169 17.8741 29.3169C16.5326 29.3169 15.4451 30.4044 15.4451 31.7459Z" fill="#1CE7C2" fill-opacity="0.9"/>
<path d="M15.4451 26.9005C15.4451 28.242 16.5326 29.342 17.8741 29.342C19.2156 29.342 20.3031 28.242 20.3031 26.9005C20.3031 25.559 19.2156 24.459 17.8741 24.459C16.5326 24.459 15.4451 25.559 15.4451 26.9005Z" fill="#1CE7C2" fill-opacity="0.9"/>
<path d="M20.3032 80.3761C20.3032 81.7176 21.3907 82.8051 22.7322 82.8051C24.0737 82.8051 25.1612 81.7176 25.1612 80.3761C25.1612 79.0346 24.0737 77.9471 22.7322 77.9471C21.3907 77.9471 20.3032 79.0346 20.3032 80.3761Z" fill="#1CE7C2" fill-opacity="0.7"/>
<path d="M20.3032 75.518C20.3032 76.8595 21.3907 77.947 22.7322 77.947C24.0737 77.947 25.1612 76.8595 25.1612 75.518C25.1612 74.1765 24.0737 73.089 22.7322 73.089C21.3907 73.089 20.3032 74.1765 20.3032 75.518Z" fill="#1CE7C2" fill-opacity="0.5"/>
<path d="M20.3032 70.6349C20.3032 71.9764 21.3907 73.0639 22.7322 73.0639C24.0737 73.0639 25.1612 71.9764 25.1612 70.6349C25.1612 69.2934 24.0737 68.2059 22.7322 68.2059C21.3907 68.2059 20.3032 69.2934 20.3032 70.6349Z" fill="#1CE7C2" fill-opacity="0.4"/>
<path d="M20.3032 60.919C20.3032 62.2605 21.3907 63.348 22.7322 63.348C24.0737 63.348 25.1612 62.2605 25.1612 60.919C25.1612 59.5775 24.0737 58.49 22.7322 58.49C21.3907 58.49 20.3032 59.5775 20.3032 60.919Z" fill="#1CE7C2" fill-opacity="0.4"/>
<path d="M20.3032 56.061C20.3032 57.4024 21.3907 58.4899 22.7322 58.4899C24.0737 58.4899 25.1612 57.4024 25.1612 56.061C25.1612 54.7195 24.0737 53.632 22.7322 53.632C21.3907 53.632 20.3032 54.7195 20.3032 56.061Z" fill="#1CE7C2" fill-opacity="0.5"/>
<path d="M20.3032 51.203C20.3032 52.5445 21.3907 53.632 22.7322 53.632C24.0737 53.632 25.1612 52.5445 25.1612 51.203C25.1612 49.8615 24.0737 48.774 22.7322 48.774C21.3907 48.774 20.3032 49.8615 20.3032 51.203Z" fill="#1CE7C2" fill-opacity="0.5"/>
<path d="M20.3032 46.3449C20.3032 47.6864 21.3907 48.7739 22.7322 48.7739C24.0737 48.7739 25.1612 47.6864 25.1612 46.3449C25.1612 45.0034 24.0737 43.9159 22.7322 43.9159C21.3907 43.9159 20.3032 45.0034 20.3032 46.3449Z" fill="#1CE7C2" fill-opacity="0.5"/>
<path d="M20.3032 41.487C20.3032 42.8285 21.3907 43.916 22.7322 43.916C24.0737 43.916 25.1612 42.8285 25.1612 41.487C25.1612 40.1455 24.0737 39.058 22.7322 39.058C21.3907 39.058 20.3032 40.1455 20.3032 41.487Z" fill="#1CE7C2" fill-opacity="0.7"/>
<path d="M20.3032 36.6289C20.3032 37.9704 21.3907 39.0579 22.7322 39.0579C24.0737 39.0579 25.1612 37.9704 25.1612 36.6289C25.1612 35.2874 24.0737 34.1999 22.7322 34.1999C21.3907 34.1999 20.3032 35.2874 20.3032 36.6289Z" fill="#1CE7C2" fill-opacity="0.7"/>
<path d="M20.3032 31.7459C20.3032 33.0874 21.3907 34.1749 22.7322 34.1749C24.0737 34.1749 25.1612 33.0874 25.1612 31.7459C25.1612 30.4044 24.0737 29.3169 22.7322 29.3169C21.3907 29.3169 20.3032 30.4044 20.3032 31.7459Z" fill="#1CE7C2" fill-opacity="0.7"/>
<path d="M20.3032 26.9005C20.3032 28.242 21.3907 29.342 22.7322 29.342C24.0737 29.342 25.1612 28.242 25.1612 26.9005C25.1612 25.559 24.0737 24.459 22.7322 24.459C21.3907 24.459 20.3032 25.559 20.3032 26.9005Z" fill="#1CE7C2" fill-opacity="0.9"/>
<path d="M20.3032 22.0299C20.3032 23.3714 21.3907 24.4589 22.7322 24.4589C24.0737 24.4589 25.1612 23.3714 25.1612 22.0299C25.1612 20.6884 24.0737 19.6009 22.7322 19.6009C21.3907 19.6009 20.3032 20.6884 20.3032 22.0299Z" fill="#1CE7C2" fill-opacity="0.9"/>
<path d="M25.1863 80.3761C25.1863 81.7176 26.2738 82.8051 27.6153 82.8051C28.9568 82.8051 30.0443 81.7176 30.0443 80.3761C30.0443 79.0346 28.9568 77.9471 27.6153 77.9471C26.2738 77.9471 25.1863 79.0346 25.1863 80.3761Z" fill="#1CE7C2" fill-opacity="0.5"/>
<path d="M25.1863 75.518C25.1863 76.8595 26.2738 77.947 27.6153 77.947C28.9568 77.947 30.0443 76.8595 30.0443 75.518C30.0443 74.1765 28.9568 73.089 27.6153 73.089C26.2738 73.089 25.1863 74.1765 25.1863 75.518Z" fill="#1CE7C2" fill-opacity="0.4"/>
<path d="M25.1863 65.777C25.1863 67.1185 26.2738 68.206 27.6153 68.206C28.9568 68.206 30.0443 67.1185 30.0443 65.777C30.0443 64.4355 28.9568 63.348 27.6153 63.348C26.2738 63.348 25.1863 64.4355 25.1863 65.777Z" fill="#1CE7C2" fill-opacity="0.4"/>
<path d="M25.1863 60.919C25.1863 62.2605 26.2738 63.348 27.6153 63.348C28.9568 63.348 30.0443 62.2605 30.0443 60.919C30.0443 59.5775 28.9568 58.49 27.6153 58.49C26.2738 58.49 25.1863 59.5775 25.1863 60.919Z" fill="#1CE7C2" fill-opacity="0.4"/>
<path d="M25.1863 41.487C25.1863 42.8285 26.2738 43.916 27.6153 43.916C28.9568 43.916 30.0443 42.8285 30.0443 41.487C30.0443 40.1455 28.9568 39.058 27.6153 39.058C26.2738 39.058 25.1863 40.1455 25.1863 41.487Z" fill="#1CE7C2" fill-opacity="0.5"/>
<path d="M25.1863 36.6289C25.1863 37.9704 26.2738 39.0579 27.6153 39.0579C28.9568 39.0579 30.0443 37.9704 30.0443 36.6289C30.0443 35.2874 28.9568 34.1999 27.6153 34.1999C26.2738 34.1999 25.1863 35.2874 25.1863 36.6289Z" fill="#1CE7C2" fill-opacity="0.5"/>
<path d="M25.1863 31.7459C25.1863 33.0874 26.2738 34.1749 27.6153 34.1749C28.9568 34.1749 30.0443 33.0874 30.0443 31.7459C30.0443 30.4044 28.9568 29.3169 27.6153 29.3169C26.2738 29.3169 25.1863 30.4044 25.1863 31.7459Z" fill="#1CE7C2" fill-opacity="0.7"/>
<path d="M25.1863 26.9005C25.1863 28.242 26.2738 29.342 27.6153 29.342C28.9568 29.342 30.0443 28.242 30.0443 26.9005C30.0443 25.559 28.9568 24.459 27.6153 24.459C26.2738 24.459 25.1863 25.559 25.1863 26.9005Z" fill="#1CE7C2" fill-opacity="0.7"/>
<path d="M25.1863 22.0299C25.1863 23.3714 26.2738 24.4589 27.6153 24.4589C28.9568 24.4589 30.0443 23.3714 30.0443 22.0299C30.0443 20.6884 28.9568 19.6009 27.6153 19.6009C26.2738 19.6009 25.1863 20.6884 25.1863 22.0299Z" fill="#1CE7C2" fill-opacity="0.9"/>
<path d="M25.1863 17.1469C25.1863 18.4884 26.2738 19.5759 27.6153 19.5759C28.9568 19.5759 30.0443 18.4884 30.0443 17.1469C30.0443 15.8054 28.9568 14.7179 27.6153 14.7179C26.2738 14.7179 25.1863 15.8054 25.1863 17.1469Z" fill="#1CE7C2" fill-opacity="0.9"/>
<path d="M30.0442 80.3761C30.0442 81.7176 31.1317 82.8051 32.4732 82.8051C33.8147 82.8051 34.9022 81.7176 34.9022 80.3761C34.9022 79.0346 33.8147 77.9471 32.4732 77.9471C31.1317 77.9471 30.0442 79.0346 30.0442 80.3761Z" fill="#1CE7C2" fill-opacity="0.5"/>
<path d="M30.0442 75.518C30.0442 76.8595 31.1317 77.947 32.4732 77.947C33.8147 77.947 34.9022 76.8595 34.9022 75.518C34.9022 74.1765 33.8147 73.089 32.4732 73.089C31.1317 73.089 30.0442 74.1765 30.0442 75.518Z" fill="#1CE7C2" fill-opacity="0.4"/>
<path d="M30.0442 65.777C30.0442 67.1185 31.1317 68.206 32.4732 68.206C33.8147 68.206 34.9022 67.1185 34.9022 65.777C34.9022 64.4355 33.8147 63.348 32.4732 63.348C31.1317 63.348 30.0442 64.4355 30.0442 65.777Z" fill="#1CE7C2" fill-opacity="0.4"/>
<path d="M30.0442 60.919C30.0442 62.2605 31.1317 63.348 32.4732 63.348C33.8147 63.348 34.9022 62.2605 34.9022 60.919C34.9022 59.5775 33.8147 58.49 32.4732 58.49C31.1317 58.49 30.0442 59.5775 30.0442 60.919Z" fill="#1CE7C2" fill-opacity="0.4"/>
<path d="M30.0442 56.061C30.0442 57.4024 31.1317 58.4899 32.4732 58.4899C33.8147 58.4899 34.9022 57.4024 34.9022 56.061C34.9022 54.7195 33.8147 53.632 32.4732 53.632C31.1317 53.632 30.0442 54.7195 30.0442 56.061Z" fill="#1CE7C2" fill-opacity="0.4"/>
<path d="M30.0442 51.203C30.0442 52.5445 31.1317 53.632 32.4732 53.632C33.8147 53.632 34.9022 52.5445 34.9022 51.203C34.9022 49.8615 33.8147 48.774 32.4732 48.774C31.1317 48.774 30.0442 49.8615 30.0442 51.203Z" fill="#1CE7C2" fill-opacity="0.4"/>
<path d="M30.0442 46.3449C30.0442 47.6864 31.1317 48.7739 32.4732 48.7739C33.8147 48.7739 34.9022 47.6864 34.9022 46.3449C34.9022 45.0034 33.8147 43.9159 32.4732 43.9159C31.1317 43.9159 30.0442 45.0034 30.0442 46.3449Z" fill="#1CE7C2" fill-opacity="0.5"/>
<path d="M30.0442 41.487C30.0442 42.8285 31.1317 43.916 32.4732 43.916C33.8147 43.916 34.9022 42.8285 34.9022 41.487C34.9022 40.1455 33.8147 39.058 32.4732 39.058C31.1317 39.058 30.0442 40.1455 30.0442 41.487Z" fill="#1CE7C2" fill-opacity="0.5"/>
<path d="M30.0442 36.6289C30.0442 37.9704 31.1317 39.0579 32.4732 39.0579C33.8147 39.0579 34.9022 37.9704 34.9022 36.6289C34.9022 35.2874 33.8147 34.1999 32.4732 34.1999C31.1317 34.1999 30.0442 35.2874 30.0442 36.6289Z" fill="#1CE7C2" fill-opacity="0.7"/>
<path d="M30.0442 31.7459C30.0442 33.0874 31.1317 34.1749 32.4732 34.1749C33.8147 34.1749 34.9022 33.0874 34.9022 31.7459C34.9022 30.4044 33.8147 29.3169 32.4732 29.3169C31.1317 29.3169 30.0442 30.4044 30.0442 31.7459Z" fill="#1CE7C2" fill-opacity="0.7"/>
<path d="M30.0442 26.9005C30.0442 28.242 31.1317 29.342 32.4732 29.342C33.8147 29.342 34.9022 28.242 34.9022 26.9005C34.9022 25.559 33.8147 24.459 32.4732 24.459C31.1317 24.459 30.0442 25.559 30.0442 26.9005Z" fill="#1CE7C2" fill-opacity="0.7"/>
<path d="M30.0442 22.0299C30.0442 23.3714 31.1317 24.4589 32.4732 24.4589C33.8147 24.4589 34.9022 23.3714 34.9022 22.0299C34.9022 20.6884 33.8147 19.6009 32.4732 19.6009C31.1317 19.6009 30.0442 20.6884 30.0442 22.0299Z" fill="#1CE7C2" fill-opacity="0.7"/>
<path d="M30.0442 17.1469C30.0442 18.4884 31.1317 19.5759 32.4732 19.5759C33.8147 19.5759 34.9022 18.4884 34.9022 17.1469C34.9022 15.8054 33.8147 14.7179 32.4732 14.7179C31.1317 14.7179 30.0442 15.8054 30.0442 17.1469Z" fill="#1CE7C2" fill-opacity="0.9"/>
<path d="M30.0442 12.2889C30.0442 13.6304 31.1317 14.7179 32.4732 14.7179C33.8147 14.7179 34.9022 13.6304 34.9022 12.2889C34.9022 10.9474 33.8147 9.85988 32.4732 9.85988C31.1317 9.85988 30.0442 10.9474 30.0442 12.2889Z" fill="#1CE7C2" fill-opacity="0.9"/>
<path d="M34.9023 80.3761C34.9023 81.7176 35.9898 82.8051 37.3313 82.8051C38.6728 82.8051 39.7603 81.7176 39.7603 80.3761C39.7603 79.0346 38.6728 77.9471 37.3313 77.9471C35.9898 77.9471 34.9023 79.0346 34.9023 80.3761Z" fill="#1CE7C2" fill-opacity="0.5"/>
<path d="M34.9023 75.518C34.9023 76.8595 35.9898 77.947 37.3313 77.947C38.6728 77.947 39.7603 76.8595 39.7603 75.518C39.7603 74.1765 38.6728 73.089 37.3313 73.089C35.9898 73.089 34.9023 74.1765 34.9023 75.518Z" fill="#1CE7C2" fill-opacity="0.4"/>
<path d="M34.9023 65.777C34.9023 67.1185 35.9898 68.206 37.3313 68.206C38.6728 68.206 39.7603 67.1185 39.7603 65.777C39.7603 64.4355 38.6728 63.348 37.3313 63.348C35.9898 63.348 34.9023 64.4355 34.9023 65.777Z" fill="#1CE7C2" fill-opacity="0.4"/>
<path d="M34.9023 60.919C34.9023 62.2605 35.9898 63.348 37.3313 63.348C38.6728 63.348 39.7603 62.2605 39.7603 60.919C39.7603 59.5775 38.6728 58.49 37.3313 58.49C35.9898 58.49 34.9023 59.5775 34.9023 60.919Z" fill="#1CE7C2" fill-opacity="0.4"/>
<path d="M34.9023 56.061C34.9023 57.4025 35.9898 58.49 37.3313 58.49C38.6728 58.49 39.7603 57.4025 39.7603 56.061C39.7603 54.7195 38.6728 53.632 37.3313 53.632C35.9898 53.632 34.9023 54.7195 34.9023 56.061Z" fill="#1CE7C2" fill-opacity="0.4"/>
<path d="M34.9023 51.203C34.9023 52.5445 35.9898 53.632 37.3313 53.632C38.6728 53.632 39.7603 52.5445 39.7603 51.203C39.7603 49.8615 38.6728 48.774 37.3313 48.774C35.9898 48.774 34.9023 49.8615 34.9023 51.203Z" fill="#1CE7C2" fill-opacity="0.5"/>
<path d="M34.9023 46.3449C34.9023 47.6864 35.9898 48.7739 37.3313 48.7739C38.6728 48.7739 39.7603 47.6864 39.7603 46.3449C39.7603 45.0034 38.6728 43.9159 37.3313 43.9159C35.9898 43.9159 34.9023 45.0034 34.9023 46.3449Z" fill="#1CE7C2" fill-opacity="0.7"/>
<path d="M34.9023 41.487C34.9023 42.8285 35.9898 43.916 37.3313 43.916C38.6728 43.916 39.7603 42.8285 39.7603 41.487C39.7603 40.1455 38.6728 39.058 37.3313 39.058C35.9898 39.058 34.9023 40.1455 34.9023 41.487Z" fill="#1CE7C2" fill-opacity="0.7"/>
<path d="M34.9023 36.629C34.9023 37.9704 35.9898 39.0579 37.3313 39.0579C38.6728 39.0579 39.7603 37.9704 39.7603 36.629C39.7603 35.2875 38.6728 34.2 37.3313 34.2C35.9898 34.2 34.9023 35.2875 34.9023 36.629Z" fill="#1CE7C2" fill-opacity="0.7"/>
<path d="M34.9023 31.7459C34.9023 33.0874 35.9898 34.1749 37.3313 34.1749C38.6728 34.1749 39.7603 33.0874 39.7603 31.7459C39.7603 30.4044 38.6728 29.3169 37.3313 29.3169C35.9898 29.3169 34.9023 30.4044 34.9023 31.7459Z" fill="#1CE7C2" fill-opacity="0.7"/>
<path d="M34.9023 26.9005C34.9023 28.242 35.9898 29.342 37.3313 29.342C38.6728 29.342 39.7603 28.242 39.7603 26.9005C39.7603 25.559 38.6728 24.459 37.3313 24.459C35.9898 24.459 34.9023 25.559 34.9023 26.9005Z" fill="#1CE7C2" fill-opacity="0.9"/>
<path d="M34.9023 22.03C34.9023 23.3714 35.9898 24.4589 37.3313 24.4589C38.6728 24.4589 39.7603 23.3714 39.7603 22.03C39.7603 20.6885 38.6728 19.601 37.3313 19.601C35.9898 19.601 34.9023 20.6885 34.9023 22.03Z" fill="#1CE7C2" fill-opacity="0.9"/>
<path d="M34.9023 17.1469C34.9023 18.4884 35.9898 19.5759 37.3313 19.5759C38.6728 19.5759 39.7603 18.4884 39.7603 17.1469C39.7603 15.8054 38.6728 14.7179 37.3313 14.7179C35.9898 14.7179 34.9023 15.8054 34.9023 17.1469Z" fill="#1CE7C2" fill-opacity="0.9"/>
<path d="M34.9023 12.2889C34.9023 13.6304 35.9898 14.7179 37.3313 14.7179C38.6728 14.7179 39.7603 13.6304 39.7603 12.2889C39.7603 10.9474 38.6728 9.85986 37.3313 9.85986C35.9898 9.85986 34.9023 10.9474 34.9023 12.2889Z" fill="#1CE7C2" fill-opacity="0.9"/>
<path d="M34.9023 7.43095C34.9023 8.77245 35.9898 9.85995 37.3313 9.85995C38.6728 9.85995 39.7603 8.77245 39.7603 7.43095C39.7603 6.08945 38.6728 5.00195 37.3313 5.00195C35.9898 5.00195 34.9023 6.08945 34.9023 7.43095Z" fill="#1CE7C2" fill-opacity="0.9"/>
<path d="M39.7603 80.3761C39.7603 81.7176 40.8603 82.8051 42.2018 82.8051C43.5433 82.8051 44.6433 81.7176 44.6433 80.3761C44.6433 79.0346 43.5433 77.9471 42.2018 77.9471C40.8603 77.9471 39.7603 79.0346 39.7603 80.3761Z" fill="#1CE7C2" fill-opacity="0.5"/>
<path d="M39.7603 75.518C39.7603 76.8595 40.8603 77.947 42.2018 77.947C43.5433 77.947 44.6433 76.8595 44.6433 75.518C44.6433 74.1765 43.5433 73.089 42.2018 73.089C40.8603 73.089 39.7603 74.1765 39.7603 75.518Z" fill="#1CE7C2" fill-opacity="0.4"/>
<path d="M39.7603 65.777C39.7603 67.1185 40.8603 68.206 42.2018 68.206C43.5433 68.206 44.6433 67.1185 44.6433 65.777C44.6433 64.4355 43.5433 63.348 42.2018 63.348C40.8603 63.348 39.7603 64.4355 39.7603 65.777Z" fill="#1CE7C2" fill-opacity="0.4"/>
<path d="M39.7603 60.919C39.7603 62.2605 40.8603 63.348 42.2018 63.348C43.5433 63.348 44.6433 62.2605 44.6433 60.919C44.6433 59.5775 43.5433 58.49 42.2018 58.49C40.8603 58.49 39.7603 59.5775 39.7603 60.919Z" fill="#1CE7C2" fill-opacity="0.4"/>
<path d="M39.7603 41.487C39.7603 42.8285 40.8603 43.916 42.2018 43.916C43.5433 43.916 44.6433 42.8285 44.6433 41.487C44.6433 40.1455 43.5433 39.058 42.2018 39.058C40.8603 39.058 39.7603 40.1455 39.7603 41.487Z" fill="#1CE7C2" fill-opacity="0.7"/>
<path d="M39.7603 36.6289C39.7603 37.9704 40.8603 39.0579 42.2018 39.0579C43.5433 39.0579 44.6433 37.9704 44.6433 36.6289C44.6433 35.2874 43.5433 34.1999 42.2018 34.1999C40.8603 34.1999 39.7603 35.2874 39.7603 36.6289Z" fill="#1CE7C2" fill-opacity="0.7"/>
<path d="M39.7603 31.7459C39.7603 33.0874 40.8603 34.1749 42.2018 34.1749C43.5433 34.1749 44.6433 33.0874 44.6433 31.7459C44.6433 30.4044 43.5433 29.3169 42.2018 29.3169C40.8603 29.3169 39.7603 30.4044 39.7603 31.7459Z" fill="#1CE7C2" fill-opacity="0.9"/>
<path d="M39.7603 26.9005C39.7603 28.2489 40.8534 29.342 42.2018 29.342C43.5502 29.342 44.6433 28.2489 44.6433 26.9005C44.6433 25.5521 43.5502 24.459 42.2018 24.459C40.8534 24.459 39.7603 25.5521 39.7603 26.9005Z" fill="#1CE7C2" fill-opacity="0.9"/>
<path d="M39.7603 22.0299C39.7603 23.3714 40.8603 24.4589 42.2018 24.4589C43.5433 24.4589 44.6433 23.3714 44.6433 22.0299C44.6433 20.6884 43.5433 19.6009 42.2018 19.6009C40.8603 19.6009 39.7603 20.6884 39.7603 22.0299Z" fill="#1CE7C2" fill-opacity="0.9"/>
<path d="M44.6431 80.3761C44.6431 81.7176 45.7306 82.8051 47.0721 82.8051C48.4136 82.8051 49.5011 81.7176 49.5011 80.3761C49.5011 79.0346 48.4136 77.9471 47.0721 77.9471C45.7306 77.9471 44.6431 79.0346 44.6431 80.3761Z" fill="#1CE7C2" fill-opacity="0.7"/>
<path d="M44.6431 75.518C44.6431 76.8595 45.7306 77.947 47.0721 77.947C48.4136 77.947 49.5011 76.8595 49.5011 75.518C49.5011 74.1765 48.4136 73.089 47.0721 73.089C45.7306 73.089 44.6431 74.1765 44.6431 75.518Z" fill="#1CE7C2" fill-opacity="0.5"/>
<path d="M44.6431 70.6349C44.6431 71.9764 45.7306 73.0639 47.0721 73.0639C48.4136 73.0639 49.5011 71.9764 49.5011 70.6349C49.5011 69.2934 48.4136 68.2059 47.0721 68.2059C45.7306 68.2059 44.6431 69.2934 44.6431 70.6349Z" fill="#1CE7C2" fill-opacity="0.4"/>
<path d="M44.6431 60.919C44.6431 62.2605 45.7306 63.348 47.0721 63.348C48.4136 63.348 49.5011 62.2605 49.5011 60.919C49.5011 59.5775 48.4136 58.49 47.0721 58.49C45.7306 58.49 44.6431 59.5775 44.6431 60.919Z" fill="#1CE7C2" fill-opacity="0.5"/>
<path d="M44.6431 56.061C44.6431 57.4024 45.7306 58.4899 47.0721 58.4899C48.4136 58.4899 49.5011 57.4024 49.5011 56.061C49.5011 54.7195 48.4136 53.632 47.0721 53.632C45.7306 53.632 44.6431 54.7195 44.6431 56.061Z" fill="#1CE7C2" fill-opacity="0.5"/>
<path d="M44.6431 51.203C44.6431 52.5445 45.7306 53.632 47.0721 53.632C48.4136 53.632 49.5011 52.5445 49.5011 51.203C49.5011 49.8615 48.4136 48.774 47.0721 48.774C45.7306 48.774 44.6431 49.8615 44.6431 51.203Z" fill="#1CE7C2" fill-opacity="0.5"/>
<path d="M44.6431 46.3449C44.6431 47.6864 45.7306 48.7739 47.0721 48.7739C48.4136 48.7739 49.5011 47.6864 49.5011 46.3449C49.5011 45.0034 48.4136 43.9159 47.0721 43.9159C45.7306 43.9159 44.6431 45.0034 44.6431 46.3449Z" fill="#1CE7C2" fill-opacity="0.5"/>
<path d="M44.6431 41.487C44.6431 42.8285 45.7306 43.916 47.0721 43.916C48.4136 43.916 49.5011 42.8285 49.5011 41.487C49.5011 40.1455 48.4136 39.058 47.0721 39.058C45.7306 39.058 44.6431 40.1455 44.6431 41.487Z" fill="#1CE7C2" fill-opacity="0.5"/>
<path d="M44.6431 36.6289C44.6431 37.9704 45.7306 39.0579 47.0721 39.0579C48.4136 39.0579 49.5011 37.9704 49.5011 36.6289C49.5011 35.2874 48.4136 34.1999 47.0721 34.1999C45.7306 34.1999 44.6431 35.2874 44.6431 36.6289Z" fill="#1CE7C2" fill-opacity="0.7"/>
<path d="M44.6431 31.7459C44.6431 33.0874 45.7306 34.1749 47.0721 34.1749C48.4136 34.1749 49.5011 33.0874 49.5011 31.7459C49.5011 30.4044 48.4136 29.3169 47.0721 29.3169C45.7306 29.3169 44.6431 30.4044 44.6431 31.7459Z" fill="#1CE7C2" fill-opacity="0.9"/>
<path d="M49.5015 75.518C49.5015 76.8595 50.589 77.947 51.9305 77.947C53.272 77.947 54.3595 76.8595 54.3595 75.518C54.3595 74.1765 53.272 73.089 51.9305 73.089C50.589 73.089 49.5015 74.1765 49.5015 75.518Z" fill="#1CE7C2" fill-opacity="0.7"/>
<path d="M49.5015 70.6349C49.5015 71.9764 50.589 73.0639 51.9305 73.0639C53.272 73.0639 54.3595 71.9764 54.3595 70.6349C54.3595 69.2934 53.272 68.2059 51.9305 68.2059C50.589 68.2059 49.5015 69.2934 49.5015 70.6349Z" fill="#1CE7C2" fill-opacity="0.5"/>
<path d="M49.5015 65.777C49.5015 67.1185 50.589 68.206 51.9305 68.206C53.272 68.206 54.3595 67.1185 54.3595 65.777C54.3595 64.4355 53.272 63.348 51.9305 63.348C50.589 63.348 49.5015 64.4355 49.5015 65.777Z" fill="#1CE7C2" fill-opacity="0.5"/>
<path d="M49.5015 60.919C49.5015 62.2605 50.589 63.348 51.9305 63.348C53.272 63.348 54.3595 62.2605 54.3595 60.919C54.3595 59.5775 53.272 58.49 51.9305 58.49C50.589 58.49 49.5015 59.5775 49.5015 60.919Z" fill="#1CE7C2" fill-opacity="0.5"/>
<path d="M49.5015 56.061C49.5015 57.4024 50.589 58.4899 51.9305 58.4899C53.272 58.4899 54.3595 57.4024 54.3595 56.061C54.3595 54.7195 53.272 53.632 51.9305 53.632C50.589 53.632 49.5015 54.7195 49.5015 56.061Z" fill="#1CE7C2" fill-opacity="0.7"/>
<path d="M49.5015 51.203C49.5015 52.5445 50.589 53.632 51.9305 53.632C53.272 53.632 54.3595 52.5445 54.3595 51.203C54.3595 49.8615 53.272 48.774 51.9305 48.774C50.589 48.774 49.5015 49.8615 49.5015 51.203Z" fill="#1CE7C2" fill-opacity="0.7"/>
<path d="M49.5015 46.3449C49.5015 47.6864 50.589 48.7739 51.9305 48.7739C53.272 48.7739 54.3595 47.6864 54.3595 46.3449C54.3595 45.0034 53.272 43.9159 51.9305 43.9159C50.589 43.9159 49.5015 45.0034 49.5015 46.3449Z" fill="#1CE7C2" fill-opacity="0.7"/>
<path d="M49.5015 41.487C49.5015 42.8285 50.589 43.916 51.9305 43.916C53.272 43.916 54.3595 42.8285 54.3595 41.487C54.3595 40.1455 53.272 39.058 51.9305 39.058C50.589 39.058 49.5015 40.1455 49.5015 41.487Z" fill="#1CE7C2" fill-opacity="0.7"/>
<path d="M49.5015 36.6289C49.5015 37.9704 50.589 39.0579 51.9305 39.0579C53.272 39.0579 54.3595 37.9704 54.3595 36.6289C54.3595 35.2874 53.272 34.1999 51.9305 34.1999C50.589 34.1999 49.5015 35.2874 49.5015 36.6289Z" fill="#1CE7C2" fill-opacity="0.7"/>
<path d="M54.3594 70.6349C54.3594 71.9764 55.4469 73.0639 56.7884 73.0639C58.1299 73.0639 59.2174 71.9764 59.2174 70.6349C59.2174 69.2934 58.1299 68.2059 56.7884 68.2059C55.4469 68.2059 54.3594 69.2934 54.3594 70.6349Z" fill="#1CE7C2" fill-opacity="0.9"/>
<path d="M54.3594 65.777C54.3594 67.1185 55.4469 68.206 56.7884 68.206C58.1299 68.206 59.2174 67.1185 59.2174 65.777C59.2174 64.4355 58.1299 63.348 56.7884 63.348C55.4469 63.348 54.3594 64.4355 54.3594 65.777Z" fill="#1CE7C2" fill-opacity="0.7"/>
<path d="M54.3594 60.919C54.3594 62.2605 55.4469 63.348 56.7884 63.348C58.1299 63.348 59.2174 62.2605 59.2174 60.919C59.2174 59.5775 58.1299 58.49 56.7884 58.49C55.4469 58.49 54.3594 59.5775 54.3594 60.919Z" fill="#1CE7C2" fill-opacity="0.7"/>
<path d="M54.3594 56.061C54.3594 57.4024 55.4469 58.4899 56.7884 58.4899C58.1299 58.4899 59.2174 57.4024 59.2174 56.061C59.2174 54.7195 58.1299 53.632 56.7884 53.632C55.4469 53.632 54.3594 54.7195 54.3594 56.061Z" fill="#1CE7C2" fill-opacity="0.7"/>
<path d="M54.3594 51.203C54.3594 52.5445 55.4469 53.632 56.7884 53.632C58.1299 53.632 59.2174 52.5445 59.2174 51.203C59.2174 49.8615 58.1299 48.774 56.7884 48.774C55.4469 48.774 54.3594 49.8615 54.3594 51.203Z" fill="#1CE7C2" fill-opacity="0.7"/>
<path d="M54.3594 46.3449C54.3594 47.6864 55.4469 48.7739 56.7884 48.7739C58.1299 48.7739 59.2174 47.6864 59.2174 46.3449C59.2174 45.0034 58.1299 43.9159 56.7884 43.9159C55.4469 43.9159 54.3594 45.0034 54.3594 46.3449Z" fill="#1CE7C2" fill-opacity="0.7"/>
<path d="M54.3594 41.487C54.3594 42.8285 55.4469 43.916 56.7884 43.916C58.1299 43.916 59.2174 42.8285 59.2174 41.487C59.2174 40.1455 58.1299 39.058 56.7884 39.058C55.4469 39.058 54.3594 40.1455 54.3594 41.487Z" fill="#1CE7C2" fill-opacity="0.7"/>
<path d="M59.217 65.777C59.217 67.1185 60.3045 68.206 61.646 68.206C62.9875 68.206 64.075 67.1185 64.075 65.777C64.075 64.4355 62.9875 63.348 61.646 63.348C60.3045 63.348 59.217 64.4355 59.217 65.777Z" fill="#1CE7C2" fill-opacity="0.9"/>
<path d="M59.217 60.919C59.217 62.2605 60.3045 63.348 61.646 63.348C62.9875 63.348 64.075 62.2605 64.075 60.919C64.075 59.5775 62.9875 58.49 61.646 58.49C60.3045 58.49 59.217 59.5775 59.217 60.919Z" fill="#1CE7C2" fill-opacity="0.9"/>
<path d="M59.217 56.061C59.217 57.4024 60.3045 58.4899 61.646 58.4899C62.9875 58.4899 64.075 57.4024 64.075 56.061C64.075 54.7195 62.9875 53.632 61.646 53.632C60.3045 53.632 59.217 54.7195 59.217 56.061Z" fill="#1CE7C2" fill-opacity="0.9"/>
<path d="M59.217 51.203C59.217 52.5445 60.3045 53.632 61.646 53.632C62.9875 53.632 64.075 52.5445 64.075 51.203C64.075 49.8615 62.9875 48.774 61.646 48.774C60.3045 48.774 59.217 49.8615 59.217 51.203Z" fill="#1CE7C2" fill-opacity="0.9"/>
<path d="M59.217 46.3449C59.217 47.6864 60.3045 48.7739 61.646 48.7739C62.9875 48.7739 64.075 47.6864 64.075 46.3449C64.075 45.0034 62.9875 43.9159 61.646 43.9159C60.3045 43.9159 59.217 45.0034 59.217 46.3449Z" fill="#1CE7C2" fill-opacity="0.9"/>
<path d="M59.217 41.487C59.217 42.8285 60.3045 43.916 61.646 43.916C62.9875 43.916 64.075 42.8285 64.075 41.487C64.075 40.1455 62.9875 39.058 61.646 39.058C60.3045 39.058 59.217 40.1455 59.217 41.487Z" fill="#1CE7C2" fill-opacity="0.9"/>
<path d="M0.871338 65.777C0.871338 67.1185 1.95884 68.206 3.30034 68.206C4.64183 68.206 5.72933 67.1185 5.72933 65.777C5.72933 64.4355 4.64183 63.348 3.30034 63.348C1.95884 63.348 0.871338 64.4355 0.871338 65.777Z" fill="#1CE7C2"/>
<path d="M0.871338 60.919C0.871338 62.2605 1.95884 63.348 3.30034 63.348C4.64183 63.348 5.72933 62.2605 5.72933 60.919C5.72933 59.5775 4.64183 58.49 3.30034 58.49C1.95884 58.49 0.871338 59.5775 0.871338 60.919Z" fill="#1CE7C2"/>
<path d="M0.871338 56.061C0.871338 57.4024 1.95884 58.4899 3.30034 58.4899C4.64183 58.4899 5.72933 57.4024 5.72933 56.061C5.72933 54.7195 4.64183 53.632 3.30034 53.632C1.95884 53.632 0.871338 54.7195 0.871338 56.061Z" fill="#1CE7C2"/>
<path d="M0.871338 51.203C0.871338 52.5445 1.95884 53.632 3.30034 53.632C4.64183 53.632 5.72933 52.5445 5.72933 51.203C5.72933 49.8615 4.64183 48.774 3.30034 48.774C1.95884 48.774 0.871338 49.8615 0.871338 51.203Z" fill="#1CE7C2"/>
<path d="M0.871338 46.3449C0.871338 47.6864 1.95884 48.7739 3.30034 48.7739C4.64183 48.7739 5.72933 47.6864 5.72933 46.3449C5.72933 45.0034 4.64183 43.9159 3.30034 43.9159C1.95884 43.9159 0.871338 45.0034 0.871338 46.3449Z" fill="#1CE7C2"/>
<path d="M5.729 70.6349C5.729 71.9764 6.8165 73.0639 8.158 73.0639C9.4995 73.0639 10.587 71.9764 10.587 70.6349C10.587 69.2934 9.4995 68.2059 8.158 68.2059C6.8165 68.2059 5.729 69.2934 5.729 70.6349Z" fill="#1CE7C2"/>
<path d="M5.729 41.487C5.729 42.8285 6.8165 43.916 8.158 43.916C9.4995 43.916 10.587 42.8285 10.587 41.487C10.587 40.1455 9.4995 39.058 8.158 39.058C6.8165 39.058 5.729 40.1455 5.729 41.487Z" fill="#1CE7C2"/>
<path d="M5.729 36.6289C5.729 37.9704 6.8165 39.0579 8.158 39.0579C9.4995 39.0579 10.587 37.9704 10.587 36.6289C10.587 35.2874 9.4995 34.1999 8.158 34.1999C6.8165 34.1999 5.729 35.2874 5.729 36.6289Z" fill="#1CE7C2"/>
<path d="M10.5874 75.518C10.5874 76.8595 11.6749 77.947 13.0164 77.947C14.3579 77.947 15.4454 76.8595 15.4454 75.518C15.4454 74.1765 14.3579 73.089 13.0164 73.089C11.6749 73.089 10.5874 74.1765 10.5874 75.518Z" fill="#1CE7C2"/>
<path d="M10.5874 31.7459C10.5874 33.0874 11.6749 34.1749 13.0164 34.1749C14.3579 34.1749 15.4454 33.0874 15.4454 31.7459C15.4454 30.4044 14.3579 29.3169 13.0164 29.3169C11.6749 29.3169 10.5874 30.4044 10.5874 31.7459Z" fill="#1CE7C2"/>
<path d="M10.5874 26.9005C10.5874 28.242 11.6749 29.342 13.0164 29.342C14.3579 29.342 15.4454 28.242 15.4454 26.9005C15.4454 25.559 14.3579 24.459 13.0164 24.459C11.6749 24.459 10.5874 25.559 10.5874 26.9005Z" fill="#1CE7C2"/>
<path d="M15.4451 80.3761C15.4451 81.7176 16.5326 82.8051 17.8741 82.8051C19.2156 82.8051 20.3031 81.7176 20.3031 80.3761C20.3031 79.0346 19.2156 77.9471 17.8741 77.9471C16.5326 77.9471 15.4451 79.0346 15.4451 80.3761Z" fill="#1CE7C2"/>
<path d="M15.4451 22.0299C15.4451 23.3714 16.5326 24.4589 17.8741 24.4589C19.2156 24.4589 20.3031 23.3714 20.3031 22.0299C20.3031 20.6884 19.2156 19.6009 17.8741 19.6009C16.5326 19.6009 15.4451 20.6884 15.4451 22.0299Z" fill="#1CE7C2"/>
<path d="M20.3032 85.234C20.3032 86.5755 21.3907 87.663 22.7322 87.663C24.0737 87.663 25.1612 86.5755 25.1612 85.234C25.1612 83.8925 24.0737 82.805 22.7322 82.805C21.3907 82.805 20.3032 83.8925 20.3032 85.234Z" fill="#1CE7C2"/>
<path d="M20.3032 65.777C20.3032 67.1185 21.3907 68.206 22.7322 68.206C24.0737 68.206 25.1612 67.1185 25.1612 65.777C25.1612 64.4355 24.0737 63.348 22.7322 63.348C21.3907 63.348 20.3032 64.4355 20.3032 65.777Z" fill="#1CE7C2" fill-opacity="0.4"/>
<path d="M20.3032 17.1469C20.3032 18.4884 21.3907 19.5759 22.7322 19.5759C24.0737 19.5759 25.1612 18.4884 25.1612 17.1469C25.1612 15.8054 24.0737 14.7179 22.7322 14.7179C21.3907 14.7179 20.3032 15.8054 20.3032 17.1469Z" fill="#1CE7C2"/>
<path d="M25.1863 85.234C25.1863 86.5755 26.2738 87.663 27.6153 87.663C28.9568 87.663 30.0443 86.5755 30.0443 85.234C30.0443 83.8925 28.9568 82.805 27.6153 82.805C26.2738 82.805 25.1863 83.8925 25.1863 85.234Z" fill="#1CE7C2"/>
<path d="M25.1863 70.6349C25.1863 71.9764 26.2738 73.0639 27.6153 73.0639C28.9568 73.0639 30.0443 71.9764 30.0443 70.6349C30.0443 69.2934 28.9568 68.2059 27.6153 68.2059C26.2738 68.2059 25.1863 69.2934 25.1863 70.6349Z" fill="#1CE7C2" fill-opacity="0.4"/>
<path d="M25.1863 56.061C25.1863 57.4024 26.2738 58.4899 27.6153 58.4899C28.9568 58.4899 30.0443 57.4024 30.0443 56.061C30.0443 54.7195 28.9568 53.632 27.6153 53.632C26.2738 53.632 25.1863 54.7195 25.1863 56.061Z" fill="#1CE7C2" fill-opacity="0.4"/>
<path d="M25.1863 51.203C25.1863 52.5445 26.2738 53.632 27.6153 53.632C28.9568 53.632 30.0443 52.5445 30.0443 51.203C30.0443 49.8615 28.9568 48.774 27.6153 48.774C26.2738 48.774 25.1863 49.8615 25.1863 51.203Z" fill="#1CE7C2" fill-opacity="0.5"/>
<path d="M25.1863 46.3449C25.1863 47.6864 26.2738 48.7739 27.6153 48.7739C28.9568 48.7739 30.0443 47.6864 30.0443 46.3449C30.0443 45.0034 28.9568 43.9159 27.6153 43.9159C26.2738 43.9159 25.1863 45.0034 25.1863 46.3449Z" fill="#1CE7C2" fill-opacity="0.5"/>
<path d="M25.1863 12.2889C25.1863 13.6304 26.2738 14.7179 27.6153 14.7179C28.9568 14.7179 30.0443 13.6304 30.0443 12.2889C30.0443 10.9474 28.9568 9.85988 27.6153 9.85988C26.2738 9.85988 25.1863 10.9474 25.1863 12.2889Z" fill="#1CE7C2"/>
<path d="M30.0442 85.234C30.0442 86.5755 31.1317 87.663 32.4732 87.663C33.8147 87.663 34.9022 86.5755 34.9022 85.234C34.9022 83.8925 33.8147 82.805 32.4732 82.805C31.1317 82.805 30.0442 83.8925 30.0442 85.234Z" fill="#1CE7C2"/>
<path d="M30.0442 70.6349C30.0442 71.9764 31.1317 73.0639 32.4732 73.0639C33.8147 73.0639 34.9022 71.9764 34.9022 70.6349C34.9022 69.2934 33.8147 68.2059 32.4732 68.2059C31.1317 68.2059 30.0442 69.2934 30.0442 70.6349Z" fill="#1CE7C2" fill-opacity="0.4"/>
<path d="M30.0442 7.43096C30.0442 8.77246 31.1317 9.85996 32.4732 9.85996C33.8147 9.85996 34.9022 8.77246 34.9022 7.43096C34.9022 6.08946 33.8147 5.00196 32.4732 5.00196C31.1317 5.00196 30.0442 6.08946 30.0442 7.43096Z" fill="#1CE7C2"/>
<path d="M34.9023 85.2341C34.9023 86.5755 35.9898 87.663 37.3313 87.663C38.6728 87.663 39.7603 86.5755 39.7603 85.2341C39.7603 83.8926 38.6728 82.8051 37.3313 82.8051C35.9898 82.8051 34.9023 83.8926 34.9023 85.2341Z" fill="#1CE7C2"/>
<path d="M34.9023 70.6349C34.9023 71.9764 35.9898 73.0639 37.3313 73.0639C38.6728 73.0639 39.7603 71.9764 39.7603 70.6349C39.7603 69.2934 38.6728 68.2059 37.3313 68.2059C35.9898 68.2059 34.9023 69.2934 34.9023 70.6349Z" fill="#1CE7C2" fill-opacity="0.4"/>
<path d="M34.9023 2.57292C34.9023 3.91442 35.9898 5.00192 37.3313 5.00192C38.6728 5.00192 39.7603 3.91442 39.7603 2.57292C39.7603 1.23142 38.6728 0.143921 37.3313 0.143921C35.9898 0.143921 34.9023 1.23142 34.9023 2.57292Z" fill="#1CE7C2"/>
<path d="M39.7603 85.234C39.7603 86.5755 40.8603 87.663 42.2018 87.663C43.5433 87.663 44.6433 86.5755 44.6433 85.234C44.6433 83.8925 43.5433 82.805 42.2018 82.805C40.8603 82.805 39.7603 83.8925 39.7603 85.234Z" fill="#1CE7C2"/>
<path d="M39.7603 70.6349C39.7603 71.9764 40.8603 73.0639 42.2018 73.0639C43.5433 73.0639 44.6433 71.9764 44.6433 70.6349C44.6433 69.2934 43.5433 68.2059 42.2018 68.2059C40.8603 68.2059 39.7603 69.2934 39.7603 70.6349Z" fill="#1CE7C2" fill-opacity="0.4"/>
<path d="M39.7603 56.061C39.7603 57.4024 40.8603 58.4899 42.2018 58.4899C43.5433 58.4899 44.6433 57.4024 44.6433 56.061C44.6433 54.7195 43.5433 53.632 42.2018 53.632C40.8603 53.632 39.7603 54.7195 39.7603 56.061Z" fill="#1CE7C2" fill-opacity="0.4"/>
<path d="M39.7603 51.203C39.7603 52.5445 40.8603 53.632 42.2018 53.632C43.5433 53.632 44.6433 52.5445 44.6433 51.203C44.6433 49.8615 43.5433 48.774 42.2018 48.774C40.8603 48.774 39.7603 49.8615 39.7603 51.203Z" fill="#1CE7C2" fill-opacity="0.5"/>
<path d="M39.7603 46.3449C39.7603 47.6864 40.8603 48.7739 42.2018 48.7739C43.5433 48.7739 44.6433 47.6864 44.6433 46.3449C44.6433 45.0034 43.5433 43.9159 42.2018 43.9159C40.8603 43.9159 39.7603 45.0034 39.7603 46.3449Z" fill="#1CE7C2" fill-opacity="0.5"/>
<path d="M39.7603 17.1469C39.7603 18.4884 40.8603 19.5759 42.2018 19.5759C43.5433 19.5759 44.6433 18.4884 44.6433 17.1469C44.6433 15.8054 43.5433 14.7179 42.2018 14.7179C40.8603 14.7179 39.7603 15.8054 39.7603 17.1469Z" fill="#1CE7C2"/>
<path d="M39.7603 12.2889C39.7603 13.6304 40.8603 14.7179 42.2018 14.7179C43.5433 14.7179 44.6433 13.6304 44.6433 12.2889C44.6433 10.9474 43.5433 9.85988 42.2018 9.85988C40.8603 9.85988 39.7603 10.9474 39.7603 12.2889Z" fill="#1CE7C2"/>
<path d="M39.7603 7.43096C39.7603 8.77246 40.8603 9.85996 42.2018 9.85996C43.5433 9.85996 44.6433 8.77246 44.6433 7.43096C44.6433 6.08946 43.5433 5.00196 42.2018 5.00196C40.8603 5.00196 39.7603 6.08946 39.7603 7.43096Z" fill="#1CE7C2"/>
<path d="M44.6431 85.234C44.6431 86.5755 45.7306 87.663 47.0721 87.663C48.4136 87.663 49.5011 86.5755 49.5011 85.234C49.5011 83.8925 48.4136 82.805 47.0721 82.805C45.7306 82.805 44.6431 83.8925 44.6431 85.234Z" fill="#1CE7C2"/>
<path d="M44.6431 65.777C44.6431 67.1185 45.7306 68.206 47.0721 68.206C48.4136 68.206 49.5011 67.1185 49.5011 65.777C49.5011 64.4355 48.4136 63.348 47.0721 63.348C45.7306 63.348 44.6431 64.4355 44.6431 65.777Z" fill="#1CE7C2" fill-opacity="0.4"/>
<path d="M44.6431 26.9005C44.6431 28.242 45.7306 29.342 47.0721 29.342C48.4136 29.342 49.5011 28.242 49.5011 26.9005C49.5011 25.559 48.4136 24.459 47.0721 24.459C45.7306 24.459 44.6431 25.559 44.6431 26.9005Z" fill="#1CE7C2"/>
<path d="M44.6431 22.0299C44.6431 23.3714 45.7306 24.4589 47.0721 24.4589C48.4136 24.4589 49.5011 23.3714 49.5011 22.0299C49.5011 20.6884 48.4136 19.6009 47.0721 19.6009C45.7306 19.6009 44.6431 20.6884 44.6431 22.0299Z" fill="#1CE7C2"/>
<path d="M49.5015 80.3761C49.5015 81.7176 50.589 82.8051 51.9305 82.8051C53.272 82.8051 54.3595 81.7176 54.3595 80.3761C54.3595 79.0346 53.272 77.9471 51.9305 77.9471C50.589 77.9471 49.5015 79.0346 49.5015 80.3761Z" fill="#1CE7C2"/>
<path d="M54.3594 75.518C54.3594 76.8595 55.4469 77.947 56.7884 77.947C58.1299 77.947 59.2174 76.8595 59.2174 75.518C59.2174 74.1765 58.1299 73.089 56.7884 73.089C55.4469 73.089 54.3594 74.1765 54.3594 75.518Z" fill="#1CE7C2"/>
<path d="M59.217 70.6349C59.217 71.9764 60.3045 73.0639 61.646 73.0639C62.9875 73.0639 64.075 71.9764 64.075 70.6349C64.075 69.2934 62.9875 68.2059 61.646 68.2059C60.3045 68.2059 59.217 69.2934 59.217 70.6349Z" fill="#1CE7C2"/>
<path d="M59.217 36.6289C59.217 37.9704 60.3045 39.0579 61.646 39.0579C62.9875 39.0579 64.075 37.9704 64.075 36.6289C64.075 35.2874 62.9875 34.1999 61.646 34.1999C60.3045 34.1999 59.217 35.2874 59.217 36.6289Z" fill="#1CE7C2"/>
<path d="M64.0754 65.777C64.0754 67.1185 65.1629 68.206 66.5044 68.206C67.8459 68.206 68.9334 67.1185 68.9334 65.777C68.9334 64.4355 67.8459 63.348 66.5044 63.348C65.1629 63.348 64.0754 64.4355 64.0754 65.777Z" fill="#1CE7C2"/>
<path d="M64.0754 60.919C64.0754 62.2605 65.1629 63.348 66.5044 63.348C67.8459 63.348 68.9334 62.2605 68.9334 60.919C68.9334 59.5775 67.8459 58.49 66.5044 58.49C65.1629 58.49 64.0754 59.5775 64.0754 60.919Z" fill="#1CE7C2"/>
<path d="M64.0754 56.061C64.0754 57.4024 65.1629 58.4899 66.5044 58.4899C67.8459 58.4899 68.9334 57.4024 68.9334 56.061C68.9334 54.7195 67.8459 53.632 66.5044 53.632C65.1629 53.632 64.0754 54.7195 64.0754 56.061Z" fill="#1CE7C2"/>
<path d="M64.0754 51.203C64.0754 52.5445 65.1629 53.632 66.5044 53.632C67.8459 53.632 68.9334 52.5445 68.9334 51.203C68.9334 49.8615 67.8459 48.774 66.5044 48.774C65.1629 48.774 64.0754 49.8615 64.0754 51.203Z" fill="#1CE7C2"/>
<path d="M64.0754 46.3449C64.0754 47.6864 65.1629 48.7739 66.5044 48.7739C67.8459 48.7739 68.9334 47.6864 68.9334 46.3449C68.9334 45.0034 67.8459 43.9159 66.5044 43.9159C65.1629 43.9159 64.0754 45.0034 64.0754 46.3449Z" fill="#1CE7C2"/>
<path d="M64.0754 41.487C64.0754 42.8285 65.1629 43.916 66.5044 43.916C67.8459 43.916 68.9334 42.8285 68.9334 41.487C68.9334 40.1455 67.8459 39.058 66.5044 39.058C65.1629 39.058 64.0754 40.1455 64.0754 41.487Z" fill="#1CE7C2"/>
</svg>
