<svg width="44" height="24" viewBox="0 0 44 24" fill="none" xmlns="http://www.w3.org/2000/svg">
<rect x="0.5" y="0.5" width="23" height="23" rx="11.5" fill="black" fill-opacity="0.95"/>
<rect x="0.5" y="0.5" width="23" height="23" rx="11.5" stroke="#E0E0E0"/>
<path d="M7 15.7491C7 15.979 7.18638 16.1654 7.4163 16.1654C7.64622 16.1654 7.8326 15.979 7.8326 15.7491C7.8326 15.5191 7.64622 15.3328 7.4163 15.3328C7.18638 15.3328 7 15.5191 7 15.7491Z" fill="#1CE7C2" fill-opacity="0.9"/>
<path d="M7 14.9164C7 15.1463 7.18638 15.3327 7.4163 15.3327C7.64622 15.3327 7.8326 15.1463 7.8326 14.9164C7.8326 14.6865 7.64622 14.5001 7.4163 14.5001C7.18638 14.5001 7 14.6865 7 14.9164Z" fill="#1CE7C2" fill-opacity="0.9"/>
<path d="M7 14.0837C7 14.3136 7.18638 14.5 7.4163 14.5C7.64622 14.5 7.8326 14.3136 7.8326 14.0837C7.8326 13.8537 7.64622 13.6674 7.4163 13.6674C7.18638 13.6674 7 13.8537 7 14.0837Z" fill="#1CE7C2" fill-opacity="0.9"/>
<path d="M7 13.2511C7 13.4811 7.18638 13.6674 7.4163 13.6674C7.64622 13.6674 7.8326 13.4811 7.8326 13.2511C7.8326 13.0212 7.64622 12.8348 7.4163 12.8348C7.18638 12.8348 7 13.0212 7 13.2511Z" fill="#1CE7C2" fill-opacity="0.9"/>
<path d="M7 12.4184C7 12.6483 7.18638 12.8347 7.4163 12.8347C7.64622 12.8347 7.8326 12.6483 7.8326 12.4184C7.8326 12.1885 7.64622 12.0021 7.4163 12.0021C7.18638 12.0021 7 12.1885 7 12.4184Z" fill="#1CE7C2" fill-opacity="0.9"/>
<path d="M7.83264 16.5813C7.83264 16.8113 8.01903 16.9976 8.24894 16.9976C8.47886 16.9976 8.66524 16.8113 8.66524 16.5813C8.66524 16.3514 8.47886 16.165 8.24894 16.165C8.01903 16.165 7.83264 16.3514 7.83264 16.5813Z" fill="#1CE7C2" fill-opacity="0.9"/>
<path d="M7.83264 15.7491C7.83264 15.979 8.01903 16.1654 8.24894 16.1654C8.47886 16.1654 8.66524 15.979 8.66524 15.7491C8.66524 15.5191 8.47886 15.3328 8.24894 15.3328C8.01903 15.3328 7.83264 15.5191 7.83264 15.7491Z" fill="#1CE7C2" fill-opacity="0.7"/>
<path d="M7.83264 14.9164C7.83264 15.1463 8.01903 15.3327 8.24894 15.3327C8.47886 15.3327 8.66524 15.1463 8.66524 14.9164C8.66524 14.6865 8.47886 14.5001 8.24894 14.5001C8.01903 14.5001 7.83264 14.6865 7.83264 14.9164Z" fill="#1CE7C2" fill-opacity="0.7"/>
<path d="M7.83264 14.0837C7.83264 14.3136 8.01903 14.5 8.24894 14.5C8.47886 14.5 8.66524 14.3136 8.66524 14.0837C8.66524 13.8537 8.47886 13.6674 8.24894 13.6674C8.01903 13.6674 7.83264 13.8537 7.83264 14.0837Z" fill="#1CE7C2" fill-opacity="0.7"/>
<path d="M7.83264 13.2511C7.83264 13.4811 8.01903 13.6674 8.24894 13.6674C8.47886 13.6674 8.66524 13.4811 8.66524 13.2511C8.66524 13.0212 8.47886 12.8348 8.24894 12.8348C8.01903 12.8348 7.83264 13.0212 7.83264 13.2511Z" fill="#1CE7C2" fill-opacity="0.7"/>
<path d="M7.83264 12.4184C7.83264 12.6483 8.01903 12.8347 8.24894 12.8347C8.47886 12.8347 8.66524 12.6483 8.66524 12.4184C8.66524 12.1885 8.47886 12.0021 8.24894 12.0021C8.01903 12.0021 7.83264 12.1885 7.83264 12.4184Z" fill="#1CE7C2" fill-opacity="0.9"/>
<path d="M7.83264 11.5857C7.83264 11.8157 8.01903 12.002 8.24894 12.002C8.47886 12.002 8.66524 11.8157 8.66524 11.5857C8.66524 11.3558 8.47886 11.1694 8.24894 11.1694C8.01903 11.1694 7.83264 11.3558 7.83264 11.5857Z" fill="#1CE7C2" fill-opacity="0.9"/>
<path d="M7.83264 10.7531C7.83264 10.983 8.01903 11.1694 8.24894 11.1694C8.47886 11.1694 8.66524 10.983 8.66524 10.7531C8.66524 10.5232 8.47886 10.3368 8.24894 10.3368C8.01903 10.3368 7.83264 10.5232 7.83264 10.7531Z" fill="#1CE7C2" fill-opacity="0.9"/>
<path d="M8.66528 17.4185C8.66528 17.6484 8.85167 17.8348 9.08158 17.8348C9.3115 17.8348 9.49789 17.6484 9.49789 17.4185C9.49789 17.1886 9.3115 17.0022 9.08158 17.0022C8.85167 17.0022 8.66528 17.1886 8.66528 17.4185Z" fill="#1CE7C2" fill-opacity="0.7"/>
<path d="M8.66528 16.5813C8.66528 16.8113 8.85167 16.9976 9.08158 16.9976C9.3115 16.9976 9.49789 16.8113 9.49789 16.5813C9.49789 16.3514 9.3115 16.165 9.08158 16.165C8.85167 16.165 8.66528 16.3514 8.66528 16.5813Z" fill="#1CE7C2" fill-opacity="0.5"/>
<path d="M8.66528 15.7491C8.66528 15.979 8.85167 16.1654 9.08158 16.1654C9.3115 16.1654 9.49789 15.979 9.49789 15.7491C9.49789 15.5191 9.3115 15.3328 9.08158 15.3328C8.85167 15.3328 8.66528 15.5191 8.66528 15.7491Z" fill="#1CE7C2" fill-opacity="0.5"/>
<path d="M8.66528 14.9164C8.66528 15.1463 8.85167 15.3327 9.08158 15.3327C9.3115 15.3327 9.49789 15.1463 9.49789 14.9164C9.49789 14.6865 9.3115 14.5001 9.08158 14.5001C8.85167 14.5001 8.66528 14.6865 8.66528 14.9164Z" fill="#1CE7C2" fill-opacity="0.5"/>
<path d="M8.66528 14.0837C8.66528 14.3136 8.85167 14.5 9.08158 14.5C9.3115 14.5 9.49789 14.3136 9.49789 14.0837C9.49789 13.8537 9.3115 13.6674 9.08158 13.6674C8.85167 13.6674 8.66528 13.8537 8.66528 14.0837Z" fill="#1CE7C2" fill-opacity="0.7"/>
<path d="M8.66528 13.2511C8.66528 13.4811 8.85167 13.6674 9.08158 13.6674C9.3115 13.6674 9.49789 13.4811 9.49789 13.2511C9.49789 13.0212 9.3115 12.8348 9.08158 12.8348C8.85167 12.8348 8.66528 13.0212 8.66528 13.2511Z" fill="#1CE7C2" fill-opacity="0.7"/>
<path d="M8.66528 12.4184C8.66528 12.6483 8.85167 12.8347 9.08158 12.8347C9.3115 12.8347 9.49789 12.6483 9.49789 12.4184C9.49789 12.1885 9.3115 12.0021 9.08158 12.0021C8.85167 12.0021 8.66528 12.1885 8.66528 12.4184Z" fill="#1CE7C2" fill-opacity="0.7"/>
<path d="M8.66528 11.5857C8.66528 11.8157 8.85167 12.002 9.08158 12.002C9.3115 12.002 9.49789 11.8157 9.49789 11.5857C9.49789 11.3558 9.3115 11.1694 9.08158 11.1694C8.85167 11.1694 8.66528 11.3558 8.66528 11.5857Z" fill="#1CE7C2" fill-opacity="0.7"/>
<path d="M8.66528 10.7531C8.66528 10.983 8.85167 11.1694 9.08158 11.1694C9.3115 11.1694 9.49789 10.983 9.49789 10.7531C9.49789 10.5232 9.3115 10.3368 9.08158 10.3368C8.85167 10.3368 8.66528 10.5232 8.66528 10.7531Z" fill="#1CE7C2" fill-opacity="0.9"/>
<path d="M8.66528 9.91618C8.66528 10.1461 8.85167 10.3325 9.08158 10.3325C9.3115 10.3325 9.49789 10.1461 9.49789 9.91618C9.49789 9.68626 9.3115 9.49988 9.08158 9.49988C8.85167 9.49988 8.66528 9.68626 8.66528 9.91618Z" fill="#1CE7C2" fill-opacity="0.9"/>
<path d="M8.66528 9.08568C8.66528 9.3156 8.85167 9.50413 9.08158 9.50413C9.3115 9.50413 9.49789 9.3156 9.49789 9.08568C9.49789 8.85577 9.3115 8.66724 9.08158 8.66724C8.85167 8.66724 8.66528 8.85577 8.66528 9.08568Z" fill="#1CE7C2" fill-opacity="0.9"/>
<path d="M9.49792 18.2511C9.49792 18.4811 9.68431 18.6674 9.91423 18.6674C10.1441 18.6674 10.3305 18.4811 10.3305 18.2511C10.3305 18.0212 10.1441 17.8348 9.91423 17.8348C9.68431 17.8348 9.49792 18.0212 9.49792 18.2511Z" fill="#1CE7C2" fill-opacity="0.7"/>
<path d="M9.49792 17.4185C9.49792 17.6484 9.68431 17.8348 9.91423 17.8348C10.1441 17.8348 10.3305 17.6484 10.3305 17.4185C10.3305 17.1886 10.1441 17.0022 9.91423 17.0022C9.68431 17.0022 9.49792 17.1886 9.49792 17.4185Z" fill="#1CE7C2" fill-opacity="0.5"/>
<path d="M9.49792 16.5813C9.49792 16.8113 9.68431 16.9976 9.91423 16.9976C10.1441 16.9976 10.3305 16.8113 10.3305 16.5813C10.3305 16.3514 10.1441 16.165 9.91423 16.165C9.68431 16.165 9.49792 16.3514 9.49792 16.5813Z" fill="#1CE7C2" fill-opacity="0.4"/>
<path d="M9.49792 14.9164C9.49792 15.1463 9.68431 15.3327 9.91423 15.3327C10.1441 15.3327 10.3305 15.1463 10.3305 14.9164C10.3305 14.6865 10.1441 14.5001 9.91423 14.5001C9.68431 14.5001 9.49792 14.6865 9.49792 14.9164Z" fill="#1CE7C2" fill-opacity="0.4"/>
<path d="M9.49792 14.0837C9.49792 14.3136 9.68431 14.5 9.91423 14.5C10.1441 14.5 10.3305 14.3136 10.3305 14.0837C10.3305 13.8537 10.1441 13.6674 9.91423 13.6674C9.68431 13.6674 9.49792 13.8537 9.49792 14.0837Z" fill="#1CE7C2" fill-opacity="0.5"/>
<path d="M9.49792 13.2511C9.49792 13.4811 9.68431 13.6674 9.91423 13.6674C10.1441 13.6674 10.3305 13.4811 10.3305 13.2511C10.3305 13.0212 10.1441 12.8348 9.91423 12.8348C9.68431 12.8348 9.49792 13.0212 9.49792 13.2511Z" fill="#1CE7C2" fill-opacity="0.5"/>
<path d="M9.49792 12.4184C9.49792 12.6483 9.68431 12.8347 9.91423 12.8347C10.1441 12.8347 10.3305 12.6483 10.3305 12.4184C10.3305 12.1885 10.1441 12.0021 9.91423 12.0021C9.68431 12.0021 9.49792 12.1885 9.49792 12.4184Z" fill="#1CE7C2" fill-opacity="0.5"/>
<path d="M9.4978 11.5857C9.4978 11.8157 9.68419 12.002 9.9141 12.002C10.144 12.002 10.3304 11.8157 10.3304 11.5857C10.3304 11.3558 10.144 11.1694 9.9141 11.1694C9.68419 11.1694 9.4978 11.3558 9.4978 11.5857Z" fill="#1CE7C2" fill-opacity="0.7"/>
<path d="M9.4978 10.7531C9.4978 10.983 9.68419 11.1694 9.9141 11.1694C10.144 11.1694 10.3304 10.983 10.3304 10.7531C10.3304 10.5232 10.144 10.3368 9.9141 10.3368C9.68419 10.3368 9.4978 10.5232 9.4978 10.7531Z" fill="#1CE7C2" fill-opacity="0.7"/>
<path d="M9.4978 9.91618C9.4978 10.1461 9.68419 10.3325 9.9141 10.3325C10.144 10.3325 10.3304 10.1461 10.3304 9.91618C10.3304 9.68626 10.144 9.49988 9.9141 9.49988C9.68419 9.49988 9.4978 9.68626 9.4978 9.91618Z" fill="#1CE7C2" fill-opacity="0.7"/>
<path d="M9.4978 9.08568C9.4978 9.3156 9.68419 9.50413 9.9141 9.50413C10.144 9.50413 10.3304 9.3156 10.3304 9.08568C10.3304 8.85577 10.144 8.66724 9.9141 8.66724C9.68419 8.66724 9.4978 8.85577 9.4978 9.08568Z" fill="#1CE7C2" fill-opacity="0.9"/>
<path d="M9.4978 8.25102C9.4978 8.48093 9.68419 8.66732 9.9141 8.66732C10.144 8.66732 10.3304 8.48093 10.3304 8.25102C10.3304 8.0211 10.144 7.83472 9.9141 7.83472C9.68419 7.83472 9.4978 8.0211 9.4978 8.25102Z" fill="#1CE7C2" fill-opacity="0.9"/>
<path d="M10.3348 18.2511C10.3348 18.4811 10.5212 18.6674 10.7511 18.6674C10.9811 18.6674 11.1674 18.4811 11.1674 18.2511C11.1674 18.0212 10.9811 17.8348 10.7511 17.8348C10.5212 17.8348 10.3348 18.0212 10.3348 18.2511Z" fill="#1CE7C2" fill-opacity="0.5"/>
<path d="M10.3348 17.4185C10.3348 17.6484 10.5212 17.8348 10.7511 17.8348C10.9811 17.8348 11.1674 17.6484 11.1674 17.4185C11.1674 17.1886 10.9811 17.0022 10.7511 17.0022C10.5212 17.0022 10.3348 17.1886 10.3348 17.4185Z" fill="#1CE7C2" fill-opacity="0.4"/>
<path d="M10.3348 15.7491C10.3348 15.979 10.5212 16.1654 10.7511 16.1654C10.9811 16.1654 11.1674 15.979 11.1674 15.7491C11.1674 15.5191 10.9811 15.3328 10.7511 15.3328C10.5212 15.3328 10.3348 15.5191 10.3348 15.7491Z" fill="#1CE7C2" fill-opacity="0.4"/>
<path d="M10.3348 14.9164C10.3348 15.1463 10.5212 15.3327 10.7511 15.3327C10.9811 15.3327 11.1674 15.1463 11.1674 14.9164C11.1674 14.6865 10.9811 14.5001 10.7511 14.5001C10.5212 14.5001 10.3348 14.6865 10.3348 14.9164Z" fill="#1CE7C2" fill-opacity="0.4"/>
<path d="M10.3348 11.5857C10.3348 11.8157 10.5212 12.002 10.7511 12.002C10.9811 12.002 11.1674 11.8157 11.1674 11.5857C11.1674 11.3558 10.9811 11.1694 10.7511 11.1694C10.5212 11.1694 10.3348 11.3558 10.3348 11.5857Z" fill="#1CE7C2" fill-opacity="0.5"/>
<path d="M10.3348 10.7531C10.3348 10.983 10.5212 11.1694 10.7511 11.1694C10.9811 11.1694 11.1674 10.983 11.1674 10.7531C11.1674 10.5232 10.9811 10.3368 10.7511 10.3368C10.5212 10.3368 10.3348 10.5232 10.3348 10.7531Z" fill="#1CE7C2" fill-opacity="0.5"/>
<path d="M10.3348 9.91618C10.3348 10.1461 10.5212 10.3325 10.7511 10.3325C10.9811 10.3325 11.1674 10.1461 11.1674 9.91618C11.1674 9.68626 10.9811 9.49988 10.7511 9.49988C10.5212 9.49988 10.3348 9.68626 10.3348 9.91618Z" fill="#1CE7C2" fill-opacity="0.7"/>
<path d="M10.3348 9.08568C10.3348 9.3156 10.5212 9.50413 10.7511 9.50413C10.9811 9.50413 11.1674 9.3156 11.1674 9.08568C11.1674 8.85577 10.9811 8.66724 10.7511 8.66724C10.5212 8.66724 10.3348 8.85577 10.3348 9.08568Z" fill="#1CE7C2" fill-opacity="0.7"/>
<path d="M10.3348 8.25102C10.3348 8.48093 10.5212 8.66732 10.7511 8.66732C10.9811 8.66732 11.1674 8.48093 11.1674 8.25102C11.1674 8.0211 10.9811 7.83472 10.7511 7.83472C10.5212 7.83472 10.3348 8.0211 10.3348 8.25102Z" fill="#1CE7C2" fill-opacity="0.9"/>
<path d="M10.3348 7.41423C10.3348 7.64414 10.5212 7.83053 10.7511 7.83053C10.9811 7.83053 11.1674 7.64414 11.1674 7.41423C11.1674 7.18431 10.9811 6.99792 10.7511 6.99792C10.5212 6.99792 10.3348 7.18431 10.3348 7.41423Z" fill="#1CE7C2" fill-opacity="0.9"/>
<path d="M11.1674 18.2511C11.1674 18.4811 11.3537 18.6674 11.5837 18.6674C11.8136 18.6674 12 18.4811 12 18.2511C12 18.0212 11.8136 17.8348 11.5837 17.8348C11.3537 17.8348 11.1674 18.0212 11.1674 18.2511Z" fill="#1CE7C2" fill-opacity="0.5"/>
<path d="M11.1674 17.4185C11.1674 17.6484 11.3537 17.8348 11.5837 17.8348C11.8136 17.8348 12 17.6484 12 17.4185C12 17.1886 11.8136 17.0022 11.5837 17.0022C11.3537 17.0022 11.1674 17.1886 11.1674 17.4185Z" fill="#1CE7C2" fill-opacity="0.4"/>
<path d="M11.1674 15.7491C11.1674 15.979 11.3537 16.1654 11.5837 16.1654C11.8136 16.1654 12 15.979 12 15.7491C12 15.5191 11.8136 15.3328 11.5837 15.3328C11.3537 15.3328 11.1674 15.5191 11.1674 15.7491Z" fill="#1CE7C2" fill-opacity="0.4"/>
<path d="M11.1674 14.9164C11.1674 15.1463 11.3537 15.3327 11.5837 15.3327C11.8136 15.3327 12 15.1463 12 14.9164C12 14.6865 11.8136 14.5001 11.5837 14.5001C11.3537 14.5001 11.1674 14.6865 11.1674 14.9164Z" fill="#1CE7C2" fill-opacity="0.4"/>
<path d="M11.1674 14.0837C11.1674 14.3136 11.3537 14.5 11.5837 14.5C11.8136 14.5 12 14.3136 12 14.0837C12 13.8537 11.8136 13.6674 11.5837 13.6674C11.3537 13.6674 11.1674 13.8537 11.1674 14.0837Z" fill="#1CE7C2" fill-opacity="0.4"/>
<path d="M11.1674 13.2511C11.1674 13.4811 11.3537 13.6674 11.5837 13.6674C11.8136 13.6674 12 13.4811 12 13.2511C12 13.0212 11.8136 12.8348 11.5837 12.8348C11.3537 12.8348 11.1674 13.0212 11.1674 13.2511Z" fill="#1CE7C2" fill-opacity="0.4"/>
<path d="M11.1674 12.4184C11.1674 12.6483 11.3537 12.8347 11.5837 12.8347C11.8136 12.8347 12 12.6483 12 12.4184C12 12.1885 11.8136 12.0021 11.5837 12.0021C11.3537 12.0021 11.1674 12.1885 11.1674 12.4184Z" fill="#1CE7C2" fill-opacity="0.5"/>
<path d="M11.1674 11.5857C11.1674 11.8157 11.3537 12.002 11.5837 12.002C11.8136 12.002 12 11.8157 12 11.5857C12 11.3558 11.8136 11.1694 11.5837 11.1694C11.3537 11.1694 11.1674 11.3558 11.1674 11.5857Z" fill="#1CE7C2" fill-opacity="0.5"/>
<path d="M11.1674 10.7531C11.1674 10.983 11.3537 11.1694 11.5837 11.1694C11.8136 11.1694 12 10.983 12 10.7531C12 10.5232 11.8136 10.3368 11.5837 10.3368C11.3537 10.3368 11.1674 10.5232 11.1674 10.7531Z" fill="#1CE7C2" fill-opacity="0.7"/>
<path d="M11.1674 9.91618C11.1674 10.1461 11.3537 10.3325 11.5837 10.3325C11.8136 10.3325 12 10.1461 12 9.91618C12 9.68626 11.8136 9.49988 11.5837 9.49988C11.3537 9.49988 11.1674 9.68626 11.1674 9.91618Z" fill="#1CE7C2" fill-opacity="0.7"/>
<path d="M11.1674 9.08568C11.1674 9.3156 11.3537 9.50413 11.5837 9.50413C11.8136 9.50413 12 9.3156 12 9.08568C12 8.85577 11.8136 8.66724 11.5837 8.66724C11.3537 8.66724 11.1674 8.85577 11.1674 9.08568Z" fill="#1CE7C2" fill-opacity="0.7"/>
<path d="M11.1674 8.25102C11.1674 8.48093 11.3537 8.66732 11.5837 8.66732C11.8136 8.66732 12 8.48093 12 8.25102C12 8.0211 11.8136 7.83472 11.5837 7.83472C11.3537 7.83472 11.1674 8.0211 11.1674 8.25102Z" fill="#1CE7C2" fill-opacity="0.7"/>
<path d="M11.1674 7.41423C11.1674 7.64414 11.3537 7.83053 11.5837 7.83053C11.8136 7.83053 12 7.64414 12 7.41423C12 7.18431 11.8136 6.99792 11.5837 6.99792C11.3537 6.99792 11.1674 7.18431 11.1674 7.41423Z" fill="#1CE7C2" fill-opacity="0.9"/>
<path d="M11.1674 6.58158C11.1674 6.8115 11.3537 6.99789 11.5837 6.99789C11.8136 6.99789 12 6.8115 12 6.58158C12 6.35167 11.8136 6.16528 11.5837 6.16528C11.3537 6.16528 11.1674 6.35167 11.1674 6.58158Z" fill="#1CE7C2" fill-opacity="0.9"/>
<path d="M12 18.2511C12 18.4811 12.1864 18.6674 12.4163 18.6674C12.6462 18.6674 12.8326 18.4811 12.8326 18.2511C12.8326 18.0212 12.6462 17.8348 12.4163 17.8348C12.1864 17.8348 12 18.0212 12 18.2511Z" fill="#1CE7C2" fill-opacity="0.5"/>
<path d="M12 17.4185C12 17.6484 12.1864 17.8348 12.4163 17.8348C12.6462 17.8348 12.8326 17.6484 12.8326 17.4185C12.8326 17.1886 12.6462 17.0022 12.4163 17.0022C12.1864 17.0022 12 17.1886 12 17.4185Z" fill="#1CE7C2" fill-opacity="0.4"/>
<path d="M12 15.7491C12 15.979 12.1864 16.1654 12.4163 16.1654C12.6462 16.1654 12.8326 15.979 12.8326 15.7491C12.8326 15.5191 12.6462 15.3328 12.4163 15.3328C12.1864 15.3328 12 15.5191 12 15.7491Z" fill="#1CE7C2" fill-opacity="0.4"/>
<path d="M12 14.9164C12 15.1463 12.1864 15.3327 12.4163 15.3327C12.6462 15.3327 12.8326 15.1463 12.8326 14.9164C12.8326 14.6865 12.6462 14.5001 12.4163 14.5001C12.1864 14.5001 12 14.6865 12 14.9164Z" fill="#1CE7C2" fill-opacity="0.4"/>
<path d="M12 14.0837C12 14.3136 12.1864 14.5 12.4163 14.5C12.6462 14.5 12.8326 14.3136 12.8326 14.0837C12.8326 13.8537 12.6462 13.6674 12.4163 13.6674C12.1864 13.6674 12 13.8537 12 14.0837Z" fill="#1CE7C2" fill-opacity="0.4"/>
<path d="M12 13.2511C12 13.4811 12.1864 13.6674 12.4163 13.6674C12.6462 13.6674 12.8326 13.4811 12.8326 13.2511C12.8326 13.0212 12.6462 12.8348 12.4163 12.8348C12.1864 12.8348 12 13.0212 12 13.2511Z" fill="#1CE7C2" fill-opacity="0.5"/>
<path d="M12 12.4184C12 12.6483 12.1864 12.8347 12.4163 12.8347C12.6462 12.8347 12.8326 12.6483 12.8326 12.4184C12.8326 12.1885 12.6462 12.0021 12.4163 12.0021C12.1864 12.0021 12 12.1885 12 12.4184Z" fill="#1CE7C2" fill-opacity="0.7"/>
<path d="M12 11.5857C12 11.8157 12.1864 12.002 12.4163 12.002C12.6462 12.002 12.8326 11.8157 12.8326 11.5857C12.8326 11.3558 12.6462 11.1694 12.4163 11.1694C12.1864 11.1694 12 11.3558 12 11.5857Z" fill="#1CE7C2" fill-opacity="0.7"/>
<path d="M12 10.7531C12 10.983 12.1864 11.1694 12.4163 11.1694C12.6462 11.1694 12.8326 10.983 12.8326 10.7531C12.8326 10.5232 12.6462 10.3368 12.4163 10.3368C12.1864 10.3368 12 10.5232 12 10.7531Z" fill="#1CE7C2" fill-opacity="0.7"/>
<path d="M12 9.91618C12 10.1461 12.1864 10.3325 12.4163 10.3325C12.6462 10.3325 12.8326 10.1461 12.8326 9.91618C12.8326 9.68626 12.6462 9.49988 12.4163 9.49988C12.1864 9.49988 12 9.68626 12 9.91618Z" fill="#1CE7C2" fill-opacity="0.7"/>
<path d="M12 9.08568C12 9.3156 12.1864 9.50413 12.4163 9.50413C12.6462 9.50413 12.8326 9.3156 12.8326 9.08568C12.8326 8.85577 12.6462 8.66724 12.4163 8.66724C12.1864 8.66724 12 8.85577 12 9.08568Z" fill="#1CE7C2" fill-opacity="0.9"/>
<path d="M12 8.25102C12 8.48093 12.1864 8.66732 12.4163 8.66732C12.6462 8.66732 12.8326 8.48093 12.8326 8.25102C12.8326 8.0211 12.6462 7.83472 12.4163 7.83472C12.1864 7.83472 12 8.0211 12 8.25102Z" fill="#1CE7C2" fill-opacity="0.9"/>
<path d="M12 7.41423C12 7.64414 12.1864 7.83053 12.4163 7.83053C12.6462 7.83053 12.8326 7.64414 12.8326 7.41423C12.8326 7.18431 12.6462 6.99792 12.4163 6.99792C12.1864 6.99792 12 7.18431 12 7.41423Z" fill="#1CE7C2" fill-opacity="0.9"/>
<path d="M12 6.58158C12 6.8115 12.1864 6.99789 12.4163 6.99789C12.6462 6.99789 12.8326 6.8115 12.8326 6.58158C12.8326 6.35167 12.6462 6.16528 12.4163 6.16528C12.1864 6.16528 12 6.35167 12 6.58158Z" fill="#1CE7C2" fill-opacity="0.9"/>
<path d="M12 5.74894C12 5.97886 12.1864 6.16524 12.4163 6.16524C12.6462 6.16524 12.8326 5.97886 12.8326 5.74894C12.8326 5.51903 12.6462 5.33264 12.4163 5.33264C12.1864 5.33264 12 5.51903 12 5.74894Z" fill="#1CE7C2" fill-opacity="0.9"/>
<path d="M12.8326 18.2511C12.8326 18.4811 13.0212 18.6674 13.2511 18.6674C13.481 18.6674 13.6695 18.4811 13.6695 18.2511C13.6695 18.0212 13.481 17.8348 13.2511 17.8348C13.0212 17.8348 12.8326 18.0212 12.8326 18.2511Z" fill="#1CE7C2" fill-opacity="0.5"/>
<path d="M12.8326 17.4185C12.8326 17.6484 13.0212 17.8348 13.2511 17.8348C13.481 17.8348 13.6695 17.6484 13.6695 17.4185C13.6695 17.1886 13.481 17.0022 13.2511 17.0022C13.0212 17.0022 12.8326 17.1886 12.8326 17.4185Z" fill="#1CE7C2" fill-opacity="0.4"/>
<path d="M12.8326 15.7491C12.8326 15.979 13.0212 16.1654 13.2511 16.1654C13.481 16.1654 13.6695 15.979 13.6695 15.7491C13.6695 15.5191 13.481 15.3328 13.2511 15.3328C13.0212 15.3328 12.8326 15.5191 12.8326 15.7491Z" fill="#1CE7C2" fill-opacity="0.4"/>
<path d="M12.8326 14.9164C12.8326 15.1463 13.0212 15.3327 13.2511 15.3327C13.481 15.3327 13.6695 15.1463 13.6695 14.9164C13.6695 14.6865 13.481 14.5001 13.2511 14.5001C13.0212 14.5001 12.8326 14.6865 12.8326 14.9164Z" fill="#1CE7C2" fill-opacity="0.4"/>
<path d="M12.8326 11.5857C12.8326 11.8157 13.0212 12.002 13.2511 12.002C13.481 12.002 13.6695 11.8157 13.6695 11.5857C13.6695 11.3558 13.481 11.1694 13.2511 11.1694C13.0212 11.1694 12.8326 11.3558 12.8326 11.5857Z" fill="#1CE7C2" fill-opacity="0.7"/>
<path d="M12.8326 10.7531C12.8326 10.983 13.0212 11.1694 13.2511 11.1694C13.481 11.1694 13.6695 10.983 13.6695 10.7531C13.6695 10.5232 13.481 10.3368 13.2511 10.3368C13.0212 10.3368 12.8326 10.5232 12.8326 10.7531Z" fill="#1CE7C2" fill-opacity="0.7"/>
<path d="M12.8326 9.91618C12.8326 10.1461 13.0212 10.3325 13.2511 10.3325C13.481 10.3325 13.6695 10.1461 13.6695 9.91618C13.6695 9.68626 13.481 9.49988 13.2511 9.49988C13.0212 9.49988 12.8326 9.68626 12.8326 9.91618Z" fill="#1CE7C2" fill-opacity="0.9"/>
<path d="M12.8326 9.08568C12.8326 9.31679 13.02 9.50413 13.2511 9.50413C13.4822 9.50413 13.6695 9.31679 13.6695 9.08568C13.6695 8.85458 13.4822 8.66724 13.2511 8.66724C13.02 8.66724 12.8326 8.85458 12.8326 9.08568Z" fill="#1CE7C2" fill-opacity="0.9"/>
<path d="M12.8326 8.25102C12.8326 8.48093 13.0212 8.66732 13.2511 8.66732C13.481 8.66732 13.6695 8.48093 13.6695 8.25102C13.6695 8.0211 13.481 7.83472 13.2511 7.83472C13.0212 7.83472 12.8326 8.0211 12.8326 8.25102Z" fill="#1CE7C2" fill-opacity="0.9"/>
<path d="M13.6696 18.2511C13.6696 18.4811 13.8559 18.6674 14.0859 18.6674C14.3158 18.6674 14.5022 18.4811 14.5022 18.2511C14.5022 18.0212 14.3158 17.8348 14.0859 17.8348C13.8559 17.8348 13.6696 18.0212 13.6696 18.2511Z" fill="#1CE7C2" fill-opacity="0.7"/>
<path d="M13.6696 17.4185C13.6696 17.6484 13.8559 17.8348 14.0859 17.8348C14.3158 17.8348 14.5022 17.6484 14.5022 17.4185C14.5022 17.1886 14.3158 17.0022 14.0859 17.0022C13.8559 17.0022 13.6696 17.1886 13.6696 17.4185Z" fill="#1CE7C2" fill-opacity="0.5"/>
<path d="M13.6696 16.5813C13.6696 16.8113 13.8559 16.9976 14.0859 16.9976C14.3158 16.9976 14.5022 16.8113 14.5022 16.5813C14.5022 16.3514 14.3158 16.165 14.0859 16.165C13.8559 16.165 13.6696 16.3514 13.6696 16.5813Z" fill="#1CE7C2" fill-opacity="0.4"/>
<path d="M13.6696 14.9164C13.6696 15.1463 13.8559 15.3327 14.0859 15.3327C14.3158 15.3327 14.5022 15.1463 14.5022 14.9164C14.5022 14.6865 14.3158 14.5001 14.0859 14.5001C13.8559 14.5001 13.6696 14.6865 13.6696 14.9164Z" fill="#1CE7C2" fill-opacity="0.5"/>
<path d="M13.6696 14.0837C13.6696 14.3136 13.8559 14.5 14.0859 14.5C14.3158 14.5 14.5022 14.3136 14.5022 14.0837C14.5022 13.8537 14.3158 13.6674 14.0859 13.6674C13.8559 13.6674 13.6696 13.8537 13.6696 14.0837Z" fill="#1CE7C2" fill-opacity="0.5"/>
<path d="M13.6696 13.2511C13.6696 13.4811 13.8559 13.6674 14.0859 13.6674C14.3158 13.6674 14.5022 13.4811 14.5022 13.2511C14.5022 13.0212 14.3158 12.8348 14.0859 12.8348C13.8559 12.8348 13.6696 13.0212 13.6696 13.2511Z" fill="#1CE7C2" fill-opacity="0.5"/>
<path d="M13.6696 12.4184C13.6696 12.6483 13.8559 12.8347 14.0859 12.8347C14.3158 12.8347 14.5022 12.6483 14.5022 12.4184C14.5022 12.1885 14.3158 12.0021 14.0859 12.0021C13.8559 12.0021 13.6696 12.1885 13.6696 12.4184Z" fill="#1CE7C2" fill-opacity="0.5"/>
<path d="M13.6694 11.5857C13.6694 11.8157 13.8558 12.002 14.0857 12.002C14.3157 12.002 14.502 11.8157 14.502 11.5857C14.502 11.3558 14.3157 11.1694 14.0857 11.1694C13.8558 11.1694 13.6694 11.3558 13.6694 11.5857Z" fill="#1CE7C2" fill-opacity="0.5"/>
<path d="M13.6694 10.7531C13.6694 10.983 13.8558 11.1694 14.0857 11.1694C14.3157 11.1694 14.502 10.983 14.502 10.7531C14.502 10.5232 14.3157 10.3368 14.0857 10.3368C13.8558 10.3368 13.6694 10.5232 13.6694 10.7531Z" fill="#1CE7C2" fill-opacity="0.7"/>
<path d="M13.6694 9.91618C13.6694 10.1461 13.8558 10.3325 14.0857 10.3325C14.3157 10.3325 14.502 10.1461 14.502 9.91618C14.502 9.68626 14.3157 9.49988 14.0857 9.49988C13.8558 9.49988 13.6694 9.68626 13.6694 9.91618Z" fill="#1CE7C2" fill-opacity="0.9"/>
<path d="M14.5021 17.4185C14.5021 17.6484 14.6885 17.8348 14.9184 17.8348C15.1483 17.8348 15.3347 17.6484 15.3347 17.4185C15.3347 17.1886 15.1483 17.0022 14.9184 17.0022C14.6885 17.0022 14.5021 17.1886 14.5021 17.4185Z" fill="#1CE7C2" fill-opacity="0.7"/>
<path d="M14.5021 16.5813C14.5021 16.8113 14.6885 16.9976 14.9184 16.9976C15.1483 16.9976 15.3347 16.8113 15.3347 16.5813C15.3347 16.3514 15.1483 16.165 14.9184 16.165C14.6885 16.165 14.5021 16.3514 14.5021 16.5813Z" fill="#1CE7C2" fill-opacity="0.5"/>
<path d="M14.5021 15.7491C14.5021 15.979 14.6885 16.1654 14.9184 16.1654C15.1483 16.1654 15.3347 15.979 15.3347 15.7491C15.3347 15.5191 15.1483 15.3328 14.9184 15.3328C14.6885 15.3328 14.5021 15.5191 14.5021 15.7491Z" fill="#1CE7C2" fill-opacity="0.5"/>
<path d="M14.5021 14.9164C14.5021 15.1463 14.6885 15.3327 14.9184 15.3327C15.1483 15.3327 15.3347 15.1463 15.3347 14.9164C15.3347 14.6865 15.1483 14.5001 14.9184 14.5001C14.6885 14.5001 14.5021 14.6865 14.5021 14.9164Z" fill="#1CE7C2" fill-opacity="0.5"/>
<path d="M14.5021 14.0837C14.5021 14.3136 14.6885 14.5 14.9184 14.5C15.1483 14.5 15.3347 14.3136 15.3347 14.0837C15.3347 13.8537 15.1483 13.6674 14.9184 13.6674C14.6885 13.6674 14.5021 13.8537 14.5021 14.0837Z" fill="#1CE7C2" fill-opacity="0.7"/>
<path d="M14.5021 13.2511C14.5021 13.4811 14.6885 13.6674 14.9184 13.6674C15.1483 13.6674 15.3347 13.4811 15.3347 13.2511C15.3347 13.0212 15.1483 12.8348 14.9184 12.8348C14.6885 12.8348 14.5021 13.0212 14.5021 13.2511Z" fill="#1CE7C2" fill-opacity="0.7"/>
<path d="M14.5021 12.4184C14.5021 12.6483 14.6885 12.8347 14.9184 12.8347C15.1483 12.8347 15.3347 12.6483 15.3347 12.4184C15.3347 12.1885 15.1483 12.0021 14.9184 12.0021C14.6885 12.0021 14.5021 12.1885 14.5021 12.4184Z" fill="#1CE7C2" fill-opacity="0.7"/>
<path d="M14.5021 11.5857C14.5021 11.8157 14.6885 12.002 14.9184 12.002C15.1483 12.002 15.3347 11.8157 15.3347 11.5857C15.3347 11.3558 15.1483 11.1694 14.9184 11.1694C14.6885 11.1694 14.5021 11.3558 14.5021 11.5857Z" fill="#1CE7C2" fill-opacity="0.7"/>
<path d="M14.5021 10.7531C14.5021 10.983 14.6885 11.1694 14.9184 11.1694C15.1483 11.1694 15.3347 10.983 15.3347 10.7531C15.3347 10.5232 15.1483 10.3368 14.9184 10.3368C14.6885 10.3368 14.5021 10.5232 14.5021 10.7531Z" fill="#1CE7C2" fill-opacity="0.7"/>
<path d="M15.3347 16.5813C15.3347 16.8113 15.5211 16.9976 15.751 16.9976C15.9809 16.9976 16.1673 16.8113 16.1673 16.5813C16.1673 16.3514 15.9809 16.165 15.751 16.165C15.5211 16.165 15.3347 16.3514 15.3347 16.5813Z" fill="#1CE7C2" fill-opacity="0.9"/>
<path d="M15.3347 15.7491C15.3347 15.979 15.5211 16.1654 15.751 16.1654C15.9809 16.1654 16.1673 15.979 16.1673 15.7491C16.1673 15.5191 15.9809 15.3328 15.751 15.3328C15.5211 15.3328 15.3347 15.5191 15.3347 15.7491Z" fill="#1CE7C2" fill-opacity="0.7"/>
<path d="M15.3347 14.9164C15.3347 15.1463 15.5211 15.3327 15.751 15.3327C15.9809 15.3327 16.1673 15.1463 16.1673 14.9164C16.1673 14.6865 15.9809 14.5001 15.751 14.5001C15.5211 14.5001 15.3347 14.6865 15.3347 14.9164Z" fill="#1CE7C2" fill-opacity="0.7"/>
<path d="M15.3347 14.0837C15.3347 14.3136 15.5211 14.5 15.751 14.5C15.9809 14.5 16.1673 14.3136 16.1673 14.0837C16.1673 13.8537 15.9809 13.6674 15.751 13.6674C15.5211 13.6674 15.3347 13.8537 15.3347 14.0837Z" fill="#1CE7C2" fill-opacity="0.7"/>
<path d="M15.3347 13.2511C15.3347 13.4811 15.5211 13.6674 15.751 13.6674C15.9809 13.6674 16.1673 13.4811 16.1673 13.2511C16.1673 13.0212 15.9809 12.8348 15.751 12.8348C15.5211 12.8348 15.3347 13.0212 15.3347 13.2511Z" fill="#1CE7C2" fill-opacity="0.7"/>
<path d="M15.3347 12.4184C15.3347 12.6483 15.5211 12.8347 15.751 12.8347C15.9809 12.8347 16.1673 12.6483 16.1673 12.4184C16.1673 12.1885 15.9809 12.0021 15.751 12.0021C15.5211 12.0021 15.3347 12.1885 15.3347 12.4184Z" fill="#1CE7C2" fill-opacity="0.7"/>
<path d="M15.3347 11.5857C15.3347 11.8157 15.5211 12.002 15.751 12.002C15.9809 12.002 16.1673 11.8157 16.1673 11.5857C16.1673 11.3558 15.9809 11.1694 15.751 11.1694C15.5211 11.1694 15.3347 11.3558 15.3347 11.5857Z" fill="#1CE7C2" fill-opacity="0.7"/>
<path d="M16.1672 15.7491C16.1672 15.979 16.3536 16.1654 16.5835 16.1654C16.8135 16.1654 16.9998 15.979 16.9998 15.7491C16.9998 15.5191 16.8135 15.3328 16.5835 15.3328C16.3536 15.3328 16.1672 15.5191 16.1672 15.7491Z" fill="#1CE7C2" fill-opacity="0.9"/>
<path d="M16.1672 14.9164C16.1672 15.1463 16.3536 15.3327 16.5835 15.3327C16.8135 15.3327 16.9998 15.1463 16.9998 14.9164C16.9998 14.6865 16.8135 14.5001 16.5835 14.5001C16.3536 14.5001 16.1672 14.6865 16.1672 14.9164Z" fill="#1CE7C2" fill-opacity="0.9"/>
<path d="M16.1672 14.0837C16.1672 14.3136 16.3536 14.5 16.5835 14.5C16.8135 14.5 16.9998 14.3136 16.9998 14.0837C16.9998 13.8537 16.8135 13.6674 16.5835 13.6674C16.3536 13.6674 16.1672 13.8537 16.1672 14.0837Z" fill="#1CE7C2" fill-opacity="0.9"/>
<path d="M16.1672 13.2511C16.1672 13.4811 16.3536 13.6674 16.5835 13.6674C16.8135 13.6674 16.9998 13.4811 16.9998 13.2511C16.9998 13.0212 16.8135 12.8348 16.5835 12.8348C16.3536 12.8348 16.1672 13.0212 16.1672 13.2511Z" fill="#1CE7C2" fill-opacity="0.9"/>
<path d="M16.1672 12.4184C16.1672 12.6483 16.3536 12.8347 16.5835 12.8347C16.8135 12.8347 16.9998 12.6483 16.9998 12.4184C16.9998 12.1885 16.8135 12.0021 16.5835 12.0021C16.3536 12.0021 16.1672 12.1885 16.1672 12.4184Z" fill="#1CE7C2" fill-opacity="0.9"/>
<path d="M16.1672 11.5857C16.1672 11.8157 16.3536 12.002 16.5835 12.002C16.8135 12.002 16.9998 11.8157 16.9998 11.5857C16.9998 11.3558 16.8135 11.1694 16.5835 11.1694C16.3536 11.1694 16.1672 11.3558 16.1672 11.5857Z" fill="#1CE7C2" fill-opacity="0.9"/>
<path d="M6.16748 15.7491C6.16748 15.979 6.35386 16.1654 6.58378 16.1654C6.8137 16.1654 7.00008 15.979 7.00008 15.7491C7.00008 15.5191 6.8137 15.3328 6.58378 15.3328C6.35386 15.3328 6.16748 15.5191 6.16748 15.7491Z" fill="#1CE7C2"/>
<path d="M6.16748 14.9164C6.16748 15.1463 6.35386 15.3327 6.58378 15.3327C6.8137 15.3327 7.00008 15.1463 7.00008 14.9164C7.00008 14.6865 6.8137 14.5001 6.58378 14.5001C6.35386 14.5001 6.16748 14.6865 6.16748 14.9164Z" fill="#1CE7C2"/>
<path d="M6.16748 14.0837C6.16748 14.3136 6.35386 14.5 6.58378 14.5C6.8137 14.5 7.00008 14.3136 7.00008 14.0837C7.00008 13.8537 6.8137 13.6674 6.58378 13.6674C6.35386 13.6674 6.16748 13.8537 6.16748 14.0837Z" fill="#1CE7C2"/>
<path d="M6.16748 13.2511C6.16748 13.4811 6.35386 13.6674 6.58378 13.6674C6.8137 13.6674 7.00008 13.4811 7.00008 13.2511C7.00008 13.0212 6.8137 12.8348 6.58378 12.8348C6.35386 12.8348 6.16748 13.0212 6.16748 13.2511Z" fill="#1CE7C2"/>
<path d="M6.16748 12.4184C6.16748 12.6483 6.35386 12.8347 6.58378 12.8347C6.8137 12.8347 7.00008 12.6483 7.00008 12.4184C7.00008 12.1885 6.8137 12.0021 6.58378 12.0021C6.35386 12.0021 6.16748 12.1885 6.16748 12.4184Z" fill="#1CE7C2"/>
<path d="M7 16.5813C7 16.8113 7.18638 16.9976 7.4163 16.9976C7.64622 16.9976 7.8326 16.8113 7.8326 16.5813C7.8326 16.3514 7.64622 16.165 7.4163 16.165C7.18638 16.165 7 16.3514 7 16.5813Z" fill="#1CE7C2"/>
<path d="M7 11.5857C7 11.8157 7.18638 12.002 7.4163 12.002C7.64622 12.002 7.8326 11.8157 7.8326 11.5857C7.8326 11.3558 7.64622 11.1694 7.4163 11.1694C7.18638 11.1694 7 11.3558 7 11.5857Z" fill="#1CE7C2"/>
<path d="M7 10.7531C7 10.983 7.18638 11.1694 7.4163 11.1694C7.64622 11.1694 7.8326 10.983 7.8326 10.7531C7.8326 10.5232 7.64622 10.3368 7.4163 10.3368C7.18638 10.3368 7 10.5232 7 10.7531Z" fill="#1CE7C2"/>
<path d="M7.83264 17.4185C7.83264 17.6484 8.01903 17.8348 8.24894 17.8348C8.47886 17.8348 8.66524 17.6484 8.66524 17.4185C8.66524 17.1886 8.47886 17.0022 8.24894 17.0022C8.01903 17.0022 7.83264 17.1886 7.83264 17.4185Z" fill="#1CE7C2"/>
<path d="M7.83264 9.91618C7.83264 10.1461 8.01903 10.3325 8.24894 10.3325C8.47886 10.3325 8.66524 10.1461 8.66524 9.91618C8.66524 9.68626 8.47886 9.49988 8.24894 9.49988C8.01903 9.49988 7.83264 9.68626 7.83264 9.91618Z" fill="#1CE7C2"/>
<path d="M7.83264 9.08568C7.83264 9.3156 8.01903 9.50413 8.24894 9.50413C8.47886 9.50413 8.66524 9.3156 8.66524 9.08568C8.66524 8.85577 8.47886 8.66724 8.24894 8.66724C8.01903 8.66724 7.83264 8.85577 7.83264 9.08568Z" fill="#1CE7C2"/>
<path d="M8.66528 18.2511C8.66528 18.4811 8.85167 18.6674 9.08158 18.6674C9.3115 18.6674 9.49789 18.4811 9.49789 18.2511C9.49789 18.0212 9.3115 17.8348 9.08158 17.8348C8.85167 17.8348 8.66528 18.0212 8.66528 18.2511Z" fill="#1CE7C2"/>
<path d="M8.66528 8.25102C8.66528 8.48093 8.85167 8.66732 9.08158 8.66732C9.3115 8.66732 9.49789 8.48093 9.49789 8.25102C9.49789 8.0211 9.3115 7.83472 9.08158 7.83472C8.85167 7.83472 8.66528 8.0211 8.66528 8.25102Z" fill="#1CE7C2"/>
<path d="M9.49792 19.0837C9.49792 19.3136 9.68431 19.5 9.91423 19.5C10.1441 19.5 10.3305 19.3136 10.3305 19.0837C10.3305 18.8537 10.1441 18.6674 9.91423 18.6674C9.68431 18.6674 9.49792 18.8537 9.49792 19.0837Z" fill="#1CE7C2"/>
<path d="M9.49792 15.7491C9.49792 15.979 9.68431 16.1654 9.91423 16.1654C10.1441 16.1654 10.3305 15.979 10.3305 15.7491C10.3305 15.5191 10.1441 15.3328 9.91423 15.3328C9.68431 15.3328 9.49792 15.5191 9.49792 15.7491Z" fill="#1CE7C2" fill-opacity="0.4"/>
<path d="M9.4978 7.41423C9.4978 7.64414 9.68419 7.83053 9.9141 7.83053C10.144 7.83053 10.3304 7.64414 10.3304 7.41423C10.3304 7.18431 10.144 6.99792 9.9141 6.99792C9.68419 6.99792 9.4978 7.18431 9.4978 7.41423Z" fill="#1CE7C2"/>
<path d="M10.3348 19.0837C10.3348 19.3136 10.5212 19.5 10.7511 19.5C10.9811 19.5 11.1674 19.3136 11.1674 19.0837C11.1674 18.8537 10.9811 18.6674 10.7511 18.6674C10.5212 18.6674 10.3348 18.8537 10.3348 19.0837Z" fill="#1CE7C2"/>
<path d="M10.3348 16.5813C10.3348 16.8113 10.5212 16.9976 10.7511 16.9976C10.9811 16.9976 11.1674 16.8113 11.1674 16.5813C11.1674 16.3514 10.9811 16.165 10.7511 16.165C10.5212 16.165 10.3348 16.3514 10.3348 16.5813Z" fill="#1CE7C2" fill-opacity="0.4"/>
<path d="M10.3348 14.0837C10.3348 14.3136 10.5212 14.5 10.7511 14.5C10.9811 14.5 11.1674 14.3136 11.1674 14.0837C11.1674 13.8537 10.9811 13.6674 10.7511 13.6674C10.5212 13.6674 10.3348 13.8537 10.3348 14.0837Z" fill="#1CE7C2" fill-opacity="0.4"/>
<path d="M10.3348 13.2511C10.3348 13.4811 10.5212 13.6674 10.7511 13.6674C10.9811 13.6674 11.1674 13.4811 11.1674 13.2511C11.1674 13.0212 10.9811 12.8348 10.7511 12.8348C10.5212 12.8348 10.3348 13.0212 10.3348 13.2511Z" fill="#1CE7C2" fill-opacity="0.5"/>
<path d="M10.3348 12.4184C10.3348 12.6483 10.5212 12.8347 10.7511 12.8347C10.9811 12.8347 11.1674 12.6483 11.1674 12.4184C11.1674 12.1885 10.9811 12.0021 10.7511 12.0021C10.5212 12.0021 10.3348 12.1885 10.3348 12.4184Z" fill="#1CE7C2" fill-opacity="0.5"/>
<path d="M10.3348 6.58158C10.3348 6.8115 10.5212 6.99789 10.7511 6.99789C10.9811 6.99789 11.1674 6.8115 11.1674 6.58158C11.1674 6.35167 10.9811 6.16528 10.7511 6.16528C10.5212 6.16528 10.3348 6.35167 10.3348 6.58158Z" fill="#1CE7C2"/>
<path d="M11.1674 19.0837C11.1674 19.3136 11.3537 19.5 11.5837 19.5C11.8136 19.5 12 19.3136 12 19.0837C12 18.8537 11.8136 18.6674 11.5837 18.6674C11.3537 18.6674 11.1674 18.8537 11.1674 19.0837Z" fill="#1CE7C2"/>
<path d="M11.1674 16.5813C11.1674 16.8113 11.3537 16.9976 11.5837 16.9976C11.8136 16.9976 12 16.8113 12 16.5813C12 16.3514 11.8136 16.165 11.5837 16.165C11.3537 16.165 11.1674 16.3514 11.1674 16.5813Z" fill="#1CE7C2" fill-opacity="0.4"/>
<path d="M11.1674 5.74894C11.1674 5.97886 11.3537 6.16524 11.5837 6.16524C11.8136 6.16524 12 5.97886 12 5.74894C12 5.51903 11.8136 5.33264 11.5837 5.33264C11.3537 5.33264 11.1674 5.51903 11.1674 5.74894Z" fill="#1CE7C2"/>
<path d="M12 19.0837C12 19.3136 12.1864 19.5 12.4163 19.5C12.6462 19.5 12.8326 19.3136 12.8326 19.0837C12.8326 18.8537 12.6462 18.6674 12.4163 18.6674C12.1864 18.6674 12 18.8537 12 19.0837Z" fill="#1CE7C2"/>
<path d="M12 16.5813C12 16.8113 12.1864 16.9976 12.4163 16.9976C12.6462 16.9976 12.8326 16.8113 12.8326 16.5813C12.8326 16.3514 12.6462 16.165 12.4163 16.165C12.1864 16.165 12 16.3514 12 16.5813Z" fill="#1CE7C2" fill-opacity="0.4"/>
<path d="M12 4.9163C12 5.14622 12.1864 5.3326 12.4163 5.3326C12.6462 5.3326 12.8326 5.14622 12.8326 4.9163C12.8326 4.68638 12.6462 4.5 12.4163 4.5C12.1864 4.5 12 4.68638 12 4.9163Z" fill="#1CE7C2"/>
<path d="M12.8326 19.0837C12.8326 19.3136 13.0212 19.5 13.2511 19.5C13.481 19.5 13.6695 19.3136 13.6695 19.0837C13.6695 18.8537 13.481 18.6674 13.2511 18.6674C13.0212 18.6674 12.8326 18.8537 12.8326 19.0837Z" fill="#1CE7C2"/>
<path d="M12.8326 16.5813C12.8326 16.8113 13.0212 16.9976 13.2511 16.9976C13.481 16.9976 13.6695 16.8113 13.6695 16.5813C13.6695 16.3514 13.481 16.165 13.2511 16.165C13.0212 16.165 12.8326 16.3514 12.8326 16.5813Z" fill="#1CE7C2" fill-opacity="0.4"/>
<path d="M12.8326 14.0837C12.8326 14.3136 13.0212 14.5 13.2511 14.5C13.481 14.5 13.6695 14.3136 13.6695 14.0837C13.6695 13.8537 13.481 13.6674 13.2511 13.6674C13.0212 13.6674 12.8326 13.8537 12.8326 14.0837Z" fill="#1CE7C2" fill-opacity="0.4"/>
<path d="M12.8326 13.2511C12.8326 13.4811 13.0212 13.6674 13.2511 13.6674C13.481 13.6674 13.6695 13.4811 13.6695 13.2511C13.6695 13.0212 13.481 12.8348 13.2511 12.8348C13.0212 12.8348 12.8326 13.0212 12.8326 13.2511Z" fill="#1CE7C2" fill-opacity="0.5"/>
<path d="M12.8326 12.4184C12.8326 12.6483 13.0212 12.8347 13.2511 12.8347C13.481 12.8347 13.6695 12.6483 13.6695 12.4184C13.6695 12.1885 13.481 12.0021 13.2511 12.0021C13.0212 12.0021 12.8326 12.1885 12.8326 12.4184Z" fill="#1CE7C2" fill-opacity="0.5"/>
<path d="M12.8326 7.41423C12.8326 7.64414 13.0212 7.83053 13.2511 7.83053C13.481 7.83053 13.6695 7.64414 13.6695 7.41423C13.6695 7.18431 13.481 6.99792 13.2511 6.99792C13.0212 6.99792 12.8326 7.18431 12.8326 7.41423Z" fill="#1CE7C2"/>
<path d="M12.8326 6.58158C12.8326 6.8115 13.0212 6.99789 13.2511 6.99789C13.481 6.99789 13.6695 6.8115 13.6695 6.58158C13.6695 6.35167 13.481 6.16528 13.2511 6.16528C13.0212 6.16528 12.8326 6.35167 12.8326 6.58158Z" fill="#1CE7C2"/>
<path d="M12.8326 5.74894C12.8326 5.97886 13.0212 6.16524 13.2511 6.16524C13.481 6.16524 13.6695 5.97886 13.6695 5.74894C13.6695 5.51903 13.481 5.33264 13.2511 5.33264C13.0212 5.33264 12.8326 5.51903 12.8326 5.74894Z" fill="#1CE7C2"/>
<path d="M13.6696 19.0837C13.6696 19.3136 13.8559 19.5 14.0859 19.5C14.3158 19.5 14.5022 19.3136 14.5022 19.0837C14.5022 18.8537 14.3158 18.6674 14.0859 18.6674C13.8559 18.6674 13.6696 18.8537 13.6696 19.0837Z" fill="#1CE7C2"/>
<path d="M13.6696 15.7491C13.6696 15.979 13.8559 16.1654 14.0859 16.1654C14.3158 16.1654 14.5022 15.979 14.5022 15.7491C14.5022 15.5191 14.3158 15.3328 14.0859 15.3328C13.8559 15.3328 13.6696 15.5191 13.6696 15.7491Z" fill="#1CE7C2" fill-opacity="0.4"/>
<path d="M13.6694 9.08568C13.6694 9.3156 13.8558 9.50413 14.0857 9.50413C14.3157 9.50413 14.502 9.3156 14.502 9.08568C14.502 8.85577 14.3157 8.66724 14.0857 8.66724C13.8558 8.66724 13.6694 8.85577 13.6694 9.08568Z" fill="#1CE7C2"/>
<path d="M13.6694 8.25102C13.6694 8.48093 13.8558 8.66732 14.0857 8.66732C14.3157 8.66732 14.502 8.48093 14.502 8.25102C14.502 8.0211 14.3157 7.83472 14.0857 7.83472C13.8558 7.83472 13.6694 8.0211 13.6694 8.25102Z" fill="#1CE7C2"/>
<path d="M14.5021 18.2511C14.5021 18.4811 14.6885 18.6674 14.9184 18.6674C15.1483 18.6674 15.3347 18.4811 15.3347 18.2511C15.3347 18.0212 15.1483 17.8348 14.9184 17.8348C14.6885 17.8348 14.5021 18.0212 14.5021 18.2511Z" fill="#1CE7C2"/>
<path d="M15.3347 17.4185C15.3347 17.6484 15.5211 17.8348 15.751 17.8348C15.9809 17.8348 16.1673 17.6484 16.1673 17.4185C16.1673 17.1886 15.9809 17.0022 15.751 17.0022C15.5211 17.0022 15.3347 17.1886 15.3347 17.4185Z" fill="#1CE7C2"/>
<path d="M16.1672 16.5813C16.1672 16.8113 16.3536 16.9976 16.5835 16.9976C16.8135 16.9976 16.9998 16.8113 16.9998 16.5813C16.9998 16.3514 16.8135 16.165 16.5835 16.165C16.3536 16.165 16.1672 16.3514 16.1672 16.5813Z" fill="#1CE7C2"/>
<path d="M16.1672 10.7531C16.1672 10.983 16.3536 11.1694 16.5835 11.1694C16.8135 11.1694 16.9998 10.983 16.9998 10.7531C16.9998 10.5232 16.8135 10.3368 16.5835 10.3368C16.3536 10.3368 16.1672 10.5232 16.1672 10.7531Z" fill="#1CE7C2"/>
<path d="M17 15.7491C17 15.979 17.1864 16.1654 17.4163 16.1654C17.6462 16.1654 17.8326 15.979 17.8326 15.7491C17.8326 15.5191 17.6462 15.3328 17.4163 15.3328C17.1864 15.3328 17 15.5191 17 15.7491Z" fill="#1CE7C2"/>
<path d="M17 14.9164C17 15.1463 17.1864 15.3327 17.4163 15.3327C17.6462 15.3327 17.8326 15.1463 17.8326 14.9164C17.8326 14.6865 17.6462 14.5001 17.4163 14.5001C17.1864 14.5001 17 14.6865 17 14.9164Z" fill="#1CE7C2"/>
<path d="M17 14.0837C17 14.3136 17.1864 14.5 17.4163 14.5C17.6462 14.5 17.8326 14.3136 17.8326 14.0837C17.8326 13.8537 17.6462 13.6674 17.4163 13.6674C17.1864 13.6674 17 13.8537 17 14.0837Z" fill="#1CE7C2"/>
<path d="M17 13.2511C17 13.4811 17.1864 13.6674 17.4163 13.6674C17.6462 13.6674 17.8326 13.4811 17.8326 13.2511C17.8326 13.0212 17.6462 12.8348 17.4163 12.8348C17.1864 12.8348 17 13.0212 17 13.2511Z" fill="#1CE7C2"/>
<path d="M17 12.4184C17 12.6483 17.1864 12.8347 17.4163 12.8347C17.6462 12.8347 17.8326 12.6483 17.8326 12.4184C17.8326 12.1885 17.6462 12.0021 17.4163 12.0021C17.1864 12.0021 17 12.1885 17 12.4184Z" fill="#1CE7C2"/>
<path d="M16.9999 11.5857C16.9999 11.8157 17.1863 12.002 17.4162 12.002C17.6461 12.002 17.8325 11.8157 17.8325 11.5857C17.8325 11.3558 17.6461 11.1694 17.4162 11.1694C17.1863 11.1694 16.9999 11.3558 16.9999 11.5857Z" fill="#1CE7C2"/>
<rect x="20.5" y="0.5" width="23" height="23" rx="11.5" fill="black" fill-opacity="0.95"/>
<rect x="20.5" y="0.5" width="23" height="23" rx="11.5" stroke="#E0E0E0"/>
<path d="M26.0904 15.5H24.5V8.5H26.0904V15.5Z" fill="white"/>
<path d="M39.5 15.5H37.9096V8.5H39.5V15.5Z" fill="white"/>
<path d="M36.0011 13.9841H32.8203V12.6465H36.0011V13.9841Z" fill="white"/>
<path d="M27.9989 12.6465H26.3583V11.2049H27.9989V12.6465Z" fill="white"/>
<path d="M32.8203 12.6465H31.1797V11.2049H32.8203V12.6465Z" fill="white"/>
<path d="M37.6417 12.6465H36.0011V11.2049H37.6417V12.6465Z" fill="white"/>
<path d="M31.1797 11.2049H27.9989V9.8673H31.1797V11.2049Z" fill="white"/>
</svg>
