<svg width="21" height="27" viewBox="0 0 21 27" fill="none" xmlns="http://www.w3.org/2000/svg">
<path d="M1.46045 19.7312C1.46045 20.1345 1.78738 20.4614 2.19068 20.4614C2.59397 20.4614 2.9209 20.1345 2.9209 19.7312C2.9209 19.3279 2.59397 19.001 2.19068 19.001C1.78738 19.001 1.46045 19.3279 1.46045 19.7312Z" fill="#1CE7C2" fill-opacity="0.9"/>
<path d="M1.46045 18.2708C1.46045 18.674 1.78738 19.001 2.19068 19.001C2.59397 19.001 2.9209 18.674 2.9209 18.2708C2.9209 17.8675 2.59397 17.5405 2.19068 17.5405C1.78738 17.5405 1.46045 17.8675 1.46045 18.2708Z" fill="#1CE7C2" fill-opacity="0.9"/>
<path d="M1.46045 16.8103C1.46045 17.2136 1.78738 17.5405 2.19068 17.5405C2.59397 17.5405 2.9209 17.2136 2.9209 16.8103C2.9209 16.407 2.59397 16.0801 2.19068 16.0801C1.78738 16.0801 1.46045 16.407 1.46045 16.8103Z" fill="#1CE7C2" fill-opacity="0.9"/>
<path d="M1.46045 15.3499C1.46045 15.7531 1.78738 16.0801 2.19068 16.0801C2.59397 16.0801 2.9209 15.7531 2.9209 15.3499C2.9209 14.9466 2.59397 14.6196 2.19068 14.6196C1.78738 14.6196 1.46045 14.9466 1.46045 15.3499Z" fill="#1CE7C2" fill-opacity="0.9"/>
<path d="M1.46045 13.8894C1.46045 14.2927 1.78738 14.6196 2.19068 14.6196C2.59397 14.6196 2.9209 14.2927 2.9209 13.8894C2.9209 13.4861 2.59397 13.1592 2.19068 13.1592C1.78738 13.1592 1.46045 13.4861 1.46045 13.8894Z" fill="#1CE7C2" fill-opacity="0.9"/>
<path d="M2.9209 21.1917C2.9209 21.5949 3.24783 21.9219 3.65113 21.9219C4.05442 21.9219 4.38135 21.5949 4.38135 21.1917C4.38135 20.7884 4.05442 20.4614 3.65113 20.4614C3.24783 20.4614 2.9209 20.7884 2.9209 21.1917Z" fill="#1CE7C2" fill-opacity="0.9"/>
<path d="M2.9209 19.7312C2.9209 20.1345 3.24783 20.4614 3.65113 20.4614C4.05442 20.4614 4.38135 20.1345 4.38135 19.7312C4.38135 19.3279 4.05442 19.001 3.65113 19.001C3.24783 19.001 2.9209 19.3279 2.9209 19.7312Z" fill="#1CE7C2" fill-opacity="0.7"/>
<path d="M2.9209 18.2708C2.9209 18.674 3.24783 19.001 3.65113 19.001C4.05442 19.001 4.38135 18.674 4.38135 18.2708C4.38135 17.8675 4.05442 17.5405 3.65113 17.5405C3.24783 17.5405 2.9209 17.8675 2.9209 18.2708Z" fill="#1CE7C2" fill-opacity="0.7"/>
<path d="M2.9209 16.8103C2.9209 17.2136 3.24783 17.5405 3.65113 17.5405C4.05442 17.5405 4.38135 17.2136 4.38135 16.8103C4.38135 16.407 4.05442 16.0801 3.65113 16.0801C3.24783 16.0801 2.9209 16.407 2.9209 16.8103Z" fill="#1CE7C2" fill-opacity="0.7"/>
<path d="M2.9209 15.3499C2.9209 15.7531 3.24783 16.0801 3.65113 16.0801C4.05442 16.0801 4.38135 15.7531 4.38135 15.3499C4.38135 14.9466 4.05442 14.6196 3.65113 14.6196C3.24783 14.6196 2.9209 14.9466 2.9209 15.3499Z" fill="#1CE7C2" fill-opacity="0.7"/>
<path d="M2.9209 13.8894C2.9209 14.2927 3.24783 14.6196 3.65113 14.6196C4.05442 14.6196 4.38135 14.2927 4.38135 13.8894C4.38135 13.4861 4.05442 13.1592 3.65113 13.1592C3.24783 13.1592 2.9209 13.4861 2.9209 13.8894Z" fill="#1CE7C2" fill-opacity="0.9"/>
<path d="M2.9209 12.429C2.9209 12.8323 3.24783 13.1592 3.65113 13.1592C4.05442 13.1592 4.38135 12.8323 4.38135 12.429C4.38135 12.0257 4.05442 11.6987 3.65113 11.6987C3.24783 11.6987 2.9209 12.0257 2.9209 12.429Z" fill="#1CE7C2" fill-opacity="0.9"/>
<path d="M2.9209 10.9685C2.9209 11.3718 3.24783 11.6987 3.65113 11.6987C4.05442 11.6987 4.38135 11.3718 4.38135 10.9685C4.38135 10.5652 4.05442 10.2383 3.65113 10.2383C3.24783 10.2383 2.9209 10.5652 2.9209 10.9685Z" fill="#1CE7C2" fill-opacity="0.9"/>
<path d="M4.38135 22.6594C4.38135 23.0627 4.70828 23.3897 5.11157 23.3897C5.51487 23.3897 5.8418 23.0627 5.8418 22.6594C5.8418 22.2561 5.51487 21.9292 5.11157 21.9292C4.70828 21.9292 4.38135 22.2561 4.38135 22.6594Z" fill="#1CE7C2" fill-opacity="0.7"/>
<path d="M4.38135 21.1917C4.38135 21.5949 4.70828 21.9219 5.11157 21.9219C5.51487 21.9219 5.8418 21.5949 5.8418 21.1917C5.8418 20.7884 5.51487 20.4614 5.11157 20.4614C4.70828 20.4614 4.38135 20.7884 4.38135 21.1917Z" fill="#1CE7C2" fill-opacity="0.5"/>
<path d="M4.38135 19.7312C4.38135 20.1345 4.70828 20.4614 5.11157 20.4614C5.51487 20.4614 5.8418 20.1345 5.8418 19.7312C5.8418 19.3279 5.51487 19.001 5.11157 19.001C4.70828 19.001 4.38135 19.3279 4.38135 19.7312Z" fill="#1CE7C2" fill-opacity="0.5"/>
<path d="M4.38135 18.2708C4.38135 18.674 4.70828 19.001 5.11157 19.001C5.51487 19.001 5.8418 18.674 5.8418 18.2708C5.8418 17.8675 5.51487 17.5405 5.11157 17.5405C4.70828 17.5405 4.38135 17.8675 4.38135 18.2708Z" fill="#1CE7C2" fill-opacity="0.5"/>
<path d="M4.38135 16.8103C4.38135 17.2136 4.70828 17.5405 5.11157 17.5405C5.51487 17.5405 5.8418 17.2136 5.8418 16.8103C5.8418 16.407 5.51487 16.0801 5.11157 16.0801C4.70828 16.0801 4.38135 16.407 4.38135 16.8103Z" fill="#1CE7C2" fill-opacity="0.7"/>
<path d="M4.38135 15.3499C4.38135 15.7531 4.70828 16.0801 5.11157 16.0801C5.51487 16.0801 5.8418 15.7531 5.8418 15.3499C5.8418 14.9466 5.51487 14.6196 5.11157 14.6196C4.70828 14.6196 4.38135 14.9466 4.38135 15.3499Z" fill="#1CE7C2" fill-opacity="0.7"/>
<path d="M4.38135 13.8894C4.38135 14.2927 4.70828 14.6196 5.11157 14.6196C5.51487 14.6196 5.8418 14.2927 5.8418 13.8894C5.8418 13.4861 5.51487 13.1592 5.11157 13.1592C4.70828 13.1592 4.38135 13.4861 4.38135 13.8894Z" fill="#1CE7C2" fill-opacity="0.7"/>
<path d="M4.38135 12.429C4.38135 12.8323 4.70828 13.1592 5.11157 13.1592C5.51487 13.1592 5.8418 12.8323 5.8418 12.429C5.8418 12.0257 5.51487 11.6987 5.11157 11.6987C4.70828 11.6987 4.38135 12.0257 4.38135 12.429Z" fill="#1CE7C2" fill-opacity="0.7"/>
<path d="M4.38135 10.9685C4.38135 11.3718 4.70828 11.6987 5.11157 11.6987C5.51487 11.6987 5.8418 11.3718 5.8418 10.9685C5.8418 10.5652 5.51487 10.2383 5.11157 10.2383C4.70828 10.2383 4.38135 10.5652 4.38135 10.9685Z" fill="#1CE7C2" fill-opacity="0.9"/>
<path d="M4.38135 9.50025C4.38135 9.90354 4.70828 10.2305 5.11157 10.2305C5.51487 10.2305 5.8418 9.90354 5.8418 9.50025C5.8418 9.09695 5.51487 8.77002 5.11157 8.77002C4.70828 8.77002 4.38135 9.09695 4.38135 9.50025Z" fill="#1CE7C2" fill-opacity="0.9"/>
<path d="M4.38135 8.04405C4.38135 8.44734 4.70828 8.77804 5.11157 8.77804C5.51487 8.77804 5.8418 8.44734 5.8418 8.04405C5.8418 7.64076 5.51487 7.31006 5.11157 7.31006C4.70828 7.31006 4.38135 7.64076 4.38135 8.04405Z" fill="#1CE7C2" fill-opacity="0.9"/>
<path d="M5.8418 24.1204C5.8418 24.5237 6.16873 24.8506 6.57202 24.8506C6.97532 24.8506 7.30225 24.5237 7.30225 24.1204C7.30225 23.7171 6.97532 23.3901 6.57202 23.3901C6.16873 23.3901 5.8418 23.7171 5.8418 24.1204Z" fill="#1CE7C2" fill-opacity="0.7"/>
<path d="M5.8418 22.6594C5.8418 23.0627 6.16873 23.3897 6.57202 23.3897C6.97532 23.3897 7.30225 23.0627 7.30225 22.6594C7.30225 22.2561 6.97532 21.9292 6.57202 21.9292C6.16873 21.9292 5.8418 22.2561 5.8418 22.6594Z" fill="#1CE7C2" fill-opacity="0.5"/>
<path d="M5.8418 21.1917C5.8418 21.5949 6.16873 21.9219 6.57202 21.9219C6.97532 21.9219 7.30225 21.5949 7.30225 21.1917C7.30225 20.7884 6.97532 20.4614 6.57202 20.4614C6.16873 20.4614 5.8418 20.7884 5.8418 21.1917Z" fill="#1CE7C2" fill-opacity="0.4"/>
<path d="M5.8418 18.2708C5.8418 18.674 6.16873 19.001 6.57202 19.001C6.97532 19.001 7.30225 18.674 7.30225 18.2708C7.30225 17.8675 6.97532 17.5405 6.57202 17.5405C6.16873 17.5405 5.8418 17.8675 5.8418 18.2708Z" fill="#1CE7C2" fill-opacity="0.4"/>
<path d="M5.8418 16.8103C5.8418 17.2136 6.16873 17.5405 6.57202 17.5405C6.97532 17.5405 7.30225 17.2136 7.30225 16.8103C7.30225 16.407 6.97532 16.0801 6.57202 16.0801C6.16873 16.0801 5.8418 16.407 5.8418 16.8103Z" fill="#1CE7C2" fill-opacity="0.5"/>
<path d="M5.8418 15.3499C5.8418 15.7531 6.16873 16.0801 6.57202 16.0801C6.97532 16.0801 7.30225 15.7531 7.30225 15.3499C7.30225 14.9466 6.97532 14.6196 6.57202 14.6196C6.16873 14.6196 5.8418 14.9466 5.8418 15.3499Z" fill="#1CE7C2" fill-opacity="0.5"/>
<path d="M5.8418 13.8894C5.8418 14.2927 6.16873 14.6196 6.57202 14.6196C6.97532 14.6196 7.30225 14.2927 7.30225 13.8894C7.30225 13.4861 6.97532 13.1592 6.57202 13.1592C6.16873 13.1592 5.8418 13.4861 5.8418 13.8894Z" fill="#1CE7C2" fill-opacity="0.5"/>
<path d="M5.8418 12.429C5.8418 12.8323 6.16873 13.1592 6.57202 13.1592C6.97532 13.1592 7.30225 12.8323 7.30225 12.429C7.30225 12.0257 6.97532 11.6987 6.57202 11.6987C6.16873 11.6987 5.8418 12.0257 5.8418 12.429Z" fill="#1CE7C2" fill-opacity="0.7"/>
<path d="M5.8418 10.9685C5.8418 11.3718 6.16873 11.6987 6.57202 11.6987C6.97532 11.6987 7.30225 11.3718 7.30225 10.9685C7.30225 10.5652 6.97532 10.2383 6.57202 10.2383C6.16873 10.2383 5.8418 10.5652 5.8418 10.9685Z" fill="#1CE7C2" fill-opacity="0.7"/>
<path d="M5.8418 9.50025C5.8418 9.90354 6.16873 10.2305 6.57202 10.2305C6.97532 10.2305 7.30225 9.90354 7.30225 9.50025C7.30225 9.09695 6.97532 8.77002 6.57202 8.77002C6.16873 8.77002 5.8418 9.09695 5.8418 9.50025Z" fill="#1CE7C2" fill-opacity="0.7"/>
<path d="M5.8418 8.04405C5.8418 8.44734 6.16873 8.77804 6.57202 8.77804C6.97532 8.77804 7.30225 8.44734 7.30225 8.04405C7.30225 7.64076 6.97532 7.31006 6.57202 7.31006C6.16873 7.31006 5.8418 7.64076 5.8418 8.04405Z" fill="#1CE7C2" fill-opacity="0.9"/>
<path d="M5.8418 6.57935C5.8418 6.98264 6.16873 7.30958 6.57202 7.30958C6.97532 7.30958 7.30225 6.98264 7.30225 6.57935C7.30225 6.17605 6.97532 5.84912 6.57202 5.84912C6.16873 5.84912 5.8418 6.17605 5.8418 6.57935Z" fill="#1CE7C2" fill-opacity="0.9"/>
<path d="M7.30981 24.1204C7.30981 24.5237 7.63675 24.8506 8.04004 24.8506C8.44333 24.8506 8.77027 24.5237 8.77027 24.1204C8.77027 23.7171 8.44333 23.3901 8.04004 23.3901C7.63675 23.3901 7.30981 23.7171 7.30981 24.1204Z" fill="#1CE7C2" fill-opacity="0.5"/>
<path d="M7.30981 22.6594C7.30981 23.0627 7.63675 23.3897 8.04004 23.3897C8.44333 23.3897 8.77027 23.0627 8.77027 22.6594C8.77027 22.2561 8.44333 21.9292 8.04004 21.9292C7.63675 21.9292 7.30981 22.2561 7.30981 22.6594Z" fill="#1CE7C2" fill-opacity="0.4"/>
<path d="M7.30981 19.7312C7.30981 20.1345 7.63675 20.4614 8.04004 20.4614C8.44333 20.4614 8.77027 20.1345 8.77027 19.7312C8.77027 19.3279 8.44333 19.001 8.04004 19.001C7.63675 19.001 7.30981 19.3279 7.30981 19.7312Z" fill="#1CE7C2" fill-opacity="0.4"/>
<path d="M7.30981 18.2708C7.30981 18.674 7.63675 19.001 8.04004 19.001C8.44333 19.001 8.77027 18.674 8.77027 18.2708C8.77027 17.8675 8.44333 17.5405 8.04004 17.5405C7.63675 17.5405 7.30981 17.8675 7.30981 18.2708Z" fill="#1CE7C2" fill-opacity="0.4"/>
<path d="M7.30981 12.429C7.30981 12.8323 7.63675 13.1592 8.04004 13.1592C8.44333 13.1592 8.77027 12.8323 8.77027 12.429C8.77027 12.0257 8.44333 11.6987 8.04004 11.6987C7.63675 11.6987 7.30981 12.0257 7.30981 12.429Z" fill="#1CE7C2" fill-opacity="0.5"/>
<path d="M7.30981 10.9685C7.30981 11.3718 7.63675 11.6987 8.04004 11.6987C8.44333 11.6987 8.77027 11.3718 8.77027 10.9685C8.77027 10.5652 8.44333 10.2383 8.04004 10.2383C7.63675 10.2383 7.30981 10.5652 7.30981 10.9685Z" fill="#1CE7C2" fill-opacity="0.5"/>
<path d="M7.30981 9.50025C7.30981 9.90354 7.63675 10.2305 8.04004 10.2305C8.44333 10.2305 8.77027 9.90354 8.77027 9.50025C8.77027 9.09695 8.44333 8.77002 8.04004 8.77002C7.63675 8.77002 7.30981 9.09695 7.30981 9.50025Z" fill="#1CE7C2" fill-opacity="0.7"/>
<path d="M7.30981 8.04405C7.30981 8.44734 7.63675 8.77804 8.04004 8.77804C8.44333 8.77804 8.77027 8.44734 8.77027 8.04405C8.77027 7.64076 8.44333 7.31006 8.04004 7.31006C7.63675 7.31006 7.30981 7.64076 7.30981 8.04405Z" fill="#1CE7C2" fill-opacity="0.7"/>
<path d="M7.30981 6.57935C7.30981 6.98264 7.63675 7.30958 8.04004 7.30958C8.44333 7.30958 8.77027 6.98264 8.77027 6.57935C8.77027 6.17605 8.44333 5.84912 8.04004 5.84912C7.63675 5.84912 7.30981 6.17605 7.30981 6.57935Z" fill="#1CE7C2" fill-opacity="0.9"/>
<path d="M7.30981 5.11157C7.30981 5.51487 7.63675 5.8418 8.04004 5.8418C8.44333 5.8418 8.77027 5.51487 8.77027 5.11157C8.77027 4.70828 8.44333 4.38135 8.04004 4.38135C7.63675 4.38135 7.30981 4.70828 7.30981 5.11157Z" fill="#1CE7C2" fill-opacity="0.9"/>
<path d="M8.77026 24.1204C8.77026 24.5237 9.0972 24.8506 9.50049 24.8506C9.90378 24.8506 10.2307 24.5237 10.2307 24.1204C10.2307 23.7171 9.90378 23.3901 9.50049 23.3901C9.0972 23.3901 8.77026 23.7171 8.77026 24.1204Z" fill="#1CE7C2" fill-opacity="0.5"/>
<path d="M8.77026 22.6594C8.77026 23.0627 9.0972 23.3897 9.50049 23.3897C9.90378 23.3897 10.2307 23.0627 10.2307 22.6594C10.2307 22.2561 9.90378 21.9292 9.50049 21.9292C9.0972 21.9292 8.77026 22.2561 8.77026 22.6594Z" fill="#1CE7C2" fill-opacity="0.4"/>
<path d="M8.77026 19.7312C8.77026 20.1345 9.0972 20.4614 9.50049 20.4614C9.90378 20.4614 10.2307 20.1345 10.2307 19.7312C10.2307 19.3279 9.90378 19.001 9.50049 19.001C9.0972 19.001 8.77026 19.3279 8.77026 19.7312Z" fill="#1CE7C2" fill-opacity="0.4"/>
<path d="M8.77026 18.2708C8.77026 18.674 9.0972 19.001 9.50049 19.001C9.90378 19.001 10.2307 18.674 10.2307 18.2708C10.2307 17.8675 9.90378 17.5405 9.50049 17.5405C9.0972 17.5405 8.77026 17.8675 8.77026 18.2708Z" fill="#1CE7C2" fill-opacity="0.4"/>
<path d="M8.77026 16.8103C8.77026 17.2136 9.0972 17.5405 9.50049 17.5405C9.90378 17.5405 10.2307 17.2136 10.2307 16.8103C10.2307 16.407 9.90378 16.0801 9.50049 16.0801C9.0972 16.0801 8.77026 16.407 8.77026 16.8103Z" fill="#1CE7C2" fill-opacity="0.4"/>
<path d="M8.77026 15.3499C8.77026 15.7531 9.0972 16.0801 9.50049 16.0801C9.90378 16.0801 10.2307 15.7531 10.2307 15.3499C10.2307 14.9466 9.90378 14.6196 9.50049 14.6196C9.0972 14.6196 8.77026 14.9466 8.77026 15.3499Z" fill="#1CE7C2" fill-opacity="0.4"/>
<path d="M8.77026 13.8894C8.77026 14.2927 9.0972 14.6196 9.50049 14.6196C9.90378 14.6196 10.2307 14.2927 10.2307 13.8894C10.2307 13.4861 9.90378 13.1592 9.50049 13.1592C9.0972 13.1592 8.77026 13.4861 8.77026 13.8894Z" fill="#1CE7C2" fill-opacity="0.5"/>
<path d="M8.77026 12.429C8.77026 12.8323 9.0972 13.1592 9.50049 13.1592C9.90378 13.1592 10.2307 12.8323 10.2307 12.429C10.2307 12.0257 9.90378 11.6987 9.50049 11.6987C9.0972 11.6987 8.77026 12.0257 8.77026 12.429Z" fill="#1CE7C2" fill-opacity="0.5"/>
<path d="M8.77026 10.9685C8.77026 11.3718 9.0972 11.6987 9.50049 11.6987C9.90378 11.6987 10.2307 11.3718 10.2307 10.9685C10.2307 10.5652 9.90378 10.2383 9.50049 10.2383C9.0972 10.2383 8.77026 10.5652 8.77026 10.9685Z" fill="#1CE7C2" fill-opacity="0.7"/>
<path d="M8.77026 9.50025C8.77026 9.90354 9.0972 10.2305 9.50049 10.2305C9.90378 10.2305 10.2307 9.90354 10.2307 9.50025C10.2307 9.09695 9.90378 8.77002 9.50049 8.77002C9.0972 8.77002 8.77026 9.09695 8.77026 9.50025Z" fill="#1CE7C2" fill-opacity="0.7"/>
<path d="M8.77026 8.04405C8.77026 8.44734 9.0972 8.77804 9.50049 8.77804C9.90378 8.77804 10.2307 8.44734 10.2307 8.04405C10.2307 7.64076 9.90378 7.31006 9.50049 7.31006C9.0972 7.31006 8.77026 7.64076 8.77026 8.04405Z" fill="#1CE7C2" fill-opacity="0.7"/>
<path d="M8.77026 6.57935C8.77026 6.98264 9.0972 7.30958 9.50049 7.30958C9.90378 7.30958 10.2307 6.98264 10.2307 6.57935C10.2307 6.17606 9.90378 5.84912 9.50049 5.84912C9.0972 5.84912 8.77026 6.17606 8.77026 6.57935Z" fill="#1CE7C2" fill-opacity="0.7"/>
<path d="M8.77026 5.11157C8.77026 5.51487 9.0972 5.8418 9.50049 5.8418C9.90378 5.8418 10.2307 5.51487 10.2307 5.11157C10.2307 4.70828 9.90378 4.38135 9.50049 4.38135C9.0972 4.38135 8.77026 4.70828 8.77026 5.11157Z" fill="#1CE7C2" fill-opacity="0.9"/>
<path d="M8.77026 3.65113C8.77026 4.05442 9.0972 4.38135 9.50049 4.38135C9.90378 4.38135 10.2307 4.05442 10.2307 3.65113C10.2307 3.24783 9.90378 2.9209 9.50049 2.9209C9.0972 2.9209 8.77026 3.24783 8.77026 3.65113Z" fill="#1CE7C2" fill-opacity="0.9"/>
<path d="M10.2307 24.1204C10.2307 24.5237 10.5576 24.8506 10.9609 24.8506C11.3642 24.8506 11.6912 24.5237 11.6912 24.1204C11.6912 23.7171 11.3642 23.3901 10.9609 23.3901C10.5576 23.3901 10.2307 23.7171 10.2307 24.1204Z" fill="#1CE7C2" fill-opacity="0.5"/>
<path d="M10.2307 22.6594C10.2307 23.0627 10.5576 23.3897 10.9609 23.3897C11.3642 23.3897 11.6912 23.0627 11.6912 22.6594C11.6912 22.2561 11.3642 21.9292 10.9609 21.9292C10.5576 21.9292 10.2307 22.2561 10.2307 22.6594Z" fill="#1CE7C2" fill-opacity="0.4"/>
<path d="M10.2307 19.7312C10.2307 20.1345 10.5576 20.4614 10.9609 20.4614C11.3642 20.4614 11.6912 20.1345 11.6912 19.7312C11.6912 19.3279 11.3642 19.001 10.9609 19.001C10.5576 19.001 10.2307 19.3279 10.2307 19.7312Z" fill="#1CE7C2" fill-opacity="0.4"/>
<path d="M10.2307 18.2708C10.2307 18.674 10.5576 19.001 10.9609 19.001C11.3642 19.001 11.6912 18.674 11.6912 18.2708C11.6912 17.8675 11.3642 17.5405 10.9609 17.5405C10.5576 17.5405 10.2307 17.8675 10.2307 18.2708Z" fill="#1CE7C2" fill-opacity="0.4"/>
<path d="M10.2307 16.8103C10.2307 17.2136 10.5576 17.5405 10.9609 17.5405C11.3642 17.5405 11.6912 17.2136 11.6912 16.8103C11.6912 16.407 11.3642 16.0801 10.9609 16.0801C10.5576 16.0801 10.2307 16.407 10.2307 16.8103Z" fill="#1CE7C2" fill-opacity="0.4"/>
<path d="M10.2307 15.3499C10.2307 15.7531 10.5576 16.0801 10.9609 16.0801C11.3642 16.0801 11.6912 15.7531 11.6912 15.3499C11.6912 14.9466 11.3642 14.6196 10.9609 14.6196C10.5576 14.6196 10.2307 14.9466 10.2307 15.3499Z" fill="#1CE7C2" fill-opacity="0.5"/>
<path d="M10.2307 13.8894C10.2307 14.2927 10.5576 14.6196 10.9609 14.6196C11.3642 14.6196 11.6912 14.2927 11.6912 13.8894C11.6912 13.4861 11.3642 13.1592 10.9609 13.1592C10.5576 13.1592 10.2307 13.4861 10.2307 13.8894Z" fill="#1CE7C2" fill-opacity="0.7"/>
<path d="M10.2307 12.429C10.2307 12.8323 10.5576 13.1592 10.9609 13.1592C11.3642 13.1592 11.6912 12.8323 11.6912 12.429C11.6912 12.0257 11.3642 11.6987 10.9609 11.6987C10.5576 11.6987 10.2307 12.0257 10.2307 12.429Z" fill="#1CE7C2" fill-opacity="0.7"/>
<path d="M10.2307 10.9685C10.2307 11.3718 10.5576 11.6987 10.9609 11.6987C11.3642 11.6987 11.6912 11.3718 11.6912 10.9685C11.6912 10.5652 11.3642 10.2383 10.9609 10.2383C10.5576 10.2383 10.2307 10.5652 10.2307 10.9685Z" fill="#1CE7C2" fill-opacity="0.7"/>
<path d="M10.2307 9.50025C10.2307 9.90354 10.5576 10.2305 10.9609 10.2305C11.3642 10.2305 11.6912 9.90354 11.6912 9.50025C11.6912 9.09695 11.3642 8.77002 10.9609 8.77002C10.5576 8.77002 10.2307 9.09695 10.2307 9.50025Z" fill="#1CE7C2" fill-opacity="0.7"/>
<path d="M10.2307 8.04405C10.2307 8.44734 10.5576 8.77804 10.9609 8.77804C11.3642 8.77804 11.6912 8.44734 11.6912 8.04405C11.6912 7.64076 11.3642 7.31006 10.9609 7.31006C10.5576 7.31006 10.2307 7.64076 10.2307 8.04405Z" fill="#1CE7C2" fill-opacity="0.9"/>
<path d="M10.2307 6.57935C10.2307 6.98264 10.5576 7.30958 10.9609 7.30958C11.3642 7.30958 11.6912 6.98264 11.6912 6.57935C11.6912 6.17605 11.3642 5.84912 10.9609 5.84912C10.5576 5.84912 10.2307 6.17605 10.2307 6.57935Z" fill="#1CE7C2" fill-opacity="0.9"/>
<path d="M10.2307 5.11157C10.2307 5.51487 10.5576 5.8418 10.9609 5.8418C11.3642 5.8418 11.6912 5.51487 11.6912 5.11157C11.6912 4.70828 11.3642 4.38135 10.9609 4.38135C10.5576 4.38135 10.2307 4.70828 10.2307 5.11157Z" fill="#1CE7C2" fill-opacity="0.9"/>
<path d="M10.2307 3.65113C10.2307 4.05442 10.5576 4.38135 10.9609 4.38135C11.3642 4.38135 11.6912 4.05442 11.6912 3.65113C11.6912 3.24783 11.3642 2.9209 10.9609 2.9209C10.5576 2.9209 10.2307 3.24783 10.2307 3.65113Z" fill="#1CE7C2" fill-opacity="0.9"/>
<path d="M10.2307 2.19068C10.2307 2.59397 10.5576 2.9209 10.9609 2.9209C11.3642 2.9209 11.6912 2.59397 11.6912 2.19068C11.6912 1.78738 11.3642 1.46045 10.9609 1.46045C10.5576 1.46045 10.2307 1.78738 10.2307 2.19068Z" fill="#1CE7C2" fill-opacity="0.9"/>
<path d="M11.6912 24.1204C11.6912 24.5237 12.0219 24.8506 12.4252 24.8506C12.8284 24.8506 13.1591 24.5237 13.1591 24.1204C13.1591 23.7171 12.8284 23.3901 12.4252 23.3901C12.0219 23.3901 11.6912 23.7171 11.6912 24.1204Z" fill="#1CE7C2" fill-opacity="0.5"/>
<path d="M11.6912 22.6594C11.6912 23.0627 12.0219 23.3897 12.4252 23.3897C12.8284 23.3897 13.1591 23.0627 13.1591 22.6594C13.1591 22.2561 12.8284 21.9292 12.4252 21.9292C12.0219 21.9292 11.6912 22.2561 11.6912 22.6594Z" fill="#1CE7C2" fill-opacity="0.4"/>
<path d="M11.6912 19.7312C11.6912 20.1345 12.0219 20.4614 12.4252 20.4614C12.8284 20.4614 13.1591 20.1345 13.1591 19.7312C13.1591 19.3279 12.8284 19.001 12.4252 19.001C12.0219 19.001 11.6912 19.3279 11.6912 19.7312Z" fill="#1CE7C2" fill-opacity="0.4"/>
<path d="M11.6912 18.2708C11.6912 18.674 12.0219 19.001 12.4252 19.001C12.8284 19.001 13.1591 18.674 13.1591 18.2708C13.1591 17.8675 12.8284 17.5405 12.4252 17.5405C12.0219 17.5405 11.6912 17.8675 11.6912 18.2708Z" fill="#1CE7C2" fill-opacity="0.4"/>
<path d="M11.6912 12.429C11.6912 12.8323 12.0219 13.1592 12.4252 13.1592C12.8284 13.1592 13.1591 12.8323 13.1591 12.429C13.1591 12.0257 12.8284 11.6987 12.4252 11.6987C12.0219 11.6987 11.6912 12.0257 11.6912 12.429Z" fill="#1CE7C2" fill-opacity="0.7"/>
<path d="M11.6912 10.9685C11.6912 11.3718 12.0219 11.6987 12.4252 11.6987C12.8284 11.6987 13.1591 11.3718 13.1591 10.9685C13.1591 10.5652 12.8284 10.2383 12.4252 10.2383C12.0219 10.2383 11.6912 10.5652 11.6912 10.9685Z" fill="#1CE7C2" fill-opacity="0.7"/>
<path d="M11.6912 9.50025C11.6912 9.90354 12.0219 10.2305 12.4252 10.2305C12.8284 10.2305 13.1591 9.90354 13.1591 9.50025C13.1591 9.09695 12.8284 8.77002 12.4252 8.77002C12.0219 8.77002 11.6912 9.09695 11.6912 9.50025Z" fill="#1CE7C2" fill-opacity="0.9"/>
<path d="M11.6912 8.04405C11.6912 8.44942 12.0198 8.77804 12.4252 8.77804C12.8305 8.77804 13.1591 8.44942 13.1591 8.04405C13.1591 7.63868 12.8305 7.31006 12.4252 7.31006C12.0198 7.31006 11.6912 7.63868 11.6912 8.04405Z" fill="#1CE7C2" fill-opacity="0.9"/>
<path d="M11.6912 6.57935C11.6912 6.98264 12.0219 7.30958 12.4252 7.30958C12.8284 7.30958 13.1591 6.98264 13.1591 6.57935C13.1591 6.17605 12.8284 5.84912 12.4252 5.84912C12.0219 5.84912 11.6912 6.17605 11.6912 6.57935Z" fill="#1CE7C2" fill-opacity="0.9"/>
<path d="M13.1592 24.1204C13.1592 24.5237 13.4861 24.8506 13.8894 24.8506C14.2927 24.8506 14.6196 24.5237 14.6196 24.1204C14.6196 23.7171 14.2927 23.3901 13.8894 23.3901C13.4861 23.3901 13.1592 23.7171 13.1592 24.1204Z" fill="#1CE7C2" fill-opacity="0.7"/>
<path d="M13.1592 22.6594C13.1592 23.0627 13.4861 23.3897 13.8894 23.3897C14.2927 23.3897 14.6196 23.0627 14.6196 22.6594C14.6196 22.2561 14.2927 21.9292 13.8894 21.9292C13.4861 21.9292 13.1592 22.2561 13.1592 22.6594Z" fill="#1CE7C2" fill-opacity="0.5"/>
<path d="M13.1592 21.1917C13.1592 21.5949 13.4861 21.9219 13.8894 21.9219C14.2927 21.9219 14.6196 21.5949 14.6196 21.1917C14.6196 20.7884 14.2927 20.4614 13.8894 20.4614C13.4861 20.4614 13.1592 20.7884 13.1592 21.1917Z" fill="#1CE7C2" fill-opacity="0.4"/>
<path d="M13.1592 18.2708C13.1592 18.674 13.4861 19.001 13.8894 19.001C14.2927 19.001 14.6196 18.674 14.6196 18.2708C14.6196 17.8675 14.2927 17.5405 13.8894 17.5405C13.4861 17.5405 13.1592 17.8675 13.1592 18.2708Z" fill="#1CE7C2" fill-opacity="0.5"/>
<path d="M13.1592 16.8103C13.1592 17.2136 13.4861 17.5405 13.8894 17.5405C14.2927 17.5405 14.6196 17.2136 14.6196 16.8103C14.6196 16.407 14.2927 16.0801 13.8894 16.0801C13.4861 16.0801 13.1592 16.407 13.1592 16.8103Z" fill="#1CE7C2" fill-opacity="0.5"/>
<path d="M13.1592 15.3499C13.1592 15.7531 13.4861 16.0801 13.8894 16.0801C14.2927 16.0801 14.6196 15.7531 14.6196 15.3499C14.6196 14.9466 14.2927 14.6196 13.8894 14.6196C13.4861 14.6196 13.1592 14.9466 13.1592 15.3499Z" fill="#1CE7C2" fill-opacity="0.5"/>
<path d="M13.1592 13.8894C13.1592 14.2927 13.4861 14.6196 13.8894 14.6196C14.2927 14.6196 14.6196 14.2927 14.6196 13.8894C14.6196 13.4861 14.2927 13.1592 13.8894 13.1592C13.4861 13.1592 13.1592 13.4861 13.1592 13.8894Z" fill="#1CE7C2" fill-opacity="0.5"/>
<path d="M13.1592 12.429C13.1592 12.8323 13.4861 13.1592 13.8894 13.1592C14.2927 13.1592 14.6196 12.8323 14.6196 12.429C14.6196 12.0257 14.2927 11.6987 13.8894 11.6987C13.4861 11.6987 13.1592 12.0257 13.1592 12.429Z" fill="#1CE7C2" fill-opacity="0.5"/>
<path d="M13.1592 10.9685C13.1592 11.3718 13.4861 11.6987 13.8894 11.6987C14.2927 11.6987 14.6196 11.3718 14.6196 10.9685C14.6196 10.5652 14.2927 10.2383 13.8894 10.2383C13.4861 10.2383 13.1592 10.5652 13.1592 10.9685Z" fill="#1CE7C2" fill-opacity="0.7"/>
<path d="M13.1592 9.50025C13.1592 9.90354 13.4861 10.2305 13.8894 10.2305C14.2927 10.2305 14.6196 9.90354 14.6196 9.50025C14.6196 9.09695 14.2927 8.77002 13.8894 8.77002C13.4861 8.77002 13.1592 9.09695 13.1592 9.50025Z" fill="#1CE7C2" fill-opacity="0.9"/>
<path d="M14.6196 22.6594C14.6196 23.0627 14.9466 23.3897 15.3499 23.3897C15.7531 23.3897 16.0801 23.0627 16.0801 22.6594C16.0801 22.2561 15.7531 21.9292 15.3499 21.9292C14.9466 21.9292 14.6196 22.2561 14.6196 22.6594Z" fill="#1CE7C2" fill-opacity="0.7"/>
<path d="M14.6196 21.1917C14.6196 21.5949 14.9466 21.9219 15.3499 21.9219C15.7531 21.9219 16.0801 21.5949 16.0801 21.1917C16.0801 20.7884 15.7531 20.4614 15.3499 20.4614C14.9466 20.4614 14.6196 20.7884 14.6196 21.1917Z" fill="#1CE7C2" fill-opacity="0.5"/>
<path d="M14.6196 19.7312C14.6196 20.1345 14.9466 20.4614 15.3499 20.4614C15.7532 20.4614 16.0801 20.1345 16.0801 19.7312C16.0801 19.3279 15.7532 19.001 15.3499 19.001C14.9466 19.001 14.6196 19.3279 14.6196 19.7312Z" fill="#1CE7C2" fill-opacity="0.5"/>
<path d="M14.6196 18.2708C14.6196 18.674 14.9466 19.001 15.3499 19.001C15.7531 19.001 16.0801 18.674 16.0801 18.2708C16.0801 17.8675 15.7531 17.5405 15.3499 17.5405C14.9466 17.5405 14.6196 17.8675 14.6196 18.2708Z" fill="#1CE7C2" fill-opacity="0.5"/>
<path d="M14.6196 16.8103C14.6196 17.2136 14.9466 17.5405 15.3499 17.5405C15.7531 17.5405 16.0801 17.2136 16.0801 16.8103C16.0801 16.407 15.7531 16.0801 15.3499 16.0801C14.9466 16.0801 14.6196 16.407 14.6196 16.8103Z" fill="#1CE7C2" fill-opacity="0.7"/>
<path d="M14.6196 15.3499C14.6196 15.7531 14.9466 16.0801 15.3499 16.0801C15.7531 16.0801 16.0801 15.7531 16.0801 15.3499C16.0801 14.9466 15.7531 14.6196 15.3499 14.6196C14.9466 14.6196 14.6196 14.9466 14.6196 15.3499Z" fill="#1CE7C2" fill-opacity="0.7"/>
<path d="M14.6196 13.8894C14.6196 14.2927 14.9466 14.6196 15.3499 14.6196C15.7532 14.6196 16.0801 14.2927 16.0801 13.8894C16.0801 13.4861 15.7532 13.1592 15.3499 13.1592C14.9466 13.1592 14.6196 13.4861 14.6196 13.8894Z" fill="#1CE7C2" fill-opacity="0.7"/>
<path d="M14.6196 12.429C14.6196 12.8323 14.9466 13.1592 15.3499 13.1592C15.7531 13.1592 16.0801 12.8323 16.0801 12.429C16.0801 12.0257 15.7531 11.6987 15.3499 11.6987C14.9466 11.6987 14.6196 12.0257 14.6196 12.429Z" fill="#1CE7C2" fill-opacity="0.7"/>
<path d="M14.6196 10.9685C14.6196 11.3718 14.9466 11.6987 15.3499 11.6987C15.7532 11.6987 16.0801 11.3718 16.0801 10.9685C16.0801 10.5652 15.7532 10.2383 15.3499 10.2383C14.9466 10.2383 14.6196 10.5652 14.6196 10.9685Z" fill="#1CE7C2" fill-opacity="0.7"/>
<path d="M16.0801 21.1917C16.0801 21.5949 16.407 21.9219 16.8103 21.9219C17.2136 21.9219 17.5405 21.5949 17.5405 21.1917C17.5405 20.7884 17.2136 20.4614 16.8103 20.4614C16.407 20.4614 16.0801 20.7884 16.0801 21.1917Z" fill="#1CE7C2" fill-opacity="0.9"/>
<path d="M16.0801 19.7312C16.0801 20.1345 16.407 20.4614 16.8103 20.4614C17.2136 20.4614 17.5405 20.1345 17.5405 19.7312C17.5405 19.3279 17.2136 19.001 16.8103 19.001C16.407 19.001 16.0801 19.3279 16.0801 19.7312Z" fill="#1CE7C2" fill-opacity="0.7"/>
<path d="M16.0801 18.2708C16.0801 18.674 16.407 19.001 16.8103 19.001C17.2136 19.001 17.5405 18.674 17.5405 18.2708C17.5405 17.8675 17.2136 17.5405 16.8103 17.5405C16.407 17.5405 16.0801 17.8675 16.0801 18.2708Z" fill="#1CE7C2" fill-opacity="0.7"/>
<path d="M16.0801 16.8103C16.0801 17.2136 16.407 17.5405 16.8103 17.5405C17.2136 17.5405 17.5405 17.2136 17.5405 16.8103C17.5405 16.407 17.2136 16.0801 16.8103 16.0801C16.407 16.0801 16.0801 16.407 16.0801 16.8103Z" fill="#1CE7C2" fill-opacity="0.7"/>
<path d="M16.0801 15.3499C16.0801 15.7531 16.407 16.0801 16.8103 16.0801C17.2136 16.0801 17.5405 15.7531 17.5405 15.3499C17.5405 14.9466 17.2136 14.6196 16.8103 14.6196C16.407 14.6196 16.0801 14.9466 16.0801 15.3499Z" fill="#1CE7C2" fill-opacity="0.7"/>
<path d="M16.0801 13.8894C16.0801 14.2927 16.407 14.6196 16.8103 14.6196C17.2136 14.6196 17.5405 14.2927 17.5405 13.8894C17.5405 13.4861 17.2136 13.1592 16.8103 13.1592C16.407 13.1592 16.0801 13.4861 16.0801 13.8894Z" fill="#1CE7C2" fill-opacity="0.7"/>
<path d="M16.0801 12.429C16.0801 12.8323 16.407 13.1592 16.8103 13.1592C17.2136 13.1592 17.5405 12.8323 17.5405 12.429C17.5405 12.0257 17.2136 11.6987 16.8103 11.6987C16.407 11.6987 16.0801 12.0257 16.0801 12.429Z" fill="#1CE7C2" fill-opacity="0.7"/>
<path d="M17.5405 19.7312C17.5405 20.1345 17.8675 20.4614 18.2708 20.4614C18.674 20.4614 19.001 20.1345 19.001 19.7312C19.001 19.3279 18.674 19.001 18.2708 19.001C17.8675 19.001 17.5405 19.3279 17.5405 19.7312Z" fill="#1CE7C2" fill-opacity="0.9"/>
<path d="M17.5405 18.2708C17.5405 18.674 17.8675 19.001 18.2708 19.001C18.674 19.001 19.001 18.674 19.001 18.2708C19.001 17.8675 18.674 17.5405 18.2708 17.5405C17.8675 17.5405 17.5405 17.8675 17.5405 18.2708Z" fill="#1CE7C2" fill-opacity="0.9"/>
<path d="M17.5405 16.8103C17.5405 17.2136 17.8675 17.5405 18.2708 17.5405C18.674 17.5405 19.001 17.2136 19.001 16.8103C19.001 16.407 18.674 16.0801 18.2708 16.0801C17.8675 16.0801 17.5405 16.407 17.5405 16.8103Z" fill="#1CE7C2" fill-opacity="0.9"/>
<path d="M17.5405 15.3499C17.5405 15.7531 17.8675 16.0801 18.2708 16.0801C18.674 16.0801 19.001 15.7531 19.001 15.3499C19.001 14.9466 18.674 14.6196 18.2708 14.6196C17.8675 14.6196 17.5405 14.9466 17.5405 15.3499Z" fill="#1CE7C2" fill-opacity="0.9"/>
<path d="M17.5405 13.8894C17.5405 14.2927 17.8675 14.6196 18.2708 14.6196C18.674 14.6196 19.001 14.2927 19.001 13.8894C19.001 13.4861 18.674 13.1592 18.2708 13.1592C17.8675 13.1592 17.5405 13.4861 17.5405 13.8894Z" fill="#1CE7C2" fill-opacity="0.9"/>
<path d="M17.5405 12.429C17.5405 12.8323 17.8675 13.1592 18.2708 13.1592C18.674 13.1592 19.001 12.8323 19.001 12.429C19.001 12.0257 18.674 11.6987 18.2708 11.6987C17.8675 11.6987 17.5405 12.0257 17.5405 12.429Z" fill="#1CE7C2" fill-opacity="0.9"/>
<path d="M0 19.7312C0 20.1345 0.326934 20.4614 0.730227 20.4614C1.13352 20.4614 1.46045 20.1345 1.46045 19.7312C1.46045 19.3279 1.13352 19.001 0.730227 19.001C0.326934 19.001 0 19.3279 0 19.7312Z" fill="#1CE7C2"/>
<path d="M0 18.2708C0 18.674 0.326934 19.001 0.730227 19.001C1.13352 19.001 1.46045 18.674 1.46045 18.2708C1.46045 17.8675 1.13352 17.5405 0.730227 17.5405C0.326934 17.5405 0 17.8675 0 18.2708Z" fill="#1CE7C2"/>
<path d="M0 16.8103C0 17.2136 0.326934 17.5405 0.730227 17.5405C1.13352 17.5405 1.46045 17.2136 1.46045 16.8103C1.46045 16.407 1.13352 16.0801 0.730227 16.0801C0.326934 16.0801 0 16.407 0 16.8103Z" fill="#1CE7C2"/>
<path d="M0 15.3499C0 15.7531 0.326934 16.0801 0.730227 16.0801C1.13352 16.0801 1.46045 15.7531 1.46045 15.3499C1.46045 14.9466 1.13352 14.6196 0.730227 14.6196C0.326934 14.6196 0 14.9466 0 15.3499Z" fill="#1CE7C2"/>
<path d="M0 13.8894C0 14.2927 0.326934 14.6196 0.730227 14.6196C1.13352 14.6196 1.46045 14.2927 1.46045 13.8894C1.46045 13.4861 1.13352 13.1592 0.730227 13.1592C0.326934 13.1592 0 13.4861 0 13.8894Z" fill="#1CE7C2"/>
<path d="M1.46045 21.1917C1.46045 21.5949 1.78738 21.9219 2.19068 21.9219C2.59397 21.9219 2.9209 21.5949 2.9209 21.1917C2.9209 20.7884 2.59397 20.4614 2.19068 20.4614C1.78738 20.4614 1.46045 20.7884 1.46045 21.1917Z" fill="#1CE7C2"/>
<path d="M1.46045 12.429C1.46045 12.8323 1.78738 13.1592 2.19068 13.1592C2.59397 13.1592 2.9209 12.8323 2.9209 12.429C2.9209 12.0257 2.59397 11.6987 2.19068 11.6987C1.78738 11.6987 1.46045 12.0257 1.46045 12.429Z" fill="#1CE7C2"/>
<path d="M1.46045 10.9685C1.46045 11.3718 1.78738 11.6987 2.19068 11.6987C2.59397 11.6987 2.9209 11.3718 2.9209 10.9685C2.9209 10.5652 2.59397 10.2383 2.19068 10.2383C1.78738 10.2383 1.46045 10.5652 1.46045 10.9685Z" fill="#1CE7C2"/>
<path d="M2.9209 22.6594C2.9209 23.0627 3.24783 23.3897 3.65113 23.3897C4.05442 23.3897 4.38135 23.0627 4.38135 22.6594C4.38135 22.2561 4.05442 21.9292 3.65113 21.9292C3.24783 21.9292 2.9209 22.2561 2.9209 22.6594Z" fill="#1CE7C2"/>
<path d="M2.9209 9.50025C2.9209 9.90354 3.24783 10.2305 3.65113 10.2305C4.05442 10.2305 4.38135 9.90354 4.38135 9.50025C4.38135 9.09695 4.05442 8.77002 3.65113 8.77002C3.24783 8.77002 2.9209 9.09695 2.9209 9.50025Z" fill="#1CE7C2"/>
<path d="M2.9209 8.04405C2.9209 8.44734 3.24783 8.77804 3.65113 8.77804C4.05442 8.77804 4.38135 8.44734 4.38135 8.04405C4.38135 7.64076 4.05442 7.31006 3.65113 7.31006C3.24783 7.31006 2.9209 7.64076 2.9209 8.04405Z" fill="#1CE7C2"/>
<path d="M4.38135 24.1204C4.38135 24.5237 4.70828 24.8506 5.11157 24.8506C5.51487 24.8506 5.8418 24.5237 5.8418 24.1204C5.8418 23.7171 5.51487 23.3901 5.11157 23.3901C4.70828 23.3901 4.38135 23.7171 4.38135 24.1204Z" fill="#1CE7C2"/>
<path d="M4.38135 6.57935C4.38135 6.98264 4.70828 7.30958 5.11157 7.30958C5.51487 7.30958 5.8418 6.98264 5.8418 6.57935C5.8418 6.17606 5.51487 5.84912 5.11157 5.84912C4.70828 5.84912 4.38135 6.17606 4.38135 6.57935Z" fill="#1CE7C2"/>
<path d="M5.8418 25.5803C5.8418 25.9836 6.16873 26.3106 6.57202 26.3106C6.97532 26.3106 7.30225 25.9836 7.30225 25.5803C7.30225 25.177 6.97532 24.8501 6.57202 24.8501C6.16873 24.8501 5.8418 25.177 5.8418 25.5803Z" fill="#1CE7C2"/>
<path d="M5.8418 19.7312C5.8418 20.1345 6.16873 20.4614 6.57202 20.4614C6.97532 20.4614 7.30225 20.1345 7.30225 19.7312C7.30225 19.3279 6.97532 19.001 6.57202 19.001C6.16873 19.001 5.8418 19.3279 5.8418 19.7312Z" fill="#1CE7C2" fill-opacity="0.4"/>
<path d="M5.8418 5.11157C5.8418 5.51487 6.16873 5.8418 6.57202 5.8418C6.97532 5.8418 7.30225 5.51487 7.30225 5.11157C7.30225 4.70828 6.97532 4.38135 6.57202 4.38135C6.16873 4.38135 5.8418 4.70828 5.8418 5.11157Z" fill="#1CE7C2"/>
<path d="M7.30981 25.5803C7.30981 25.9836 7.63675 26.3106 8.04004 26.3106C8.44333 26.3106 8.77027 25.9836 8.77027 25.5803C8.77027 25.177 8.44333 24.8501 8.04004 24.8501C7.63675 24.8501 7.30981 25.177 7.30981 25.5803Z" fill="#1CE7C2"/>
<path d="M7.30981 21.1917C7.30981 21.5949 7.63675 21.9219 8.04004 21.9219C8.44333 21.9219 8.77027 21.5949 8.77027 21.1917C8.77027 20.7884 8.44333 20.4614 8.04004 20.4614C7.63675 20.4614 7.30981 20.7884 7.30981 21.1917Z" fill="#1CE7C2" fill-opacity="0.4"/>
<path d="M7.30981 16.8103C7.30981 17.2136 7.63675 17.5405 8.04004 17.5405C8.44333 17.5405 8.77027 17.2136 8.77027 16.8103C8.77027 16.407 8.44333 16.0801 8.04004 16.0801C7.63675 16.0801 7.30981 16.407 7.30981 16.8103Z" fill="#1CE7C2" fill-opacity="0.4"/>
<path d="M7.30981 15.3499C7.30981 15.7531 7.63675 16.0801 8.04004 16.0801C8.44333 16.0801 8.77027 15.7531 8.77027 15.3499C8.77027 14.9466 8.44333 14.6196 8.04004 14.6196C7.63675 14.6196 7.30981 14.9466 7.30981 15.3499Z" fill="#1CE7C2" fill-opacity="0.5"/>
<path d="M7.30981 13.8894C7.30981 14.2927 7.63675 14.6196 8.04004 14.6196C8.44333 14.6196 8.77027 14.2927 8.77027 13.8894C8.77027 13.4861 8.44333 13.1592 8.04004 13.1592C7.63675 13.1592 7.30981 13.4861 7.30981 13.8894Z" fill="#1CE7C2" fill-opacity="0.5"/>
<path d="M7.30981 3.65113C7.30981 4.05442 7.63675 4.38135 8.04004 4.38135C8.44333 4.38135 8.77027 4.05442 8.77027 3.65113C8.77027 3.24783 8.44333 2.9209 8.04004 2.9209C7.63675 2.9209 7.30981 3.24783 7.30981 3.65113Z" fill="#1CE7C2"/>
<path d="M8.77026 25.5803C8.77026 25.9836 9.0972 26.3106 9.50049 26.3106C9.90378 26.3106 10.2307 25.9836 10.2307 25.5803C10.2307 25.177 9.90378 24.8501 9.50049 24.8501C9.0972 24.8501 8.77026 25.177 8.77026 25.5803Z" fill="#1CE7C2"/>
<path d="M8.77026 21.1917C8.77026 21.5949 9.0972 21.9219 9.50049 21.9219C9.90378 21.9219 10.2307 21.5949 10.2307 21.1917C10.2307 20.7884 9.90378 20.4614 9.50049 20.4614C9.0972 20.4614 8.77026 20.7884 8.77026 21.1917Z" fill="#1CE7C2" fill-opacity="0.4"/>
<path d="M8.77026 2.19068C8.77026 2.59397 9.0972 2.9209 9.50049 2.9209C9.90378 2.9209 10.2307 2.59397 10.2307 2.19068C10.2307 1.78738 9.90378 1.46045 9.50049 1.46045C9.0972 1.46045 8.77026 1.78738 8.77026 2.19068Z" fill="#1CE7C2"/>
<path d="M10.2307 25.5803C10.2307 25.9836 10.5576 26.3106 10.9609 26.3106C11.3642 26.3106 11.6912 25.9836 11.6912 25.5803C11.6912 25.177 11.3642 24.8501 10.9609 24.8501C10.5576 24.8501 10.2307 25.177 10.2307 25.5803Z" fill="#1CE7C2"/>
<path d="M10.2307 21.1917C10.2307 21.5949 10.5576 21.9219 10.9609 21.9219C11.3642 21.9219 11.6912 21.5949 11.6912 21.1917C11.6912 20.7884 11.3642 20.4614 10.9609 20.4614C10.5576 20.4614 10.2307 20.7884 10.2307 21.1917Z" fill="#1CE7C2" fill-opacity="0.4"/>
<path d="M10.2307 0.730227C10.2307 1.13352 10.5576 1.46045 10.9609 1.46045C11.3642 1.46045 11.6912 1.13352 11.6912 0.730227C11.6912 0.326934 11.3642 0 10.9609 0C10.5576 0 10.2307 0.326934 10.2307 0.730227Z" fill="#1CE7C2"/>
<path d="M11.6912 25.5803C11.6912 25.9836 12.0219 26.3106 12.4252 26.3106C12.8284 26.3106 13.1591 25.9836 13.1591 25.5803C13.1591 25.177 12.8284 24.8501 12.4252 24.8501C12.0219 24.8501 11.6912 25.177 11.6912 25.5803Z" fill="#1CE7C2"/>
<path d="M11.6912 21.1917C11.6912 21.5949 12.0219 21.9219 12.4252 21.9219C12.8284 21.9219 13.1591 21.5949 13.1591 21.1917C13.1591 20.7884 12.8284 20.4614 12.4252 20.4614C12.0219 20.4614 11.6912 20.7884 11.6912 21.1917Z" fill="#1CE7C2" fill-opacity="0.4"/>
<path d="M11.6912 16.8103C11.6912 17.2136 12.0219 17.5405 12.4252 17.5405C12.8284 17.5405 13.1591 17.2136 13.1591 16.8103C13.1591 16.407 12.8284 16.0801 12.4252 16.0801C12.0219 16.0801 11.6912 16.407 11.6912 16.8103Z" fill="#1CE7C2" fill-opacity="0.4"/>
<path d="M11.6912 15.3499C11.6912 15.7531 12.0219 16.0801 12.4252 16.0801C12.8284 16.0801 13.1591 15.7531 13.1591 15.3499C13.1591 14.9466 12.8284 14.6196 12.4252 14.6196C12.0219 14.6196 11.6912 14.9466 11.6912 15.3499Z" fill="#1CE7C2" fill-opacity="0.5"/>
<path d="M11.6912 13.8894C11.6912 14.2927 12.0219 14.6196 12.4252 14.6196C12.8284 14.6196 13.1591 14.2927 13.1591 13.8894C13.1591 13.4861 12.8284 13.1592 12.4252 13.1592C12.0219 13.1592 11.6912 13.4861 11.6912 13.8894Z" fill="#1CE7C2" fill-opacity="0.5"/>
<path d="M11.6912 5.11157C11.6912 5.51487 12.0219 5.8418 12.4252 5.8418C12.8284 5.8418 13.1591 5.51487 13.1591 5.11157C13.1591 4.70828 12.8284 4.38135 12.4252 4.38135C12.0219 4.38135 11.6912 4.70828 11.6912 5.11157Z" fill="#1CE7C2"/>
<path d="M11.6912 3.65113C11.6912 4.05442 12.0219 4.38135 12.4252 4.38135C12.8284 4.38135 13.1591 4.05442 13.1591 3.65113C13.1591 3.24783 12.8284 2.9209 12.4252 2.9209C12.0219 2.9209 11.6912 3.24783 11.6912 3.65113Z" fill="#1CE7C2"/>
<path d="M11.6912 2.19068C11.6912 2.59397 12.0219 2.9209 12.4252 2.9209C12.8284 2.9209 13.1591 2.59397 13.1591 2.19068C13.1591 1.78738 12.8284 1.46045 12.4252 1.46045C12.0219 1.46045 11.6912 1.78738 11.6912 2.19068Z" fill="#1CE7C2"/>
<path d="M13.1592 25.5803C13.1592 25.9836 13.4861 26.3106 13.8894 26.3106C14.2927 26.3106 14.6196 25.9836 14.6196 25.5803C14.6196 25.177 14.2927 24.8501 13.8894 24.8501C13.4861 24.8501 13.1592 25.177 13.1592 25.5803Z" fill="#1CE7C2"/>
<path d="M13.1592 19.7312C13.1592 20.1345 13.4861 20.4614 13.8894 20.4614C14.2927 20.4614 14.6196 20.1345 14.6196 19.7312C14.6196 19.3279 14.2927 19.001 13.8894 19.001C13.4861 19.001 13.1592 19.3279 13.1592 19.7312Z" fill="#1CE7C2" fill-opacity="0.4"/>
<path d="M13.1592 8.04405C13.1592 8.44734 13.4861 8.77804 13.8894 8.77804C14.2927 8.77804 14.6196 8.44734 14.6196 8.04405C14.6196 7.64076 14.2927 7.31006 13.8894 7.31006C13.4861 7.31006 13.1592 7.64076 13.1592 8.04405Z" fill="#1CE7C2"/>
<path d="M13.1592 6.57935C13.1592 6.98264 13.4861 7.30958 13.8894 7.30958C14.2927 7.30958 14.6196 6.98264 14.6196 6.57935C14.6196 6.17606 14.2927 5.84912 13.8894 5.84912C13.4861 5.84912 13.1592 6.17606 13.1592 6.57935Z" fill="#1CE7C2"/>
<path d="M14.6196 24.1204C14.6196 24.5237 14.9466 24.8506 15.3499 24.8506C15.7531 24.8506 16.0801 24.5237 16.0801 24.1204C16.0801 23.7171 15.7531 23.3901 15.3499 23.3901C14.9466 23.3901 14.6196 23.7171 14.6196 24.1204Z" fill="#1CE7C2"/>
<path d="M16.0801 22.6594C16.0801 23.0627 16.407 23.3897 16.8103 23.3897C17.2136 23.3897 17.5405 23.0627 17.5405 22.6594C17.5405 22.2561 17.2136 21.9292 16.8103 21.9292C16.407 21.9292 16.0801 22.2561 16.0801 22.6594Z" fill="#1CE7C2"/>
<path d="M17.5405 21.1917C17.5405 21.5949 17.8675 21.9219 18.2708 21.9219C18.674 21.9219 19.001 21.5949 19.001 21.1917C19.001 20.7884 18.674 20.4614 18.2708 20.4614C17.8675 20.4614 17.5405 20.7884 17.5405 21.1917Z" fill="#1CE7C2"/>
<path d="M17.5405 10.9685C17.5405 11.3718 17.8675 11.6987 18.2708 11.6987C18.674 11.6987 19.001 11.3718 19.001 10.9685C19.001 10.5652 18.674 10.2383 18.2708 10.2383C17.8675 10.2383 17.5405 10.5652 17.5405 10.9685Z" fill="#1CE7C2"/>
<path d="M19.001 19.7312C19.001 20.1345 19.3279 20.4614 19.7312 20.4614C20.1345 20.4614 20.4614 20.1345 20.4614 19.7312C20.4614 19.3279 20.1345 19.001 19.7312 19.001C19.3279 19.001 19.001 19.3279 19.001 19.7312Z" fill="#1CE7C2"/>
<path d="M19.001 18.2708C19.001 18.674 19.3279 19.001 19.7312 19.001C20.1345 19.001 20.4614 18.674 20.4614 18.2708C20.4614 17.8675 20.1345 17.5405 19.7312 17.5405C19.3279 17.5405 19.001 17.8675 19.001 18.2708Z" fill="#1CE7C2"/>
<path d="M19.001 16.8103C19.001 17.2136 19.3279 17.5405 19.7312 17.5405C20.1345 17.5405 20.4614 17.2136 20.4614 16.8103C20.4614 16.407 20.1345 16.0801 19.7312 16.0801C19.3279 16.0801 19.001 16.407 19.001 16.8103Z" fill="#1CE7C2"/>
<path d="M19.001 15.3499C19.001 15.7531 19.3279 16.0801 19.7312 16.0801C20.1345 16.0801 20.4614 15.7531 20.4614 15.3499C20.4614 14.9466 20.1345 14.6196 19.7312 14.6196C19.3279 14.6196 19.001 14.9466 19.001 15.3499Z" fill="#1CE7C2"/>
<path d="M19.001 13.8894C19.001 14.2927 19.3279 14.6196 19.7312 14.6196C20.1345 14.6196 20.4614 14.2927 20.4614 13.8894C20.4614 13.4861 20.1345 13.1592 19.7312 13.1592C19.3279 13.1592 19.001 13.4861 19.001 13.8894Z" fill="#1CE7C2"/>
<path d="M19.001 12.429C19.001 12.8323 19.3279 13.1592 19.7312 13.1592C20.1345 13.1592 20.4614 12.8323 20.4614 12.429C20.4614 12.0257 20.1345 11.6987 19.7312 11.6987C19.3279 11.6987 19.001 12.0257 19.001 12.429Z" fill="#1CE7C2"/>
</svg>
