<svg width="24" height="24" viewBox="0 0 24 24" fill="none" xmlns="http://www.w3.org/2000/svg">
<rect x="0.5" y="0.5" width="23" height="23" rx="11.5" fill="black" fill-opacity="0.95"/>
<rect x="0.5" y="0.5" width="23" height="23" rx="11.5" stroke="#E0E0E0"/>
<path d="M6.99988 15.7492C6.99988 15.9791 7.18626 16.1655 7.41618 16.1655C7.6461 16.1655 7.83248 15.9791 7.83248 15.7492C7.83248 15.5193 7.6461 15.3329 7.41618 15.3329C7.18626 15.3329 6.99988 15.5193 6.99988 15.7492Z" fill="#C46BF0" fill-opacity="0.9"/>
<path d="M6.99988 14.9163C6.99988 15.1462 7.18626 15.3326 7.41618 15.3326C7.6461 15.3326 7.83248 15.1462 7.83248 14.9163C7.83248 14.6864 7.6461 14.5 7.41618 14.5C7.18626 14.5 6.99988 14.6864 6.99988 14.9163Z" fill="#C46BF0" fill-opacity="0.9"/>
<path d="M6.99988 14.0835C6.99988 14.3135 7.18626 14.4998 7.41618 14.4998C7.6461 14.4998 7.83248 14.3135 7.83248 14.0835C7.83248 13.8536 7.6461 13.6672 7.41618 13.6672C7.18626 13.6672 6.99988 13.8536 6.99988 14.0835Z" fill="#C46BF0" fill-opacity="0.9"/>
<path d="M6.99988 13.2513C6.99988 13.4812 7.18626 13.6676 7.41618 13.6676C7.6461 13.6676 7.83248 13.4812 7.83248 13.2513C7.83248 13.0213 7.6461 12.835 7.41618 12.835C7.18626 12.835 6.99988 13.0213 6.99988 13.2513Z" fill="#C46BF0" fill-opacity="0.9"/>
<path d="M6.99988 12.4185C6.99988 12.6484 7.18626 12.8348 7.41618 12.8348C7.6461 12.8348 7.83248 12.6484 7.83248 12.4185C7.83248 12.1886 7.6461 12.0022 7.41618 12.0022C7.18626 12.0022 6.99988 12.1886 6.99988 12.4185Z" fill="#9F9F9F" fill-opacity="0.9"/>
<path d="M7.83258 16.5815C7.83258 16.8114 8.01897 16.9978 8.24888 16.9978C8.4788 16.9978 8.66518 16.8114 8.66518 16.5815C8.66518 16.3515 8.4788 16.1652 8.24888 16.1652C8.01897 16.1652 7.83258 16.3515 7.83258 16.5815Z" fill="#C46BF0" fill-opacity="0.9"/>
<path d="M7.83258 15.7492C7.83258 15.9791 8.01897 16.1655 8.24888 16.1655C8.4788 16.1655 8.66518 15.9791 8.66518 15.7492C8.66518 15.5193 8.4788 15.3329 8.24888 15.3329C8.01897 15.3329 7.83258 15.5193 7.83258 15.7492Z" fill="#C46BF0" fill-opacity="0.7"/>
<path d="M7.83258 14.9163C7.83258 15.1462 8.01897 15.3326 8.24888 15.3326C8.4788 15.3326 8.66518 15.1462 8.66518 14.9163C8.66518 14.6864 8.4788 14.5 8.24888 14.5C8.01897 14.5 7.83258 14.6864 7.83258 14.9163Z" fill="#C46BF0" fill-opacity="0.7"/>
<path d="M7.83258 14.0835C7.83258 14.3135 8.01897 14.4998 8.24888 14.4998C8.4788 14.4998 8.66518 14.3135 8.66518 14.0835C8.66518 13.8536 8.4788 13.6672 8.24888 13.6672C8.01897 13.6672 7.83258 13.8536 7.83258 14.0835Z" fill="#C46BF0" fill-opacity="0.7"/>
<path d="M7.83258 13.2513C7.83258 13.4812 8.01897 13.6676 8.24888 13.6676C8.4788 13.6676 8.66518 13.4812 8.66518 13.2513C8.66518 13.0213 8.4788 12.835 8.24888 12.835C8.01897 12.835 7.83258 13.0213 7.83258 13.2513Z" fill="#C46BF0" fill-opacity="0.7"/>
<path d="M7.83258 12.4185C7.83258 12.6484 8.01897 12.8348 8.24888 12.8348C8.4788 12.8348 8.66518 12.6484 8.66518 12.4185C8.66518 12.1886 8.4788 12.0022 8.24888 12.0022C8.01897 12.0022 7.83258 12.1886 7.83258 12.4185Z" fill="#C46BF0" fill-opacity="0.7"/>
<path d="M7.83258 11.5856C7.83258 11.8155 8.01897 12.0019 8.24888 12.0019C8.4788 12.0019 8.66518 11.8155 8.66518 11.5856C8.66518 11.3557 8.4788 11.1693 8.24888 11.1693C8.01897 11.1693 7.83258 11.3557 7.83258 11.5856Z" fill="#9F9F9F" fill-opacity="0.9"/>
<path d="M7.83258 10.7531C7.83258 10.983 8.01897 11.1694 8.24888 11.1694C8.4788 11.1694 8.66518 10.983 8.66518 10.7531C8.66518 10.5232 8.4788 10.3368 8.24888 10.3368C8.01897 10.3368 7.83258 10.5232 7.83258 10.7531Z" fill="#9F9F9F" fill-opacity="0.9"/>
<path d="M8.66516 17.4186C8.66516 17.6485 8.85155 17.8349 9.08146 17.8349C9.31138 17.8349 9.49776 17.6485 9.49776 17.4186C9.49776 17.1887 9.31138 17.0023 9.08146 17.0023C8.85155 17.0023 8.66516 17.1887 8.66516 17.4186Z" fill="#C46BF0" fill-opacity="0.7"/>
<path d="M8.66516 16.5815C8.66516 16.8114 8.85155 16.9978 9.08146 16.9978C9.31138 16.9978 9.49776 16.8114 9.49776 16.5815C9.49776 16.3515 9.31138 16.1652 9.08146 16.1652C8.85155 16.1652 8.66516 16.3515 8.66516 16.5815Z" fill="#C46BF0" fill-opacity="0.5"/>
<path d="M8.66516 15.7492C8.66516 15.9791 8.85155 16.1655 9.08146 16.1655C9.31138 16.1655 9.49776 15.9791 9.49776 15.7492C9.49776 15.5193 9.31138 15.3329 9.08146 15.3329C8.85155 15.3329 8.66516 15.5193 8.66516 15.7492Z" fill="#C46BF0" fill-opacity="0.5"/>
<path d="M8.66516 14.9163C8.66516 15.1462 8.85155 15.3326 9.08146 15.3326C9.31138 15.3326 9.49776 15.1462 9.49776 14.9163C9.49776 14.6864 9.31138 14.5 9.08146 14.5C8.85155 14.5 8.66516 14.6864 8.66516 14.9163Z" fill="#C46BF0" fill-opacity="0.5"/>
<path d="M8.66516 14.0835C8.66516 14.3135 8.85155 14.4998 9.08146 14.4998C9.31138 14.4998 9.49776 14.3135 9.49776 14.0835C9.49776 13.8536 9.31138 13.6672 9.08146 13.6672C8.85155 13.6672 8.66516 13.8536 8.66516 14.0835Z" fill="#C46BF0" fill-opacity="0.5"/>
<path d="M8.66516 13.2513C8.66516 13.4812 8.85155 13.6676 9.08146 13.6676C9.31138 13.6676 9.49776 13.4812 9.49776 13.2513C9.49776 13.0213 9.31138 12.835 9.08146 12.835C8.85155 12.835 8.66516 13.0213 8.66516 13.2513Z" fill="#C46BF0" fill-opacity="0.5"/>
<path d="M8.66516 12.4185C8.66516 12.6484 8.85155 12.8348 9.08146 12.8348C9.31138 12.8348 9.49776 12.6484 9.49776 12.4185C9.49776 12.1886 9.31138 12.0022 9.08146 12.0022C8.85155 12.0022 8.66516 12.1886 8.66516 12.4185Z" fill="#C46BF0" fill-opacity="0.7"/>
<path d="M8.66516 11.5856C8.66516 11.8155 8.85155 12.0019 9.08146 12.0019C9.31138 12.0019 9.49776 11.8155 9.49776 11.5856C9.49776 11.3557 9.31138 11.1693 9.08146 11.1693C8.85155 11.1693 8.66516 11.3557 8.66516 11.5856Z" fill="#C46BF0" fill-opacity="0.7"/>
<path d="M8.66516 10.7531C8.66516 10.983 8.85155 11.1694 9.08146 11.1694C9.31138 11.1694 9.49776 10.983 9.49776 10.7531C9.49776 10.5232 9.31138 10.3368 9.08146 10.3368C8.85155 10.3368 8.66516 10.5232 8.66516 10.7531Z" fill="#9F9F9F" fill-opacity="0.9"/>
<path d="M8.66516 9.91618C8.66516 10.1461 8.85155 10.3325 9.08146 10.3325C9.31138 10.3325 9.49776 10.1461 9.49776 9.91618C9.49776 9.68626 9.31138 9.49988 9.08146 9.49988C8.85155 9.49988 8.66516 9.68626 8.66516 9.91618Z" fill="#9F9F9F" fill-opacity="0.9"/>
<path d="M8.66516 9.0858C8.66516 9.31572 8.85155 9.50425 9.08146 9.50425C9.31138 9.50425 9.49776 9.31572 9.49776 9.0858C9.49776 8.85589 9.31138 8.66736 9.08146 8.66736C8.85155 8.66736 8.66516 8.85589 8.66516 9.0858Z" fill="#9F9F9F" fill-opacity="0.9"/>
<path d="M9.49786 18.2511C9.49786 18.4811 9.68425 18.6674 9.91417 18.6674C10.1441 18.6674 10.3305 18.4811 10.3305 18.2511C10.3305 18.0212 10.1441 17.8348 9.91417 17.8348C9.68425 17.8348 9.49786 18.0212 9.49786 18.2511Z" fill="#C46BF0" fill-opacity="0.7"/>
<path d="M9.49786 17.4186C9.49786 17.6485 9.68425 17.8349 9.91417 17.8349C10.1441 17.8349 10.3305 17.6485 10.3305 17.4186C10.3305 17.1887 10.1441 17.0023 9.91417 17.0023C9.68425 17.0023 9.49786 17.1887 9.49786 17.4186Z" fill="#C46BF0" fill-opacity="0.5"/>
<path d="M9.49786 16.5815C9.49786 16.8114 9.68425 16.9978 9.91417 16.9978C10.1441 16.9978 10.3305 16.8114 10.3305 16.5815C10.3305 16.3515 10.1441 16.1652 9.91417 16.1652C9.68425 16.1652 9.49786 16.3515 9.49786 16.5815Z" fill="#C46BF0" fill-opacity="0.4"/>
<path d="M9.49786 14.9163C9.49786 15.1462 9.68425 15.3326 9.91417 15.3326C10.1441 15.3326 10.3305 15.1462 10.3305 14.9163C10.3305 14.6864 10.1441 14.5 9.91417 14.5C9.68425 14.5 9.49786 14.6864 9.49786 14.9163Z" fill="#C46BF0" fill-opacity="0.4"/>
<path d="M9.49786 14.0835C9.49786 14.3135 9.68425 14.4998 9.91417 14.4998C10.1441 14.4998 10.3305 14.3135 10.3305 14.0835C10.3305 13.8536 10.1441 13.6672 9.91417 13.6672C9.68425 13.6672 9.49786 13.8536 9.49786 14.0835Z" fill="#C46BF0" fill-opacity="0.5"/>
<path d="M9.49786 13.2513C9.49786 13.4812 9.68425 13.6676 9.91417 13.6676C10.1441 13.6676 10.3305 13.4812 10.3305 13.2513C10.3305 13.0213 10.1441 12.835 9.91417 12.835C9.68425 12.835 9.49786 13.0213 9.49786 13.2513Z" fill="#C46BF0" fill-opacity="0.5"/>
<path d="M9.49786 12.4185C9.49786 12.6484 9.68425 12.8348 9.91417 12.8348C10.1441 12.8348 10.3305 12.6484 10.3305 12.4185C10.3305 12.1886 10.1441 12.0022 9.91417 12.0022C9.68425 12.0022 9.49786 12.1886 9.49786 12.4185Z" fill="#C46BF0" fill-opacity="0.5"/>
<path d="M9.49774 11.5856C9.49774 11.8155 9.68413 12.0019 9.91404 12.0019C10.144 12.0019 10.3303 11.8155 10.3303 11.5856C10.3303 11.3557 10.144 11.1693 9.91404 11.1693C9.68413 11.1693 9.49774 11.3557 9.49774 11.5856Z" fill="#C46BF0" fill-opacity="0.7"/>
<path d="M9.49774 10.7531C9.49774 10.983 9.68413 11.1694 9.91404 11.1694C10.144 11.1694 10.3303 10.983 10.3303 10.7531C10.3303 10.5232 10.144 10.3368 9.91404 10.3368C9.68413 10.3368 9.49774 10.5232 9.49774 10.7531Z" fill="#9F9F9F" fill-opacity="0.7"/>
<path d="M9.49774 9.91618C9.49774 10.1461 9.68413 10.3325 9.91404 10.3325C10.144 10.3325 10.3303 10.1461 10.3303 9.91618C10.3303 9.68626 10.144 9.49988 9.91404 9.49988C9.68413 9.49988 9.49774 9.68626 9.49774 9.91618Z" fill="#9F9F9F" fill-opacity="0.7"/>
<path d="M9.49774 9.0858C9.49774 9.31572 9.68413 9.50425 9.91404 9.50425C10.144 9.50425 10.3303 9.31572 10.3303 9.0858C10.3303 8.85589 10.144 8.66736 9.91404 8.66736C9.68413 8.66736 9.49774 8.85589 9.49774 9.0858Z" fill="#9F9F9F" fill-opacity="0.9"/>
<path d="M9.49774 8.25114C9.49774 8.48106 9.68413 8.66744 9.91404 8.66744C10.144 8.66744 10.3303 8.48106 10.3303 8.25114C10.3303 8.02122 10.144 7.83484 9.91404 7.83484C9.68413 7.83484 9.49774 8.02122 9.49774 8.25114Z" fill="#9F9F9F" fill-opacity="0.9"/>
<path d="M10.3348 18.2511C10.3348 18.4811 10.5212 18.6674 10.7511 18.6674C10.981 18.6674 11.1674 18.4811 11.1674 18.2511C11.1674 18.0212 10.981 17.8348 10.7511 17.8348C10.5212 17.8348 10.3348 18.0212 10.3348 18.2511Z" fill="#C46BF0" fill-opacity="0.5"/>
<path d="M10.3348 17.4186C10.3348 17.6485 10.5212 17.8349 10.7511 17.8349C10.981 17.8349 11.1674 17.6485 11.1674 17.4186C11.1674 17.1887 10.981 17.0023 10.7511 17.0023C10.5212 17.0023 10.3348 17.1887 10.3348 17.4186Z" fill="#C46BF0" fill-opacity="0.4"/>
<path d="M10.3348 15.7492C10.3348 15.9791 10.5212 16.1655 10.7511 16.1655C10.981 16.1655 11.1674 15.9791 11.1674 15.7492C11.1674 15.5193 10.981 15.3329 10.7511 15.3329C10.5212 15.3329 10.3348 15.5193 10.3348 15.7492Z" fill="#C46BF0" fill-opacity="0.4"/>
<path d="M10.3348 14.9163C10.3348 15.1462 10.5212 15.3326 10.7511 15.3326C10.981 15.3326 11.1674 15.1462 11.1674 14.9163C11.1674 14.6864 10.981 14.5 10.7511 14.5C10.5212 14.5 10.3348 14.6864 10.3348 14.9163Z" fill="#C46BF0" fill-opacity="0.4"/>
<path d="M10.3348 11.5856C10.3348 11.8155 10.5212 12.0019 10.7511 12.0019C10.981 12.0019 11.1674 11.8155 11.1674 11.5856C11.1674 11.3557 10.981 11.1693 10.7511 11.1693C10.5212 11.1693 10.3348 11.3557 10.3348 11.5856Z" fill="#C46BF0" fill-opacity="0.7"/>
<path d="M10.3348 10.7531C10.3348 10.983 10.5212 11.1694 10.7511 11.1694C10.981 11.1694 11.1674 10.983 11.1674 10.7531C11.1674 10.5232 10.981 10.3368 10.7511 10.3368C10.5212 10.3368 10.3348 10.5232 10.3348 10.7531Z" fill="#9F9F9F" fill-opacity="0.866667"/>
<path d="M10.3348 9.91618C10.3348 10.1461 10.5212 10.3325 10.7511 10.3325C10.981 10.3325 11.1674 10.1461 11.1674 9.91618C11.1674 9.68626 10.981 9.49988 10.7511 9.49988C10.5212 9.49988 10.3348 9.68626 10.3348 9.91618Z" fill="#9F9F9F" fill-opacity="0.7"/>
<path d="M10.3348 9.0858C10.3348 9.31572 10.5212 9.50425 10.7511 9.50425C10.981 9.50425 11.1674 9.31572 11.1674 9.0858C11.1674 8.85589 10.981 8.66736 10.7511 8.66736C10.5212 8.66736 10.3348 8.85589 10.3348 9.0858Z" fill="#9F9F9F" fill-opacity="0.7"/>
<path d="M10.3348 8.25114C10.3348 8.48106 10.5212 8.66744 10.7511 8.66744C10.981 8.66744 11.1674 8.48106 11.1674 8.25114C11.1674 8.02122 10.981 7.83484 10.7511 7.83484C10.5212 7.83484 10.3348 8.02122 10.3348 8.25114Z" fill="#9F9F9F" fill-opacity="0.9"/>
<path d="M10.3348 7.41423C10.3348 7.64414 10.5212 7.83053 10.7511 7.83053C10.981 7.83053 11.1674 7.64414 11.1674 7.41423C11.1674 7.18431 10.981 6.99792 10.7511 6.99792C10.5212 6.99792 10.3348 7.18431 10.3348 7.41423Z" fill="#9F9F9F" fill-opacity="0.9"/>
<path d="M11.1673 18.2511C11.1673 18.4811 11.3537 18.6674 11.5836 18.6674C11.8135 18.6674 11.9999 18.4811 11.9999 18.2511C11.9999 18.0212 11.8135 17.8348 11.5836 17.8348C11.3537 17.8348 11.1673 18.0212 11.1673 18.2511Z" fill="#C46BF0" fill-opacity="0.5"/>
<path d="M11.1673 17.4186C11.1673 17.6485 11.3537 17.8349 11.5836 17.8349C11.8135 17.8349 11.9999 17.6485 11.9999 17.4186C11.9999 17.1887 11.8135 17.0023 11.5836 17.0023C11.3537 17.0023 11.1673 17.1887 11.1673 17.4186Z" fill="#C46BF0" fill-opacity="0.4"/>
<path d="M11.1673 15.7492C11.1673 15.9791 11.3537 16.1655 11.5836 16.1655C11.8135 16.1655 11.9999 15.9791 11.9999 15.7492C11.9999 15.5193 11.8135 15.3329 11.5836 15.3329C11.3537 15.3329 11.1673 15.5193 11.1673 15.7492Z" fill="#C46BF0" fill-opacity="0.4"/>
<path d="M11.1673 14.9163C11.1673 15.1462 11.3537 15.3326 11.5836 15.3326C11.8135 15.3326 11.9999 15.1462 11.9999 14.9163C11.9999 14.6864 11.8135 14.5 11.5836 14.5C11.3537 14.5 11.1673 14.6864 11.1673 14.9163Z" fill="#C46BF0" fill-opacity="0.4"/>
<path d="M11.1673 14.0835C11.1673 14.3135 11.3537 14.4998 11.5836 14.4998C11.8135 14.4998 11.9999 14.3135 11.9999 14.0835C11.9999 13.8536 11.8135 13.6672 11.5836 13.6672C11.3537 13.6672 11.1673 13.8536 11.1673 14.0835Z" fill="#C46BF0" fill-opacity="0.4"/>
<path d="M11.1673 13.2513C11.1673 13.4812 11.3537 13.6676 11.5836 13.6676C11.8135 13.6676 11.9999 13.4812 11.9999 13.2513C11.9999 13.0213 11.8135 12.835 11.5836 12.835C11.3537 12.835 11.1673 13.0213 11.1673 13.2513Z" fill="#C46BF0" fill-opacity="0.4"/>
<path d="M11.1673 12.4185C11.1673 12.6484 11.3537 12.8348 11.5836 12.8348C11.8135 12.8348 11.9999 12.6484 11.9999 12.4185C11.9999 12.1886 11.8135 12.0022 11.5836 12.0022C11.3537 12.0022 11.1673 12.1886 11.1673 12.4185Z" fill="#C46BF0" fill-opacity="0.5"/>
<path d="M11.1673 11.5856C11.1673 11.8155 11.3537 12.0019 11.5836 12.0019C11.8135 12.0019 11.9999 11.8155 11.9999 11.5856C11.9999 11.3557 11.8135 11.1693 11.5836 11.1693C11.3537 11.1693 11.1673 11.3557 11.1673 11.5856Z" fill="#9F9F9F" fill-opacity="0.866667"/>
<path d="M11.1673 10.7531C11.1673 10.983 11.3537 11.1694 11.5836 11.1694C11.8135 11.1694 11.9999 10.983 11.9999 10.7531C11.9999 10.5232 11.8135 10.3368 11.5836 10.3368C11.3537 10.3368 11.1673 10.5232 11.1673 10.7531Z" fill="#9F9F9F" fill-opacity="0.7"/>
<path d="M11.1673 9.91618C11.1673 10.1461 11.3537 10.3325 11.5836 10.3325C11.8135 10.3325 11.9999 10.1461 11.9999 9.91618C11.9999 9.68626 11.8135 9.49988 11.5836 9.49988C11.3537 9.49988 11.1673 9.68626 11.1673 9.91618Z" fill="#9F9F9F" fill-opacity="0.7"/>
<path d="M11.1673 9.0858C11.1673 9.31572 11.3537 9.50425 11.5836 9.50425C11.8135 9.50425 11.9999 9.31572 11.9999 9.0858C11.9999 8.85589 11.8135 8.66736 11.5836 8.66736C11.3537 8.66736 11.1673 8.85589 11.1673 9.0858Z" fill="#9F9F9F" fill-opacity="0.7"/>
<path d="M11.1673 8.25114C11.1673 8.48106 11.3537 8.66744 11.5836 8.66744C11.8135 8.66744 11.9999 8.48106 11.9999 8.25114C11.9999 8.02122 11.8135 7.83484 11.5836 7.83484C11.3537 7.83484 11.1673 8.02122 11.1673 8.25114Z" fill="#9F9F9F" fill-opacity="0.7"/>
<path d="M11.1673 7.41423C11.1673 7.64414 11.3537 7.83053 11.5836 7.83053C11.8135 7.83053 11.9999 7.64414 11.9999 7.41423C11.9999 7.18431 11.8135 6.99792 11.5836 6.99792C11.3537 6.99792 11.1673 7.18431 11.1673 7.41423Z" fill="#9F9F9F" fill-opacity="0.9"/>
<path d="M11.1673 6.58158C11.1673 6.8115 11.3537 6.99788 11.5836 6.99788C11.8135 6.99788 11.9999 6.8115 11.9999 6.58158C11.9999 6.35167 11.8135 6.16528 11.5836 6.16528C11.3537 6.16528 11.1673 6.35167 11.1673 6.58158Z" fill="#9F9F9F" fill-opacity="0.9"/>
<path d="M11.9999 18.2511C11.9999 18.4811 12.1863 18.6674 12.4162 18.6674C12.6462 18.6674 12.8325 18.4811 12.8325 18.2511C12.8325 18.0212 12.6462 17.8348 12.4162 17.8348C12.1863 17.8348 11.9999 18.0212 11.9999 18.2511Z" fill="#C46BF0" fill-opacity="0.5"/>
<path d="M11.9999 17.4186C11.9999 17.6485 12.1863 17.8349 12.4162 17.8349C12.6462 17.8349 12.8325 17.6485 12.8325 17.4186C12.8325 17.1887 12.6462 17.0023 12.4162 17.0023C12.1863 17.0023 11.9999 17.1887 11.9999 17.4186Z" fill="#C46BF0" fill-opacity="0.4"/>
<path d="M11.9999 15.7492C11.9999 15.9791 12.1863 16.1655 12.4162 16.1655C12.6462 16.1655 12.8325 15.9791 12.8325 15.7492C12.8325 15.5193 12.6462 15.3329 12.4162 15.3329C12.1863 15.3329 11.9999 15.5193 11.9999 15.7492Z" fill="#C46BF0" fill-opacity="0.4"/>
<path d="M11.9999 14.9163C11.9999 15.1462 12.1863 15.3326 12.4162 15.3326C12.6462 15.3326 12.8325 15.1462 12.8325 14.9163C12.8325 14.6864 12.6462 14.5 12.4162 14.5C12.1863 14.5 11.9999 14.6864 11.9999 14.9163Z" fill="#C46BF0" fill-opacity="0.4"/>
<path d="M11.9999 14.0835C11.9999 14.3135 12.1863 14.4998 12.4162 14.4998C12.6462 14.4998 12.8325 14.3135 12.8325 14.0835C12.8325 13.8536 12.6462 13.6672 12.4162 13.6672C12.1863 13.6672 11.9999 13.8536 11.9999 14.0835Z" fill="#C46BF0" fill-opacity="0.4"/>
<path d="M11.9999 13.2513C11.9999 13.4812 12.1863 13.6676 12.4162 13.6676C12.6462 13.6676 12.8325 13.4812 12.8325 13.2513C12.8325 13.0213 12.6462 12.835 12.4162 12.835C12.1863 12.835 11.9999 13.0213 11.9999 13.2513Z" fill="#C46BF0" fill-opacity="0.4"/>
<path d="M11.9999 12.4185C11.9999 12.6484 12.1863 12.8348 12.4162 12.8348C12.6462 12.8348 12.8325 12.6484 12.8325 12.4185C12.8325 12.1886 12.6462 12.0022 12.4162 12.0022C12.1863 12.0022 11.9999 12.1886 11.9999 12.4185Z" fill="#9F9F9F" fill-opacity="0.7"/>
<path d="M11.9999 11.5856C11.9999 11.8155 12.1863 12.0019 12.4162 12.0019C12.6462 12.0019 12.8325 11.8155 12.8325 11.5856C12.8325 11.3557 12.6462 11.1693 12.4162 11.1693C12.1863 11.1693 11.9999 11.3557 11.9999 11.5856Z" fill="#9F9F9F" fill-opacity="0.7"/>
<path d="M11.9999 10.7531C11.9999 10.983 12.1863 11.1694 12.4162 11.1694C12.6462 11.1694 12.8325 10.983 12.8325 10.7531C12.8325 10.5232 12.6462 10.3368 12.4162 10.3368C12.1863 10.3368 11.9999 10.5232 11.9999 10.7531Z" fill="#9F9F9F" fill-opacity="0.7"/>
<path d="M11.9999 9.91618C11.9999 10.1461 12.1863 10.3325 12.4162 10.3325C12.6462 10.3325 12.8325 10.1461 12.8325 9.91618C12.8325 9.68626 12.6462 9.49988 12.4162 9.49988C12.1863 9.49988 11.9999 9.68626 11.9999 9.91618Z" fill="#9F9F9F" fill-opacity="0.7"/>
<path d="M11.9999 9.0858C11.9999 9.31572 12.1863 9.50425 12.4162 9.50425C12.6462 9.50425 12.8325 9.31572 12.8325 9.0858C12.8325 8.85589 12.6462 8.66736 12.4162 8.66736C12.1863 8.66736 11.9999 8.85589 11.9999 9.0858Z" fill="#9F9F9F" fill-opacity="0.9"/>
<path d="M11.9999 8.25114C11.9999 8.48106 12.1863 8.66744 12.4162 8.66744C12.6462 8.66744 12.8325 8.48106 12.8325 8.25114C12.8325 8.02122 12.6462 7.83484 12.4162 7.83484C12.1863 7.83484 11.9999 8.02122 11.9999 8.25114Z" fill="#9F9F9F" fill-opacity="0.9"/>
<path d="M11.9999 7.41423C11.9999 7.64414 12.1863 7.83053 12.4162 7.83053C12.6462 7.83053 12.8325 7.64414 12.8325 7.41423C12.8325 7.18431 12.6462 6.99792 12.4162 6.99792C12.1863 6.99792 11.9999 7.18431 11.9999 7.41423Z" fill="#9F9F9F" fill-opacity="0.9"/>
<path d="M11.9999 6.58158C11.9999 6.8115 12.1863 6.99788 12.4162 6.99788C12.6462 6.99788 12.8325 6.8115 12.8325 6.58158C12.8325 6.35167 12.6462 6.16528 12.4162 6.16528C12.1863 6.16528 11.9999 6.35167 11.9999 6.58158Z" fill="#9F9F9F" fill-opacity="0.9"/>
<path d="M11.9999 5.74882C11.9999 5.97874 12.1863 6.16512 12.4162 6.16512C12.6462 6.16512 12.8325 5.97874 12.8325 5.74882C12.8325 5.5189 12.6462 5.33252 12.4162 5.33252C12.1863 5.33252 11.9999 5.5189 11.9999 5.74882Z" fill="#9F9F9F" fill-opacity="0.9"/>
<path d="M12.8326 18.2511C12.8326 18.4811 13.0211 18.6674 13.251 18.6674C13.4809 18.6674 13.6695 18.4811 13.6695 18.2511C13.6695 18.0212 13.4809 17.8348 13.251 17.8348C13.0211 17.8348 12.8326 18.0212 12.8326 18.2511Z" fill="#C46BF0" fill-opacity="0.5"/>
<path d="M12.8326 17.4186C12.8326 17.6485 13.0211 17.8349 13.251 17.8349C13.4809 17.8349 13.6695 17.6485 13.6695 17.4186C13.6695 17.1887 13.4809 17.0023 13.251 17.0023C13.0211 17.0023 12.8326 17.1887 12.8326 17.4186Z" fill="#C46BF0" fill-opacity="0.4"/>
<path d="M12.8326 15.7492C12.8326 15.9791 13.0211 16.1655 13.251 16.1655C13.4809 16.1655 13.6695 15.9791 13.6695 15.7492C13.6695 15.5193 13.4809 15.3329 13.251 15.3329C13.0211 15.3329 12.8326 15.5193 12.8326 15.7492Z" fill="#C46BF0" fill-opacity="0.4"/>
<path d="M12.8326 14.9163C12.8326 15.1462 13.0211 15.3326 13.251 15.3326C13.4809 15.3326 13.6695 15.1462 13.6695 14.9163C13.6695 14.6864 13.4809 14.5 13.251 14.5C13.0211 14.5 12.8326 14.6864 12.8326 14.9163Z" fill="#C46BF0" fill-opacity="0.4"/>
<path d="M12.8326 11.5856C12.8326 11.8155 13.0211 12.0019 13.251 12.0019C13.4809 12.0019 13.6695 11.8155 13.6695 11.5856C13.6695 11.3557 13.4809 11.1693 13.251 11.1693C13.0211 11.1693 12.8326 11.3557 12.8326 11.5856Z" fill="#9F9F9F" fill-opacity="0.7"/>
<path d="M12.8326 10.7531C12.8326 10.983 13.0211 11.1694 13.251 11.1694C13.4809 11.1694 13.6695 10.983 13.6695 10.7531C13.6695 10.5232 13.4809 10.3368 13.251 10.3368C13.0211 10.3368 12.8326 10.5232 12.8326 10.7531Z" fill="#9F9F9F" fill-opacity="0.7"/>
<path d="M12.8326 9.91618C12.8326 10.1461 13.0211 10.3325 13.251 10.3325C13.4809 10.3325 13.6695 10.1461 13.6695 9.91618C13.6695 9.68626 13.4809 9.49988 13.251 9.49988C13.0211 9.49988 12.8326 9.68626 12.8326 9.91618Z" fill="#9F9F9F" fill-opacity="0.9"/>
<path d="M12.8326 9.0858C12.8326 9.31691 13.0199 9.50425 13.251 9.50425C13.4821 9.50425 13.6695 9.31691 13.6695 9.0858C13.6695 8.8547 13.4821 8.66736 13.251 8.66736C13.0199 8.66736 12.8326 8.8547 12.8326 9.0858Z" fill="#9F9F9F" fill-opacity="0.9"/>
<path d="M12.8326 8.25114C12.8326 8.48106 13.0211 8.66744 13.251 8.66744C13.4809 8.66744 13.6695 8.48106 13.6695 8.25114C13.6695 8.02122 13.4809 7.83484 13.251 7.83484C13.0211 7.83484 12.8326 8.02122 12.8326 8.25114Z" fill="#9F9F9F" fill-opacity="0.9"/>
<path d="M13.6695 18.2511C13.6695 18.4811 13.8559 18.6674 14.0858 18.6674C14.3157 18.6674 14.5021 18.4811 14.5021 18.2511C14.5021 18.0212 14.3157 17.8348 14.0858 17.8348C13.8559 17.8348 13.6695 18.0212 13.6695 18.2511Z" fill="#C46BF0" fill-opacity="0.7"/>
<path d="M13.6695 17.4186C13.6695 17.6485 13.8559 17.8349 14.0858 17.8349C14.3157 17.8349 14.5021 17.6485 14.5021 17.4186C14.5021 17.1887 14.3157 17.0023 14.0858 17.0023C13.8559 17.0023 13.6695 17.1887 13.6695 17.4186Z" fill="#C46BF0" fill-opacity="0.5"/>
<path d="M13.6695 16.5815C13.6695 16.8114 13.8559 16.9978 14.0858 16.9978C14.3157 16.9978 14.5021 16.8114 14.5021 16.5815C14.5021 16.3515 14.3157 16.1652 14.0858 16.1652C13.8559 16.1652 13.6695 16.3515 13.6695 16.5815Z" fill="#C46BF0" fill-opacity="0.4"/>
<path d="M13.6695 14.9163C13.6695 15.1462 13.8559 15.3326 14.0858 15.3326C14.3157 15.3326 14.5021 15.1462 14.5021 14.9163C14.5021 14.6864 14.3157 14.5 14.0858 14.5C13.8559 14.5 13.6695 14.6864 13.6695 14.9163Z" fill="#C46BF0" fill-opacity="0.5"/>
<path d="M13.6695 14.0835C13.6695 14.3135 13.8559 14.4998 14.0858 14.4998C14.3157 14.4998 14.5021 14.3135 14.5021 14.0835C14.5021 13.8536 14.3157 13.6672 14.0858 13.6672C13.8559 13.6672 13.6695 13.8536 13.6695 14.0835Z" fill="#C46BF0" fill-opacity="0.5"/>
<path d="M13.6695 13.2513C13.6695 13.4812 13.8559 13.6676 14.0858 13.6676C14.3157 13.6676 14.5021 13.4812 14.5021 13.2513C14.5021 13.0213 14.3157 12.835 14.0858 12.835C13.8559 12.835 13.6695 13.0213 13.6695 13.2513Z" fill="#9F9F9F" fill-opacity="0.866667"/>
<path d="M13.6695 12.4185C13.6695 12.6484 13.8559 12.8348 14.0858 12.8348C14.3157 12.8348 14.5021 12.6484 14.5021 12.4185C14.5021 12.1886 14.3157 12.0022 14.0858 12.0022C13.8559 12.0022 13.6695 12.1886 13.6695 12.4185Z" fill="#9F9F9F" fill-opacity="0.866667"/>
<path d="M13.6694 11.5856C13.6694 11.8155 13.8558 12.0019 14.0857 12.0019C14.3156 12.0019 14.502 11.8155 14.502 11.5856C14.502 11.3557 14.3156 11.1693 14.0857 11.1693C13.8558 11.1693 13.6694 11.3557 13.6694 11.5856Z" fill="#9F9F9F" fill-opacity="0.866667"/>
<path d="M13.6694 10.7531C13.6694 10.983 13.8558 11.1694 14.0857 11.1694C14.3156 11.1694 14.502 10.983 14.502 10.7531C14.502 10.5232 14.3156 10.3368 14.0857 10.3368C13.8558 10.3368 13.6694 10.5232 13.6694 10.7531Z" fill="#9F9F9F" fill-opacity="0.7"/>
<path d="M13.6694 9.91618C13.6694 10.1461 13.8558 10.3325 14.0857 10.3325C14.3156 10.3325 14.502 10.1461 14.502 9.91618C14.502 9.68626 14.3156 9.49988 14.0857 9.49988C13.8558 9.49988 13.6694 9.68626 13.6694 9.91618Z" fill="#9F9F9F" fill-opacity="0.9"/>
<path d="M14.5021 17.4186C14.5021 17.6485 14.6885 17.8349 14.9184 17.8349C15.1483 17.8349 15.3347 17.6485 15.3347 17.4186C15.3347 17.1887 15.1483 17.0023 14.9184 17.0023C14.6885 17.0023 14.5021 17.1887 14.5021 17.4186Z" fill="#C46BF0" fill-opacity="0.7"/>
<path d="M14.5021 16.5815C14.5021 16.8114 14.6885 16.9978 14.9184 16.9978C15.1483 16.9978 15.3347 16.8114 15.3347 16.5815C15.3347 16.3515 15.1483 16.1652 14.9184 16.1652C14.6885 16.1652 14.5021 16.3515 14.5021 16.5815Z" fill="#C46BF0" fill-opacity="0.5"/>
<path d="M14.5021 15.7492C14.5021 15.9791 14.6885 16.1655 14.9184 16.1655C15.1483 16.1655 15.3347 15.9791 15.3347 15.7492C15.3347 15.5193 15.1483 15.3329 14.9184 15.3329C14.6885 15.3329 14.5021 15.5193 14.5021 15.7492Z" fill="#C46BF0" fill-opacity="0.5"/>
<path d="M14.5021 14.9163C14.5021 15.1462 14.6885 15.3326 14.9184 15.3326C15.1483 15.3326 15.3347 15.1462 15.3347 14.9163C15.3347 14.6864 15.1483 14.5 14.9184 14.5C14.6885 14.5 14.5021 14.6864 14.5021 14.9163Z" fill="#C46BF0" fill-opacity="0.5"/>
<path d="M14.5021 14.0835C14.5021 14.3135 14.6885 14.4998 14.9184 14.4998C15.1483 14.4998 15.3347 14.3135 15.3347 14.0835C15.3347 13.8536 15.1483 13.6672 14.9184 13.6672C14.6885 13.6672 14.5021 13.8536 14.5021 14.0835Z" fill="#C46BF0" fill-opacity="0.7"/>
<path d="M14.5021 13.2513C14.5021 13.4812 14.6885 13.6676 14.9184 13.6676C15.1483 13.6676 15.3347 13.4812 15.3347 13.2513C15.3347 13.0213 15.1483 12.835 14.9184 12.835C14.6885 12.835 14.5021 13.0213 14.5021 13.2513Z" fill="#9F9F9F" fill-opacity="0.7"/>
<path d="M14.5021 12.4185C14.5021 12.6484 14.6885 12.8348 14.9184 12.8348C15.1483 12.8348 15.3347 12.6484 15.3347 12.4185C15.3347 12.1886 15.1483 12.0022 14.9184 12.0022C14.6885 12.0022 14.5021 12.1886 14.5021 12.4185Z" fill="#9F9F9F" fill-opacity="0.7"/>
<path d="M14.502 11.5856C14.502 11.8155 14.6884 12.0019 14.9183 12.0019C15.1482 12.0019 15.3346 11.8155 15.3346 11.5856C15.3346 11.3557 15.1482 11.1693 14.9183 11.1693C14.6884 11.1693 14.502 11.3557 14.502 11.5856Z" fill="#9F9F9F" fill-opacity="0.7"/>
<path d="M14.502 10.7531C14.502 10.983 14.6884 11.1694 14.9183 11.1694C15.1482 11.1694 15.3346 10.983 15.3346 10.7531C15.3346 10.5232 15.1482 10.3368 14.9183 10.3368C14.6884 10.3368 14.502 10.5232 14.502 10.7531Z" fill="#9F9F9F" fill-opacity="0.7"/>
<path d="M15.3347 16.5815C15.3347 16.8114 15.521 16.9978 15.751 16.9978C15.9809 16.9978 16.1673 16.8114 16.1673 16.5815C16.1673 16.3515 15.9809 16.1652 15.751 16.1652C15.521 16.1652 15.3347 16.3515 15.3347 16.5815Z" fill="#C46BF0" fill-opacity="0.9"/>
<path d="M15.3347 15.7492C15.3347 15.9791 15.521 16.1655 15.751 16.1655C15.9809 16.1655 16.1673 15.9791 16.1673 15.7492C16.1673 15.5193 15.9809 15.3329 15.751 15.3329C15.521 15.3329 15.3347 15.5193 15.3347 15.7492Z" fill="#C46BF0" fill-opacity="0.7"/>
<path d="M15.3347 14.9163C15.3347 15.1462 15.521 15.3326 15.751 15.3326C15.9809 15.3326 16.1673 15.1462 16.1673 14.9163C16.1673 14.6864 15.9809 14.5 15.751 14.5C15.521 14.5 15.3347 14.6864 15.3347 14.9163Z" fill="#C46BF0" fill-opacity="0.7"/>
<path d="M15.3347 14.0835C15.3347 14.3135 15.521 14.4998 15.751 14.4998C15.9809 14.4998 16.1673 14.3135 16.1673 14.0835C16.1673 13.8536 15.9809 13.6672 15.751 13.6672C15.521 13.6672 15.3347 13.8536 15.3347 14.0835Z" fill="#C46BF0" fill-opacity="0.7"/>
<path d="M15.3347 13.2513C15.3347 13.4812 15.521 13.6676 15.751 13.6676C15.9809 13.6676 16.1673 13.4812 16.1673 13.2513C16.1673 13.0213 15.9809 12.835 15.751 12.835C15.521 12.835 15.3347 13.0213 15.3347 13.2513Z" fill="#9F9F9F" fill-opacity="0.7"/>
<path d="M15.3347 12.4185C15.3347 12.6484 15.521 12.8348 15.751 12.8348C15.9809 12.8348 16.1673 12.6484 16.1673 12.4185C16.1673 12.1886 15.9809 12.0022 15.751 12.0022C15.521 12.0022 15.3347 12.1886 15.3347 12.4185Z" fill="#9F9F9F" fill-opacity="0.7"/>
<path d="M15.3347 11.5856C15.3347 11.8155 15.521 12.0019 15.751 12.0019C15.9809 12.0019 16.1673 11.8155 16.1673 11.5856C16.1673 11.3557 15.9809 11.1693 15.751 11.1693C15.521 11.1693 15.3347 11.3557 15.3347 11.5856Z" fill="#9F9F9F" fill-opacity="0.7"/>
<path d="M16.1672 15.7492C16.1672 15.9791 16.3536 16.1655 16.5835 16.1655C16.8134 16.1655 16.9998 15.9791 16.9998 15.7492C16.9998 15.5193 16.8134 15.3329 16.5835 15.3329C16.3536 15.3329 16.1672 15.5193 16.1672 15.7492Z" fill="#C46BF0" fill-opacity="0.9"/>
<path d="M16.1672 14.9163C16.1672 15.1462 16.3536 15.3326 16.5835 15.3326C16.8134 15.3326 16.9998 15.1462 16.9998 14.9163C16.9998 14.6864 16.8134 14.5 16.5835 14.5C16.3536 14.5 16.1672 14.6864 16.1672 14.9163Z" fill="#C46BF0" fill-opacity="0.9"/>
<path d="M16.1672 14.0835C16.1672 14.3135 16.3536 14.4998 16.5835 14.4998C16.8134 14.4998 16.9998 14.3135 16.9998 14.0835C16.9998 13.8536 16.8134 13.6672 16.5835 13.6672C16.3536 13.6672 16.1672 13.8536 16.1672 14.0835Z" fill="#C46BF0" fill-opacity="0.9"/>
<path d="M16.1672 13.2513C16.1672 13.4812 16.3536 13.6676 16.5835 13.6676C16.8134 13.6676 16.9998 13.4812 16.9998 13.2513C16.9998 13.0213 16.8134 12.835 16.5835 12.835C16.3536 12.835 16.1672 13.0213 16.1672 13.2513Z" fill="#B362DC"/>
<path d="M16.1672 12.4185C16.1672 12.6484 16.3536 12.8348 16.5835 12.8348C16.8134 12.8348 16.9998 12.6484 16.9998 12.4185C16.9998 12.1886 16.8134 12.0022 16.5835 12.0022C16.3536 12.0022 16.1672 12.1886 16.1672 12.4185Z" fill="#9F9F9F" fill-opacity="0.9"/>
<path d="M16.1671 11.5856C16.1671 11.8155 16.3535 12.0019 16.5834 12.0019C16.8133 12.0019 16.9997 11.8155 16.9997 11.5856C16.9997 11.3557 16.8133 11.1693 16.5834 11.1693C16.3535 11.1693 16.1671 11.3557 16.1671 11.5856Z" fill="#9F9F9F" fill-opacity="0.9"/>
<path d="M6.16742 15.7492C6.16742 15.9791 6.3538 16.1655 6.58372 16.1655C6.81364 16.1655 7.00002 15.9791 7.00002 15.7492C7.00002 15.5193 6.81364 15.3329 6.58372 15.3329C6.3538 15.3329 6.16742 15.5193 6.16742 15.7492Z" fill="#C46BF0"/>
<path d="M6.16742 14.9163C6.16742 15.1462 6.3538 15.3326 6.58372 15.3326C6.81364 15.3326 7.00002 15.1462 7.00002 14.9163C7.00002 14.6864 6.81364 14.5 6.58372 14.5C6.3538 14.5 6.16742 14.6864 6.16742 14.9163Z" fill="#C46BF0"/>
<path d="M6.16742 14.0835C6.16742 14.3135 6.3538 14.4998 6.58372 14.4998C6.81364 14.4998 7.00002 14.3135 7.00002 14.0835C7.00002 13.8536 6.81364 13.6672 6.58372 13.6672C6.3538 13.6672 6.16742 13.8536 6.16742 14.0835Z" fill="#C46BF0"/>
<path d="M6.16742 13.2513C6.16742 13.4812 6.3538 13.6676 6.58372 13.6676C6.81364 13.6676 7.00002 13.4812 7.00002 13.2513C7.00002 13.0213 6.81364 12.835 6.58372 12.835C6.3538 12.835 6.16742 13.0213 6.16742 13.2513Z" fill="#9F9F9F"/>
<path d="M6.16742 12.4185C6.16742 12.6484 6.3538 12.8348 6.58372 12.8348C6.81364 12.8348 7.00002 12.6484 7.00002 12.4185C7.00002 12.1886 6.81364 12.0022 6.58372 12.0022C6.3538 12.0022 6.16742 12.1886 6.16742 12.4185Z" fill="#9F9F9F"/>
<path d="M6.99988 16.5815C6.99988 16.8114 7.18626 16.9978 7.41618 16.9978C7.6461 16.9978 7.83248 16.8114 7.83248 16.5815C7.83248 16.3515 7.6461 16.1652 7.41618 16.1652C7.18626 16.1652 6.99988 16.3515 6.99988 16.5815Z" fill="#C46BF0"/>
<path d="M6.99988 11.5856C6.99988 11.8155 7.18626 12.0019 7.41618 12.0019C7.6461 12.0019 7.83248 11.8155 7.83248 11.5856C7.83248 11.3557 7.6461 11.1693 7.41618 11.1693C7.18626 11.1693 6.99988 11.3557 6.99988 11.5856Z" fill="#9F9F9F"/>
<path d="M6.99988 10.7531C6.99988 10.983 7.18626 11.1694 7.41618 11.1694C7.6461 11.1694 7.83248 10.983 7.83248 10.7531C7.83248 10.5232 7.6461 10.3368 7.41618 10.3368C7.18626 10.3368 6.99988 10.5232 6.99988 10.7531Z" fill="#9F9F9F"/>
<path d="M7.83258 17.4186C7.83258 17.6485 8.01897 17.8349 8.24888 17.8349C8.4788 17.8349 8.66518 17.6485 8.66518 17.4186C8.66518 17.1887 8.4788 17.0023 8.24888 17.0023C8.01897 17.0023 7.83258 17.1887 7.83258 17.4186Z" fill="#C46BF0"/>
<path d="M7.83258 9.91618C7.83258 10.1461 8.01897 10.3325 8.24888 10.3325C8.4788 10.3325 8.66518 10.1461 8.66518 9.91618C8.66518 9.68626 8.4788 9.49988 8.24888 9.49988C8.01897 9.49988 7.83258 9.68626 7.83258 9.91618Z" fill="#9F9F9F"/>
<path d="M7.83258 9.0858C7.83258 9.31572 8.01897 9.50425 8.24888 9.50425C8.4788 9.50425 8.66518 9.31572 8.66518 9.0858C8.66518 8.85589 8.4788 8.66736 8.24888 8.66736C8.01897 8.66736 7.83258 8.85589 7.83258 9.0858Z" fill="#9F9F9F"/>
<path d="M8.66516 18.2511C8.66516 18.4811 8.85155 18.6674 9.08146 18.6674C9.31138 18.6674 9.49776 18.4811 9.49776 18.2511C9.49776 18.0212 9.31138 17.8348 9.08146 17.8348C8.85155 17.8348 8.66516 18.0212 8.66516 18.2511Z" fill="#C46BF0"/>
<path d="M8.66516 8.25114C8.66516 8.48106 8.85155 8.66744 9.08146 8.66744C9.31138 8.66744 9.49776 8.48106 9.49776 8.25114C9.49776 8.02122 9.31138 7.83484 9.08146 7.83484C8.85155 7.83484 8.66516 8.02122 8.66516 8.25114Z" fill="#9F9F9F"/>
<path d="M9.49786 19.0837C9.49786 19.3136 9.68425 19.5 9.91417 19.5C10.1441 19.5 10.3305 19.3136 10.3305 19.0837C10.3305 18.8537 10.1441 18.6674 9.91417 18.6674C9.68425 18.6674 9.49786 18.8537 9.49786 19.0837Z" fill="#C46BF0"/>
<path d="M9.49786 15.7492C9.49786 15.9791 9.68425 16.1655 9.91417 16.1655C10.1441 16.1655 10.3305 15.9791 10.3305 15.7492C10.3305 15.5193 10.1441 15.3329 9.91417 15.3329C9.68425 15.3329 9.49786 15.5193 9.49786 15.7492Z" fill="#C46BF0" fill-opacity="0.4"/>
<path d="M9.49774 7.41423C9.49774 7.64414 9.68413 7.83053 9.91404 7.83053C10.144 7.83053 10.3303 7.64414 10.3303 7.41423C10.3303 7.18431 10.144 6.99792 9.91404 6.99792C9.68413 6.99792 9.49774 7.18431 9.49774 7.41423Z" fill="#9F9F9F"/>
<path d="M10.3348 19.0837C10.3348 19.3136 10.5212 19.5 10.7511 19.5C10.981 19.5 11.1674 19.3136 11.1674 19.0837C11.1674 18.8537 10.981 18.6674 10.7511 18.6674C10.5212 18.6674 10.3348 18.8537 10.3348 19.0837Z" fill="#C46BF0"/>
<path d="M10.3348 16.5815C10.3348 16.8114 10.5212 16.9978 10.7511 16.9978C10.981 16.9978 11.1674 16.8114 11.1674 16.5815C11.1674 16.3515 10.981 16.1652 10.7511 16.1652C10.5212 16.1652 10.3348 16.3515 10.3348 16.5815Z" fill="#C46BF0" fill-opacity="0.4"/>
<path d="M10.3348 14.0835C10.3348 14.3135 10.5212 14.4998 10.7511 14.4998C10.981 14.4998 11.1674 14.3135 11.1674 14.0835C11.1674 13.8536 10.981 13.6672 10.7511 13.6672C10.5212 13.6672 10.3348 13.8536 10.3348 14.0835Z" fill="#C46BF0" fill-opacity="0.4"/>
<path d="M10.3348 13.2513C10.3348 13.4812 10.5212 13.6676 10.7511 13.6676C10.981 13.6676 11.1674 13.4812 11.1674 13.2513C11.1674 13.0213 10.981 12.835 10.7511 12.835C10.5212 12.835 10.3348 13.0213 10.3348 13.2513Z" fill="#C46BF0" fill-opacity="0.4"/>
<path d="M10.3348 12.4185C10.3348 12.6484 10.5212 12.8348 10.7511 12.8348C10.981 12.8348 11.1674 12.6484 11.1674 12.4185C11.1674 12.1886 10.981 12.0022 10.7511 12.0022C10.5212 12.0022 10.3348 12.1886 10.3348 12.4185Z" fill="#C46BF0" fill-opacity="0.5"/>
<path d="M10.3348 6.58158C10.3348 6.8115 10.5212 6.99788 10.7511 6.99788C10.981 6.99788 11.1674 6.8115 11.1674 6.58158C11.1674 6.35167 10.981 6.16528 10.7511 6.16528C10.5212 6.16528 10.3348 6.35167 10.3348 6.58158Z" fill="#9F9F9F"/>
<path d="M11.1673 19.0837C11.1673 19.3136 11.3537 19.5 11.5836 19.5C11.8135 19.5 11.9999 19.3136 11.9999 19.0837C11.9999 18.8537 11.8135 18.6674 11.5836 18.6674C11.3537 18.6674 11.1673 18.8537 11.1673 19.0837Z" fill="#C46BF0"/>
<path d="M11.1673 16.5815C11.1673 16.8114 11.3537 16.9978 11.5836 16.9978C11.8135 16.9978 11.9999 16.8114 11.9999 16.5815C11.9999 16.3515 11.8135 16.1652 11.5836 16.1652C11.3537 16.1652 11.1673 16.3515 11.1673 16.5815Z" fill="#C46BF0" fill-opacity="0.4"/>
<path d="M11.1673 5.74882C11.1673 5.97874 11.3537 6.16512 11.5836 6.16512C11.8135 6.16512 11.9999 5.97874 11.9999 5.74882C11.9999 5.5189 11.8135 5.33252 11.5836 5.33252C11.3537 5.33252 11.1673 5.5189 11.1673 5.74882Z" fill="#9F9F9F"/>
<path d="M11.9999 19.0837C11.9999 19.3136 12.1863 19.5 12.4162 19.5C12.6462 19.5 12.8325 19.3136 12.8325 19.0837C12.8325 18.8537 12.6462 18.6674 12.4162 18.6674C12.1863 18.6674 11.9999 18.8537 11.9999 19.0837Z" fill="#C46BF0"/>
<path d="M11.9999 16.5815C11.9999 16.8114 12.1863 16.9978 12.4162 16.9978C12.6462 16.9978 12.8325 16.8114 12.8325 16.5815C12.8325 16.3515 12.6462 16.1652 12.4162 16.1652C12.1863 16.1652 11.9999 16.3515 11.9999 16.5815Z" fill="#C46BF0" fill-opacity="0.4"/>
<path d="M11.9999 4.9163C11.9999 5.14622 12.1863 5.3326 12.4162 5.3326C12.6462 5.3326 12.8325 5.14622 12.8325 4.9163C12.8325 4.68638 12.6462 4.5 12.4162 4.5C12.1863 4.5 11.9999 4.68638 11.9999 4.9163Z" fill="#9F9F9F"/>
<path d="M12.8326 19.0837C12.8326 19.3136 13.0211 19.5 13.251 19.5C13.4809 19.5 13.6695 19.3136 13.6695 19.0837C13.6695 18.8537 13.4809 18.6674 13.251 18.6674C13.0211 18.6674 12.8326 18.8537 12.8326 19.0837Z" fill="#C46BF0"/>
<path d="M12.8326 16.5815C12.8326 16.8114 13.0211 16.9978 13.251 16.9978C13.4809 16.9978 13.6695 16.8114 13.6695 16.5815C13.6695 16.3515 13.4809 16.1652 13.251 16.1652C13.0211 16.1652 12.8326 16.3515 12.8326 16.5815Z" fill="#C46BF0" fill-opacity="0.4"/>
<path d="M12.8326 14.0835C12.8326 14.3135 13.0211 14.4998 13.251 14.4998C13.4809 14.4998 13.6695 14.3135 13.6695 14.0835C13.6695 13.8536 13.4809 13.6672 13.251 13.6672C13.0211 13.6672 12.8326 13.8536 12.8326 14.0835Z" fill="#C46BF0" fill-opacity="0.4"/>
<path d="M12.8326 13.2513C12.8326 13.4812 13.0211 13.6676 13.251 13.6676C13.4809 13.6676 13.6695 13.4812 13.6695 13.2513C13.6695 13.0213 13.4809 12.835 13.251 12.835C13.0211 12.835 12.8326 13.0213 12.8326 13.2513Z" fill="#C46BF0" fill-opacity="0.4"/>
<path d="M12.8326 12.4185C12.8326 12.6484 13.0211 12.8348 13.251 12.8348C13.4809 12.8348 13.6695 12.6484 13.6695 12.4185C13.6695 12.1886 13.4809 12.0022 13.251 12.0022C13.0211 12.0022 12.8326 12.1886 12.8326 12.4185Z" fill="#9F9F9F" fill-opacity="0.866667"/>
<path d="M12.8326 7.41423C12.8326 7.64414 13.0211 7.83053 13.251 7.83053C13.4809 7.83053 13.6695 7.64414 13.6695 7.41423C13.6695 7.18431 13.4809 6.99792 13.251 6.99792C13.0211 6.99792 12.8326 7.18431 12.8326 7.41423Z" fill="#9F9F9F"/>
<path d="M12.8326 6.58158C12.8326 6.8115 13.0211 6.99788 13.251 6.99788C13.4809 6.99788 13.6695 6.8115 13.6695 6.58158C13.6695 6.35167 13.4809 6.16528 13.251 6.16528C13.0211 6.16528 12.8326 6.35167 12.8326 6.58158Z" fill="#9F9F9F"/>
<path d="M12.8326 5.74882C12.8326 5.97874 13.0211 6.16512 13.251 6.16512C13.4809 6.16512 13.6695 5.97874 13.6695 5.74882C13.6695 5.5189 13.4809 5.33252 13.251 5.33252C13.0211 5.33252 12.8326 5.5189 12.8326 5.74882Z" fill="#9F9F9F"/>
<path d="M13.6695 19.0837C13.6695 19.3136 13.8559 19.5 14.0858 19.5C14.3157 19.5 14.5021 19.3136 14.5021 19.0837C14.5021 18.8537 14.3157 18.6674 14.0858 18.6674C13.8559 18.6674 13.6695 18.8537 13.6695 19.0837Z" fill="#C46BF0"/>
<path d="M13.6695 15.7492C13.6695 15.9791 13.8559 16.1655 14.0858 16.1655C14.3157 16.1655 14.5021 15.9791 14.5021 15.7492C14.5021 15.5193 14.3157 15.3329 14.0858 15.3329C13.8559 15.3329 13.6695 15.5193 13.6695 15.7492Z" fill="#C46BF0" fill-opacity="0.4"/>
<path d="M13.6694 9.0858C13.6694 9.31572 13.8558 9.50425 14.0857 9.50425C14.3156 9.50425 14.502 9.31572 14.502 9.0858C14.502 8.85589 14.3156 8.66736 14.0857 8.66736C13.8558 8.66736 13.6694 8.85589 13.6694 9.0858Z" fill="#9F9F9F"/>
<path d="M13.6694 8.25114C13.6694 8.48106 13.8558 8.66744 14.0857 8.66744C14.3156 8.66744 14.502 8.48106 14.502 8.25114C14.502 8.02122 14.3156 7.83484 14.0857 7.83484C13.8558 7.83484 13.6694 8.02122 13.6694 8.25114Z" fill="#9F9F9F"/>
<path d="M14.5021 18.2511C14.5021 18.4811 14.6885 18.6674 14.9184 18.6674C15.1483 18.6674 15.3347 18.4811 15.3347 18.2511C15.3347 18.0212 15.1483 17.8348 14.9184 17.8348C14.6885 17.8348 14.5021 18.0212 14.5021 18.2511Z" fill="#C46BF0"/>
<path d="M15.3347 17.4186C15.3347 17.6485 15.521 17.8349 15.751 17.8349C15.9809 17.8349 16.1673 17.6485 16.1673 17.4186C16.1673 17.1887 15.9809 17.0023 15.751 17.0023C15.521 17.0023 15.3347 17.1887 15.3347 17.4186Z" fill="#C46BF0"/>
<path d="M16.1672 16.5815C16.1672 16.8114 16.3536 16.9978 16.5835 16.9978C16.8134 16.9978 16.9998 16.8114 16.9998 16.5815C16.9998 16.3515 16.8134 16.1652 16.5835 16.1652C16.3536 16.1652 16.1672 16.3515 16.1672 16.5815Z" fill="#C46BF0"/>
<path d="M16.1671 10.7531C16.1671 10.983 16.3535 11.1694 16.5834 11.1694C16.8133 11.1694 16.9997 10.983 16.9997 10.7531C16.9997 10.5232 16.8133 10.3368 16.5834 10.3368C16.3535 10.3368 16.1671 10.5232 16.1671 10.7531Z" fill="#9F9F9F"/>
<path d="M16.9999 15.7492C16.9999 15.9791 17.1863 16.1655 17.4162 16.1655C17.6462 16.1655 17.8325 15.9791 17.8325 15.7492C17.8325 15.5193 17.6462 15.3329 17.4162 15.3329C17.1863 15.3329 16.9999 15.5193 16.9999 15.7492Z" fill="#C46BF0"/>
<path d="M16.9999 14.9163C16.9999 15.1462 17.1863 15.3326 17.4162 15.3326C17.6462 15.3326 17.8325 15.1462 17.8325 14.9163C17.8325 14.6864 17.6462 14.5 17.4162 14.5C17.1863 14.5 16.9999 14.6864 16.9999 14.9163Z" fill="#C46BF0"/>
<path d="M16.9999 14.0835C16.9999 14.3135 17.1863 14.4998 17.4162 14.4998C17.6462 14.4998 17.8325 14.3135 17.8325 14.0835C17.8325 13.8536 17.6462 13.6672 17.4162 13.6672C17.1863 13.6672 16.9999 13.8536 16.9999 14.0835Z" fill="#C46BF0"/>
<path d="M16.9999 13.2513C16.9999 13.4812 17.1863 13.6676 17.4162 13.6676C17.6462 13.6676 17.8325 13.4812 17.8325 13.2513C17.8325 13.0213 17.6462 12.835 17.4162 12.835C17.1863 12.835 16.9999 13.0213 16.9999 13.2513Z" fill="#C46BF0"/>
<path d="M16.9999 12.4185C16.9999 12.6484 17.1863 12.8348 17.4162 12.8348C17.6462 12.8348 17.8325 12.6484 17.8325 12.4185C17.8325 12.1886 17.6462 12.0022 17.4162 12.0022C17.1863 12.0022 16.9999 12.1886 16.9999 12.4185Z" fill="#9F9F9F"/>
<path d="M16.9998 11.5856C16.9998 11.8155 17.1862 12.0019 17.4161 12.0019C17.646 12.0019 17.8324 11.8155 17.8324 11.5856C17.8324 11.3557 17.646 11.1693 17.4161 11.1693C17.1862 11.1693 16.9998 11.3557 16.9998 11.5856Z" fill="#9F9F9F"/>
</svg>
