<svg width="492" height="80" viewBox="0 0 492 80" fill="none" xmlns="http://www.w3.org/2000/svg">
<path d="M98.0465 30.345C95.9465 30.345 94.4315 30.765 93.5015 31.605C92.5715 32.415 92.1065 33.735 92.1065 35.565V60H84.5915V36.06C84.5915 33.72 85.0415 31.71 85.9415 30.03C86.8715 28.32 88.2665 27 90.1265 26.07C92.0165 25.14 94.3565 24.675 97.1465 24.675C98.4365 24.675 99.5915 24.78 100.611 24.99C101.631 25.17 102.666 25.425 103.716 25.755V31.425C102.846 31.065 101.946 30.795 101.016 30.615C100.086 30.435 99.0965 30.345 98.0465 30.345ZM79.2365 42V36.33H103.176V42H79.2365ZM105.258 34.395H112.863L114.393 43.62V60H106.878V42.81L105.258 34.395ZM126.858 34.125V40.605C126.078 40.425 125.298 40.29 124.518 40.2C123.738 40.11 123.003 40.065 122.313 40.065C120.813 40.065 119.463 40.38 118.263 41.01C117.063 41.64 116.118 42.615 115.428 43.935C114.738 45.255 114.393 46.92 114.393 48.93L112.818 47.04C112.998 45.21 113.328 43.5 113.808 41.91C114.288 40.29 114.948 38.88 115.788 37.68C116.658 36.45 117.723 35.49 118.983 34.8C120.243 34.08 121.743 33.72 123.483 33.72C124.053 33.72 124.623 33.765 125.193 33.855C125.793 33.915 126.348 34.005 126.858 34.125ZM152.889 60L151.809 50.64L153.024 47.22L151.809 43.845L152.889 34.395H160.674L159.189 47.22L160.674 60H152.889ZM154.869 47.22C154.389 49.92 153.504 52.29 152.214 54.33C150.954 56.34 149.349 57.9 147.399 59.01C145.479 60.12 143.319 60.675 140.919 60.675C138.429 60.675 136.224 60.12 134.304 59.01C132.384 57.87 130.884 56.295 129.804 54.285C128.754 52.245 128.229 49.89 128.229 47.22C128.229 44.52 128.754 42.165 129.804 40.155C130.884 38.115 132.384 36.54 134.304 35.43C136.224 34.29 138.429 33.72 140.919 33.72C143.319 33.72 145.479 34.275 147.399 35.385C149.349 36.495 150.969 38.07 152.259 40.11C153.549 42.12 154.419 44.49 154.869 47.22ZM135.834 47.22C135.834 48.72 136.134 50.04 136.734 51.18C137.364 52.32 138.219 53.22 139.299 53.88C140.379 54.51 141.624 54.825 143.034 54.825C144.444 54.825 145.764 54.51 146.994 53.88C148.254 53.22 149.364 52.32 150.324 51.18C151.284 50.04 152.034 48.72 152.574 47.22C152.034 45.72 151.284 44.4 150.324 43.26C149.364 42.09 148.254 41.19 146.994 40.56C145.764 39.9 144.444 39.57 143.034 39.57C141.624 39.57 140.379 39.9 139.299 40.56C138.219 41.19 137.364 42.09 136.734 43.26C136.134 44.4 135.834 45.72 135.834 47.22ZM164.384 34.395H171.899L173.519 44.16V60H166.004V43.035L164.384 34.395ZM183.284 33.72C185.714 33.72 187.784 34.215 189.494 35.205C191.204 36.165 192.509 37.545 193.409 39.345C194.309 41.145 194.759 43.29 194.759 45.78V60H187.244V46.905C187.244 44.595 186.689 42.855 185.579 41.685C184.469 40.485 182.849 39.885 180.719 39.885C179.279 39.885 178.004 40.215 176.894 40.875C175.814 41.505 174.974 42.39 174.374 43.53C173.804 44.67 173.519 46.035 173.519 47.625L171.044 46.32C171.344 43.62 172.064 41.34 173.204 39.48C174.344 37.62 175.784 36.195 177.524 35.205C179.264 34.215 181.184 33.72 183.284 33.72ZM207.467 53.79L205.352 53.025L220.562 34.395H228.752L206.792 60H199.952V25.35H207.467V53.79ZM213.272 47.445L218.807 43.17L229.472 60H220.877L213.272 47.445ZM244.971 60.675C241.941 60.675 239.226 60.12 236.826 59.01C234.456 57.87 232.581 56.28 231.201 54.24C229.851 52.2 229.176 49.83 229.176 47.13C229.176 44.46 229.821 42.12 231.111 40.11C232.431 38.1 234.231 36.54 236.511 35.43C238.791 34.29 241.386 33.72 244.296 33.72C247.266 33.72 249.816 34.38 251.946 35.7C254.076 36.99 255.711 38.82 256.851 41.19C258.021 43.56 258.606 46.35 258.606 49.56H235.206V44.565H254.556L251.631 46.365C251.511 44.865 251.136 43.59 250.506 42.54C249.906 41.49 249.081 40.68 248.031 40.11C246.981 39.54 245.751 39.255 244.341 39.255C242.811 39.255 241.476 39.57 240.336 40.2C239.226 40.8 238.356 41.655 237.726 42.765C237.126 43.845 236.826 45.12 236.826 46.59C236.826 48.36 237.216 49.875 237.996 51.135C238.776 52.395 239.916 53.355 241.416 54.015C242.916 54.675 244.731 55.005 246.861 55.005C248.781 55.005 250.716 54.735 252.666 54.195C254.616 53.625 256.371 52.83 257.931 51.81V56.85C256.251 58.05 254.286 58.995 252.036 59.685C249.816 60.345 247.461 60.675 244.971 60.675ZM261.599 34.395H269.114L270.734 44.16V60H263.219V43.035L261.599 34.395ZM280.499 33.72C282.929 33.72 284.999 34.215 286.709 35.205C288.419 36.165 289.724 37.545 290.624 39.345C291.524 41.145 291.974 43.29 291.974 45.78V60H284.459V46.905C284.459 44.595 283.904 42.855 282.794 41.685C281.684 40.485 280.064 39.885 277.934 39.885C276.494 39.885 275.219 40.215 274.109 40.875C273.029 41.505 272.189 42.39 271.589 43.53C271.019 44.67 270.734 46.035 270.734 47.625L268.259 46.32C268.559 43.62 269.279 41.34 270.419 39.48C271.559 37.62 272.999 36.195 274.739 35.205C276.479 34.215 278.399 33.72 280.499 33.72ZM320.747 60L319.667 50.325L321.107 47.265L319.712 43.53L321.737 25.35H329.522L327.047 46.68L328.532 60H320.747ZM322.592 47.22C322.112 49.92 321.227 52.29 319.937 54.33C318.677 56.34 317.072 57.9 315.122 59.01C313.202 60.12 311.042 60.675 308.642 60.675C306.152 60.675 303.947 60.12 302.027 59.01C300.107 57.87 298.607 56.295 297.527 54.285C296.477 52.245 295.952 49.89 295.952 47.22C295.952 44.52 296.477 42.165 297.527 40.155C298.607 38.115 300.107 36.54 302.027 35.43C303.947 34.29 306.152 33.72 308.642 33.72C311.042 33.72 313.202 34.275 315.122 35.385C317.072 36.495 318.692 38.07 319.982 40.11C321.272 42.12 322.142 44.49 322.592 47.22ZM303.557 47.22C303.557 48.72 303.857 50.04 304.457 51.18C305.087 52.32 305.942 53.22 307.022 53.88C308.102 54.51 309.347 54.825 310.757 54.825C312.167 54.825 313.487 54.51 314.717 53.88C315.977 53.22 317.087 52.32 318.047 51.18C319.007 50.04 319.757 48.72 320.297 47.22C319.757 45.72 319.007 44.4 318.047 43.26C317.087 42.09 315.977 41.19 314.717 40.56C313.487 39.9 312.167 39.57 310.757 39.57C309.347 39.57 308.102 39.9 307.022 40.56C305.942 41.19 305.087 42.09 304.457 43.26C303.857 44.4 303.557 45.72 303.557 47.22ZM356.767 60L355.687 50.64L356.902 47.22L355.687 43.845L356.767 34.395H364.552L363.067 47.22L364.552 60H356.767ZM358.747 47.22C358.267 49.92 357.382 52.29 356.092 54.33C354.832 56.34 353.227 57.9 351.277 59.01C349.357 60.12 347.197 60.675 344.797 60.675C342.307 60.675 340.102 60.12 338.182 59.01C336.262 57.87 334.762 56.295 333.682 54.285C332.632 52.245 332.107 49.89 332.107 47.22C332.107 44.52 332.632 42.165 333.682 40.155C334.762 38.115 336.262 36.54 338.182 35.43C340.102 34.29 342.307 33.72 344.797 33.72C347.197 33.72 349.357 34.275 351.277 35.385C353.227 36.495 354.847 38.07 356.137 40.11C357.427 42.12 358.297 44.49 358.747 47.22ZM339.712 47.22C339.712 48.72 340.012 50.04 340.612 51.18C341.242 52.32 342.097 53.22 343.177 53.88C344.257 54.51 345.502 54.825 346.912 54.825C348.322 54.825 349.642 54.51 350.872 53.88C352.132 53.22 353.242 52.32 354.202 51.18C355.162 50.04 355.912 48.72 356.452 47.22C355.912 45.72 355.162 44.4 354.202 43.26C353.242 42.09 352.132 41.19 350.872 40.56C349.642 39.9 348.322 39.57 346.912 39.57C345.502 39.57 344.257 39.9 343.177 40.56C342.097 41.19 341.242 42.09 340.612 43.26C340.012 44.4 339.712 45.72 339.712 47.22ZM368.262 34.395H375.777L377.397 44.16V60H369.882V43.035L368.262 34.395ZM387.162 33.72C389.592 33.72 391.662 34.215 393.372 35.205C395.082 36.165 396.387 37.545 397.287 39.345C398.187 41.145 398.637 43.29 398.637 45.78V60H391.122V46.905C391.122 44.595 390.567 42.855 389.457 41.685C388.347 40.485 386.727 39.885 384.597 39.885C383.157 39.885 381.882 40.215 380.772 40.875C379.692 41.505 378.852 42.39 378.252 43.53C377.682 44.67 377.397 46.035 377.397 47.625L374.922 46.32C375.222 43.62 375.942 41.34 377.082 39.48C378.222 37.62 379.662 36.195 381.402 35.205C383.142 34.215 385.062 33.72 387.162 33.72ZM433.215 49.56C432.915 51.75 432.06 53.685 430.65 55.365C429.27 57.045 427.485 58.35 425.295 59.28C423.105 60.21 420.66 60.675 417.96 60.675C414.9 60.675 412.2 60.12 409.86 59.01C407.55 57.87 405.735 56.28 404.415 54.24C403.125 52.2 402.48 49.86 402.48 47.22C402.48 44.55 403.125 42.21 404.415 40.2C405.735 38.16 407.55 36.57 409.86 35.43C412.2 34.29 414.9 33.72 417.96 33.72C420.66 33.72 423.105 34.2 425.295 35.16C427.485 36.09 429.27 37.395 430.65 39.075C432.06 40.725 432.915 42.66 433.215 44.88H425.7C425.31 43.14 424.41 41.805 423 40.875C421.62 39.915 419.94 39.435 417.96 39.435C416.37 39.435 414.975 39.75 413.775 40.38C412.605 40.98 411.705 41.865 411.075 43.035C410.445 44.175 410.13 45.57 410.13 47.22C410.13 48.84 410.445 50.235 411.075 51.405C411.705 52.545 412.605 53.43 413.775 54.06C414.975 54.66 416.37 54.96 417.96 54.96C419.97 54.96 421.665 54.465 423.045 53.475C424.455 52.485 425.34 51.18 425.7 49.56H433.215ZM451.617 60.675C448.587 60.675 445.872 60.12 443.472 59.01C441.102 57.87 439.227 56.28 437.847 54.24C436.497 52.2 435.822 49.83 435.822 47.13C435.822 44.46 436.467 42.12 437.757 40.11C439.077 38.1 440.877 36.54 443.157 35.43C445.437 34.29 448.032 33.72 450.942 33.72C453.912 33.72 456.462 34.38 458.592 35.7C460.722 36.99 462.357 38.82 463.497 41.19C464.667 43.56 465.252 46.35 465.252 49.56H441.852V44.565H461.202L458.277 46.365C458.157 44.865 457.782 43.59 457.152 42.54C456.552 41.49 455.727 40.68 454.677 40.11C453.627 39.54 452.397 39.255 450.987 39.255C449.457 39.255 448.122 39.57 446.982 40.2C445.872 40.8 445.002 41.655 444.372 42.765C443.772 43.845 443.472 45.12 443.472 46.59C443.472 48.36 443.862 49.875 444.642 51.135C445.422 52.395 446.562 53.355 448.062 54.015C449.562 54.675 451.377 55.005 453.507 55.005C455.427 55.005 457.362 54.735 459.312 54.195C461.262 53.625 463.017 52.83 464.577 51.81V56.85C462.897 58.05 460.932 58.995 458.682 59.685C456.462 60.345 454.107 60.675 451.617 60.675ZM468.245 34.395H475.85L477.38 43.62V60H469.865V42.81L468.245 34.395ZM489.845 34.125V40.605C489.065 40.425 488.285 40.29 487.505 40.2C486.725 40.11 485.99 40.065 485.3 40.065C483.8 40.065 482.45 40.38 481.25 41.01C480.05 41.64 479.105 42.615 478.415 43.935C477.725 45.255 477.38 46.92 477.38 48.93L475.805 47.04C475.985 45.21 476.315 43.5 476.795 41.91C477.275 40.29 477.935 38.88 478.775 37.68C479.645 36.45 480.71 35.49 481.97 34.8C483.23 34.08 484.73 33.72 486.47 33.72C487.04 33.72 487.61 33.765 488.18 33.855C488.78 33.915 489.335 34.005 489.845 34.125Z" fill="white"/>
<path d="M4.43982 59.9957C4.43982 61.2219 5.43387 62.2159 6.66009 62.2159C7.88632 62.2159 8.88037 61.2219 8.88037 59.9957C8.88037 58.7694 7.88632 57.7754 6.66009 57.7754C5.43387 57.7754 4.43982 58.7694 4.43982 59.9957Z" fill="#C46BF0" fill-opacity="0.9"/>
<path d="M4.43982 55.5538C4.43982 56.78 5.43387 57.774 6.66009 57.774C7.88632 57.774 8.88037 56.78 8.88037 55.5538C8.88037 54.3275 7.88632 53.3335 6.66009 53.3335C5.43387 53.3335 4.43982 54.3275 4.43982 55.5538Z" fill="#C46BF0" fill-opacity="0.9"/>
<path d="M4.43982 51.1124C4.43982 52.3386 5.43387 53.3326 6.66009 53.3326C7.88632 53.3326 8.88037 52.3386 8.88037 51.1124C8.88037 49.8861 7.88632 48.8921 6.66009 48.8921C5.43387 48.8921 4.43982 49.8861 4.43982 51.1124Z" fill="#C46BF0" fill-opacity="0.9"/>
<path d="M4.43982 46.6734C4.43982 47.8996 5.43387 48.8937 6.66009 48.8937C7.88632 48.8937 8.88037 47.8996 8.88037 46.6734C8.88037 45.4472 7.88632 44.4531 6.66009 44.4531C5.43387 44.4531 4.43982 45.4472 4.43982 46.6734Z" fill="#C46BF0" fill-opacity="0.9"/>
<path d="M4.43982 42.232C4.43982 43.4582 5.43387 44.4523 6.66009 44.4523C7.88632 44.4523 8.88037 43.4582 8.88037 42.232C8.88037 41.0058 7.88632 40.0117 6.66009 40.0117C5.43387 40.0117 4.43982 41.0058 4.43982 42.232Z" fill="#9F9F9F" fill-opacity="0.9"/>
<path d="M8.88098 64.4341C8.88098 65.6604 9.87503 66.6544 11.1013 66.6544C12.3275 66.6544 13.3215 65.6604 13.3215 64.4341C13.3215 63.2079 12.3275 62.2139 11.1013 62.2139C9.87503 62.2139 8.88098 63.2079 8.88098 64.4341Z" fill="#C46BF0" fill-opacity="0.9"/>
<path d="M8.88098 59.9957C8.88098 61.2219 9.87503 62.2159 11.1013 62.2159C12.3275 62.2159 13.3215 61.2219 13.3215 59.9957C13.3215 58.7694 12.3275 57.7754 11.1013 57.7754C9.87503 57.7754 8.88098 58.7694 8.88098 59.9957Z" fill="#C46BF0" fill-opacity="0.7"/>
<path d="M8.88098 55.5538C8.88098 56.78 9.87503 57.774 11.1013 57.774C12.3275 57.774 13.3215 56.78 13.3215 55.5538C13.3215 54.3275 12.3275 53.3335 11.1013 53.3335C9.87503 53.3335 8.88098 54.3275 8.88098 55.5538Z" fill="#C46BF0" fill-opacity="0.7"/>
<path d="M8.88098 51.1124C8.88098 52.3386 9.87503 53.3326 11.1013 53.3326C12.3275 53.3326 13.3215 52.3386 13.3215 51.1124C13.3215 49.8861 12.3275 48.8921 11.1013 48.8921C9.87503 48.8921 8.88098 49.8861 8.88098 51.1124Z" fill="#C46BF0" fill-opacity="0.7"/>
<path d="M8.88098 46.6734C8.88098 47.8996 9.87503 48.8937 11.1013 48.8937C12.3275 48.8937 13.3215 47.8996 13.3215 46.6734C13.3215 45.4472 12.3275 44.4531 11.1013 44.4531C9.87503 44.4531 8.88098 45.4472 8.88098 46.6734Z" fill="#C46BF0" fill-opacity="0.7"/>
<path d="M8.88098 42.232C8.88098 43.4582 9.87503 44.4523 11.1013 44.4523C12.3275 44.4523 13.3215 43.4582 13.3215 42.232C13.3215 41.0058 12.3275 40.0117 11.1013 40.0117C9.87503 40.0117 8.88098 41.0058 8.88098 42.232Z" fill="#C46BF0" fill-opacity="0.7"/>
<path d="M8.88098 37.7901C8.88098 39.0163 9.87503 40.0104 11.1013 40.0104C12.3275 40.0104 13.3215 39.0163 13.3215 37.7901C13.3215 36.5639 12.3275 35.5698 11.1013 35.5698C9.87503 35.5698 8.88098 36.5639 8.88098 37.7901Z" fill="#9F9F9F" fill-opacity="0.9"/>
<path d="M8.88098 33.3497C8.88098 34.5759 9.87503 35.5699 11.1013 35.5699C12.3275 35.5699 13.3215 34.5759 13.3215 33.3497C13.3215 32.1234 12.3275 31.1294 11.1013 31.1294C9.87503 31.1294 8.88098 32.1234 8.88098 33.3497Z" fill="#9F9F9F" fill-opacity="0.9"/>
<path d="M13.3214 68.8995C13.3214 70.1257 14.3155 71.1197 15.5417 71.1197C16.7679 71.1197 17.762 70.1257 17.762 68.8995C17.762 67.6732 16.7679 66.6792 15.5417 66.6792C14.3155 66.6792 13.3214 67.6732 13.3214 68.8995Z" fill="#C46BF0" fill-opacity="0.7"/>
<path d="M13.3214 64.4341C13.3214 65.6604 14.3155 66.6544 15.5417 66.6544C16.7679 66.6544 17.762 65.6604 17.762 64.4341C17.762 63.2079 16.7679 62.2139 15.5417 62.2139C14.3155 62.2139 13.3214 63.2079 13.3214 64.4341Z" fill="#C46BF0" fill-opacity="0.5"/>
<path d="M13.3214 59.9957C13.3214 61.2219 14.3155 62.2159 15.5417 62.2159C16.7679 62.2159 17.762 61.2219 17.762 59.9957C17.762 58.7694 16.7679 57.7754 15.5417 57.7754C14.3155 57.7754 13.3214 58.7694 13.3214 59.9957Z" fill="#C46BF0" fill-opacity="0.5"/>
<path d="M13.3214 55.5538C13.3214 56.78 14.3155 57.774 15.5417 57.774C16.7679 57.774 17.762 56.78 17.762 55.5538C17.762 54.3275 16.7679 53.3335 15.5417 53.3335C14.3155 53.3335 13.3214 54.3275 13.3214 55.5538Z" fill="#C46BF0" fill-opacity="0.5"/>
<path d="M13.3214 51.1124C13.3214 52.3386 14.3155 53.3326 15.5417 53.3326C16.7679 53.3326 17.762 52.3386 17.762 51.1124C17.762 49.8861 16.7679 48.8921 15.5417 48.8921C14.3155 48.8921 13.3214 49.8861 13.3214 51.1124Z" fill="#C46BF0" fill-opacity="0.5"/>
<path d="M13.3214 46.6734C13.3214 47.8996 14.3155 48.8937 15.5417 48.8937C16.7679 48.8937 17.762 47.8996 17.762 46.6734C17.762 45.4472 16.7679 44.4531 15.5417 44.4531C14.3155 44.4531 13.3214 45.4472 13.3214 46.6734Z" fill="#C46BF0" fill-opacity="0.5"/>
<path d="M13.3214 42.232C13.3214 43.4582 14.3155 44.4523 15.5417 44.4523C16.7679 44.4523 17.762 43.4582 17.762 42.232C17.762 41.0058 16.7679 40.0117 15.5417 40.0117C14.3155 40.0117 13.3214 41.0058 13.3214 42.232Z" fill="#C46BF0" fill-opacity="0.7"/>
<path d="M13.3214 37.7901C13.3214 39.0163 14.3155 40.0104 15.5417 40.0104C16.7679 40.0104 17.762 39.0163 17.762 37.7901C17.762 36.5639 16.7679 35.5698 15.5417 35.5698C14.3155 35.5698 13.3214 36.5639 13.3214 37.7901Z" fill="#C46BF0" fill-opacity="0.7"/>
<path d="M13.3214 33.3497C13.3214 34.5759 14.3155 35.5699 15.5417 35.5699C16.7679 35.5699 17.762 34.5759 17.762 33.3497C17.762 32.1234 16.7679 31.1294 15.5417 31.1294C14.3155 31.1294 13.3214 32.1234 13.3214 33.3497Z" fill="#9F9F9F" fill-opacity="0.9"/>
<path d="M13.3214 28.8863C13.3214 30.1125 14.3155 31.1066 15.5417 31.1066C16.7679 31.1066 17.762 30.1125 17.762 28.8863C17.762 27.6601 16.7679 26.666 15.5417 26.666C14.3155 26.666 13.3214 27.6601 13.3214 28.8863Z" fill="#9F9F9F" fill-opacity="0.9"/>
<path d="M13.3214 24.4578C13.3214 25.684 14.3155 26.6895 15.5417 26.6895C16.7679 26.6895 17.762 25.684 17.762 24.4578C17.762 23.2316 16.7679 22.2261 15.5417 22.2261C14.3155 22.2261 13.3214 23.2316 13.3214 24.4578Z" fill="#9F9F9F" fill-opacity="0.9"/>
<path d="M17.7623 73.3394C17.7623 74.5656 18.7564 75.5597 19.9826 75.5597C21.2088 75.5597 22.2029 74.5656 22.2029 73.3394C22.2029 72.1132 21.2088 71.1191 19.9826 71.1191C18.7564 71.1191 17.7623 72.1132 17.7623 73.3394Z" fill="#C46BF0" fill-opacity="0.7"/>
<path d="M17.7623 68.8995C17.7623 70.1257 18.7564 71.1197 19.9826 71.1197C21.2088 71.1197 22.2029 70.1257 22.2029 68.8995C22.2029 67.6732 21.2088 66.6792 19.9826 66.6792C18.7564 66.6792 17.7623 67.6732 17.7623 68.8995Z" fill="#C46BF0" fill-opacity="0.5"/>
<path d="M17.7623 64.4341C17.7623 65.6604 18.7564 66.6544 19.9826 66.6544C21.2088 66.6544 22.2029 65.6604 22.2029 64.4341C22.2029 63.2079 21.2088 62.2139 19.9826 62.2139C18.7564 62.2139 17.7623 63.2079 17.7623 64.4341Z" fill="#C46BF0" fill-opacity="0.4"/>
<path d="M17.7623 55.5538C17.7623 56.78 18.7564 57.774 19.9826 57.774C21.2088 57.774 22.2029 56.78 22.2029 55.5538C22.2029 54.3275 21.2088 53.3335 19.9826 53.3335C18.7564 53.3335 17.7623 54.3275 17.7623 55.5538Z" fill="#C46BF0" fill-opacity="0.4"/>
<path d="M17.7623 51.1124C17.7623 52.3386 18.7564 53.3326 19.9826 53.3326C21.2088 53.3326 22.2029 52.3386 22.2029 51.1124C22.2029 49.8861 21.2088 48.8921 19.9826 48.8921C18.7564 48.8921 17.7623 49.8861 17.7623 51.1124Z" fill="#C46BF0" fill-opacity="0.5"/>
<path d="M17.7623 46.6734C17.7623 47.8996 18.7564 48.8937 19.9826 48.8937C21.2088 48.8937 22.2029 47.8996 22.2029 46.6734C22.2029 45.4472 21.2088 44.4531 19.9826 44.4531C18.7564 44.4531 17.7623 45.4472 17.7623 46.6734Z" fill="#C46BF0" fill-opacity="0.5"/>
<path d="M17.7623 42.232C17.7623 43.4582 18.7564 44.4523 19.9826 44.4523C21.2088 44.4523 22.2029 43.4582 22.2029 42.232C22.2029 41.0058 21.2088 40.0117 19.9826 40.0117C18.7564 40.0117 17.7623 41.0058 17.7623 42.232Z" fill="#C46BF0" fill-opacity="0.5"/>
<path d="M17.7618 37.7901C17.7618 39.0163 18.7558 40.0104 19.9821 40.0104C21.2083 40.0104 22.2023 39.0163 22.2023 37.7901C22.2023 36.5639 21.2083 35.5698 19.9821 35.5698C18.7558 35.5698 17.7618 36.5639 17.7618 37.7901Z" fill="#C46BF0" fill-opacity="0.7"/>
<path d="M17.7618 33.3497C17.7618 34.5759 18.7558 35.5699 19.9821 35.5699C21.2083 35.5699 22.2023 34.5759 22.2023 33.3497C22.2023 32.1234 21.2083 31.1294 19.9821 31.1294C18.7558 31.1294 17.7618 32.1234 17.7618 33.3497Z" fill="#9F9F9F" fill-opacity="0.7"/>
<path d="M17.7618 28.8863C17.7618 30.1125 18.7558 31.1066 19.9821 31.1066C21.2083 31.1066 22.2023 30.1125 22.2023 28.8863C22.2023 27.6601 21.2083 26.666 19.9821 26.666C18.7558 26.666 17.7618 27.6601 17.7618 28.8863Z" fill="#9F9F9F" fill-opacity="0.7"/>
<path d="M17.7618 24.4578C17.7618 25.684 18.7558 26.6895 19.9821 26.6895C21.2083 26.6895 22.2023 25.684 22.2023 24.4578C22.2023 23.2316 21.2083 22.2261 19.9821 22.2261C18.7558 22.2261 17.7618 23.2316 17.7618 24.4578Z" fill="#9F9F9F" fill-opacity="0.9"/>
<path d="M17.7618 20.0059C17.7618 21.2321 18.7558 22.2262 19.9821 22.2262C21.2083 22.2262 22.2023 21.2321 22.2023 20.0059C22.2023 18.7797 21.2083 17.7856 19.9821 17.7856C18.7558 17.7856 17.7618 18.7797 17.7618 20.0059Z" fill="#9F9F9F" fill-opacity="0.9"/>
<path d="M22.2259 73.3394C22.2259 74.5656 23.2199 75.5597 24.4462 75.5597C25.6724 75.5597 26.6664 74.5656 26.6664 73.3394C26.6664 72.1132 25.6724 71.1191 24.4462 71.1191C23.2199 71.1191 22.2259 72.1132 22.2259 73.3394Z" fill="#C46BF0" fill-opacity="0.5"/>
<path d="M22.2259 68.8995C22.2259 70.1257 23.2199 71.1197 24.4462 71.1197C25.6724 71.1197 26.6664 70.1257 26.6664 68.8995C26.6664 67.6732 25.6724 66.6792 24.4462 66.6792C23.2199 66.6792 22.2259 67.6732 22.2259 68.8995Z" fill="#C46BF0" fill-opacity="0.4"/>
<path d="M22.2259 59.9957C22.2259 61.2219 23.2199 62.2159 24.4462 62.2159C25.6724 62.2159 26.6664 61.2219 26.6664 59.9957C26.6664 58.7694 25.6724 57.7754 24.4462 57.7754C23.2199 57.7754 22.2259 58.7694 22.2259 59.9957Z" fill="#C46BF0" fill-opacity="0.4"/>
<path d="M22.2259 55.5538C22.2259 56.78 23.2199 57.774 24.4462 57.774C25.6724 57.774 26.6664 56.78 26.6664 55.5538C26.6664 54.3275 25.6724 53.3335 24.4462 53.3335C23.2199 53.3335 22.2259 54.3275 22.2259 55.5538Z" fill="#C46BF0" fill-opacity="0.4"/>
<path d="M22.2259 37.7901C22.2259 39.0163 23.2199 40.0104 24.4462 40.0104C25.6724 40.0104 26.6664 39.0163 26.6664 37.7901C26.6664 36.5639 25.6724 35.5698 24.4462 35.5698C23.2199 35.5698 22.2259 36.5639 22.2259 37.7901Z" fill="#C46BF0" fill-opacity="0.7"/>
<path d="M22.2259 33.3497C22.2259 34.5759 23.2199 35.5699 24.4462 35.5699C25.6724 35.5699 26.6664 34.5759 26.6664 33.3497C26.6664 32.1234 25.6724 31.1294 24.4462 31.1294C23.2199 31.1294 22.2259 32.1234 22.2259 33.3497Z" fill="#9F9F9F" fill-opacity="0.866667"/>
<path d="M22.2259 28.8863C22.2259 30.1125 23.2199 31.1066 24.4462 31.1066C25.6724 31.1066 26.6664 30.1125 26.6664 28.8863C26.6664 27.6601 25.6724 26.666 24.4462 26.666C23.2199 26.666 22.2259 27.6601 22.2259 28.8863Z" fill="#9F9F9F" fill-opacity="0.7"/>
<path d="M22.2259 24.4578C22.2259 25.684 23.2199 26.6895 24.4462 26.6895C25.6724 26.6895 26.6664 25.684 26.6664 24.4578C26.6664 23.2316 25.6724 22.2261 24.4462 22.2261C23.2199 22.2261 22.2259 23.2316 22.2259 24.4578Z" fill="#9F9F9F" fill-opacity="0.7"/>
<path d="M22.2259 20.0059C22.2259 21.2321 23.2199 22.2262 24.4462 22.2262C25.6724 22.2262 26.6664 21.2321 26.6664 20.0059C26.6664 18.7797 25.6724 17.7856 24.4462 17.7856C23.2199 17.7856 22.2259 18.7797 22.2259 20.0059Z" fill="#9F9F9F" fill-opacity="0.9"/>
<path d="M22.2259 15.5425C22.2259 16.7688 23.2199 17.7628 24.4462 17.7628C25.6724 17.7628 26.6664 16.7688 26.6664 15.5425C26.6664 14.3163 25.6724 13.3223 24.4462 13.3223C23.2199 13.3223 22.2259 14.3163 22.2259 15.5425Z" fill="#9F9F9F" fill-opacity="0.9"/>
<path d="M26.6661 73.3394C26.6661 74.5656 27.6602 75.5597 28.8864 75.5597C30.1126 75.5597 31.1067 74.5656 31.1067 73.3394C31.1067 72.1132 30.1126 71.1191 28.8864 71.1191C27.6602 71.1191 26.6661 72.1132 26.6661 73.3394Z" fill="#C46BF0" fill-opacity="0.5"/>
<path d="M26.6661 68.8995C26.6661 70.1257 27.6602 71.1197 28.8864 71.1197C30.1126 71.1197 31.1067 70.1257 31.1067 68.8995C31.1067 67.6732 30.1126 66.6792 28.8864 66.6792C27.6602 66.6792 26.6661 67.6732 26.6661 68.8995Z" fill="#C46BF0" fill-opacity="0.4"/>
<path d="M26.6661 59.9957C26.6661 61.2219 27.6602 62.2159 28.8864 62.2159C30.1126 62.2159 31.1067 61.2219 31.1067 59.9957C31.1067 58.7694 30.1126 57.7754 28.8864 57.7754C27.6602 57.7754 26.6661 58.7694 26.6661 59.9957Z" fill="#C46BF0" fill-opacity="0.4"/>
<path d="M26.6661 55.5538C26.6661 56.78 27.6602 57.774 28.8864 57.774C30.1126 57.774 31.1067 56.78 31.1067 55.5538C31.1067 54.3275 30.1126 53.3335 28.8864 53.3335C27.6602 53.3335 26.6661 54.3275 26.6661 55.5538Z" fill="#C46BF0" fill-opacity="0.4"/>
<path d="M26.6661 51.1124C26.6661 52.3386 27.6602 53.3326 28.8864 53.3326C30.1126 53.3326 31.1067 52.3386 31.1067 51.1124C31.1067 49.8861 30.1126 48.8921 28.8864 48.8921C27.6602 48.8921 26.6661 49.8861 26.6661 51.1124Z" fill="#C46BF0" fill-opacity="0.4"/>
<path d="M26.6661 46.6734C26.6661 47.8996 27.6602 48.8937 28.8864 48.8937C30.1126 48.8937 31.1067 47.8996 31.1067 46.6734C31.1067 45.4472 30.1126 44.4531 28.8864 44.4531C27.6602 44.4531 26.6661 45.4472 26.6661 46.6734Z" fill="#C46BF0" fill-opacity="0.4"/>
<path d="M26.6661 42.232C26.6661 43.4582 27.6602 44.4523 28.8864 44.4523C30.1126 44.4523 31.1067 43.4582 31.1067 42.232C31.1067 41.0058 30.1126 40.0117 28.8864 40.0117C27.6602 40.0117 26.6661 41.0058 26.6661 42.232Z" fill="#C46BF0" fill-opacity="0.5"/>
<path d="M26.666 37.7901C26.666 39.0163 27.66 40.0104 28.8862 40.0104C30.1125 40.0104 31.1065 39.0163 31.1065 37.7901C31.1065 36.5639 30.1125 35.5698 28.8862 35.5698C27.66 35.5698 26.666 36.5639 26.666 37.7901Z" fill="#9F9F9F" fill-opacity="0.866667"/>
<path d="M26.666 33.3497C26.666 34.5759 27.66 35.5699 28.8862 35.5699C30.1125 35.5699 31.1065 34.5759 31.1065 33.3497C31.1065 32.1234 30.1125 31.1294 28.8862 31.1294C27.66 31.1294 26.666 32.1234 26.666 33.3497Z" fill="#9F9F9F" fill-opacity="0.7"/>
<path d="M26.666 28.8863C26.666 30.1125 27.66 31.1066 28.8862 31.1066C30.1125 31.1066 31.1065 30.1125 31.1065 28.8863C31.1065 27.6601 30.1125 26.666 28.8862 26.666C27.66 26.666 26.666 27.6601 26.666 28.8863Z" fill="#9F9F9F" fill-opacity="0.7"/>
<path d="M26.666 24.4578C26.666 25.684 27.66 26.6895 28.8862 26.6895C30.1125 26.6895 31.1065 25.684 31.1065 24.4578C31.1065 23.2316 30.1125 22.2261 28.8862 22.2261C27.66 22.2261 26.666 23.2316 26.666 24.4578Z" fill="#9F9F9F" fill-opacity="0.7"/>
<path d="M26.666 20.0059C26.666 21.2321 27.66 22.2262 28.8862 22.2262C30.1125 22.2262 31.1065 21.2321 31.1065 20.0059C31.1065 18.7797 30.1125 17.7856 28.8862 17.7856C27.66 17.7856 26.666 18.7797 26.666 20.0059Z" fill="#9F9F9F" fill-opacity="0.7"/>
<path d="M26.666 15.5425C26.666 16.7688 27.66 17.7628 28.8862 17.7628C30.1125 17.7628 31.1065 16.7688 31.1065 15.5425C31.1065 14.3163 30.1125 13.3223 28.8862 13.3223C27.66 13.3223 26.666 14.3163 26.666 15.5425Z" fill="#9F9F9F" fill-opacity="0.9"/>
<path d="M26.666 11.1021C26.666 12.3283 27.66 13.3224 28.8862 13.3224C30.1125 13.3224 31.1065 12.3283 31.1065 11.1021C31.1065 9.87589 30.1125 8.88184 28.8862 8.88184C27.66 8.88184 26.666 9.87589 26.666 11.1021Z" fill="#9F9F9F" fill-opacity="0.9"/>
<path d="M31.1069 73.3394C31.1069 74.5656 32.1009 75.5597 33.3271 75.5597C34.5534 75.5597 35.5474 74.5656 35.5474 73.3394C35.5474 72.1132 34.5534 71.1191 33.3271 71.1191C32.1009 71.1191 31.1069 72.1132 31.1069 73.3394Z" fill="#C46BF0" fill-opacity="0.5"/>
<path d="M31.1069 68.8995C31.1069 70.1257 32.1009 71.1197 33.3271 71.1197C34.5534 71.1197 35.5474 70.1257 35.5474 68.8995C35.5474 67.6732 34.5534 66.6792 33.3271 66.6792C32.1009 66.6792 31.1069 67.6732 31.1069 68.8995Z" fill="#C46BF0" fill-opacity="0.4"/>
<path d="M31.1069 59.9957C31.1069 61.2219 32.1009 62.2159 33.3271 62.2159C34.5534 62.2159 35.5474 61.2219 35.5474 59.9957C35.5474 58.7694 34.5534 57.7754 33.3271 57.7754C32.1009 57.7754 31.1069 58.7694 31.1069 59.9957Z" fill="#C46BF0" fill-opacity="0.4"/>
<path d="M31.1069 55.5538C31.1069 56.78 32.1009 57.774 33.3271 57.774C34.5534 57.774 35.5474 56.78 35.5474 55.5538C35.5474 54.3275 34.5534 53.3335 33.3271 53.3335C32.1009 53.3335 31.1069 54.3275 31.1069 55.5538Z" fill="#C46BF0" fill-opacity="0.4"/>
<path d="M31.1069 51.1124C31.1069 52.3386 32.1009 53.3326 33.3271 53.3326C34.5534 53.3326 35.5474 52.3386 35.5474 51.1124C35.5474 49.8861 34.5534 48.8921 33.3271 48.8921C32.1009 48.8921 31.1069 49.8861 31.1069 51.1124Z" fill="#C46BF0" fill-opacity="0.4"/>
<path d="M31.1069 46.6734C31.1069 47.8996 32.1009 48.8937 33.3271 48.8937C34.5534 48.8937 35.5474 47.8996 35.5474 46.6734C35.5474 45.4472 34.5534 44.4531 33.3271 44.4531C32.1009 44.4531 31.1069 45.4472 31.1069 46.6734Z" fill="#C46BF0" fill-opacity="0.4"/>
<path d="M31.1069 42.232C31.1069 43.4582 32.1009 44.4523 33.3271 44.4523C34.5534 44.4523 35.5474 43.4582 35.5474 42.232C35.5474 41.0058 34.5534 40.0117 33.3271 40.0117C32.1009 40.0117 31.1069 41.0058 31.1069 42.232Z" fill="#9F9F9F" fill-opacity="0.7"/>
<path d="M31.1067 37.7901C31.1067 39.0163 32.1007 40.0104 33.327 40.0104C34.5532 40.0104 35.5472 39.0163 35.5472 37.7901C35.5472 36.5639 34.5532 35.5698 33.327 35.5698C32.1007 35.5698 31.1067 36.5639 31.1067 37.7901Z" fill="#9F9F9F" fill-opacity="0.7"/>
<path d="M31.1067 33.3497C31.1067 34.5759 32.1007 35.5699 33.327 35.5699C34.5532 35.5699 35.5472 34.5759 35.5472 33.3497C35.5472 32.1234 34.5532 31.1294 33.327 31.1294C32.1007 31.1294 31.1067 32.1234 31.1067 33.3497Z" fill="#9F9F9F" fill-opacity="0.7"/>
<path d="M31.1067 28.8863C31.1067 30.1125 32.1007 31.1066 33.327 31.1066C34.5532 31.1066 35.5472 30.1125 35.5472 28.8863C35.5472 27.6601 34.5532 26.666 33.327 26.666C32.1007 26.666 31.1067 27.6601 31.1067 28.8863Z" fill="#9F9F9F" fill-opacity="0.7"/>
<path d="M31.1067 24.4578C31.1067 25.684 32.1007 26.6895 33.327 26.6895C34.5532 26.6895 35.5472 25.684 35.5472 24.4578C35.5472 23.2316 34.5532 22.2261 33.327 22.2261C32.1007 22.2261 31.1067 23.2316 31.1067 24.4578Z" fill="#9F9F9F" fill-opacity="0.9"/>
<path d="M31.1067 20.0059C31.1067 21.2321 32.1007 22.2262 33.327 22.2262C34.5532 22.2262 35.5472 21.2321 35.5472 20.0059C35.5472 18.7797 34.5532 17.7856 33.327 17.7856C32.1007 17.7856 31.1067 18.7797 31.1067 20.0059Z" fill="#9F9F9F" fill-opacity="0.9"/>
<path d="M31.1067 15.5425C31.1067 16.7688 32.1007 17.7628 33.327 17.7628C34.5532 17.7628 35.5472 16.7688 35.5472 15.5425C35.5472 14.3163 34.5532 13.3223 33.327 13.3223C32.1007 13.3223 31.1067 14.3163 31.1067 15.5425Z" fill="#9F9F9F" fill-opacity="0.9"/>
<path d="M31.1067 11.1021C31.1067 12.3283 32.1007 13.3224 33.327 13.3224C34.5532 13.3224 35.5472 12.3283 35.5472 11.1021C35.5472 9.87589 34.5532 8.88184 33.327 8.88184C32.1007 8.88184 31.1067 9.87589 31.1067 11.1021Z" fill="#9F9F9F" fill-opacity="0.9"/>
<path d="M31.1067 6.6607C31.1067 7.88693 32.1007 8.88098 33.327 8.88098C34.5532 8.88098 35.5472 7.88693 35.5472 6.6607C35.5472 5.43448 34.5532 4.44043 33.327 4.44043C32.1007 4.44043 31.1067 5.43448 31.1067 6.6607Z" fill="#9F9F9F" fill-opacity="0.9"/>
<path d="M35.5477 73.3394C35.5477 74.5656 36.5532 75.5597 37.7794 75.5597C39.0056 75.5597 40.0111 74.5656 40.0111 73.3394C40.0111 72.1132 39.0056 71.1191 37.7794 71.1191C36.5532 71.1191 35.5477 72.1132 35.5477 73.3394Z" fill="#C46BF0" fill-opacity="0.5"/>
<path d="M35.5477 68.8995C35.5477 70.1257 36.5532 71.1197 37.7794 71.1197C39.0056 71.1197 40.0111 70.1257 40.0111 68.8995C40.0111 67.6732 39.0056 66.6792 37.7794 66.6792C36.5532 66.6792 35.5477 67.6732 35.5477 68.8995Z" fill="#C46BF0" fill-opacity="0.4"/>
<path d="M35.5477 59.9957C35.5477 61.2219 36.5532 62.2159 37.7794 62.2159C39.0056 62.2159 40.0111 61.2219 40.0111 59.9957C40.0111 58.7694 39.0056 57.7754 37.7794 57.7754C36.5532 57.7754 35.5477 58.7694 35.5477 59.9957Z" fill="#C46BF0" fill-opacity="0.4"/>
<path d="M35.5477 55.5538C35.5477 56.78 36.5532 57.774 37.7794 57.774C39.0056 57.774 40.0111 56.78 40.0111 55.5538C40.0111 54.3275 39.0056 53.3335 37.7794 53.3335C36.5532 53.3335 35.5477 54.3275 35.5477 55.5538Z" fill="#C46BF0" fill-opacity="0.4"/>
<path d="M35.5477 37.7901C35.5477 39.0163 36.5532 40.0104 37.7794 40.0104C39.0056 40.0104 40.0111 39.0163 40.0111 37.7901C40.0111 36.5639 39.0056 35.5698 37.7794 35.5698C36.5532 35.5698 35.5477 36.5639 35.5477 37.7901Z" fill="#9F9F9F" fill-opacity="0.7"/>
<path d="M35.5477 33.3497C35.5477 34.5759 36.5532 35.5699 37.7794 35.5699C39.0056 35.5699 40.0111 34.5759 40.0111 33.3497C40.0111 32.1234 39.0056 31.1294 37.7794 31.1294C36.5532 31.1294 35.5477 32.1234 35.5477 33.3497Z" fill="#9F9F9F" fill-opacity="0.7"/>
<path d="M35.5477 28.8863C35.5477 30.1125 36.5532 31.1066 37.7794 31.1066C39.0056 31.1066 40.0111 30.1125 40.0111 28.8863C40.0111 27.6601 39.0056 26.666 37.7794 26.666C36.5532 26.666 35.5477 27.6601 35.5477 28.8863Z" fill="#9F9F9F" fill-opacity="0.9"/>
<path d="M35.5477 24.4578C35.5477 25.6903 36.5468 26.6895 37.7794 26.6895C39.0119 26.6895 40.0111 25.6903 40.0111 24.4578C40.0111 23.2252 39.0119 22.2261 37.7794 22.2261C36.5468 22.2261 35.5477 23.2252 35.5477 24.4578Z" fill="#9F9F9F" fill-opacity="0.9"/>
<path d="M35.5477 20.0059C35.5477 21.2321 36.5532 22.2262 37.7794 22.2262C39.0056 22.2262 40.0111 21.2321 40.0111 20.0059C40.0111 18.7797 39.0056 17.7856 37.7794 17.7856C36.5532 17.7856 35.5477 18.7797 35.5477 20.0059Z" fill="#9F9F9F" fill-opacity="0.9"/>
<path d="M40.011 73.3394C40.011 74.5656 41.005 75.5597 42.2313 75.5597C43.4575 75.5597 44.4515 74.5656 44.4515 73.3394C44.4515 72.1132 43.4575 71.1191 42.2313 71.1191C41.005 71.1191 40.011 72.1132 40.011 73.3394Z" fill="#C46BF0" fill-opacity="0.7"/>
<path d="M40.011 68.8995C40.011 70.1257 41.005 71.1197 42.2313 71.1197C43.4575 71.1197 44.4515 70.1257 44.4515 68.8995C44.4515 67.6732 43.4575 66.6792 42.2313 66.6792C41.005 66.6792 40.011 67.6732 40.011 68.8995Z" fill="#C46BF0" fill-opacity="0.5"/>
<path d="M40.011 64.4341C40.011 65.6604 41.005 66.6544 42.2313 66.6544C43.4575 66.6544 44.4515 65.6604 44.4515 64.4341C44.4515 63.2079 43.4575 62.2139 42.2313 62.2139C41.005 62.2139 40.011 63.2079 40.011 64.4341Z" fill="#C46BF0" fill-opacity="0.4"/>
<path d="M40.011 55.5538C40.011 56.78 41.005 57.774 42.2313 57.774C43.4575 57.774 44.4515 56.78 44.4515 55.5538C44.4515 54.3275 43.4575 53.3335 42.2313 53.3335C41.005 53.3335 40.011 54.3275 40.011 55.5538Z" fill="#C46BF0" fill-opacity="0.5"/>
<path d="M40.011 51.1124C40.011 52.3386 41.005 53.3326 42.2313 53.3326C43.4575 53.3326 44.4515 52.3386 44.4515 51.1124C44.4515 49.8861 43.4575 48.8921 42.2313 48.8921C41.005 48.8921 40.011 49.8861 40.011 51.1124Z" fill="#C46BF0" fill-opacity="0.5"/>
<path d="M40.011 46.6734C40.011 47.8996 41.005 48.8937 42.2313 48.8937C43.4575 48.8937 44.4515 47.8996 44.4515 46.6734C44.4515 45.4472 43.4575 44.4531 42.2313 44.4531C41.005 44.4531 40.011 45.4472 40.011 46.6734Z" fill="#9F9F9F" fill-opacity="0.866667"/>
<path d="M40.011 42.232C40.011 43.4582 41.005 44.4523 42.2313 44.4523C43.4575 44.4523 44.4515 43.4582 44.4515 42.232C44.4515 41.0058 43.4575 40.0117 42.2313 40.0117C41.005 40.0117 40.011 41.0058 40.011 42.232Z" fill="#9F9F9F" fill-opacity="0.866667"/>
<path d="M40.0105 37.7901C40.0105 39.0163 41.0045 40.0104 42.2308 40.0104C43.457 40.0104 44.451 39.0163 44.451 37.7901C44.451 36.5639 43.457 35.5698 42.2308 35.5698C41.0045 35.5698 40.0105 36.5639 40.0105 37.7901Z" fill="#9F9F9F" fill-opacity="0.866667"/>
<path d="M40.0105 33.3497C40.0105 34.5759 41.0045 35.5699 42.2308 35.5699C43.457 35.5699 44.451 34.5759 44.451 33.3497C44.451 32.1234 43.457 31.1294 42.2308 31.1294C41.0045 31.1294 40.0105 32.1234 40.0105 33.3497Z" fill="#9F9F9F" fill-opacity="0.7"/>
<path d="M40.0105 28.8863C40.0105 30.1125 41.0045 31.1066 42.2308 31.1066C43.457 31.1066 44.451 30.1125 44.451 28.8863C44.451 27.6601 43.457 26.666 42.2308 26.666C41.0045 26.666 40.0105 27.6601 40.0105 28.8863Z" fill="#9F9F9F" fill-opacity="0.9"/>
<path d="M44.4514 68.8995C44.4514 70.1257 45.4455 71.1197 46.6717 71.1197C47.8979 71.1197 48.892 70.1257 48.892 68.8995C48.892 67.6732 47.8979 66.6792 46.6717 66.6792C45.4455 66.6792 44.4514 67.6732 44.4514 68.8995Z" fill="#C46BF0" fill-opacity="0.7"/>
<path d="M44.4514 64.4341C44.4514 65.6604 45.4455 66.6544 46.6717 66.6544C47.8979 66.6544 48.892 65.6604 48.892 64.4341C48.892 63.2079 47.8979 62.2139 46.6717 62.2139C45.4455 62.2139 44.4514 63.2079 44.4514 64.4341Z" fill="#C46BF0" fill-opacity="0.5"/>
<path d="M44.4514 59.9957C44.4514 61.2219 45.4455 62.2159 46.6717 62.2159C47.8979 62.2159 48.892 61.2219 48.892 59.9957C48.892 58.7694 47.8979 57.7754 46.6717 57.7754C45.4455 57.7754 44.4514 58.7694 44.4514 59.9957Z" fill="#C46BF0" fill-opacity="0.5"/>
<path d="M44.4514 55.5538C44.4514 56.78 45.4455 57.774 46.6717 57.774C47.8979 57.774 48.892 56.78 48.892 55.5538C48.892 54.3275 47.8979 53.3335 46.6717 53.3335C45.4455 53.3335 44.4514 54.3275 44.4514 55.5538Z" fill="#C46BF0" fill-opacity="0.5"/>
<path d="M44.4514 51.1124C44.4514 52.3386 45.4455 53.3326 46.6717 53.3326C47.8979 53.3326 48.892 52.3386 48.892 51.1124C48.892 49.8861 47.8979 48.8921 46.6717 48.8921C45.4455 48.8921 44.4514 49.8861 44.4514 51.1124Z" fill="#C46BF0" fill-opacity="0.7"/>
<path d="M44.4514 46.6734C44.4514 47.8996 45.4455 48.8937 46.6717 48.8937C47.8979 48.8937 48.892 47.8996 48.892 46.6734C48.892 45.4472 47.8979 44.4531 46.6717 44.4531C45.4455 44.4531 44.4514 45.4472 44.4514 46.6734Z" fill="#9F9F9F" fill-opacity="0.7"/>
<path d="M44.4514 42.232C44.4514 43.4582 45.4455 44.4523 46.6717 44.4523C47.8979 44.4523 48.892 43.4582 48.892 42.232C48.892 41.0058 47.8979 40.0117 46.6717 40.0117C45.4455 40.0117 44.4514 41.0058 44.4514 42.232Z" fill="#9F9F9F" fill-opacity="0.7"/>
<path d="M44.451 37.7901C44.451 39.0163 45.4451 40.0104 46.6713 40.0104C47.8975 40.0104 48.8916 39.0163 48.8916 37.7901C48.8916 36.5639 47.8975 35.5698 46.6713 35.5698C45.4451 35.5698 44.451 36.5639 44.451 37.7901Z" fill="#9F9F9F" fill-opacity="0.7"/>
<path d="M44.451 33.3497C44.451 34.5759 45.4451 35.5699 46.6713 35.5699C47.8976 35.5699 48.8916 34.5759 48.8916 33.3497C48.8916 32.1234 47.8976 31.1294 46.6713 31.1294C45.4451 31.1294 44.451 32.1234 44.451 33.3497Z" fill="#9F9F9F" fill-opacity="0.7"/>
<path d="M48.892 64.4341C48.892 65.6604 49.8861 66.6544 51.1123 66.6544C52.3385 66.6544 53.3326 65.6604 53.3326 64.4341C53.3326 63.2079 52.3385 62.2139 51.1123 62.2139C49.8861 62.2139 48.892 63.2079 48.892 64.4341Z" fill="#C46BF0" fill-opacity="0.9"/>
<path d="M48.892 59.9957C48.892 61.2219 49.8861 62.2159 51.1123 62.2159C52.3385 62.2159 53.3326 61.2219 53.3326 59.9957C53.3326 58.7694 52.3385 57.7754 51.1123 57.7754C49.8861 57.7754 48.892 58.7694 48.892 59.9957Z" fill="#C46BF0" fill-opacity="0.7"/>
<path d="M48.892 55.5538C48.892 56.78 49.8861 57.774 51.1123 57.774C52.3385 57.774 53.3326 56.78 53.3326 55.5538C53.3326 54.3275 52.3385 53.3335 51.1123 53.3335C49.8861 53.3335 48.892 54.3275 48.892 55.5538Z" fill="#C46BF0" fill-opacity="0.7"/>
<path d="M48.892 51.1124C48.892 52.3386 49.8861 53.3326 51.1123 53.3326C52.3385 53.3326 53.3326 52.3386 53.3326 51.1124C53.3326 49.8861 52.3385 48.8921 51.1123 48.8921C49.8861 48.8921 48.892 49.8861 48.892 51.1124Z" fill="#C46BF0" fill-opacity="0.7"/>
<path d="M48.892 46.6734C48.892 47.8996 49.8861 48.8937 51.1123 48.8937C52.3385 48.8937 53.3326 47.8996 53.3326 46.6734C53.3326 45.4472 52.3385 44.4531 51.1123 44.4531C49.8861 44.4531 48.892 45.4472 48.892 46.6734Z" fill="#9F9F9F" fill-opacity="0.7"/>
<path d="M48.892 42.232C48.892 43.4582 49.8861 44.4523 51.1123 44.4523C52.3385 44.4523 53.3326 43.4582 53.3326 42.232C53.3326 41.0058 52.3385 40.0117 51.1123 40.0117C49.8861 40.0117 48.892 41.0058 48.892 42.232Z" fill="#9F9F9F" fill-opacity="0.7"/>
<path d="M48.8918 37.7901C48.8918 39.0163 49.8859 40.0104 51.1121 40.0104C52.3383 40.0104 53.3324 39.0163 53.3324 37.7901C53.3324 36.5639 52.3383 35.5698 51.1121 35.5698C49.8859 35.5698 48.8918 36.5639 48.8918 37.7901Z" fill="#9F9F9F" fill-opacity="0.7"/>
<path d="M53.332 59.9957C53.332 61.2219 54.3261 62.2159 55.5523 62.2159C56.7785 62.2159 57.7726 61.2219 57.7726 59.9957C57.7726 58.7694 56.7785 57.7754 55.5523 57.7754C54.3261 57.7754 53.332 58.7694 53.332 59.9957Z" fill="#C46BF0" fill-opacity="0.9"/>
<path d="M53.332 55.5538C53.332 56.78 54.3261 57.774 55.5523 57.774C56.7785 57.774 57.7726 56.78 57.7726 55.5538C57.7726 54.3275 56.7785 53.3335 55.5523 53.3335C54.3261 53.3335 53.332 54.3275 53.332 55.5538Z" fill="#C46BF0" fill-opacity="0.9"/>
<path d="M53.332 51.1124C53.332 52.3386 54.3261 53.3326 55.5523 53.3326C56.7785 53.3326 57.7726 52.3386 57.7726 51.1124C57.7726 49.8861 56.7785 48.8921 55.5523 48.8921C54.3261 48.8921 53.332 49.8861 53.332 51.1124Z" fill="#C46BF0" fill-opacity="0.9"/>
<path d="M53.332 46.6734C53.332 47.8996 54.3261 48.8937 55.5523 48.8937C56.7785 48.8937 57.7726 47.8996 57.7726 46.6734C57.7726 45.4472 56.7785 44.4531 55.5523 44.4531C54.3261 44.4531 53.332 45.4472 53.332 46.6734Z" fill="#B362DC"/>
<path d="M53.332 42.232C53.332 43.4582 54.3261 44.4523 55.5523 44.4523C56.7785 44.4523 57.7726 43.4582 57.7726 42.232C57.7726 41.0058 56.7785 40.0117 55.5523 40.0117C54.3261 40.0117 53.332 41.0058 53.332 42.232Z" fill="#9F9F9F" fill-opacity="0.9"/>
<path d="M53.3317 37.7901C53.3317 39.0163 54.3257 40.0104 55.5519 40.0104C56.7782 40.0104 57.7722 39.0163 57.7722 37.7901C57.7722 36.5639 56.7782 35.5698 55.5519 35.5698C54.3257 35.5698 53.3317 36.5639 53.3317 37.7901Z" fill="#9F9F9F" fill-opacity="0.9"/>
<path d="M0 59.9957C0 61.2219 0.994051 62.2159 2.22027 62.2159C3.4465 62.2159 4.44055 61.2219 4.44055 59.9957C4.44055 58.7694 3.4465 57.7754 2.22027 57.7754C0.994051 57.7754 0 58.7694 0 59.9957Z" fill="#C46BF0"/>
<path d="M0 55.5538C0 56.78 0.994052 57.774 2.22027 57.774C3.4465 57.774 4.44055 56.78 4.44055 55.5538C4.44055 54.3275 3.4465 53.3335 2.22027 53.3335C0.994052 53.3335 0 54.3275 0 55.5538Z" fill="#C46BF0"/>
<path d="M0 51.1124C0 52.3386 0.994052 53.3326 2.22027 53.3326C3.4465 53.3326 4.44055 52.3386 4.44055 51.1124C4.44055 49.8861 3.4465 48.8921 2.22027 48.8921C0.994052 48.8921 0 49.8861 0 51.1124Z" fill="#C46BF0"/>
<path d="M0 46.6734C0 47.8996 0.994052 48.8937 2.22027 48.8937C3.4465 48.8937 4.44055 47.8996 4.44055 46.6734C4.44055 45.4472 3.4465 44.4531 2.22027 44.4531C0.994052 44.4531 0 45.4472 0 46.6734Z" fill="#9F9F9F"/>
<path d="M0 42.232C0 43.4582 0.994051 44.4523 2.22027 44.4523C3.4465 44.4523 4.44055 43.4582 4.44055 42.232C4.44055 41.0058 3.4465 40.0117 2.22027 40.0117C0.994051 40.0117 0 41.0058 0 42.232Z" fill="#9F9F9F"/>
<path d="M4.43982 64.4341C4.43982 65.6604 5.43387 66.6544 6.66009 66.6544C7.88632 66.6544 8.88037 65.6604 8.88037 64.4341C8.88037 63.2079 7.88632 62.2139 6.66009 62.2139C5.43387 62.2139 4.43982 63.2079 4.43982 64.4341Z" fill="#C46BF0"/>
<path d="M4.43982 37.7901C4.43982 39.0163 5.43387 40.0104 6.66009 40.0104C7.88632 40.0104 8.88037 39.0163 8.88037 37.7901C8.88037 36.5639 7.88632 35.5698 6.66009 35.5698C5.43387 35.5698 4.43982 36.5639 4.43982 37.7901Z" fill="#9F9F9F"/>
<path d="M4.43982 33.3497C4.43982 34.5759 5.43387 35.5699 6.66009 35.5699C7.88632 35.5699 8.88037 34.5759 8.88037 33.3497C8.88037 32.1234 7.88632 31.1294 6.66009 31.1294C5.43387 31.1294 4.43982 32.1234 4.43982 33.3497Z" fill="#9F9F9F"/>
<path d="M8.88098 68.8995C8.88098 70.1257 9.87503 71.1197 11.1013 71.1197C12.3275 71.1197 13.3215 70.1257 13.3215 68.8995C13.3215 67.6732 12.3275 66.6792 11.1013 66.6792C9.87503 66.6792 8.88098 67.6732 8.88098 68.8995Z" fill="#C46BF0"/>
<path d="M8.88098 28.8863C8.88098 30.1125 9.87503 31.1066 11.1013 31.1066C12.3275 31.1066 13.3215 30.1125 13.3215 28.8863C13.3215 27.6601 12.3275 26.666 11.1013 26.666C9.87503 26.666 8.88098 27.6601 8.88098 28.8863Z" fill="#9F9F9F"/>
<path d="M8.88098 24.4578C8.88098 25.684 9.87503 26.6895 11.1013 26.6895C12.3275 26.6895 13.3215 25.684 13.3215 24.4578C13.3215 23.2316 12.3275 22.2261 11.1013 22.2261C9.87503 22.2261 8.88098 23.2316 8.88098 24.4578Z" fill="#9F9F9F"/>
<path d="M13.3214 73.3394C13.3214 74.5656 14.3155 75.5597 15.5417 75.5597C16.7679 75.5597 17.762 74.5656 17.762 73.3394C17.762 72.1132 16.7679 71.1191 15.5417 71.1191C14.3155 71.1191 13.3214 72.1132 13.3214 73.3394Z" fill="#C46BF0"/>
<path d="M13.3214 20.0059C13.3214 21.2321 14.3155 22.2262 15.5417 22.2262C16.7679 22.2262 17.762 21.2321 17.762 20.0059C17.762 18.7797 16.7679 17.7856 15.5417 17.7856C14.3155 17.7856 13.3214 18.7797 13.3214 20.0059Z" fill="#9F9F9F"/>
<path d="M17.7623 77.7798C17.7623 79.0061 18.7564 80.0001 19.9826 80.0001C21.2088 80.0001 22.2029 79.0061 22.2029 77.7798C22.2029 76.5536 21.2088 75.5596 19.9826 75.5596C18.7564 75.5596 17.7623 76.5536 17.7623 77.7798Z" fill="#C46BF0"/>
<path d="M17.7623 59.9957C17.7623 61.2219 18.7564 62.2159 19.9826 62.2159C21.2088 62.2159 22.2029 61.2219 22.2029 59.9957C22.2029 58.7694 21.2088 57.7754 19.9826 57.7754C18.7564 57.7754 17.7623 58.7694 17.7623 59.9957Z" fill="#C46BF0" fill-opacity="0.4"/>
<path d="M17.7618 15.5425C17.7618 16.7688 18.7558 17.7628 19.9821 17.7628C21.2083 17.7628 22.2023 16.7688 22.2023 15.5425C22.2023 14.3163 21.2083 13.3223 19.9821 13.3223C18.7558 13.3223 17.7618 14.3163 17.7618 15.5425Z" fill="#9F9F9F"/>
<path d="M22.2259 77.7798C22.2259 79.0061 23.2199 80.0001 24.4462 80.0001C25.6724 80.0001 26.6664 79.0061 26.6664 77.7798C26.6664 76.5536 25.6724 75.5596 24.4462 75.5596C23.2199 75.5596 22.2259 76.5536 22.2259 77.7798Z" fill="#C46BF0"/>
<path d="M22.2259 64.4341C22.2259 65.6604 23.2199 66.6544 24.4462 66.6544C25.6724 66.6544 26.6664 65.6604 26.6664 64.4341C26.6664 63.2079 25.6724 62.2139 24.4462 62.2139C23.2199 62.2139 22.2259 63.2079 22.2259 64.4341Z" fill="#C46BF0" fill-opacity="0.4"/>
<path d="M22.2259 51.1124C22.2259 52.3386 23.2199 53.3326 24.4462 53.3326C25.6724 53.3326 26.6664 52.3386 26.6664 51.1124C26.6664 49.8861 25.6724 48.8921 24.4462 48.8921C23.2199 48.8921 22.2259 49.8861 22.2259 51.1124Z" fill="#C46BF0" fill-opacity="0.4"/>
<path d="M22.2259 46.6734C22.2259 47.8996 23.2199 48.8937 24.4462 48.8937C25.6724 48.8937 26.6664 47.8996 26.6664 46.6734C26.6664 45.4472 25.6724 44.4531 24.4462 44.4531C23.2199 44.4531 22.2259 45.4472 22.2259 46.6734Z" fill="#C46BF0" fill-opacity="0.4"/>
<path d="M22.2259 42.232C22.2259 43.4582 23.2199 44.4523 24.4462 44.4523C25.6724 44.4523 26.6664 43.4582 26.6664 42.232C26.6664 41.0058 25.6724 40.0117 24.4462 40.0117C23.2199 40.0117 22.2259 41.0058 22.2259 42.232Z" fill="#C46BF0" fill-opacity="0.5"/>
<path d="M22.2259 11.1021C22.2259 12.3283 23.2199 13.3224 24.4462 13.3224C25.6724 13.3224 26.6664 12.3283 26.6664 11.1021C26.6664 9.87589 25.6724 8.88184 24.4462 8.88184C23.2199 8.88184 22.2259 9.87589 22.2259 11.1021Z" fill="#9F9F9F"/>
<path d="M26.6661 77.7798C26.6661 79.0061 27.6602 80.0001 28.8864 80.0001C30.1126 80.0001 31.1067 79.0061 31.1067 77.7798C31.1067 76.5536 30.1126 75.5596 28.8864 75.5596C27.6602 75.5596 26.6661 76.5536 26.6661 77.7798Z" fill="#C46BF0"/>
<path d="M26.6661 64.4341C26.6661 65.6604 27.6602 66.6544 28.8864 66.6544C30.1126 66.6544 31.1067 65.6604 31.1067 64.4341C31.1067 63.2079 30.1126 62.2139 28.8864 62.2139C27.6602 62.2139 26.6661 63.2079 26.6661 64.4341Z" fill="#C46BF0" fill-opacity="0.4"/>
<path d="M26.666 6.6607C26.666 7.88693 27.66 8.88098 28.8862 8.88098C30.1125 8.88098 31.1065 7.88693 31.1065 6.6607C31.1065 5.43448 30.1125 4.44043 28.8862 4.44043C27.66 4.44043 26.666 5.43448 26.666 6.6607Z" fill="#9F9F9F"/>
<path d="M31.1069 77.7798C31.1069 79.0061 32.1009 80.0001 33.3271 80.0001C34.5534 80.0001 35.5474 79.0061 35.5474 77.7798C35.5474 76.5536 34.5534 75.5596 33.3271 75.5596C32.1009 75.5596 31.1069 76.5536 31.1069 77.7798Z" fill="#C46BF0"/>
<path d="M31.1069 64.4341C31.1069 65.6604 32.1009 66.6544 33.3271 66.6544C34.5534 66.6544 35.5474 65.6604 35.5474 64.4341C35.5474 63.2079 34.5534 62.2139 33.3271 62.2139C32.1009 62.2139 31.1069 63.2079 31.1069 64.4341Z" fill="#C46BF0" fill-opacity="0.4"/>
<path d="M31.1067 2.22027C31.1067 3.4465 32.1007 4.44055 33.327 4.44055C34.5532 4.44055 35.5472 3.4465 35.5472 2.22027C35.5472 0.99405 34.5532 0 33.327 0C32.1007 0 31.1067 0.99405 31.1067 2.22027Z" fill="#9F9F9F"/>
<path d="M35.5477 77.7798C35.5477 79.0061 36.5532 80.0001 37.7794 80.0001C39.0056 80.0001 40.0111 79.0061 40.0111 77.7798C40.0111 76.5536 39.0056 75.5596 37.7794 75.5596C36.5532 75.5596 35.5477 76.5536 35.5477 77.7798Z" fill="#C46BF0"/>
<path d="M35.5477 64.4341C35.5477 65.6604 36.5532 66.6544 37.7794 66.6544C39.0056 66.6544 40.0111 65.6604 40.0111 64.4341C40.0111 63.2079 39.0056 62.2139 37.7794 62.2139C36.5532 62.2139 35.5477 63.2079 35.5477 64.4341Z" fill="#C46BF0" fill-opacity="0.4"/>
<path d="M35.5477 51.1124C35.5477 52.3386 36.5532 53.3326 37.7794 53.3326C39.0056 53.3326 40.0111 52.3386 40.0111 51.1124C40.0111 49.8861 39.0056 48.8921 37.7794 48.8921C36.5532 48.8921 35.5477 49.8861 35.5477 51.1124Z" fill="#C46BF0" fill-opacity="0.4"/>
<path d="M35.5477 46.6734C35.5477 47.8996 36.5532 48.8937 37.7794 48.8937C39.0056 48.8937 40.0111 47.8996 40.0111 46.6734C40.0111 45.4472 39.0056 44.4531 37.7794 44.4531C36.5532 44.4531 35.5477 45.4472 35.5477 46.6734Z" fill="#C46BF0" fill-opacity="0.4"/>
<path d="M35.5477 42.232C35.5477 43.4582 36.5532 44.4523 37.7794 44.4523C39.0056 44.4523 40.0111 43.4582 40.0111 42.232C40.0111 41.0058 39.0056 40.0117 37.7794 40.0117C36.5532 40.0117 35.5477 41.0058 35.5477 42.232Z" fill="#9F9F9F" fill-opacity="0.866667"/>
<path d="M35.5477 15.5425C35.5477 16.7688 36.5532 17.7628 37.7794 17.7628C39.0056 17.7628 40.0111 16.7688 40.0111 15.5425C40.0111 14.3163 39.0056 13.3223 37.7794 13.3223C36.5532 13.3223 35.5477 14.3163 35.5477 15.5425Z" fill="#9F9F9F"/>
<path d="M35.5477 11.1021C35.5477 12.3283 36.5532 13.3224 37.7794 13.3224C39.0056 13.3224 40.0111 12.3283 40.0111 11.1021C40.0111 9.87589 39.0056 8.88184 37.7794 8.88184C36.5532 8.88184 35.5477 9.87589 35.5477 11.1021Z" fill="#9F9F9F"/>
<path d="M35.5477 6.6607C35.5477 7.88693 36.5532 8.88098 37.7794 8.88098C39.0056 8.88098 40.0111 7.88693 40.0111 6.6607C40.0111 5.43448 39.0056 4.44043 37.7794 4.44043C36.5532 4.44043 35.5477 5.43448 35.5477 6.6607Z" fill="#9F9F9F"/>
<path d="M40.011 77.7798C40.011 79.0061 41.005 80.0001 42.2313 80.0001C43.4575 80.0001 44.4515 79.0061 44.4515 77.7798C44.4515 76.5536 43.4575 75.5596 42.2313 75.5596C41.005 75.5596 40.011 76.5536 40.011 77.7798Z" fill="#C46BF0"/>
<path d="M40.011 59.9957C40.011 61.2219 41.005 62.2159 42.2313 62.2159C43.4575 62.2159 44.4515 61.2219 44.4515 59.9957C44.4515 58.7694 43.4575 57.7754 42.2313 57.7754C41.005 57.7754 40.011 58.7694 40.011 59.9957Z" fill="#C46BF0" fill-opacity="0.4"/>
<path d="M40.0105 24.4578C40.0105 25.684 41.0045 26.6895 42.2308 26.6895C43.457 26.6895 44.451 25.684 44.451 24.4578C44.451 23.2316 43.457 22.2261 42.2308 22.2261C41.0045 22.2261 40.0105 23.2316 40.0105 24.4578Z" fill="#9F9F9F"/>
<path d="M40.0105 20.0059C40.0105 21.2321 41.0045 22.2262 42.2308 22.2262C43.457 22.2262 44.451 21.2321 44.451 20.0059C44.451 18.7797 43.457 17.7856 42.2308 17.7856C41.0045 17.7856 40.0105 18.7797 40.0105 20.0059Z" fill="#9F9F9F"/>
<path d="M44.4514 73.3394C44.4514 74.5656 45.4455 75.5597 46.6717 75.5597C47.8979 75.5597 48.892 74.5656 48.892 73.3394C48.892 72.1132 47.8979 71.1191 46.6717 71.1191C45.4455 71.1191 44.4514 72.1132 44.4514 73.3394Z" fill="#C46BF0"/>
<path d="M48.892 68.8995C48.892 70.1257 49.8861 71.1197 51.1123 71.1197C52.3385 71.1197 53.3326 70.1257 53.3326 68.8995C53.3326 67.6732 52.3385 66.6792 51.1123 66.6792C49.8861 66.6792 48.892 67.6732 48.892 68.8995Z" fill="#C46BF0"/>
<path d="M53.332 64.4341C53.332 65.6604 54.3261 66.6544 55.5523 66.6544C56.7785 66.6544 57.7726 65.6604 57.7726 64.4341C57.7726 63.2079 56.7785 62.2139 55.5523 62.2139C54.3261 62.2139 53.332 63.2079 53.332 64.4341Z" fill="#C46BF0"/>
<path d="M53.3317 33.3497C53.3317 34.5759 54.3257 35.5699 55.5519 35.5699C56.7782 35.5699 57.7722 34.5759 57.7722 33.3497C57.7722 32.1234 56.7782 31.1294 55.5519 31.1294C54.3257 31.1294 53.3317 32.1234 53.3317 33.3497Z" fill="#9F9F9F"/>
<path d="M57.7736 59.9957C57.7736 61.2219 58.7676 62.2159 59.9938 62.2159C61.2201 62.2159 62.2141 61.2219 62.2141 59.9957C62.2141 58.7694 61.2201 57.7754 59.9938 57.7754C58.7676 57.7754 57.7736 58.7694 57.7736 59.9957Z" fill="#C46BF0"/>
<path d="M57.7736 55.5538C57.7736 56.78 58.7676 57.774 59.9938 57.774C61.2201 57.774 62.2141 56.78 62.2141 55.5538C62.2141 54.3275 61.2201 53.3335 59.9938 53.3335C58.7676 53.3335 57.7736 54.3275 57.7736 55.5538Z" fill="#C46BF0"/>
<path d="M57.7736 51.1124C57.7736 52.3386 58.7676 53.3326 59.9938 53.3326C61.2201 53.3326 62.2141 52.3386 62.2141 51.1124C62.2141 49.8861 61.2201 48.8921 59.9938 48.8921C58.7676 48.8921 57.7736 49.8861 57.7736 51.1124Z" fill="#C46BF0"/>
<path d="M57.7736 46.6734C57.7736 47.8996 58.7676 48.8937 59.9938 48.8937C61.2201 48.8937 62.2141 47.8996 62.2141 46.6734C62.2141 45.4472 61.2201 44.4531 59.9938 44.4531C58.7676 44.4531 57.7736 45.4472 57.7736 46.6734Z" fill="#C46BF0"/>
<path d="M57.7736 42.232C57.7736 43.4582 58.7676 44.4523 59.9938 44.4523C61.2201 44.4523 62.2141 43.4582 62.2141 42.232C62.2141 41.0058 61.2201 40.0117 59.9938 40.0117C58.7676 40.0117 57.7736 41.0058 57.7736 42.232Z" fill="#9F9F9F"/>
<path d="M57.7728 37.7901C57.7728 39.0163 58.7669 40.0104 59.9931 40.0104C61.2193 40.0104 62.2134 39.0163 62.2134 37.7901C62.2134 36.5639 61.2193 35.5698 59.9931 35.5698C58.7669 35.5698 57.7728 36.5639 57.7728 37.7901Z" fill="#9F9F9F"/>
</svg>
