<svg width="48" height="48" viewBox="0 0 48 48" fill="none" xmlns="http://www.w3.org/2000/svg">
<rect x="0.5" y="0.5" width="47" height="47" rx="17.5" fill="url(#paint0_linear_3647_8468)" stroke="#656565"/>
<g opacity="0.25">
<path d="M11.1412 32.9294C11.1412 33.5207 11.6206 34 12.2119 34C12.8032 34 13.2825 33.5207 13.2825 32.9294C13.2825 32.3381 12.8032 31.8588 12.2119 31.8588C11.6206 31.8588 11.1412 32.3381 11.1412 32.9294Z" fill="#1CE7C2" fill-opacity="0.9"/>
<path d="M11.1412 30.7882C11.1412 31.3795 11.6206 31.8588 12.2119 31.8588C12.8032 31.8588 13.2825 31.3795 13.2825 30.7882C13.2825 30.1969 12.8032 29.7175 12.2119 29.7175C11.6206 29.7175 11.1412 30.1969 11.1412 30.7882Z" fill="#1CE7C2" fill-opacity="0.9"/>
<path d="M11.1412 28.6468C11.1412 29.2381 11.6206 29.7175 12.2119 29.7175C12.8032 29.7175 13.2825 29.2381 13.2825 28.6468C13.2825 28.0555 12.8032 27.5762 12.2119 27.5762C11.6206 27.5762 11.1412 28.0555 11.1412 28.6468Z" fill="#1CE7C2" fill-opacity="0.9"/>
<path d="M11.1412 26.5056C11.1412 27.0969 11.6206 27.5762 12.2119 27.5762C12.8032 27.5762 13.2825 27.0969 13.2825 26.5056C13.2825 25.9143 12.8032 25.4349 12.2119 25.4349C11.6206 25.4349 11.1412 25.9143 11.1412 26.5056Z" fill="#1CE7C2" fill-opacity="0.9"/>
<path d="M11.1412 24.3643C11.1412 24.9556 11.6206 25.435 12.2119 25.435C12.8032 25.435 13.2825 24.9556 13.2825 24.3643C13.2825 23.773 12.8032 23.2937 12.2119 23.2937C11.6206 23.2937 11.1412 23.773 11.1412 24.3643Z" fill="#1CE7C2" fill-opacity="0.9"/>
<path d="M13.2827 35.0706C13.2827 35.6619 13.7621 36.1413 14.3534 36.1413C14.9447 36.1413 15.424 35.6619 15.424 35.0706C15.424 34.4793 14.9447 34 14.3534 34C13.7621 34 13.2827 34.4793 13.2827 35.0706Z" fill="#1CE7C2" fill-opacity="0.9"/>
<path d="M13.2827 32.9294C13.2827 33.5207 13.7621 34 14.3534 34C14.9447 34 15.424 33.5207 15.424 32.9294C15.424 32.3381 14.9447 31.8588 14.3534 31.8588C13.7621 31.8588 13.2827 32.3381 13.2827 32.9294Z" fill="#1CE7C2" fill-opacity="0.7"/>
<path d="M13.2827 30.7882C13.2827 31.3795 13.7621 31.8588 14.3534 31.8588C14.9447 31.8588 15.424 31.3795 15.424 30.7882C15.424 30.1969 14.9447 29.7175 14.3534 29.7175C13.7621 29.7175 13.2827 30.1969 13.2827 30.7882Z" fill="#1CE7C2" fill-opacity="0.7"/>
<path d="M13.2827 28.6468C13.2827 29.2381 13.7621 29.7175 14.3534 29.7175C14.9447 29.7175 15.424 29.2381 15.424 28.6468C15.424 28.0555 14.9447 27.5762 14.3534 27.5762C13.7621 27.5762 13.2827 28.0555 13.2827 28.6468Z" fill="#1CE7C2" fill-opacity="0.7"/>
<path d="M13.2827 26.5056C13.2827 27.0969 13.7621 27.5762 14.3534 27.5762C14.9447 27.5762 15.424 27.0969 15.424 26.5056C15.424 25.9143 14.9447 25.4349 14.3534 25.4349C13.7621 25.4349 13.2827 25.9143 13.2827 26.5056Z" fill="#1CE7C2" fill-opacity="0.7"/>
<path d="M13.2827 24.3643C13.2827 24.9556 13.7621 25.435 14.3534 25.435C14.9447 25.435 15.424 24.9556 15.424 24.3643C15.424 23.773 14.9447 23.2937 14.3534 23.2937C13.7621 23.2937 13.2827 23.773 13.2827 24.3643Z" fill="#1CE7C2" fill-opacity="0.9"/>
<path d="M13.2827 22.223C13.2827 22.8143 13.7621 23.2936 14.3534 23.2936C14.9447 23.2936 15.424 22.8143 15.424 22.223C15.424 21.6317 14.9447 21.1523 14.3534 21.1523C13.7621 21.1523 13.2827 21.6317 13.2827 22.223Z" fill="#1CE7C2" fill-opacity="0.9"/>
<path d="M13.2827 20.0817C13.2827 20.673 13.7621 21.1524 14.3534 21.1524C14.9447 21.1524 15.424 20.673 15.424 20.0817C15.424 19.4905 14.9447 19.0111 14.3534 19.0111C13.7621 19.0111 13.2827 19.4905 13.2827 20.0817Z" fill="#1CE7C2" fill-opacity="0.9"/>
<path d="M15.4238 37.223C15.4238 37.8143 15.9032 38.2936 16.4945 38.2936C17.0858 38.2936 17.5651 37.8143 17.5651 37.223C17.5651 36.6317 17.0858 36.1523 16.4945 36.1523C15.9032 36.1523 15.4238 36.6317 15.4238 37.223Z" fill="#1CE7C2" fill-opacity="0.7"/>
<path d="M15.4238 35.0706C15.4238 35.6619 15.9032 36.1413 16.4945 36.1413C17.0858 36.1413 17.5651 35.6619 17.5651 35.0706C17.5651 34.4793 17.0858 34 16.4945 34C15.9032 34 15.4238 34.4793 15.4238 35.0706Z" fill="#1CE7C2" fill-opacity="0.5"/>
<path d="M15.4238 32.9294C15.4238 33.5207 15.9032 34 16.4945 34C17.0858 34 17.5651 33.5207 17.5651 32.9294C17.5651 32.3381 17.0858 31.8588 16.4945 31.8588C15.9032 31.8588 15.4238 32.3381 15.4238 32.9294Z" fill="#1CE7C2" fill-opacity="0.5"/>
<path d="M15.4238 30.7882C15.4238 31.3795 15.9032 31.8588 16.4945 31.8588C17.0858 31.8588 17.5651 31.3795 17.5651 30.7882C17.5651 30.1969 17.0858 29.7175 16.4945 29.7175C15.9032 29.7175 15.4238 30.1969 15.4238 30.7882Z" fill="#1CE7C2" fill-opacity="0.5"/>
<path d="M15.4238 28.6468C15.4238 29.2381 15.9032 29.7175 16.4945 29.7175C17.0858 29.7175 17.5651 29.2381 17.5651 28.6468C17.5651 28.0555 17.0858 27.5762 16.4945 27.5762C15.9032 27.5762 15.4238 28.0555 15.4238 28.6468Z" fill="#1CE7C2" fill-opacity="0.7"/>
<path d="M15.4238 26.5056C15.4238 27.0969 15.9032 27.5762 16.4945 27.5762C17.0858 27.5762 17.5651 27.0969 17.5651 26.5056C17.5651 25.9143 17.0858 25.4349 16.4945 25.4349C15.9032 25.4349 15.4238 25.9143 15.4238 26.5056Z" fill="#1CE7C2" fill-opacity="0.7"/>
<path d="M15.4238 24.3643C15.4238 24.9556 15.9032 25.435 16.4945 25.435C17.0858 25.435 17.5651 24.9556 17.5651 24.3643C17.5651 23.773 17.0858 23.2937 16.4945 23.2937C15.9032 23.2937 15.4238 23.773 15.4238 24.3643Z" fill="#1CE7C2" fill-opacity="0.7"/>
<path d="M15.4238 22.223C15.4238 22.8143 15.9032 23.2936 16.4945 23.2936C17.0858 23.2936 17.5651 22.8143 17.5651 22.223C17.5651 21.6317 17.0858 21.1523 16.4945 21.1523C15.9032 21.1523 15.4238 21.6317 15.4238 22.223Z" fill="#1CE7C2" fill-opacity="0.7"/>
<path d="M15.4238 20.0817C15.4238 20.673 15.9032 21.1524 16.4945 21.1524C17.0858 21.1524 17.5651 20.673 17.5651 20.0817C17.5651 19.4905 17.0858 19.0111 16.4945 19.0111C15.9032 19.0111 15.4238 19.4905 15.4238 20.0817Z" fill="#1CE7C2" fill-opacity="0.9"/>
<path d="M15.4238 17.9294C15.4238 18.5207 15.9032 19 16.4945 19C17.0858 19 17.5651 18.5207 17.5651 17.9294C17.5651 17.3381 17.0858 16.8588 16.4945 16.8588C15.9032 16.8588 15.4238 17.3381 15.4238 17.9294Z" fill="#1CE7C2" fill-opacity="0.9"/>
<path d="M15.4238 15.7936C15.4238 16.3849 15.9032 16.8697 16.4945 16.8697C17.0858 16.8697 17.5651 16.3849 17.5651 15.7936C17.5651 15.2023 17.0858 14.7174 16.4945 14.7174C15.9032 14.7174 15.4238 15.2023 15.4238 15.7936Z" fill="#1CE7C2" fill-opacity="0.9"/>
<path d="M17.5653 39.3643C17.5653 39.9556 18.0446 40.435 18.6359 40.435C19.2272 40.435 19.7066 39.9556 19.7066 39.3643C19.7066 38.773 19.2272 38.2937 18.6359 38.2937C18.0446 38.2937 17.5653 38.773 17.5653 39.3643Z" fill="#1CE7C2" fill-opacity="0.7"/>
<path d="M17.5653 37.223C17.5653 37.8143 18.0446 38.2936 18.6359 38.2936C19.2272 38.2936 19.7066 37.8143 19.7066 37.223C19.7066 36.6317 19.2272 36.1523 18.6359 36.1523C18.0446 36.1523 17.5653 36.6317 17.5653 37.223Z" fill="#1CE7C2" fill-opacity="0.5"/>
<path d="M17.5653 35.0706C17.5653 35.6619 18.0446 36.1413 18.6359 36.1413C19.2272 36.1413 19.7066 35.6619 19.7066 35.0706C19.7066 34.4793 19.2272 34 18.6359 34C18.0446 34 17.5653 34.4793 17.5653 35.0706Z" fill="#1CE7C2" fill-opacity="0.4"/>
<path d="M17.5653 30.7882C17.5653 31.3795 18.0446 31.8588 18.6359 31.8588C19.2272 31.8588 19.7066 31.3795 19.7066 30.7882C19.7066 30.1969 19.2272 29.7175 18.6359 29.7175C18.0446 29.7175 17.5653 30.1969 17.5653 30.7882Z" fill="#1CE7C2" fill-opacity="0.4"/>
<path d="M17.5653 28.6468C17.5653 29.2381 18.0446 29.7175 18.6359 29.7175C19.2272 29.7175 19.7066 29.2381 19.7066 28.6468C19.7066 28.0555 19.2272 27.5762 18.6359 27.5762C18.0446 27.5762 17.5653 28.0555 17.5653 28.6468Z" fill="#1CE7C2" fill-opacity="0.5"/>
<path d="M17.5653 26.5056C17.5653 27.0969 18.0446 27.5762 18.6359 27.5762C19.2272 27.5762 19.7066 27.0969 19.7066 26.5056C19.7066 25.9143 19.2272 25.4349 18.6359 25.4349C18.0446 25.4349 17.5653 25.9143 17.5653 26.5056Z" fill="#1CE7C2" fill-opacity="0.5"/>
<path d="M17.5653 24.3643C17.5653 24.9556 18.0446 25.435 18.6359 25.435C19.2272 25.435 19.7066 24.9556 19.7066 24.3643C19.7066 23.773 19.2272 23.2937 18.6359 23.2937C18.0446 23.2937 17.5653 23.773 17.5653 24.3643Z" fill="#1CE7C2" fill-opacity="0.5"/>
<path d="M17.5653 22.223C17.5653 22.8143 18.0446 23.2936 18.6359 23.2936C19.2272 23.2936 19.7066 22.8143 19.7066 22.223C19.7066 21.6317 19.2272 21.1523 18.6359 21.1523C18.0446 21.1523 17.5653 21.6317 17.5653 22.223Z" fill="#1CE7C2" fill-opacity="0.7"/>
<path d="M17.5653 20.0817C17.5653 20.673 18.0446 21.1524 18.6359 21.1524C19.2272 21.1524 19.7066 20.673 19.7066 20.0817C19.7066 19.4905 19.2272 19.0111 18.6359 19.0111C18.0446 19.0111 17.5653 19.4905 17.5653 20.0817Z" fill="#1CE7C2" fill-opacity="0.7"/>
<path d="M17.5653 17.9294C17.5653 18.5207 18.0446 19 18.6359 19C19.2272 19 19.7066 18.5207 19.7066 17.9294C19.7066 17.3381 19.2272 16.8588 18.6359 16.8588C18.0446 16.8588 17.5653 17.3381 17.5653 17.9294Z" fill="#1CE7C2" fill-opacity="0.7"/>
<path d="M17.5653 15.7936C17.5653 16.3849 18.0446 16.8697 18.6359 16.8697C19.2272 16.8697 19.7066 16.3849 19.7066 15.7936C19.7066 15.2023 19.2272 14.7174 18.6359 14.7174C18.0446 14.7174 17.5653 15.2023 17.5653 15.7936Z" fill="#1CE7C2" fill-opacity="0.9"/>
<path d="M17.5653 13.6468C17.5653 14.2381 18.0446 14.7175 18.6359 14.7175C19.2272 14.7175 19.7066 14.2381 19.7066 13.6468C19.7066 13.0555 19.2272 12.5762 18.6359 12.5762C18.0446 12.5762 17.5653 13.0555 17.5653 13.6468Z" fill="#1CE7C2" fill-opacity="0.9"/>
<path d="M19.7174 39.3643C19.7174 39.9556 20.1967 40.435 20.788 40.435C21.3793 40.435 21.8587 39.9556 21.8587 39.3643C21.8587 38.773 21.3793 38.2937 20.788 38.2937C20.1967 38.2937 19.7174 38.773 19.7174 39.3643Z" fill="#1CE7C2" fill-opacity="0.5"/>
<path d="M19.7174 37.223C19.7174 37.8143 20.1967 38.2936 20.788 38.2936C21.3793 38.2936 21.8587 37.8143 21.8587 37.223C21.8587 36.6317 21.3793 36.1523 20.788 36.1523C20.1967 36.1523 19.7174 36.6317 19.7174 37.223Z" fill="#1CE7C2" fill-opacity="0.4"/>
<path d="M19.7174 32.9294C19.7174 33.5207 20.1967 34 20.788 34C21.3793 34 21.8587 33.5207 21.8587 32.9294C21.8587 32.3381 21.3793 31.8588 20.788 31.8588C20.1967 31.8588 19.7174 32.3381 19.7174 32.9294Z" fill="#1CE7C2" fill-opacity="0.4"/>
<path d="M19.7174 30.7882C19.7174 31.3795 20.1967 31.8588 20.788 31.8588C21.3793 31.8588 21.8587 31.3795 21.8587 30.7882C21.8587 30.1969 21.3793 29.7175 20.788 29.7175C20.1967 29.7175 19.7174 30.1969 19.7174 30.7882Z" fill="#1CE7C2" fill-opacity="0.4"/>
<path d="M19.7174 22.223C19.7174 22.8143 20.1967 23.2936 20.788 23.2936C21.3793 23.2936 21.8587 22.8143 21.8587 22.223C21.8587 21.6317 21.3793 21.1523 20.788 21.1523C20.1967 21.1523 19.7174 21.6317 19.7174 22.223Z" fill="#1CE7C2" fill-opacity="0.5"/>
<path d="M19.7174 20.0817C19.7174 20.673 20.1967 21.1524 20.788 21.1524C21.3793 21.1524 21.8587 20.673 21.8587 20.0817C21.8587 19.4905 21.3793 19.0111 20.788 19.0111C20.1967 19.0111 19.7174 19.4905 19.7174 20.0817Z" fill="#1CE7C2" fill-opacity="0.5"/>
<path d="M19.7174 17.9294C19.7174 18.5207 20.1967 19 20.788 19C21.3793 19 21.8587 18.5207 21.8587 17.9294C21.8587 17.3381 21.3793 16.8588 20.788 16.8588C20.1967 16.8588 19.7174 17.3381 19.7174 17.9294Z" fill="#1CE7C2" fill-opacity="0.7"/>
<path d="M19.7174 15.7936C19.7174 16.3849 20.1967 16.8697 20.788 16.8697C21.3793 16.8697 21.8587 16.3849 21.8587 15.7936C21.8587 15.2023 21.3793 14.7174 20.788 14.7174C20.1967 14.7174 19.7174 15.2023 19.7174 15.7936Z" fill="#1CE7C2" fill-opacity="0.7"/>
<path d="M19.7174 13.6468C19.7174 14.2381 20.1967 14.7175 20.788 14.7175C21.3793 14.7175 21.8587 14.2381 21.8587 13.6468C21.8587 13.0555 21.3793 12.5762 20.788 12.5762C20.1967 12.5762 19.7174 13.0555 19.7174 13.6468Z" fill="#1CE7C2" fill-opacity="0.9"/>
<path d="M19.7174 11.4945C19.7174 12.0858 20.1967 12.5651 20.788 12.5651C21.3793 12.5651 21.8587 12.0858 21.8587 11.4945C21.8587 10.9032 21.3793 10.4238 20.788 10.4238C20.1967 10.4238 19.7174 10.9032 19.7174 11.4945Z" fill="#1CE7C2" fill-opacity="0.9"/>
<path d="M21.8588 39.3643C21.8588 39.9556 22.3381 40.435 22.9294 40.435C23.5207 40.435 24 39.9556 24 39.3643C24 38.773 23.5207 38.2937 22.9294 38.2937C22.3381 38.2937 21.8588 38.773 21.8588 39.3643Z" fill="#1CE7C2" fill-opacity="0.5"/>
<path d="M21.8588 37.223C21.8588 37.8143 22.3381 38.2936 22.9294 38.2936C23.5207 38.2936 24 37.8143 24 37.223C24 36.6317 23.5207 36.1523 22.9294 36.1523C22.3381 36.1523 21.8588 36.6317 21.8588 37.223Z" fill="#1CE7C2" fill-opacity="0.4"/>
<path d="M21.8588 32.9294C21.8588 33.5207 22.3381 34 22.9294 34C23.5207 34 24 33.5207 24 32.9294C24 32.3381 23.5207 31.8588 22.9294 31.8588C22.3381 31.8588 21.8588 32.3381 21.8588 32.9294Z" fill="#1CE7C2" fill-opacity="0.4"/>
<path d="M21.8588 30.7882C21.8588 31.3795 22.3381 31.8588 22.9294 31.8588C23.5207 31.8588 24 31.3795 24 30.7882C24 30.1969 23.5207 29.7175 22.9294 29.7175C22.3381 29.7175 21.8588 30.1969 21.8588 30.7882Z" fill="#1CE7C2" fill-opacity="0.4"/>
<path d="M21.8588 28.6468C21.8588 29.2381 22.3381 29.7175 22.9294 29.7175C23.5207 29.7175 24 29.2381 24 28.6468C24 28.0555 23.5207 27.5762 22.9294 27.5762C22.3381 27.5762 21.8588 28.0555 21.8588 28.6468Z" fill="#1CE7C2" fill-opacity="0.4"/>
<path d="M21.8588 26.5056C21.8588 27.0969 22.3381 27.5762 22.9294 27.5762C23.5207 27.5762 24 27.0969 24 26.5056C24 25.9143 23.5207 25.4349 22.9294 25.4349C22.3381 25.4349 21.8588 25.9143 21.8588 26.5056Z" fill="#1CE7C2" fill-opacity="0.4"/>
<path d="M21.8588 24.3643C21.8588 24.9556 22.3381 25.435 22.9294 25.435C23.5207 25.435 24 24.9556 24 24.3643C24 23.773 23.5207 23.2937 22.9294 23.2937C22.3381 23.2937 21.8588 23.773 21.8588 24.3643Z" fill="#1CE7C2" fill-opacity="0.5"/>
<path d="M21.8588 22.223C21.8588 22.8143 22.3381 23.2936 22.9294 23.2936C23.5207 23.2936 24 22.8143 24 22.223C24 21.6317 23.5207 21.1523 22.9294 21.1523C22.3381 21.1523 21.8588 21.6317 21.8588 22.223Z" fill="#1CE7C2" fill-opacity="0.5"/>
<path d="M21.8588 20.0817C21.8588 20.673 22.3381 21.1524 22.9294 21.1524C23.5207 21.1524 24 20.673 24 20.0817C24 19.4905 23.5207 19.0111 22.9294 19.0111C22.3381 19.0111 21.8588 19.4905 21.8588 20.0817Z" fill="#1CE7C2" fill-opacity="0.7"/>
<path d="M21.8588 17.9294C21.8588 18.5207 22.3381 19 22.9294 19C23.5207 19 24 18.5207 24 17.9294C24 17.3381 23.5207 16.8588 22.9294 16.8588C22.3381 16.8588 21.8588 17.3381 21.8588 17.9294Z" fill="#1CE7C2" fill-opacity="0.7"/>
<path d="M21.8588 15.7936C21.8588 16.3849 22.3381 16.8697 22.9294 16.8697C23.5207 16.8697 24 16.3849 24 15.7936C24 15.2023 23.5207 14.7174 22.9294 14.7174C22.3381 14.7174 21.8588 15.2023 21.8588 15.7936Z" fill="#1CE7C2" fill-opacity="0.7"/>
<path d="M21.8588 13.6468C21.8588 14.2381 22.3381 14.7175 22.9294 14.7175C23.5207 14.7175 24 14.2381 24 13.6468C24 13.0555 23.5207 12.5762 22.9294 12.5762C22.3381 12.5762 21.8588 13.0555 21.8588 13.6468Z" fill="#1CE7C2" fill-opacity="0.7"/>
<path d="M21.8588 11.4945C21.8588 12.0858 22.3381 12.5651 22.9294 12.5651C23.5207 12.5651 24 12.0858 24 11.4945C24 10.9032 23.5207 10.4238 22.9294 10.4238C22.3381 10.4238 21.8588 10.9032 21.8588 11.4945Z" fill="#1CE7C2" fill-opacity="0.9"/>
<path d="M21.8588 9.35323C21.8588 9.94453 22.3381 10.4239 22.9294 10.4239C23.5207 10.4239 24 9.94453 24 9.35323C24 8.76193 23.5207 8.28259 22.9294 8.28259C22.3381 8.28259 21.8588 8.76193 21.8588 9.35323Z" fill="#1CE7C2" fill-opacity="0.9"/>
<path d="M24.0002 39.3643C24.0002 39.9556 24.4796 40.435 25.0709 40.435C25.6622 40.435 26.1415 39.9556 26.1415 39.3643C26.1415 38.773 25.6622 38.2937 25.0709 38.2937C24.4796 38.2937 24.0002 38.773 24.0002 39.3643Z" fill="#1CE7C2" fill-opacity="0.5"/>
<path d="M24.0002 37.223C24.0002 37.8143 24.4796 38.2936 25.0709 38.2936C25.6622 38.2936 26.1415 37.8143 26.1415 37.223C26.1415 36.6317 25.6622 36.1523 25.0709 36.1523C24.4796 36.1523 24.0002 36.6317 24.0002 37.223Z" fill="#1CE7C2" fill-opacity="0.4"/>
<path d="M24.0002 32.9294C24.0002 33.5207 24.4796 34 25.0709 34C25.6622 34 26.1415 33.5207 26.1415 32.9294C26.1415 32.3381 25.6622 31.8588 25.0709 31.8588C24.4796 31.8588 24.0002 32.3381 24.0002 32.9294Z" fill="#1CE7C2" fill-opacity="0.4"/>
<path d="M24.0002 30.7882C24.0002 31.3795 24.4796 31.8588 25.0709 31.8588C25.6622 31.8588 26.1415 31.3795 26.1415 30.7882C26.1415 30.1969 25.6622 29.7175 25.0709 29.7175C24.4796 29.7175 24.0002 30.1969 24.0002 30.7882Z" fill="#1CE7C2" fill-opacity="0.4"/>
<path d="M24.0002 28.6468C24.0002 29.2381 24.4796 29.7175 25.0709 29.7175C25.6622 29.7175 26.1415 29.2381 26.1415 28.6468C26.1415 28.0555 25.6622 27.5762 25.0709 27.5762C24.4796 27.5762 24.0002 28.0555 24.0002 28.6468Z" fill="#1CE7C2" fill-opacity="0.4"/>
<path d="M24.0002 26.5056C24.0002 27.0969 24.4796 27.5762 25.0709 27.5762C25.6622 27.5762 26.1415 27.0969 26.1415 26.5056C26.1415 25.9143 25.6622 25.4349 25.0709 25.4349C24.4796 25.4349 24.0002 25.9143 24.0002 26.5056Z" fill="#1CE7C2" fill-opacity="0.5"/>
<path d="M24.0002 24.3643C24.0002 24.9556 24.4796 25.435 25.0709 25.435C25.6622 25.435 26.1415 24.9556 26.1415 24.3643C26.1415 23.773 25.6622 23.2937 25.0709 23.2937C24.4796 23.2937 24.0002 23.773 24.0002 24.3643Z" fill="#1CE7C2" fill-opacity="0.7"/>
<path d="M24.0002 22.223C24.0002 22.8143 24.4796 23.2936 25.0709 23.2936C25.6622 23.2936 26.1415 22.8143 26.1415 22.223C26.1415 21.6317 25.6622 21.1523 25.0709 21.1523C24.4796 21.1523 24.0002 21.6317 24.0002 22.223Z" fill="#1CE7C2" fill-opacity="0.7"/>
<path d="M24.0002 20.0817C24.0002 20.673 24.4796 21.1524 25.0709 21.1524C25.6622 21.1524 26.1415 20.673 26.1415 20.0817C26.1415 19.4905 25.6622 19.0111 25.0709 19.0111C24.4796 19.0111 24.0002 19.4905 24.0002 20.0817Z" fill="#1CE7C2" fill-opacity="0.7"/>
<path d="M24.0002 17.9294C24.0002 18.5207 24.4796 19 25.0709 19C25.6622 19 26.1415 18.5207 26.1415 17.9294C26.1415 17.3381 25.6622 16.8588 25.0709 16.8588C24.4796 16.8588 24.0002 17.3381 24.0002 17.9294Z" fill="#1CE7C2" fill-opacity="0.7"/>
<path d="M24.0002 15.7936C24.0002 16.3849 24.4796 16.8697 25.0709 16.8697C25.6622 16.8697 26.1415 16.3849 26.1415 15.7936C26.1415 15.2023 25.6622 14.7174 25.0709 14.7174C24.4796 14.7174 24.0002 15.2023 24.0002 15.7936Z" fill="#1CE7C2" fill-opacity="0.9"/>
<path d="M24.0002 13.6468C24.0002 14.2381 24.4796 14.7175 25.0709 14.7175C25.6622 14.7175 26.1415 14.2381 26.1415 13.6468C26.1415 13.0555 25.6622 12.5762 25.0709 12.5762C24.4796 12.5762 24.0002 13.0555 24.0002 13.6468Z" fill="#1CE7C2" fill-opacity="0.9"/>
<path d="M24.0002 11.4945C24.0002 12.0858 24.4796 12.5651 25.0709 12.5651C25.6622 12.5651 26.1415 12.0858 26.1415 11.4945C26.1415 10.9032 25.6622 10.4238 25.0709 10.4238C24.4796 10.4238 24.0002 10.9032 24.0002 11.4945Z" fill="#1CE7C2" fill-opacity="0.9"/>
<path d="M24.0002 9.35323C24.0002 9.94453 24.4796 10.4239 25.0709 10.4239C25.6622 10.4239 26.1415 9.94453 26.1415 9.35323C26.1415 8.76193 25.6622 8.28259 25.0709 8.28259C24.4796 8.28259 24.0002 8.76193 24.0002 9.35323Z" fill="#1CE7C2" fill-opacity="0.9"/>
<path d="M24.0002 7.21188C24.0002 7.80317 24.4796 8.28252 25.0709 8.28252C25.6622 8.28252 26.1415 7.80317 26.1415 7.21188C26.1415 6.62058 25.6622 6.14124 25.0709 6.14124C24.4796 6.14124 24.0002 6.62058 24.0002 7.21188Z" fill="#1CE7C2" fill-opacity="0.9"/>
<path d="M26.1412 39.3643C26.1412 39.9556 26.6261 40.435 27.2174 40.435C27.8087 40.435 28.2936 39.9556 28.2936 39.3643C28.2936 38.773 27.8087 38.2937 27.2174 38.2937C26.6261 38.2937 26.1412 38.773 26.1412 39.3643Z" fill="#1CE7C2" fill-opacity="0.5"/>
<path d="M26.1412 37.223C26.1412 37.8143 26.6261 38.2936 27.2174 38.2936C27.8087 38.2936 28.2936 37.8143 28.2936 37.223C28.2936 36.6317 27.8087 36.1523 27.2174 36.1523C26.6261 36.1523 26.1412 36.6317 26.1412 37.223Z" fill="#1CE7C2" fill-opacity="0.4"/>
<path d="M26.1412 32.9294C26.1412 33.5207 26.6261 34 27.2174 34C27.8087 34 28.2936 33.5207 28.2936 32.9294C28.2936 32.3381 27.8087 31.8588 27.2174 31.8588C26.6261 31.8588 26.1412 32.3381 26.1412 32.9294Z" fill="#1CE7C2" fill-opacity="0.4"/>
<path d="M26.1412 30.7882C26.1412 31.3795 26.6261 31.8588 27.2174 31.8588C27.8087 31.8588 28.2936 31.3795 28.2936 30.7882C28.2936 30.1969 27.8087 29.7175 27.2174 29.7175C26.6261 29.7175 26.1412 30.1969 26.1412 30.7882Z" fill="#1CE7C2" fill-opacity="0.4"/>
<path d="M26.1412 22.223C26.1412 22.8143 26.6261 23.2936 27.2174 23.2936C27.8087 23.2936 28.2936 22.8143 28.2936 22.223C28.2936 21.6317 27.8087 21.1523 27.2174 21.1523C26.6261 21.1523 26.1412 21.6317 26.1412 22.223Z" fill="#1CE7C2" fill-opacity="0.7"/>
<path d="M26.1412 20.0817C26.1412 20.673 26.6261 21.1524 27.2174 21.1524C27.8087 21.1524 28.2936 20.673 28.2936 20.0817C28.2936 19.4905 27.8087 19.0111 27.2174 19.0111C26.6261 19.0111 26.1412 19.4905 26.1412 20.0817Z" fill="#1CE7C2" fill-opacity="0.7"/>
<path d="M26.1412 17.9294C26.1412 18.5207 26.6261 19 27.2174 19C27.8087 19 28.2936 18.5207 28.2936 17.9294C28.2936 17.3381 27.8087 16.8588 27.2174 16.8588C26.6261 16.8588 26.1412 17.3381 26.1412 17.9294Z" fill="#1CE7C2" fill-opacity="0.9"/>
<path d="M26.1412 15.7936C26.1412 16.3879 26.623 16.8697 27.2174 16.8697C27.8117 16.8697 28.2936 16.3879 28.2936 15.7936C28.2936 15.1992 27.8117 14.7174 27.2174 14.7174C26.623 14.7174 26.1412 15.1992 26.1412 15.7936Z" fill="#1CE7C2" fill-opacity="0.9"/>
<path d="M26.1412 13.6468C26.1412 14.2381 26.6261 14.7175 27.2174 14.7175C27.8087 14.7175 28.2936 14.2381 28.2936 13.6468C28.2936 13.0555 27.8087 12.5762 27.2174 12.5762C26.6261 12.5762 26.1412 13.0555 26.1412 13.6468Z" fill="#1CE7C2" fill-opacity="0.9"/>
<path d="M28.2937 39.3643C28.2937 39.9556 28.773 40.435 29.3643 40.435C29.9556 40.435 30.435 39.9556 30.435 39.3643C30.435 38.773 29.9556 38.2937 29.3643 38.2937C28.773 38.2937 28.2937 38.773 28.2937 39.3643Z" fill="#1CE7C2" fill-opacity="0.7"/>
<path d="M28.2937 37.223C28.2937 37.8143 28.773 38.2936 29.3643 38.2936C29.9556 38.2936 30.435 37.8143 30.435 37.223C30.435 36.6317 29.9556 36.1523 29.3643 36.1523C28.773 36.1523 28.2937 36.6317 28.2937 37.223Z" fill="#1CE7C2" fill-opacity="0.5"/>
<path d="M28.2937 35.0706C28.2937 35.6619 28.773 36.1413 29.3643 36.1413C29.9556 36.1413 30.435 35.6619 30.435 35.0706C30.435 34.4793 29.9556 34 29.3643 34C28.773 34 28.2937 34.4793 28.2937 35.0706Z" fill="#1CE7C2" fill-opacity="0.4"/>
<path d="M28.2937 30.7882C28.2937 31.3795 28.773 31.8588 29.3643 31.8588C29.9556 31.8588 30.435 31.3795 30.435 30.7882C30.435 30.1969 29.9556 29.7175 29.3643 29.7175C28.773 29.7175 28.2937 30.1969 28.2937 30.7882Z" fill="#1CE7C2" fill-opacity="0.5"/>
<path d="M28.2937 28.6468C28.2937 29.2381 28.773 29.7175 29.3643 29.7175C29.9556 29.7175 30.435 29.2381 30.435 28.6468C30.435 28.0555 29.9556 27.5762 29.3643 27.5762C28.773 27.5762 28.2937 28.0555 28.2937 28.6468Z" fill="#1CE7C2" fill-opacity="0.5"/>
<path d="M28.2937 26.5056C28.2937 27.0969 28.773 27.5762 29.3643 27.5762C29.9556 27.5762 30.435 27.0969 30.435 26.5056C30.435 25.9143 29.9556 25.4349 29.3643 25.4349C28.773 25.4349 28.2937 25.9143 28.2937 26.5056Z" fill="#1CE7C2" fill-opacity="0.5"/>
<path d="M28.2937 24.3643C28.2937 24.9556 28.773 25.435 29.3643 25.435C29.9556 25.435 30.435 24.9556 30.435 24.3643C30.435 23.773 29.9556 23.2937 29.3643 23.2937C28.773 23.2937 28.2937 23.773 28.2937 24.3643Z" fill="#1CE7C2" fill-opacity="0.5"/>
<path d="M28.2937 22.223C28.2937 22.8143 28.773 23.2936 29.3643 23.2936C29.9556 23.2936 30.435 22.8143 30.435 22.223C30.435 21.6317 29.9556 21.1523 29.3643 21.1523C28.773 21.1523 28.2937 21.6317 28.2937 22.223Z" fill="#1CE7C2" fill-opacity="0.5"/>
<path d="M28.2937 20.0817C28.2937 20.673 28.773 21.1524 29.3643 21.1524C29.9556 21.1524 30.435 20.673 30.435 20.0817C30.435 19.4905 29.9556 19.0111 29.3643 19.0111C28.773 19.0111 28.2937 19.4905 28.2937 20.0817Z" fill="#1CE7C2" fill-opacity="0.7"/>
<path d="M28.2937 17.9294C28.2937 18.5207 28.773 19 29.3643 19C29.9556 19 30.435 18.5207 30.435 17.9294C30.435 17.3381 29.9556 16.8588 29.3643 16.8588C28.773 16.8588 28.2937 17.3381 28.2937 17.9294Z" fill="#1CE7C2" fill-opacity="0.9"/>
<path d="M30.4349 37.223C30.4349 37.8143 30.9143 38.2936 31.5056 38.2936C32.0969 38.2936 32.5762 37.8143 32.5762 37.223C32.5762 36.6317 32.0969 36.1523 31.5056 36.1523C30.9143 36.1523 30.4349 36.6317 30.4349 37.223Z" fill="#1CE7C2" fill-opacity="0.7"/>
<path d="M30.4349 35.0706C30.4349 35.6619 30.9143 36.1413 31.5056 36.1413C32.0969 36.1413 32.5762 35.6619 32.5762 35.0706C32.5762 34.4793 32.0969 34 31.5056 34C30.9143 34 30.4349 34.4793 30.4349 35.0706Z" fill="#1CE7C2" fill-opacity="0.5"/>
<path d="M30.4349 32.9294C30.4349 33.5207 30.9143 34 31.5056 34C32.0969 34 32.5762 33.5207 32.5762 32.9294C32.5762 32.3381 32.0969 31.8588 31.5056 31.8588C30.9143 31.8588 30.4349 32.3381 30.4349 32.9294Z" fill="#1CE7C2" fill-opacity="0.5"/>
<path d="M30.4349 30.7882C30.4349 31.3795 30.9143 31.8588 31.5056 31.8588C32.0969 31.8588 32.5762 31.3795 32.5762 30.7882C32.5762 30.1969 32.0969 29.7175 31.5056 29.7175C30.9143 29.7175 30.4349 30.1969 30.4349 30.7882Z" fill="#1CE7C2" fill-opacity="0.5"/>
<path d="M30.4349 28.6468C30.4349 29.2381 30.9143 29.7175 31.5056 29.7175C32.0969 29.7175 32.5762 29.2381 32.5762 28.6468C32.5762 28.0555 32.0969 27.5762 31.5056 27.5762C30.9143 27.5762 30.4349 28.0555 30.4349 28.6468Z" fill="#1CE7C2" fill-opacity="0.7"/>
<path d="M30.4349 26.5056C30.4349 27.0969 30.9143 27.5762 31.5056 27.5762C32.0969 27.5762 32.5762 27.0969 32.5762 26.5056C32.5762 25.9143 32.0969 25.4349 31.5056 25.4349C30.9143 25.4349 30.4349 25.9143 30.4349 26.5056Z" fill="#1CE7C2" fill-opacity="0.7"/>
<path d="M30.4349 24.3643C30.4349 24.9556 30.9143 25.435 31.5056 25.435C32.0969 25.435 32.5762 24.9556 32.5762 24.3643C32.5762 23.773 32.0969 23.2937 31.5056 23.2937C30.9143 23.2937 30.4349 23.773 30.4349 24.3643Z" fill="#1CE7C2" fill-opacity="0.7"/>
<path d="M30.4349 22.223C30.4349 22.8143 30.9143 23.2936 31.5056 23.2936C32.0969 23.2936 32.5762 22.8143 32.5762 22.223C32.5762 21.6317 32.0969 21.1523 31.5056 21.1523C30.9143 21.1523 30.4349 21.6317 30.4349 22.223Z" fill="#1CE7C2" fill-opacity="0.7"/>
<path d="M30.4349 20.0817C30.4349 20.673 30.9143 21.1524 31.5056 21.1524C32.0969 21.1524 32.5762 20.673 32.5762 20.0817C32.5762 19.4905 32.0969 19.0111 31.5056 19.0111C30.9143 19.0111 30.4349 19.4905 30.4349 20.0817Z" fill="#1CE7C2" fill-opacity="0.7"/>
<path d="M32.5762 35.0706C32.5762 35.6619 33.0555 36.1413 33.6468 36.1413C34.2381 36.1413 34.7175 35.6619 34.7175 35.0706C34.7175 34.4793 34.2381 34 33.6468 34C33.0555 34 32.5762 34.4793 32.5762 35.0706Z" fill="#1CE7C2" fill-opacity="0.9"/>
<path d="M32.5762 32.9294C32.5762 33.5207 33.0555 34 33.6468 34C34.2381 34 34.7175 33.5207 34.7175 32.9294C34.7175 32.3381 34.2381 31.8588 33.6468 31.8588C33.0555 31.8588 32.5762 32.3381 32.5762 32.9294Z" fill="#1CE7C2" fill-opacity="0.7"/>
<path d="M32.5762 30.7882C32.5762 31.3795 33.0555 31.8588 33.6468 31.8588C34.2381 31.8588 34.7175 31.3795 34.7175 30.7882C34.7175 30.1969 34.2381 29.7175 33.6468 29.7175C33.0555 29.7175 32.5762 30.1969 32.5762 30.7882Z" fill="#1CE7C2" fill-opacity="0.7"/>
<path d="M32.5762 28.6468C32.5762 29.2381 33.0555 29.7175 33.6468 29.7175C34.2381 29.7175 34.7175 29.2381 34.7175 28.6468C34.7175 28.0555 34.2381 27.5762 33.6468 27.5762C33.0555 27.5762 32.5762 28.0555 32.5762 28.6468Z" fill="#1CE7C2" fill-opacity="0.7"/>
<path d="M32.5762 26.5056C32.5762 27.0969 33.0555 27.5762 33.6468 27.5762C34.2381 27.5762 34.7175 27.0969 34.7175 26.5056C34.7175 25.9143 34.2381 25.4349 33.6468 25.4349C33.0555 25.4349 32.5762 25.9143 32.5762 26.5056Z" fill="#1CE7C2" fill-opacity="0.7"/>
<path d="M32.5762 24.3643C32.5762 24.9556 33.0555 25.435 33.6468 25.435C34.2381 25.435 34.7175 24.9556 34.7175 24.3643C34.7175 23.773 34.2381 23.2937 33.6468 23.2937C33.0555 23.2937 32.5762 23.773 32.5762 24.3643Z" fill="#1CE7C2" fill-opacity="0.7"/>
<path d="M32.5762 22.223C32.5762 22.8143 33.0555 23.2936 33.6468 23.2936C34.2381 23.2936 34.7175 22.8143 34.7175 22.223C34.7175 21.6317 34.2381 21.1523 33.6468 21.1523C33.0555 21.1523 32.5762 21.6317 32.5762 22.223Z" fill="#1CE7C2" fill-opacity="0.7"/>
<path d="M34.7175 32.9294C34.7175 33.5207 35.1969 34 35.7882 34C36.3795 34 36.8588 33.5207 36.8588 32.9294C36.8588 32.3381 36.3795 31.8588 35.7882 31.8588C35.1969 31.8588 34.7175 32.3381 34.7175 32.9294Z" fill="#1CE7C2" fill-opacity="0.9"/>
<path d="M34.7175 30.7882C34.7175 31.3795 35.1969 31.8588 35.7882 31.8588C36.3795 31.8588 36.8588 31.3795 36.8588 30.7882C36.8588 30.1969 36.3795 29.7175 35.7882 29.7175C35.1969 29.7175 34.7175 30.1969 34.7175 30.7882Z" fill="#1CE7C2" fill-opacity="0.9"/>
<path d="M34.7175 28.6468C34.7175 29.2381 35.1969 29.7175 35.7882 29.7175C36.3795 29.7175 36.8588 29.2381 36.8588 28.6468C36.8588 28.0555 36.3795 27.5762 35.7882 27.5762C35.1969 27.5762 34.7175 28.0555 34.7175 28.6468Z" fill="#1CE7C2" fill-opacity="0.9"/>
<path d="M34.7175 26.5056C34.7175 27.0969 35.1969 27.5762 35.7882 27.5762C36.3795 27.5762 36.8588 27.0969 36.8588 26.5056C36.8588 25.9143 36.3795 25.4349 35.7882 25.4349C35.1969 25.4349 34.7175 25.9143 34.7175 26.5056Z" fill="#1CE7C2" fill-opacity="0.9"/>
<path d="M34.7175 24.3643C34.7175 24.9556 35.1969 25.435 35.7882 25.435C36.3795 25.435 36.8588 24.9556 36.8588 24.3643C36.8588 23.773 36.3795 23.2937 35.7882 23.2937C35.1969 23.2937 34.7175 23.773 34.7175 24.3643Z" fill="#1CE7C2" fill-opacity="0.9"/>
<path d="M34.7175 22.223C34.7175 22.8143 35.1969 23.2936 35.7882 23.2936C36.3795 23.2936 36.8588 22.8143 36.8588 22.223C36.8588 21.6317 36.3795 21.1523 35.7882 21.1523C35.1969 21.1523 34.7175 21.6317 34.7175 22.223Z" fill="#1CE7C2" fill-opacity="0.9"/>
<path d="M9.00012 32.9294C9.00012 33.5207 9.47946 34 10.0708 34C10.6621 34 11.1414 33.5207 11.1414 32.9294C11.1414 32.3381 10.6621 31.8588 10.0708 31.8588C9.47946 31.8588 9.00012 32.3381 9.00012 32.9294Z" fill="#1CE7C2"/>
<path d="M9.00012 30.7882C9.00012 31.3795 9.47946 31.8588 10.0708 31.8588C10.6621 31.8588 11.1414 31.3795 11.1414 30.7882C11.1414 30.1969 10.6621 29.7175 10.0708 29.7175C9.47946 29.7175 9.00012 30.1969 9.00012 30.7882Z" fill="#1CE7C2"/>
<path d="M9.00012 28.6468C9.00012 29.2381 9.47946 29.7175 10.0708 29.7175C10.6621 29.7175 11.1414 29.2381 11.1414 28.6468C11.1414 28.0555 10.6621 27.5762 10.0708 27.5762C9.47946 27.5762 9.00012 28.0555 9.00012 28.6468Z" fill="#1CE7C2"/>
<path d="M9.00012 26.5056C9.00012 27.0969 9.47946 27.5762 10.0708 27.5762C10.6621 27.5762 11.1414 27.0969 11.1414 26.5056C11.1414 25.9143 10.6621 25.4349 10.0708 25.4349C9.47946 25.4349 9.00012 25.9143 9.00012 26.5056Z" fill="#1CE7C2"/>
<path d="M9.00012 24.3643C9.00012 24.9556 9.47946 25.435 10.0708 25.435C10.6621 25.435 11.1414 24.9556 11.1414 24.3643C11.1414 23.773 10.6621 23.2937 10.0708 23.2937C9.47946 23.2937 9.00012 23.773 9.00012 24.3643Z" fill="#1CE7C2"/>
<path d="M11.1412 35.0706C11.1412 35.6619 11.6206 36.1413 12.2119 36.1413C12.8032 36.1413 13.2825 35.6619 13.2825 35.0706C13.2825 34.4793 12.8032 34 12.2119 34C11.6206 34 11.1412 34.4793 11.1412 35.0706Z" fill="#1CE7C2"/>
<path d="M11.1412 22.223C11.1412 22.8143 11.6206 23.2936 12.2119 23.2936C12.8032 23.2936 13.2825 22.8143 13.2825 22.223C13.2825 21.6317 12.8032 21.1523 12.2119 21.1523C11.6206 21.1523 11.1412 21.6317 11.1412 22.223Z" fill="#1CE7C2"/>
<path d="M11.1412 20.0817C11.1412 20.673 11.6206 21.1524 12.2119 21.1524C12.8032 21.1524 13.2825 20.673 13.2825 20.0817C13.2825 19.4905 12.8032 19.0111 12.2119 19.0111C11.6206 19.0111 11.1412 19.4905 11.1412 20.0817Z" fill="#1CE7C2"/>
<path d="M13.2827 37.223C13.2827 37.8143 13.7621 38.2936 14.3534 38.2936C14.9447 38.2936 15.424 37.8143 15.424 37.223C15.424 36.6317 14.9447 36.1523 14.3534 36.1523C13.7621 36.1523 13.2827 36.6317 13.2827 37.223Z" fill="#1CE7C2"/>
<path d="M13.2827 17.9294C13.2827 18.5207 13.7621 19 14.3534 19C14.9447 19 15.424 18.5207 15.424 17.9294C15.424 17.3381 14.9447 16.8588 14.3534 16.8588C13.7621 16.8588 13.2827 17.3381 13.2827 17.9294Z" fill="#1CE7C2"/>
<path d="M13.2827 15.7936C13.2827 16.3849 13.7621 16.8697 14.3534 16.8697C14.9447 16.8697 15.424 16.3849 15.424 15.7936C15.424 15.2023 14.9447 14.7174 14.3534 14.7174C13.7621 14.7174 13.2827 15.2023 13.2827 15.7936Z" fill="#1CE7C2"/>
<path d="M15.4238 39.3643C15.4238 39.9556 15.9032 40.435 16.4945 40.435C17.0858 40.435 17.5651 39.9556 17.5651 39.3643C17.5651 38.773 17.0858 38.2937 16.4945 38.2937C15.9032 38.2937 15.4238 38.773 15.4238 39.3643Z" fill="#1CE7C2"/>
<path d="M15.4238 13.6468C15.4238 14.2381 15.9032 14.7175 16.4945 14.7175C17.0858 14.7175 17.5651 14.2381 17.5651 13.6468C17.5651 13.0555 17.0858 12.5762 16.4945 12.5762C15.9032 12.5762 15.4238 13.0555 15.4238 13.6468Z" fill="#1CE7C2"/>
<path d="M17.5653 41.5056C17.5653 42.0969 18.0446 42.5762 18.6359 42.5762C19.2272 42.5762 19.7066 42.0969 19.7066 41.5056C19.7066 40.9143 19.2272 40.4349 18.6359 40.4349C18.0446 40.4349 17.5653 40.9143 17.5653 41.5056Z" fill="#1CE7C2"/>
<path d="M17.5653 32.9294C17.5653 33.5207 18.0446 34 18.6359 34C19.2272 34 19.7066 33.5207 19.7066 32.9294C19.7066 32.3381 19.2272 31.8588 18.6359 31.8588C18.0446 31.8588 17.5653 32.3381 17.5653 32.9294Z" fill="#1CE7C2" fill-opacity="0.4"/>
<path d="M17.5653 11.4945C17.5653 12.0858 18.0446 12.5651 18.6359 12.5651C19.2272 12.5651 19.7066 12.0858 19.7066 11.4945C19.7066 10.9032 19.2272 10.4238 18.6359 10.4238C18.0446 10.4238 17.5653 10.9032 17.5653 11.4945Z" fill="#1CE7C2"/>
<path d="M19.7174 41.5056C19.7174 42.0969 20.1967 42.5762 20.788 42.5762C21.3793 42.5762 21.8587 42.0969 21.8587 41.5056C21.8587 40.9143 21.3793 40.4349 20.788 40.4349C20.1967 40.4349 19.7174 40.9143 19.7174 41.5056Z" fill="#1CE7C2"/>
<path d="M19.7174 35.0706C19.7174 35.6619 20.1967 36.1413 20.788 36.1413C21.3793 36.1413 21.8587 35.6619 21.8587 35.0706C21.8587 34.4793 21.3793 34 20.788 34C20.1967 34 19.7174 34.4793 19.7174 35.0706Z" fill="#1CE7C2" fill-opacity="0.4"/>
<path d="M19.7174 28.6468C19.7174 29.2381 20.1967 29.7175 20.788 29.7175C21.3793 29.7175 21.8587 29.2381 21.8587 28.6468C21.8587 28.0555 21.3793 27.5762 20.788 27.5762C20.1967 27.5762 19.7174 28.0555 19.7174 28.6468Z" fill="#1CE7C2" fill-opacity="0.4"/>
<path d="M19.7174 26.5056C19.7174 27.0969 20.1967 27.5762 20.788 27.5762C21.3793 27.5762 21.8587 27.0969 21.8587 26.5056C21.8587 25.9143 21.3793 25.4349 20.788 25.4349C20.1967 25.4349 19.7174 25.9143 19.7174 26.5056Z" fill="#1CE7C2" fill-opacity="0.5"/>
<path d="M19.7174 24.3643C19.7174 24.9556 20.1967 25.435 20.788 25.435C21.3793 25.435 21.8587 24.9556 21.8587 24.3643C21.8587 23.773 21.3793 23.2937 20.788 23.2937C20.1967 23.2937 19.7174 23.773 19.7174 24.3643Z" fill="#1CE7C2" fill-opacity="0.5"/>
<path d="M19.7174 9.35323C19.7174 9.94453 20.1967 10.4239 20.788 10.4239C21.3793 10.4239 21.8587 9.94453 21.8587 9.35323C21.8587 8.76193 21.3793 8.28259 20.788 8.28259C20.1967 8.28259 19.7174 8.76193 19.7174 9.35323Z" fill="#1CE7C2"/>
<path d="M21.8588 41.5056C21.8588 42.0969 22.3381 42.5762 22.9294 42.5762C23.5207 42.5762 24 42.0969 24 41.5056C24 40.9143 23.5207 40.4349 22.9294 40.4349C22.3381 40.4349 21.8588 40.9143 21.8588 41.5056Z" fill="#1CE7C2"/>
<path d="M21.8588 35.0706C21.8588 35.6619 22.3381 36.1413 22.9294 36.1413C23.5207 36.1413 24 35.6619 24 35.0706C24 34.4793 23.5207 34 22.9294 34C22.3381 34 21.8588 34.4793 21.8588 35.0706Z" fill="#1CE7C2" fill-opacity="0.4"/>
<path d="M21.8588 7.21188C21.8588 7.80317 22.3381 8.28252 22.9294 8.28252C23.5207 8.28252 24 7.80317 24 7.21188C24 6.62058 23.5207 6.14124 22.9294 6.14124C22.3381 6.14124 21.8588 6.62058 21.8588 7.21188Z" fill="#1CE7C2"/>
<path d="M24.0002 41.5056C24.0002 42.0969 24.4796 42.5762 25.0709 42.5762C25.6622 42.5762 26.1415 42.0969 26.1415 41.5056C26.1415 40.9143 25.6622 40.4349 25.0709 40.4349C24.4796 40.4349 24.0002 40.9143 24.0002 41.5056Z" fill="#1CE7C2"/>
<path d="M24.0002 35.0706C24.0002 35.6619 24.4796 36.1413 25.0709 36.1413C25.6622 36.1413 26.1415 35.6619 26.1415 35.0706C26.1415 34.4793 25.6622 34 25.0709 34C24.4796 34 24.0002 34.4793 24.0002 35.0706Z" fill="#1CE7C2" fill-opacity="0.4"/>
<path d="M24.0002 5.07064C24.0002 5.66194 24.4796 6.14128 25.0709 6.14128C25.6622 6.14128 26.1415 5.66194 26.1415 5.07064C26.1415 4.47934 25.6622 4 25.0709 4C24.4796 4 24.0002 4.47934 24.0002 5.07064Z" fill="#1CE7C2"/>
<path d="M26.1412 41.5056C26.1412 42.0969 26.6261 42.5762 27.2174 42.5762C27.8087 42.5762 28.2936 42.0969 28.2936 41.5056C28.2936 40.9143 27.8087 40.4349 27.2174 40.4349C26.6261 40.4349 26.1412 40.9143 26.1412 41.5056Z" fill="#1CE7C2"/>
<path d="M26.1412 35.0706C26.1412 35.6619 26.6261 36.1413 27.2174 36.1413C27.8087 36.1413 28.2936 35.6619 28.2936 35.0706C28.2936 34.4793 27.8087 34 27.2174 34C26.6261 34 26.1412 34.4793 26.1412 35.0706Z" fill="#1CE7C2" fill-opacity="0.4"/>
<path d="M26.1412 28.6468C26.1412 29.2381 26.6261 29.7175 27.2174 29.7175C27.8087 29.7175 28.2936 29.2381 28.2936 28.6468C28.2936 28.0555 27.8087 27.5762 27.2174 27.5762C26.6261 27.5762 26.1412 28.0555 26.1412 28.6468Z" fill="#1CE7C2" fill-opacity="0.4"/>
<path d="M26.1412 26.5056C26.1412 27.0969 26.6261 27.5762 27.2174 27.5762C27.8087 27.5762 28.2936 27.0969 28.2936 26.5056C28.2936 25.9143 27.8087 25.4349 27.2174 25.4349C26.6261 25.4349 26.1412 25.9143 26.1412 26.5056Z" fill="#1CE7C2" fill-opacity="0.5"/>
<path d="M26.1412 24.3643C26.1412 24.9556 26.6261 25.435 27.2174 25.435C27.8087 25.435 28.2936 24.9556 28.2936 24.3643C28.2936 23.773 27.8087 23.2937 27.2174 23.2937C26.6261 23.2937 26.1412 23.773 26.1412 24.3643Z" fill="#1CE7C2" fill-opacity="0.5"/>
<path d="M26.1412 11.4945C26.1412 12.0858 26.6261 12.5651 27.2174 12.5651C27.8087 12.5651 28.2936 12.0858 28.2936 11.4945C28.2936 10.9032 27.8087 10.4238 27.2174 10.4238C26.6261 10.4238 26.1412 10.9032 26.1412 11.4945Z" fill="#1CE7C2"/>
<path d="M26.1412 9.35323C26.1412 9.94453 26.6261 10.4239 27.2174 10.4239C27.8087 10.4239 28.2936 9.94453 28.2936 9.35323C28.2936 8.76193 27.8087 8.28259 27.2174 8.28259C26.6261 8.28259 26.1412 8.76193 26.1412 9.35323Z" fill="#1CE7C2"/>
<path d="M26.1412 7.21188C26.1412 7.80317 26.6261 8.28252 27.2174 8.28252C27.8087 8.28252 28.2936 7.80317 28.2936 7.21188C28.2936 6.62058 27.8087 6.14124 27.2174 6.14124C26.6261 6.14124 26.1412 6.62058 26.1412 7.21188Z" fill="#1CE7C2"/>
<path d="M28.2937 41.5056C28.2937 42.0969 28.773 42.5762 29.3643 42.5762C29.9556 42.5762 30.435 42.0969 30.435 41.5056C30.435 40.9143 29.9556 40.4349 29.3643 40.4349C28.773 40.4349 28.2937 40.9143 28.2937 41.5056Z" fill="#1CE7C2"/>
<path d="M28.2937 32.9294C28.2937 33.5207 28.773 34 29.3643 34C29.9556 34 30.435 33.5207 30.435 32.9294C30.435 32.3381 29.9556 31.8588 29.3643 31.8588C28.773 31.8588 28.2937 32.3381 28.2937 32.9294Z" fill="#1CE7C2" fill-opacity="0.4"/>
<path d="M28.2937 15.7936C28.2937 16.3849 28.773 16.8697 29.3643 16.8697C29.9556 16.8697 30.435 16.3849 30.435 15.7936C30.435 15.2023 29.9556 14.7174 29.3643 14.7174C28.773 14.7174 28.2937 15.2023 28.2937 15.7936Z" fill="#1CE7C2"/>
<path d="M28.2937 13.6468C28.2937 14.2381 28.773 14.7175 29.3643 14.7175C29.9556 14.7175 30.435 14.2381 30.435 13.6468C30.435 13.0555 29.9556 12.5762 29.3643 12.5762C28.773 12.5762 28.2937 13.0555 28.2937 13.6468Z" fill="#1CE7C2"/>
<path d="M30.4349 39.3643C30.4349 39.9556 30.9143 40.435 31.5056 40.435C32.0969 40.435 32.5762 39.9556 32.5762 39.3643C32.5762 38.773 32.0969 38.2937 31.5056 38.2937C30.9143 38.2937 30.4349 38.773 30.4349 39.3643Z" fill="#1CE7C2"/>
<path d="M32.5762 37.223C32.5762 37.8143 33.0555 38.2936 33.6468 38.2936C34.2381 38.2936 34.7175 37.8143 34.7175 37.223C34.7175 36.6317 34.2381 36.1523 33.6468 36.1523C33.0555 36.1523 32.5762 36.6317 32.5762 37.223Z" fill="#1CE7C2"/>
<path d="M34.7175 35.0706C34.7175 35.6619 35.1969 36.1413 35.7882 36.1413C36.3795 36.1413 36.8588 35.6619 36.8588 35.0706C36.8588 34.4793 36.3795 34 35.7882 34C35.1969 34 34.7175 34.4793 34.7175 35.0706Z" fill="#1CE7C2"/>
<path d="M34.7175 20.0817C34.7175 20.673 35.1969 21.1524 35.7882 21.1524C36.3795 21.1524 36.8588 20.673 36.8588 20.0817C36.8588 19.4905 36.3795 19.0111 35.7882 19.0111C35.1969 19.0111 34.7175 19.4905 34.7175 20.0817Z" fill="#1CE7C2"/>
<path d="M36.8588 32.9294C36.8588 33.5207 37.3381 34 37.9294 34C38.5207 34 39 33.5207 39 32.9294C39 32.3381 38.5207 31.8588 37.9294 31.8588C37.3381 31.8588 36.8588 32.3381 36.8588 32.9294Z" fill="#1CE7C2"/>
<path d="M36.8588 30.7882C36.8588 31.3795 37.3381 31.8588 37.9294 31.8588C38.5207 31.8588 39 31.3795 39 30.7882C39 30.1969 38.5207 29.7175 37.9294 29.7175C37.3381 29.7175 36.8588 30.1969 36.8588 30.7882Z" fill="#1CE7C2"/>
<path d="M36.8588 28.6468C36.8588 29.2381 37.3381 29.7175 37.9294 29.7175C38.5207 29.7175 39 29.2381 39 28.6468C39 28.0555 38.5207 27.5762 37.9294 27.5762C37.3381 27.5762 36.8588 28.0555 36.8588 28.6468Z" fill="#1CE7C2"/>
<path d="M36.8588 26.5056C36.8588 27.0969 37.3381 27.5762 37.9294 27.5762C38.5207 27.5762 39 27.0969 39 26.5056C39 25.9143 38.5207 25.4349 37.9294 25.4349C37.3381 25.4349 36.8588 25.9143 36.8588 26.5056Z" fill="#1CE7C2"/>
<path d="M36.8588 24.3643C36.8588 24.9556 37.3381 25.435 37.9294 25.435C38.5207 25.435 39 24.9556 39 24.3643C39 23.773 38.5207 23.2937 37.9294 23.2937C37.3381 23.2937 36.8588 23.773 36.8588 24.3643Z" fill="#1CE7C2"/>
<path d="M36.8588 22.223C36.8588 22.8143 37.3381 23.2936 37.9294 23.2936C38.5207 23.2936 39 22.8143 39 22.223C39 21.6317 38.5207 21.1523 37.9294 21.1523C37.3381 21.1523 36.8588 21.6317 36.8588 22.223Z" fill="#1CE7C2"/>
</g>
<path d="M26.1875 21.3828C26.1875 20.7031 26.5469 20.0859 26.9648 19.5469C27.457 18.9102 27.75 18.1133 27.75 17.25C27.75 15.1797 26.0703 13.5 24 13.5C21.9297 13.5 20.25 15.1797 20.25 17.25C20.25 18.1133 20.543 18.9102 21.0352 19.5469C21.4531 20.0859 21.8125 20.7031 21.8125 21.3828C21.8125 22.5508 20.8633 23.5 19.6953 23.5H18.375C15.957 23.5 14 25.457 14 27.875C14 28.6914 14.5234 29.3867 15.25 29.6445V31.625C15.25 32.6602 16.0898 33.5 17.125 33.5H30.875C31.9102 33.5 32.75 32.6602 32.75 31.625V29.6445C33.4766 29.3867 34 28.6914 34 27.875C34 25.457 32.043 23.5 29.625 23.5H28.3047C27.1367 23.5 26.1875 22.5508 26.1875 21.3828ZM30.25 28.75V31H17.75V28.75H30.25Z" fill="#BAFDF0"/>
<defs>
<linearGradient id="paint0_linear_3647_8468" x1="24" y1="0" x2="24" y2="48" gradientUnits="userSpaceOnUse">
<stop stop-color="#054C9F"/>
<stop offset="1" stop-color="#142D53"/>
</linearGradient>
</defs>
</svg>
