<svg width="30" height="30" viewBox="0 0 30 30" fill="none" xmlns="http://www.w3.org/2000/svg">
<rect x="0.5" y="0.5" width="29" height="29" rx="4.5" fill="url(#paint0_linear_6864_70798)" stroke="#949494"/>
<g opacity="0.25">
<path d="M6.96338 20.5793C6.96338 20.9489 7.26297 21.2485 7.63253 21.2485C8.00209 21.2485 8.30168 20.9489 8.30168 20.5793C8.30168 20.2097 8.00209 19.9102 7.63253 19.9102C7.26297 19.9102 6.96338 20.2097 6.96338 20.5793Z" fill="#1CE7C2" fill-opacity="0.9"/>
<path d="M6.96338 19.2414C6.96338 19.611 7.26297 19.9106 7.63253 19.9106C8.00209 19.9106 8.30168 19.611 8.30168 19.2414C8.30168 18.8719 8.00209 18.5723 7.63253 18.5723C7.26297 18.5723 6.96338 18.8719 6.96338 19.2414Z" fill="#1CE7C2" fill-opacity="0.9"/>
<path d="M6.96338 17.9016C6.96338 18.2711 7.26297 18.5707 7.63253 18.5707C8.00209 18.5707 8.30168 18.2711 8.30168 17.9016C8.30168 17.532 8.00209 17.2324 7.63253 17.2324C7.26297 17.2324 6.96338 17.532 6.96338 17.9016Z" fill="#1CE7C2" fill-opacity="0.9"/>
<path d="M6.96338 16.5676C6.96338 16.9371 7.26297 17.2367 7.63253 17.2367C8.00209 17.2367 8.30168 16.9371 8.30168 16.5676C8.30168 16.198 8.00209 15.8984 7.63253 15.8984C7.26297 15.8984 6.96338 16.198 6.96338 16.5676Z" fill="#1CE7C2" fill-opacity="0.9"/>
<path d="M6.96338 15.2277C6.96338 15.5973 7.26297 15.8969 7.63253 15.8969C8.00209 15.8969 8.30168 15.5973 8.30168 15.2277C8.30168 14.8582 8.00209 14.5586 7.63253 14.5586C7.26297 14.5586 6.96338 14.8582 6.96338 15.2277Z" fill="#1CE7C2" fill-opacity="0.9"/>
<path d="M8.30176 21.9172C8.30176 22.2868 8.60135 22.5863 8.97091 22.5863C9.34047 22.5863 9.64006 22.2868 9.64006 21.9172C9.64006 21.5476 9.34047 21.248 8.97091 21.248C8.60135 21.248 8.30176 21.5476 8.30176 21.9172Z" fill="#1CE7C2" fill-opacity="0.9"/>
<path d="M8.30176 20.5793C8.30176 20.9489 8.60135 21.2485 8.97091 21.2485C9.34047 21.2485 9.64006 20.9489 9.64006 20.5793C9.64006 20.2097 9.34047 19.9102 8.97091 19.9102C8.60135 19.9102 8.30176 20.2097 8.30176 20.5793Z" fill="#1CE7C2" fill-opacity="0.7"/>
<path d="M8.30176 19.2414C8.30176 19.611 8.60135 19.9106 8.97091 19.9106C9.34047 19.9106 9.64006 19.611 9.64006 19.2414C9.64006 18.8719 9.34047 18.5723 8.97091 18.5723C8.60135 18.5723 8.30176 18.8719 8.30176 19.2414Z" fill="#1CE7C2" fill-opacity="0.7"/>
<path d="M8.30176 17.9016C8.30176 18.2711 8.60135 18.5707 8.97091 18.5707C9.34047 18.5707 9.64006 18.2711 9.64006 17.9016C9.64006 17.532 9.34047 17.2324 8.97091 17.2324C8.60135 17.2324 8.30176 17.532 8.30176 17.9016Z" fill="#1CE7C2" fill-opacity="0.7"/>
<path d="M8.30176 16.5676C8.30176 16.9371 8.60135 17.2367 8.97091 17.2367C9.34047 17.2367 9.64006 16.9371 9.64006 16.5676C9.64006 16.198 9.34047 15.8984 8.97091 15.8984C8.60135 15.8984 8.30176 16.198 8.30176 16.5676Z" fill="#1CE7C2" fill-opacity="0.7"/>
<path d="M8.30176 15.2277C8.30176 15.5973 8.60135 15.8969 8.97091 15.8969C9.34047 15.8969 9.64006 15.5973 9.64006 15.2277C9.64006 14.8582 9.34047 14.5586 8.97091 14.5586C8.60135 14.5586 8.30176 14.8582 8.30176 15.2277Z" fill="#1CE7C2" fill-opacity="0.9"/>
<path d="M8.30176 13.8899C8.30176 14.2594 8.60135 14.559 8.97091 14.559C9.34047 14.559 9.64006 14.2594 9.64006 13.8899C9.64006 13.5203 9.34047 13.2207 8.97091 13.2207C8.60135 13.2207 8.30176 13.5203 8.30176 13.8899Z" fill="#1CE7C2" fill-opacity="0.9"/>
<path d="M8.30176 12.552C8.30176 12.9215 8.60135 13.2211 8.97091 13.2211C9.34047 13.2211 9.64006 12.9215 9.64006 12.552C9.64006 12.1824 9.34047 11.8828 8.97091 11.8828C8.60135 11.8828 8.30176 12.1824 8.30176 12.552Z" fill="#1CE7C2" fill-opacity="0.9"/>
<path d="M9.63989 23.2649C9.63989 23.6344 9.93948 23.934 10.309 23.934C10.6786 23.934 10.9782 23.6344 10.9782 23.2649C10.9782 22.8953 10.6786 22.5957 10.309 22.5957C9.93948 22.5957 9.63989 22.8953 9.63989 23.2649Z" fill="#1CE7C2" fill-opacity="0.7"/>
<path d="M9.63989 21.9172C9.63989 22.2868 9.93948 22.5863 10.309 22.5863C10.6786 22.5863 10.9782 22.2868 10.9782 21.9172C10.9782 21.5476 10.6786 21.248 10.309 21.248C9.93948 21.248 9.63989 21.5476 9.63989 21.9172Z" fill="#1CE7C2" fill-opacity="0.5"/>
<path d="M9.63989 20.5793C9.63989 20.9489 9.93948 21.2485 10.309 21.2485C10.6786 21.2485 10.9782 20.9489 10.9782 20.5793C10.9782 20.2097 10.6786 19.9102 10.309 19.9102C9.93948 19.9102 9.63989 20.2097 9.63989 20.5793Z" fill="#1CE7C2" fill-opacity="0.5"/>
<path d="M9.63989 19.2414C9.63989 19.611 9.93948 19.9106 10.309 19.9106C10.6786 19.9106 10.9782 19.611 10.9782 19.2414C10.9782 18.8719 10.6786 18.5723 10.309 18.5723C9.93948 18.5723 9.63989 18.8719 9.63989 19.2414Z" fill="#1CE7C2" fill-opacity="0.5"/>
<path d="M9.63989 17.9016C9.63989 18.2711 9.93948 18.5707 10.309 18.5707C10.6786 18.5707 10.9782 18.2711 10.9782 17.9016C10.9782 17.532 10.6786 17.2324 10.309 17.2324C9.93948 17.2324 9.63989 17.532 9.63989 17.9016Z" fill="#1CE7C2" fill-opacity="0.7"/>
<path d="M9.63989 16.5676C9.63989 16.9371 9.93948 17.2367 10.309 17.2367C10.6786 17.2367 10.9782 16.9371 10.9782 16.5676C10.9782 16.198 10.6786 15.8984 10.309 15.8984C9.93948 15.8984 9.63989 16.198 9.63989 16.5676Z" fill="#1CE7C2" fill-opacity="0.7"/>
<path d="M9.63989 15.2277C9.63989 15.5973 9.93948 15.8969 10.309 15.8969C10.6786 15.8969 10.9782 15.5973 10.9782 15.2277C10.9782 14.8582 10.6786 14.5586 10.309 14.5586C9.93948 14.5586 9.63989 14.8582 9.63989 15.2277Z" fill="#1CE7C2" fill-opacity="0.7"/>
<path d="M9.63989 13.8899C9.63989 14.2594 9.93948 14.559 10.309 14.559C10.6786 14.559 10.9782 14.2594 10.9782 13.8899C10.9782 13.5203 10.6786 13.2207 10.309 13.2207C9.93948 13.2207 9.63989 13.5203 9.63989 13.8899Z" fill="#1CE7C2" fill-opacity="0.7"/>
<path d="M9.63989 12.552C9.63989 12.9215 9.93948 13.2211 10.309 13.2211C10.6786 13.2211 10.9782 12.9215 10.9782 12.552C10.9782 12.1824 10.6786 11.8828 10.309 11.8828C9.93948 11.8828 9.63989 12.1824 9.63989 12.552Z" fill="#1CE7C2" fill-opacity="0.9"/>
<path d="M9.63989 11.2043C9.63989 11.5739 9.93948 11.8735 10.309 11.8735C10.6786 11.8735 10.9782 11.5739 10.9782 11.2043C10.9782 10.8347 10.6786 10.5352 10.309 10.5352C9.93948 10.5352 9.63989 10.8347 9.63989 11.2043Z" fill="#1CE7C2" fill-opacity="0.9"/>
<path d="M9.63989 9.86987C9.63989 10.2394 9.93948 10.5425 10.309 10.5425C10.6786 10.5425 10.9782 10.2394 10.9782 9.86987C10.9782 9.5003 10.6786 9.19727 10.309 9.19727C9.93948 9.19727 9.63989 9.5003 9.63989 9.86987Z" fill="#1CE7C2" fill-opacity="0.9"/>
<path d="M10.9785 24.6027C10.9785 24.9723 11.2781 25.2719 11.6477 25.2719C12.0172 25.2719 12.3168 24.9723 12.3168 24.6027C12.3168 24.2332 12.0172 23.9336 11.6477 23.9336C11.2781 23.9336 10.9785 24.2332 10.9785 24.6027Z" fill="#1CE7C2" fill-opacity="0.7"/>
<path d="M10.9785 23.2649C10.9785 23.6344 11.2781 23.934 11.6477 23.934C12.0172 23.934 12.3168 23.6344 12.3168 23.2649C12.3168 22.8953 12.0172 22.5957 11.6477 22.5957C11.2781 22.5957 10.9785 22.8953 10.9785 23.2649Z" fill="#1CE7C2" fill-opacity="0.5"/>
<path d="M10.9785 21.9172C10.9785 22.2868 11.2781 22.5863 11.6477 22.5863C12.0172 22.5863 12.3168 22.2868 12.3168 21.9172C12.3168 21.5476 12.0172 21.248 11.6477 21.248C11.2781 21.248 10.9785 21.5476 10.9785 21.9172Z" fill="#1CE7C2" fill-opacity="0.4"/>
<path d="M10.9785 19.2414C10.9785 19.611 11.2781 19.9106 11.6477 19.9106C12.0172 19.9106 12.3168 19.611 12.3168 19.2414C12.3168 18.8719 12.0172 18.5723 11.6477 18.5723C11.2781 18.5723 10.9785 18.8719 10.9785 19.2414Z" fill="#1CE7C2" fill-opacity="0.4"/>
<path d="M10.9785 17.9016C10.9785 18.2711 11.2781 18.5707 11.6477 18.5707C12.0172 18.5707 12.3168 18.2711 12.3168 17.9016C12.3168 17.532 12.0172 17.2324 11.6477 17.2324C11.2781 17.2324 10.9785 17.532 10.9785 17.9016Z" fill="#1CE7C2" fill-opacity="0.5"/>
<path d="M10.9785 16.5676C10.9785 16.9371 11.2781 17.2367 11.6477 17.2367C12.0172 17.2367 12.3168 16.9371 12.3168 16.5676C12.3168 16.198 12.0172 15.8984 11.6477 15.8984C11.2781 15.8984 10.9785 16.198 10.9785 16.5676Z" fill="#1CE7C2" fill-opacity="0.5"/>
<path d="M10.9785 15.2277C10.9785 15.5973 11.2781 15.8969 11.6477 15.8969C12.0172 15.8969 12.3168 15.5973 12.3168 15.2277C12.3168 14.8582 12.0172 14.5586 11.6477 14.5586C11.2781 14.5586 10.9785 14.8582 10.9785 15.2277Z" fill="#1CE7C2" fill-opacity="0.5"/>
<path d="M10.9785 13.8899C10.9785 14.2594 11.2781 14.559 11.6477 14.559C12.0172 14.559 12.3168 14.2594 12.3168 13.8899C12.3168 13.5203 12.0172 13.2207 11.6477 13.2207C11.2781 13.2207 10.9785 13.5203 10.9785 13.8899Z" fill="#1CE7C2" fill-opacity="0.7"/>
<path d="M10.9785 12.552C10.9785 12.9215 11.2781 13.2211 11.6477 13.2211C12.0172 13.2211 12.3168 12.9215 12.3168 12.552C12.3168 12.1824 12.0172 11.8828 11.6477 11.8828C11.2781 11.8828 10.9785 12.1824 10.9785 12.552Z" fill="#1CE7C2" fill-opacity="0.7"/>
<path d="M10.9785 11.2043C10.9785 11.5739 11.2781 11.8735 11.6477 11.8735C12.0172 11.8735 12.3168 11.5739 12.3168 11.2043C12.3168 10.8347 12.0172 10.5352 11.6477 10.5352C11.2781 10.5352 10.9785 10.8347 10.9785 11.2043Z" fill="#1CE7C2" fill-opacity="0.7"/>
<path d="M10.9785 9.86987C10.9785 10.2394 11.2781 10.5425 11.6477 10.5425C12.0172 10.5425 12.3168 10.2394 12.3168 9.86987C12.3168 9.5003 12.0172 9.19727 11.6477 9.19727C11.2781 9.19727 10.9785 9.5003 10.9785 9.86987Z" fill="#1CE7C2" fill-opacity="0.9"/>
<path d="M10.9785 8.52657C10.9785 8.89613 11.2781 9.19572 11.6477 9.19572C12.0172 9.19572 12.3168 8.89613 12.3168 8.52657C12.3168 8.15701 12.0172 7.85742 11.6477 7.85742C11.2781 7.85742 10.9785 8.15701 10.9785 8.52657Z" fill="#1CE7C2" fill-opacity="0.9"/>
<path d="M12.3232 24.6027C12.3232 24.9723 12.6228 25.2719 12.9924 25.2719C13.362 25.2719 13.6615 24.9723 13.6615 24.6027C13.6615 24.2332 13.362 23.9336 12.9924 23.9336C12.6228 23.9336 12.3232 24.2332 12.3232 24.6027Z" fill="#1CE7C2" fill-opacity="0.5"/>
<path d="M12.3232 23.2649C12.3232 23.6344 12.6228 23.934 12.9924 23.934C13.362 23.934 13.6615 23.6344 13.6615 23.2649C13.6615 22.8953 13.362 22.5957 12.9924 22.5957C12.6228 22.5957 12.3232 22.8953 12.3232 23.2649Z" fill="#1CE7C2" fill-opacity="0.4"/>
<path d="M12.3232 20.5793C12.3232 20.9489 12.6228 21.2485 12.9924 21.2485C13.362 21.2485 13.6615 20.9489 13.6615 20.5793C13.6615 20.2097 13.362 19.9102 12.9924 19.9102C12.6228 19.9102 12.3232 20.2097 12.3232 20.5793Z" fill="#1CE7C2" fill-opacity="0.4"/>
<path d="M12.3232 19.2414C12.3232 19.611 12.6228 19.9106 12.9924 19.9106C13.362 19.9106 13.6615 19.611 13.6615 19.2414C13.6615 18.8719 13.362 18.5723 12.9924 18.5723C12.6228 18.5723 12.3232 18.8719 12.3232 19.2414Z" fill="#1CE7C2" fill-opacity="0.4"/>
<path d="M12.3232 13.8899C12.3232 14.2594 12.6228 14.559 12.9924 14.559C13.362 14.559 13.6615 14.2594 13.6615 13.8899C13.6615 13.5203 13.362 13.2207 12.9924 13.2207C12.6228 13.2207 12.3232 13.5203 12.3232 13.8899Z" fill="#1CE7C2" fill-opacity="0.5"/>
<path d="M12.3232 12.552C12.3232 12.9215 12.6228 13.2211 12.9924 13.2211C13.362 13.2211 13.6615 12.9215 13.6615 12.552C13.6615 12.1824 13.362 11.8828 12.9924 11.8828C12.6228 11.8828 12.3232 12.1824 12.3232 12.552Z" fill="#1CE7C2" fill-opacity="0.5"/>
<path d="M12.3232 11.2043C12.3232 11.5739 12.6228 11.8735 12.9924 11.8735C13.362 11.8735 13.6615 11.5739 13.6615 11.2043C13.6615 10.8347 13.362 10.5352 12.9924 10.5352C12.6228 10.5352 12.3232 10.8347 12.3232 11.2043Z" fill="#1CE7C2" fill-opacity="0.7"/>
<path d="M12.3232 9.86987C12.3232 10.2394 12.6228 10.5425 12.9924 10.5425C13.362 10.5425 13.6615 10.2394 13.6615 9.86987C13.6615 9.5003 13.362 9.19727 12.9924 9.19727C12.6228 9.19727 12.3232 9.5003 12.3232 9.86987Z" fill="#1CE7C2" fill-opacity="0.7"/>
<path d="M12.3232 8.52657C12.3232 8.89613 12.6228 9.19572 12.9924 9.19572C13.362 9.19572 13.6615 8.89613 13.6615 8.52657C13.6615 8.15701 13.362 7.85742 12.9924 7.85742C12.6228 7.85742 12.3232 8.15701 12.3232 8.52657Z" fill="#1CE7C2" fill-opacity="0.9"/>
<path d="M12.3232 7.18282C12.3232 7.55238 12.6228 7.85197 12.9924 7.85197C13.362 7.85197 13.6615 7.55238 13.6615 7.18282C13.6615 6.81326 13.362 6.51367 12.9924 6.51367C12.6228 6.51367 12.3232 6.81326 12.3232 7.18282Z" fill="#1CE7C2" fill-opacity="0.9"/>
<path d="M13.6616 24.6027C13.6616 24.9723 13.9612 25.2719 14.3308 25.2719C14.7003 25.2719 14.9999 24.9723 14.9999 24.6027C14.9999 24.2332 14.7003 23.9336 14.3308 23.9336C13.9612 23.9336 13.6616 24.2332 13.6616 24.6027Z" fill="#1CE7C2" fill-opacity="0.5"/>
<path d="M13.6616 23.2649C13.6616 23.6344 13.9612 23.934 14.3308 23.934C14.7003 23.934 14.9999 23.6344 14.9999 23.2649C14.9999 22.8953 14.7003 22.5957 14.3308 22.5957C13.9612 22.5957 13.6616 22.8953 13.6616 23.2649Z" fill="#1CE7C2" fill-opacity="0.4"/>
<path d="M13.6616 20.5793C13.6616 20.9489 13.9612 21.2485 14.3308 21.2485C14.7003 21.2485 14.9999 20.9489 14.9999 20.5793C14.9999 20.2097 14.7003 19.9102 14.3308 19.9102C13.9612 19.9102 13.6616 20.2097 13.6616 20.5793Z" fill="#1CE7C2" fill-opacity="0.4"/>
<path d="M13.6616 19.2414C13.6616 19.611 13.9612 19.9106 14.3308 19.9106C14.7003 19.9106 14.9999 19.611 14.9999 19.2414C14.9999 18.8719 14.7003 18.5723 14.3308 18.5723C13.9612 18.5723 13.6616 18.8719 13.6616 19.2414Z" fill="#1CE7C2" fill-opacity="0.4"/>
<path d="M13.6616 17.9016C13.6616 18.2711 13.9612 18.5707 14.3308 18.5707C14.7003 18.5707 14.9999 18.2711 14.9999 17.9016C14.9999 17.532 14.7003 17.2324 14.3308 17.2324C13.9612 17.2324 13.6616 17.532 13.6616 17.9016Z" fill="#1CE7C2" fill-opacity="0.4"/>
<path d="M13.6616 16.5676C13.6616 16.9371 13.9612 17.2367 14.3308 17.2367C14.7003 17.2367 14.9999 16.9371 14.9999 16.5676C14.9999 16.198 14.7003 15.8984 14.3308 15.8984C13.9612 15.8984 13.6616 16.198 13.6616 16.5676Z" fill="#1CE7C2" fill-opacity="0.4"/>
<path d="M13.6616 15.2277C13.6616 15.5973 13.9612 15.8969 14.3308 15.8969C14.7003 15.8969 14.9999 15.5973 14.9999 15.2277C14.9999 14.8582 14.7003 14.5586 14.3308 14.5586C13.9612 14.5586 13.6616 14.8582 13.6616 15.2277Z" fill="#1CE7C2" fill-opacity="0.5"/>
<path d="M13.6616 13.8899C13.6616 14.2594 13.9612 14.559 14.3308 14.559C14.7003 14.559 14.9999 14.2594 14.9999 13.8899C14.9999 13.5203 14.7003 13.2207 14.3308 13.2207C13.9612 13.2207 13.6616 13.5203 13.6616 13.8899Z" fill="#1CE7C2" fill-opacity="0.5"/>
<path d="M13.6616 12.552C13.6616 12.9215 13.9612 13.2211 14.3308 13.2211C14.7003 13.2211 14.9999 12.9215 14.9999 12.552C14.9999 12.1824 14.7003 11.8828 14.3308 11.8828C13.9612 11.8828 13.6616 12.1824 13.6616 12.552Z" fill="#1CE7C2" fill-opacity="0.7"/>
<path d="M13.6616 11.2043C13.6616 11.5739 13.9612 11.8735 14.3308 11.8735C14.7003 11.8735 14.9999 11.5739 14.9999 11.2043C14.9999 10.8347 14.7003 10.5352 14.3308 10.5352C13.9612 10.5352 13.6616 10.8347 13.6616 11.2043Z" fill="#1CE7C2" fill-opacity="0.7"/>
<path d="M13.6616 9.86987C13.6616 10.2394 13.9612 10.5425 14.3308 10.5425C14.7003 10.5425 14.9999 10.2394 14.9999 9.86987C14.9999 9.5003 14.7003 9.19727 14.3308 9.19727C13.9612 9.19727 13.6616 9.5003 13.6616 9.86987Z" fill="#1CE7C2" fill-opacity="0.7"/>
<path d="M13.6616 8.52657C13.6616 8.89613 13.9612 9.19572 14.3308 9.19572C14.7003 9.19572 14.9999 8.89613 14.9999 8.52657C14.9999 8.15701 14.7003 7.85742 14.3308 7.85742C13.9612 7.85742 13.6616 8.15701 13.6616 8.52657Z" fill="#1CE7C2" fill-opacity="0.7"/>
<path d="M13.6616 7.18282C13.6616 7.55238 13.9612 7.85197 14.3308 7.85197C14.7003 7.85197 14.9999 7.55238 14.9999 7.18282C14.9999 6.81326 14.7003 6.51367 14.3308 6.51367C13.9612 6.51367 13.6616 6.81326 13.6616 7.18282Z" fill="#1CE7C2" fill-opacity="0.9"/>
<path d="M13.6616 5.84493C13.6616 6.21449 13.9612 6.51408 14.3308 6.51408C14.7003 6.51408 14.9999 6.21449 14.9999 5.84493C14.9999 5.47537 14.7003 5.17578 14.3308 5.17578C13.9612 5.17578 13.6616 5.47537 13.6616 5.84493Z" fill="#1CE7C2" fill-opacity="0.9"/>
<path d="M15 24.6027C15 24.9723 15.2996 25.2719 15.6692 25.2719C16.0387 25.2719 16.3383 24.9723 16.3383 24.6027C16.3383 24.2332 16.0387 23.9336 15.6692 23.9336C15.2996 23.9336 15 24.2332 15 24.6027Z" fill="#1CE7C2" fill-opacity="0.5"/>
<path d="M15 23.2649C15 23.6344 15.2996 23.934 15.6692 23.934C16.0387 23.934 16.3383 23.6344 16.3383 23.2649C16.3383 22.8953 16.0387 22.5957 15.6692 22.5957C15.2996 22.5957 15 22.8953 15 23.2649Z" fill="#1CE7C2" fill-opacity="0.4"/>
<path d="M15 20.5793C15 20.9489 15.2996 21.2485 15.6692 21.2485C16.0387 21.2485 16.3383 20.9489 16.3383 20.5793C16.3383 20.2097 16.0387 19.9102 15.6692 19.9102C15.2996 19.9102 15 20.2097 15 20.5793Z" fill="#1CE7C2" fill-opacity="0.4"/>
<path d="M15 19.2414C15 19.611 15.2996 19.9106 15.6692 19.9106C16.0387 19.9106 16.3383 19.611 16.3383 19.2414C16.3383 18.8719 16.0387 18.5723 15.6692 18.5723C15.2996 18.5723 15 18.8719 15 19.2414Z" fill="#1CE7C2" fill-opacity="0.4"/>
<path d="M15 17.9016C15 18.2711 15.2996 18.5707 15.6692 18.5707C16.0387 18.5707 16.3383 18.2711 16.3383 17.9016C16.3383 17.532 16.0387 17.2324 15.6692 17.2324C15.2996 17.2324 15 17.532 15 17.9016Z" fill="#1CE7C2" fill-opacity="0.4"/>
<path d="M15 16.5676C15 16.9371 15.2996 17.2367 15.6692 17.2367C16.0387 17.2367 16.3383 16.9371 16.3383 16.5676C16.3383 16.198 16.0387 15.8984 15.6692 15.8984C15.2996 15.8984 15 16.198 15 16.5676Z" fill="#1CE7C2" fill-opacity="0.5"/>
<path d="M15 15.2277C15 15.5973 15.2996 15.8969 15.6692 15.8969C16.0387 15.8969 16.3383 15.5973 16.3383 15.2277C16.3383 14.8582 16.0387 14.5586 15.6692 14.5586C15.2996 14.5586 15 14.8582 15 15.2277Z" fill="#1CE7C2" fill-opacity="0.7"/>
<path d="M15 13.8899C15 14.2594 15.2996 14.559 15.6692 14.559C16.0387 14.559 16.3383 14.2594 16.3383 13.8899C16.3383 13.5203 16.0387 13.2207 15.6692 13.2207C15.2996 13.2207 15 13.5203 15 13.8899Z" fill="#1CE7C2" fill-opacity="0.7"/>
<path d="M15 12.552C15 12.9215 15.2996 13.2211 15.6692 13.2211C16.0387 13.2211 16.3383 12.9215 16.3383 12.552C16.3383 12.1824 16.0387 11.8828 15.6692 11.8828C15.2996 11.8828 15 12.1824 15 12.552Z" fill="#1CE7C2" fill-opacity="0.7"/>
<path d="M15 11.2043C15 11.5739 15.2996 11.8735 15.6692 11.8735C16.0387 11.8735 16.3383 11.5739 16.3383 11.2043C16.3383 10.8347 16.0387 10.5352 15.6692 10.5352C15.2996 10.5352 15 10.8347 15 11.2043Z" fill="#1CE7C2" fill-opacity="0.7"/>
<path d="M15 9.86987C15 10.2394 15.2996 10.5425 15.6692 10.5425C16.0387 10.5425 16.3383 10.2394 16.3383 9.86987C16.3383 9.5003 16.0387 9.19727 15.6692 9.19727C15.2996 9.19727 15 9.5003 15 9.86987Z" fill="#1CE7C2" fill-opacity="0.9"/>
<path d="M15 8.52657C15 8.89613 15.2996 9.19572 15.6692 9.19572C16.0387 9.19572 16.3383 8.89613 16.3383 8.52657C16.3383 8.15701 16.0387 7.85742 15.6692 7.85742C15.2996 7.85742 15 8.15701 15 8.52657Z" fill="#1CE7C2" fill-opacity="0.9"/>
<path d="M15 7.18282C15 7.55238 15.2996 7.85197 15.6692 7.85197C16.0387 7.85197 16.3383 7.55238 16.3383 7.18282C16.3383 6.81326 16.0387 6.51367 15.6692 6.51367C15.2996 6.51367 15 6.81326 15 7.18282Z" fill="#1CE7C2" fill-opacity="0.9"/>
<path d="M15 5.84493C15 6.21449 15.2996 6.51408 15.6692 6.51408C16.0387 6.51408 16.3383 6.21449 16.3383 5.84493C16.3383 5.47537 16.0387 5.17578 15.6692 5.17578C15.2996 5.17578 15 5.47537 15 5.84493Z" fill="#1CE7C2" fill-opacity="0.9"/>
<path d="M15 4.50704C15 4.8766 15.2996 5.17619 15.6692 5.17619C16.0387 5.17619 16.3383 4.8766 16.3383 4.50704C16.3383 4.13748 16.0387 3.83789 15.6692 3.83789C15.2996 3.83789 15 4.13748 15 4.50704Z" fill="#1CE7C2" fill-opacity="0.9"/>
<path d="M16.3384 24.6027C16.3384 24.9723 16.6414 25.2719 17.011 25.2719C17.3805 25.2719 17.6836 24.9723 17.6836 24.6027C17.6836 24.2332 17.3805 23.9336 17.011 23.9336C16.6414 23.9336 16.3384 24.2332 16.3384 24.6027Z" fill="#1CE7C2" fill-opacity="0.5"/>
<path d="M16.3384 23.2649C16.3384 23.6344 16.6414 23.934 17.011 23.934C17.3805 23.934 17.6836 23.6344 17.6836 23.2649C17.6836 22.8953 17.3805 22.5957 17.011 22.5957C16.6414 22.5957 16.3384 22.8953 16.3384 23.2649Z" fill="#1CE7C2" fill-opacity="0.4"/>
<path d="M16.3384 20.5793C16.3384 20.9489 16.6414 21.2485 17.011 21.2485C17.3805 21.2485 17.6836 20.9489 17.6836 20.5793C17.6836 20.2097 17.3805 19.9102 17.011 19.9102C16.6414 19.9102 16.3384 20.2097 16.3384 20.5793Z" fill="#1CE7C2" fill-opacity="0.4"/>
<path d="M16.3384 19.2414C16.3384 19.611 16.6414 19.9106 17.011 19.9106C17.3805 19.9106 17.6836 19.611 17.6836 19.2414C17.6836 18.8719 17.3805 18.5723 17.011 18.5723C16.6414 18.5723 16.3384 18.8719 16.3384 19.2414Z" fill="#1CE7C2" fill-opacity="0.4"/>
<path d="M16.3384 13.8899C16.3384 14.2594 16.6414 14.559 17.011 14.559C17.3805 14.559 17.6836 14.2594 17.6836 13.8899C17.6836 13.5203 17.3805 13.2207 17.011 13.2207C16.6414 13.2207 16.3384 13.5203 16.3384 13.8899Z" fill="#1CE7C2" fill-opacity="0.7"/>
<path d="M16.3384 12.552C16.3384 12.9215 16.6414 13.2211 17.011 13.2211C17.3805 13.2211 17.6836 12.9215 17.6836 12.552C17.6836 12.1824 17.3805 11.8828 17.011 11.8828C16.6414 11.8828 16.3384 12.1824 16.3384 12.552Z" fill="#1CE7C2" fill-opacity="0.7"/>
<path d="M16.3384 11.2043C16.3384 11.5739 16.6414 11.8735 17.011 11.8735C17.3805 11.8735 17.6836 11.5739 17.6836 11.2043C17.6836 10.8347 17.3805 10.5352 17.011 10.5352C16.6414 10.5352 16.3384 10.8347 16.3384 11.2043Z" fill="#1CE7C2" fill-opacity="0.9"/>
<path d="M16.3384 9.86987C16.3384 10.2413 16.6395 10.5425 17.011 10.5425C17.3824 10.5425 17.6836 10.2413 17.6836 9.86987C17.6836 9.4984 17.3824 9.19727 17.011 9.19727C16.6395 9.19727 16.3384 9.4984 16.3384 9.86987Z" fill="#1CE7C2" fill-opacity="0.9"/>
<path d="M16.3384 8.52657C16.3384 8.89613 16.6414 9.19572 17.011 9.19572C17.3805 9.19572 17.6836 8.89613 17.6836 8.52657C17.6836 8.15701 17.3805 7.85742 17.011 7.85742C16.6414 7.85742 16.3384 8.15701 16.3384 8.52657Z" fill="#1CE7C2" fill-opacity="0.9"/>
<path d="M17.6836 24.6027C17.6836 24.9723 17.9832 25.2719 18.3527 25.2719C18.7223 25.2719 19.0219 24.9723 19.0219 24.6027C19.0219 24.2332 18.7223 23.9336 18.3527 23.9336C17.9832 23.9336 17.6836 24.2332 17.6836 24.6027Z" fill="#1CE7C2" fill-opacity="0.7"/>
<path d="M17.6836 23.2649C17.6836 23.6344 17.9832 23.934 18.3527 23.934C18.7223 23.934 19.0219 23.6344 19.0219 23.2649C19.0219 22.8953 18.7223 22.5957 18.3527 22.5957C17.9832 22.5957 17.6836 22.8953 17.6836 23.2649Z" fill="#1CE7C2" fill-opacity="0.5"/>
<path d="M17.6836 21.9172C17.6836 22.2868 17.9832 22.5863 18.3527 22.5863C18.7223 22.5863 19.0219 22.2868 19.0219 21.9172C19.0219 21.5476 18.7223 21.248 18.3527 21.248C17.9832 21.248 17.6836 21.5476 17.6836 21.9172Z" fill="#1CE7C2" fill-opacity="0.4"/>
<path d="M17.6836 19.2414C17.6836 19.611 17.9832 19.9106 18.3527 19.9106C18.7223 19.9106 19.0219 19.611 19.0219 19.2414C19.0219 18.8719 18.7223 18.5723 18.3527 18.5723C17.9832 18.5723 17.6836 18.8719 17.6836 19.2414Z" fill="#1CE7C2" fill-opacity="0.5"/>
<path d="M17.6836 17.9016C17.6836 18.2711 17.9832 18.5707 18.3527 18.5707C18.7223 18.5707 19.0219 18.2711 19.0219 17.9016C19.0219 17.532 18.7223 17.2324 18.3527 17.2324C17.9832 17.2324 17.6836 17.532 17.6836 17.9016Z" fill="#1CE7C2" fill-opacity="0.5"/>
<path d="M17.6836 16.5676C17.6836 16.9371 17.9832 17.2367 18.3527 17.2367C18.7223 17.2367 19.0219 16.9371 19.0219 16.5676C19.0219 16.198 18.7223 15.8984 18.3527 15.8984C17.9832 15.8984 17.6836 16.198 17.6836 16.5676Z" fill="#1CE7C2" fill-opacity="0.5"/>
<path d="M17.6836 15.2277C17.6836 15.5973 17.9832 15.8969 18.3527 15.8969C18.7223 15.8969 19.0219 15.5973 19.0219 15.2277C19.0219 14.8582 18.7223 14.5586 18.3527 14.5586C17.9832 14.5586 17.6836 14.8582 17.6836 15.2277Z" fill="#1CE7C2" fill-opacity="0.5"/>
<path d="M17.6836 13.8899C17.6836 14.2594 17.9832 14.559 18.3527 14.559C18.7223 14.559 19.0219 14.2594 19.0219 13.8899C19.0219 13.5203 18.7223 13.2207 18.3527 13.2207C17.9832 13.2207 17.6836 13.5203 17.6836 13.8899Z" fill="#1CE7C2" fill-opacity="0.5"/>
<path d="M17.6836 12.552C17.6836 12.9215 17.9832 13.2211 18.3527 13.2211C18.7223 13.2211 19.0219 12.9215 19.0219 12.552C19.0219 12.1824 18.7223 11.8828 18.3527 11.8828C17.9832 11.8828 17.6836 12.1824 17.6836 12.552Z" fill="#1CE7C2" fill-opacity="0.7"/>
<path d="M17.6836 11.2043C17.6836 11.5739 17.9832 11.8735 18.3527 11.8735C18.7223 11.8735 19.0219 11.5739 19.0219 11.2043C19.0219 10.8347 18.7223 10.5352 18.3527 10.5352C17.9832 10.5352 17.6836 10.8347 17.6836 11.2043Z" fill="#1CE7C2" fill-opacity="0.9"/>
<path d="M19.022 23.2649C19.022 23.6344 19.3216 23.934 19.6911 23.934C20.0607 23.934 20.3603 23.6344 20.3603 23.2649C20.3603 22.8953 20.0607 22.5957 19.6911 22.5957C19.3216 22.5957 19.022 22.8953 19.022 23.2649Z" fill="#1CE7C2" fill-opacity="0.7"/>
<path d="M19.022 21.9172C19.022 22.2868 19.3216 22.5863 19.6911 22.5863C20.0607 22.5863 20.3603 22.2868 20.3603 21.9172C20.3603 21.5476 20.0607 21.248 19.6911 21.248C19.3216 21.248 19.022 21.5476 19.022 21.9172Z" fill="#1CE7C2" fill-opacity="0.5"/>
<path d="M19.022 20.5793C19.022 20.9489 19.3216 21.2485 19.6911 21.2485C20.0607 21.2485 20.3603 20.9489 20.3603 20.5793C20.3603 20.2097 20.0607 19.9102 19.6911 19.9102C19.3216 19.9102 19.022 20.2097 19.022 20.5793Z" fill="#1CE7C2" fill-opacity="0.5"/>
<path d="M19.022 19.2414C19.022 19.611 19.3216 19.9106 19.6911 19.9106C20.0607 19.9106 20.3603 19.611 20.3603 19.2414C20.3603 18.8719 20.0607 18.5723 19.6911 18.5723C19.3216 18.5723 19.022 18.8719 19.022 19.2414Z" fill="#1CE7C2" fill-opacity="0.5"/>
<path d="M19.022 17.9016C19.022 18.2711 19.3216 18.5707 19.6911 18.5707C20.0607 18.5707 20.3603 18.2711 20.3603 17.9016C20.3603 17.532 20.0607 17.2324 19.6911 17.2324C19.3216 17.2324 19.022 17.532 19.022 17.9016Z" fill="#1CE7C2" fill-opacity="0.7"/>
<path d="M19.022 16.5676C19.022 16.9371 19.3216 17.2367 19.6911 17.2367C20.0607 17.2367 20.3603 16.9371 20.3603 16.5676C20.3603 16.198 20.0607 15.8984 19.6911 15.8984C19.3216 15.8984 19.022 16.198 19.022 16.5676Z" fill="#1CE7C2" fill-opacity="0.7"/>
<path d="M19.022 15.2277C19.022 15.5973 19.3216 15.8969 19.6911 15.8969C20.0607 15.8969 20.3603 15.5973 20.3603 15.2277C20.3603 14.8582 20.0607 14.5586 19.6911 14.5586C19.3216 14.5586 19.022 14.8582 19.022 15.2277Z" fill="#1CE7C2" fill-opacity="0.7"/>
<path d="M19.022 13.8899C19.022 14.2594 19.3216 14.559 19.6911 14.559C20.0607 14.559 20.3603 14.2594 20.3603 13.8899C20.3603 13.5203 20.0607 13.2207 19.6911 13.2207C19.3216 13.2207 19.022 13.5203 19.022 13.8899Z" fill="#1CE7C2" fill-opacity="0.7"/>
<path d="M19.022 12.552C19.022 12.9215 19.3216 13.2211 19.6911 13.2211C20.0607 13.2211 20.3603 12.9215 20.3603 12.552C20.3603 12.1824 20.0607 11.8828 19.6911 11.8828C19.3216 11.8828 19.022 12.1824 19.022 12.552Z" fill="#1CE7C2" fill-opacity="0.7"/>
<path d="M20.3601 21.9172C20.3601 22.2868 20.6597 22.5863 21.0293 22.5863C21.3988 22.5863 21.6984 22.2868 21.6984 21.9172C21.6984 21.5476 21.3988 21.248 21.0293 21.248C20.6597 21.248 20.3601 21.5476 20.3601 21.9172Z" fill="#1CE7C2" fill-opacity="0.9"/>
<path d="M20.3601 20.5793C20.3601 20.9489 20.6597 21.2485 21.0293 21.2485C21.3988 21.2485 21.6984 20.9489 21.6984 20.5793C21.6984 20.2097 21.3988 19.9102 21.0293 19.9102C20.6597 19.9102 20.3601 20.2097 20.3601 20.5793Z" fill="#1CE7C2" fill-opacity="0.7"/>
<path d="M20.3601 19.2414C20.3601 19.611 20.6597 19.9106 21.0293 19.9106C21.3988 19.9106 21.6984 19.611 21.6984 19.2414C21.6984 18.8719 21.3988 18.5723 21.0293 18.5723C20.6597 18.5723 20.3601 18.8719 20.3601 19.2414Z" fill="#1CE7C2" fill-opacity="0.7"/>
<path d="M20.3601 17.9016C20.3601 18.2711 20.6597 18.5707 21.0293 18.5707C21.3988 18.5707 21.6984 18.2711 21.6984 17.9016C21.6984 17.532 21.3988 17.2324 21.0293 17.2324C20.6597 17.2324 20.3601 17.532 20.3601 17.9016Z" fill="#1CE7C2" fill-opacity="0.7"/>
<path d="M20.3601 16.5676C20.3601 16.9371 20.6597 17.2367 21.0293 17.2367C21.3988 17.2367 21.6984 16.9371 21.6984 16.5676C21.6984 16.198 21.3988 15.8984 21.0293 15.8984C20.6597 15.8984 20.3601 16.198 20.3601 16.5676Z" fill="#1CE7C2" fill-opacity="0.7"/>
<path d="M20.3601 15.2277C20.3601 15.5973 20.6597 15.8969 21.0293 15.8969C21.3988 15.8969 21.6984 15.5973 21.6984 15.2277C21.6984 14.8582 21.3988 14.5586 21.0293 14.5586C20.6597 14.5586 20.3601 14.8582 20.3601 15.2277Z" fill="#1CE7C2" fill-opacity="0.7"/>
<path d="M20.3601 13.8899C20.3601 14.2594 20.6597 14.559 21.0293 14.559C21.3988 14.559 21.6984 14.2594 21.6984 13.8899C21.6984 13.5203 21.3988 13.2207 21.0293 13.2207C20.6597 13.2207 20.3601 13.5203 20.3601 13.8899Z" fill="#1CE7C2" fill-opacity="0.7"/>
<path d="M21.6982 20.5793C21.6982 20.9489 21.9978 21.2485 22.3674 21.2485C22.737 21.2485 23.0365 20.9489 23.0365 20.5793C23.0365 20.2097 22.737 19.9102 22.3674 19.9102C21.9978 19.9102 21.6982 20.2097 21.6982 20.5793Z" fill="#1CE7C2" fill-opacity="0.9"/>
<path d="M21.6982 19.2414C21.6982 19.611 21.9978 19.9106 22.3674 19.9106C22.737 19.9106 23.0365 19.611 23.0365 19.2414C23.0365 18.8719 22.737 18.5723 22.3674 18.5723C21.9978 18.5723 21.6982 18.8719 21.6982 19.2414Z" fill="#1CE7C2" fill-opacity="0.9"/>
<path d="M21.6982 17.9016C21.6982 18.2711 21.9978 18.5707 22.3674 18.5707C22.737 18.5707 23.0365 18.2711 23.0365 17.9016C23.0365 17.532 22.737 17.2324 22.3674 17.2324C21.9978 17.2324 21.6982 17.532 21.6982 17.9016Z" fill="#1CE7C2" fill-opacity="0.9"/>
<path d="M21.6982 16.5676C21.6982 16.9371 21.9978 17.2367 22.3674 17.2367C22.737 17.2367 23.0365 16.9371 23.0365 16.5676C23.0365 16.198 22.737 15.8984 22.3674 15.8984C21.9978 15.8984 21.6982 16.198 21.6982 16.5676Z" fill="#1CE7C2" fill-opacity="0.9"/>
<path d="M21.6982 15.2277C21.6982 15.5973 21.9978 15.8969 22.3674 15.8969C22.737 15.8969 23.0365 15.5973 23.0365 15.2277C23.0365 14.8582 22.737 14.5586 22.3674 14.5586C21.9978 14.5586 21.6982 14.8582 21.6982 15.2277Z" fill="#1CE7C2" fill-opacity="0.9"/>
<path d="M21.6982 13.8899C21.6982 14.2594 21.9978 14.559 22.3674 14.559C22.737 14.559 23.0365 14.2594 23.0365 13.8899C23.0365 13.5203 22.737 13.2207 22.3674 13.2207C21.9978 13.2207 21.6982 13.5203 21.6982 13.8899Z" fill="#1CE7C2" fill-opacity="0.9"/>
<path d="M5.625 20.5793C5.625 20.9489 5.92459 21.2485 6.29415 21.2485C6.66371 21.2485 6.9633 20.9489 6.9633 20.5793C6.9633 20.2097 6.66371 19.9102 6.29415 19.9102C5.92459 19.9102 5.625 20.2097 5.625 20.5793Z" fill="#1CE7C2"/>
<path d="M5.625 19.2414C5.625 19.611 5.92459 19.9106 6.29415 19.9106C6.66371 19.9106 6.9633 19.611 6.9633 19.2414C6.9633 18.8719 6.66371 18.5723 6.29415 18.5723C5.92459 18.5723 5.625 18.8719 5.625 19.2414Z" fill="#1CE7C2"/>
<path d="M5.625 17.9016C5.625 18.2711 5.92459 18.5707 6.29415 18.5707C6.66371 18.5707 6.9633 18.2711 6.9633 17.9016C6.9633 17.532 6.66371 17.2324 6.29415 17.2324C5.92459 17.2324 5.625 17.532 5.625 17.9016Z" fill="#1CE7C2"/>
<path d="M5.625 16.5676C5.625 16.9371 5.92459 17.2367 6.29415 17.2367C6.66371 17.2367 6.9633 16.9371 6.9633 16.5676C6.9633 16.198 6.66371 15.8984 6.29415 15.8984C5.92459 15.8984 5.625 16.198 5.625 16.5676Z" fill="#1CE7C2"/>
<path d="M5.625 15.2277C5.625 15.5973 5.92459 15.8969 6.29415 15.8969C6.66371 15.8969 6.9633 15.5973 6.9633 15.2277C6.9633 14.8582 6.66371 14.5586 6.29415 14.5586C5.92459 14.5586 5.625 14.8582 5.625 15.2277Z" fill="#1CE7C2"/>
<path d="M6.96338 21.9172C6.96338 22.2868 7.26297 22.5863 7.63253 22.5863C8.00209 22.5863 8.30168 22.2868 8.30168 21.9172C8.30168 21.5476 8.00209 21.248 7.63253 21.248C7.26297 21.248 6.96338 21.5476 6.96338 21.9172Z" fill="#1CE7C2"/>
<path d="M6.96338 13.8899C6.96338 14.2594 7.26297 14.559 7.63253 14.559C8.00209 14.559 8.30168 14.2594 8.30168 13.8899C8.30168 13.5203 8.00209 13.2207 7.63253 13.2207C7.26297 13.2207 6.96338 13.5203 6.96338 13.8899Z" fill="#1CE7C2"/>
<path d="M6.96338 12.552C6.96338 12.9215 7.26297 13.2211 7.63253 13.2211C8.00209 13.2211 8.30168 12.9215 8.30168 12.552C8.30168 12.1824 8.00209 11.8828 7.63253 11.8828C7.26297 11.8828 6.96338 12.1824 6.96338 12.552Z" fill="#1CE7C2"/>
<path d="M8.30176 23.2649C8.30176 23.6344 8.60135 23.934 8.97091 23.934C9.34047 23.934 9.64006 23.6344 9.64006 23.2649C9.64006 22.8953 9.34047 22.5957 8.97091 22.5957C8.60135 22.5957 8.30176 22.8953 8.30176 23.2649Z" fill="#1CE7C2"/>
<path d="M8.30176 11.2043C8.30176 11.5739 8.60135 11.8735 8.97091 11.8735C9.34047 11.8735 9.64006 11.5739 9.64006 11.2043C9.64006 10.8347 9.34047 10.5352 8.97091 10.5352C8.60135 10.5352 8.30176 10.8347 8.30176 11.2043Z" fill="#1CE7C2"/>
<path d="M8.30176 9.86987C8.30176 10.2394 8.60135 10.5425 8.97091 10.5425C9.34047 10.5425 9.64006 10.2394 9.64006 9.86987C9.64006 9.5003 9.34047 9.19727 8.97091 9.19727C8.60135 9.19727 8.30176 9.5003 8.30176 9.86987Z" fill="#1CE7C2"/>
<path d="M9.63989 24.6027C9.63989 24.9723 9.93948 25.2719 10.309 25.2719C10.6786 25.2719 10.9782 24.9723 10.9782 24.6027C10.9782 24.2332 10.6786 23.9336 10.309 23.9336C9.93948 23.9336 9.63989 24.2332 9.63989 24.6027Z" fill="#1CE7C2"/>
<path d="M9.63989 8.52657C9.63989 8.89613 9.93948 9.19572 10.309 9.19572C10.6786 9.19572 10.9782 8.89613 10.9782 8.52657C10.9782 8.15701 10.6786 7.85742 10.309 7.85742C9.93948 7.85742 9.63989 8.15701 9.63989 8.52657Z" fill="#1CE7C2"/>
<path d="M10.9785 25.9426C10.9785 26.3121 11.2781 26.6117 11.6477 26.6117C12.0172 26.6117 12.3168 26.3121 12.3168 25.9426C12.3168 25.573 12.0172 25.2734 11.6477 25.2734C11.2781 25.2734 10.9785 25.573 10.9785 25.9426Z" fill="#1CE7C2"/>
<path d="M10.9785 20.5793C10.9785 20.9489 11.2781 21.2485 11.6477 21.2485C12.0172 21.2485 12.3168 20.9489 12.3168 20.5793C12.3168 20.2097 12.0172 19.9102 11.6477 19.9102C11.2781 19.9102 10.9785 20.2097 10.9785 20.5793Z" fill="#1CE7C2" fill-opacity="0.4"/>
<path d="M10.9785 7.18282C10.9785 7.55238 11.2781 7.85197 11.6477 7.85197C12.0172 7.85197 12.3168 7.55238 12.3168 7.18282C12.3168 6.81326 12.0172 6.51367 11.6477 6.51367C11.2781 6.51367 10.9785 6.81326 10.9785 7.18282Z" fill="#1CE7C2"/>
<path d="M12.3232 25.9426C12.3232 26.3121 12.6228 26.6117 12.9924 26.6117C13.362 26.6117 13.6615 26.3121 13.6615 25.9426C13.6615 25.573 13.362 25.2734 12.9924 25.2734C12.6228 25.2734 12.3232 25.573 12.3232 25.9426Z" fill="#1CE7C2"/>
<path d="M12.3232 21.9172C12.3232 22.2868 12.6228 22.5863 12.9924 22.5863C13.362 22.5863 13.6615 22.2868 13.6615 21.9172C13.6615 21.5476 13.362 21.248 12.9924 21.248C12.6228 21.248 12.3232 21.5476 12.3232 21.9172Z" fill="#1CE7C2" fill-opacity="0.4"/>
<path d="M12.3232 17.9016C12.3232 18.2711 12.6228 18.5707 12.9924 18.5707C13.362 18.5707 13.6615 18.2711 13.6615 17.9016C13.6615 17.532 13.362 17.2324 12.9924 17.2324C12.6228 17.2324 12.3232 17.532 12.3232 17.9016Z" fill="#1CE7C2" fill-opacity="0.4"/>
<path d="M12.3232 16.5676C12.3232 16.9371 12.6228 17.2367 12.9924 17.2367C13.362 17.2367 13.6615 16.9371 13.6615 16.5676C13.6615 16.198 13.362 15.8984 12.9924 15.8984C12.6228 15.8984 12.3232 16.198 12.3232 16.5676Z" fill="#1CE7C2" fill-opacity="0.5"/>
<path d="M12.3232 15.2277C12.3232 15.5973 12.6228 15.8969 12.9924 15.8969C13.362 15.8969 13.6615 15.5973 13.6615 15.2277C13.6615 14.8582 13.362 14.5586 12.9924 14.5586C12.6228 14.5586 12.3232 14.8582 12.3232 15.2277Z" fill="#1CE7C2" fill-opacity="0.5"/>
<path d="M12.3232 5.84493C12.3232 6.21449 12.6228 6.51408 12.9924 6.51408C13.362 6.51408 13.6615 6.21449 13.6615 5.84493C13.6615 5.47537 13.362 5.17578 12.9924 5.17578C12.6228 5.17578 12.3232 5.47537 12.3232 5.84493Z" fill="#1CE7C2"/>
<path d="M13.6616 25.9426C13.6616 26.3121 13.9612 26.6117 14.3308 26.6117C14.7003 26.6117 14.9999 26.3121 14.9999 25.9426C14.9999 25.573 14.7003 25.2734 14.3308 25.2734C13.9612 25.2734 13.6616 25.573 13.6616 25.9426Z" fill="#1CE7C2"/>
<path d="M13.6616 21.9172C13.6616 22.2868 13.9612 22.5863 14.3308 22.5863C14.7003 22.5863 14.9999 22.2868 14.9999 21.9172C14.9999 21.5476 14.7003 21.248 14.3308 21.248C13.9612 21.248 13.6616 21.5476 13.6616 21.9172Z" fill="#1CE7C2" fill-opacity="0.4"/>
<path d="M13.6616 4.50704C13.6616 4.8766 13.9612 5.17619 14.3308 5.17619C14.7003 5.17619 14.9999 4.8766 14.9999 4.50704C14.9999 4.13748 14.7003 3.83789 14.3308 3.83789C13.9612 3.83789 13.6616 4.13748 13.6616 4.50704Z" fill="#1CE7C2"/>
<path d="M15 25.9426C15 26.3121 15.2996 26.6117 15.6692 26.6117C16.0387 26.6117 16.3383 26.3121 16.3383 25.9426C16.3383 25.573 16.0387 25.2734 15.6692 25.2734C15.2996 25.2734 15 25.573 15 25.9426Z" fill="#1CE7C2"/>
<path d="M15 21.9172C15 22.2868 15.2996 22.5863 15.6692 22.5863C16.0387 22.5863 16.3383 22.2868 16.3383 21.9172C16.3383 21.5476 16.0387 21.248 15.6692 21.248C15.2996 21.248 15 21.5476 15 21.9172Z" fill="#1CE7C2" fill-opacity="0.4"/>
<path d="M15 3.1672C15 3.53676 15.2996 3.83635 15.6692 3.83635C16.0387 3.83635 16.3383 3.53676 16.3383 3.1672C16.3383 2.79764 16.0387 2.49805 15.6692 2.49805C15.2996 2.49805 15 2.79764 15 3.1672Z" fill="#1CE7C2"/>
<path d="M16.3384 25.9426C16.3384 26.3121 16.6414 26.6117 17.011 26.6117C17.3805 26.6117 17.6836 26.3121 17.6836 25.9426C17.6836 25.573 17.3805 25.2734 17.011 25.2734C16.6414 25.2734 16.3384 25.573 16.3384 25.9426Z" fill="#1CE7C2"/>
<path d="M16.3384 21.9172C16.3384 22.2868 16.6414 22.5863 17.011 22.5863C17.3805 22.5863 17.6836 22.2868 17.6836 21.9172C17.6836 21.5476 17.3805 21.248 17.011 21.248C16.6414 21.248 16.3384 21.5476 16.3384 21.9172Z" fill="#1CE7C2" fill-opacity="0.4"/>
<path d="M16.3384 17.9016C16.3384 18.2711 16.6414 18.5707 17.011 18.5707C17.3805 18.5707 17.6836 18.2711 17.6836 17.9016C17.6836 17.532 17.3805 17.2324 17.011 17.2324C16.6414 17.2324 16.3384 17.532 16.3384 17.9016Z" fill="#1CE7C2" fill-opacity="0.4"/>
<path d="M16.3384 16.5676C16.3384 16.9371 16.6414 17.2367 17.011 17.2367C17.3805 17.2367 17.6836 16.9371 17.6836 16.5676C17.6836 16.198 17.3805 15.8984 17.011 15.8984C16.6414 15.8984 16.3384 16.198 16.3384 16.5676Z" fill="#1CE7C2" fill-opacity="0.5"/>
<path d="M16.3384 15.2277C16.3384 15.5973 16.6414 15.8969 17.011 15.8969C17.3805 15.8969 17.6836 15.5973 17.6836 15.2277C17.6836 14.8582 17.3805 14.5586 17.011 14.5586C16.6414 14.5586 16.3384 14.8582 16.3384 15.2277Z" fill="#1CE7C2" fill-opacity="0.5"/>
<path d="M16.3384 7.18282C16.3384 7.55238 16.6414 7.85197 17.011 7.85197C17.3805 7.85197 17.6836 7.55238 17.6836 7.18282C17.6836 6.81326 17.3805 6.51367 17.011 6.51367C16.6414 6.51367 16.3384 6.81326 16.3384 7.18282Z" fill="#1CE7C2"/>
<path d="M16.3384 5.84493C16.3384 6.21449 16.6414 6.51408 17.011 6.51408C17.3805 6.51408 17.6836 6.21449 17.6836 5.84493C17.6836 5.47537 17.3805 5.17578 17.011 5.17578C16.6414 5.17578 16.3384 5.47537 16.3384 5.84493Z" fill="#1CE7C2"/>
<path d="M16.3384 4.50704C16.3384 4.8766 16.6414 5.17619 17.011 5.17619C17.3805 5.17619 17.6836 4.8766 17.6836 4.50704C17.6836 4.13748 17.3805 3.83789 17.011 3.83789C16.6414 3.83789 16.3384 4.13748 16.3384 4.50704Z" fill="#1CE7C2"/>
<path d="M17.6836 25.9426C17.6836 26.3121 17.9832 26.6117 18.3527 26.6117C18.7223 26.6117 19.0219 26.3121 19.0219 25.9426C19.0219 25.573 18.7223 25.2734 18.3527 25.2734C17.9832 25.2734 17.6836 25.573 17.6836 25.9426Z" fill="#1CE7C2"/>
<path d="M17.6836 20.5793C17.6836 20.9489 17.9832 21.2485 18.3527 21.2485C18.7223 21.2485 19.0219 20.9489 19.0219 20.5793C19.0219 20.2097 18.7223 19.9102 18.3527 19.9102C17.9832 19.9102 17.6836 20.2097 17.6836 20.5793Z" fill="#1CE7C2" fill-opacity="0.4"/>
<path d="M17.6836 9.86987C17.6836 10.2394 17.9832 10.5425 18.3527 10.5425C18.7223 10.5425 19.0219 10.2394 19.0219 9.86987C19.0219 9.5003 18.7223 9.19727 18.3527 9.19727C17.9832 9.19727 17.6836 9.5003 17.6836 9.86987Z" fill="#1CE7C2"/>
<path d="M17.6836 8.52657C17.6836 8.89613 17.9832 9.19572 18.3527 9.19572C18.7223 9.19572 19.0219 8.89613 19.0219 8.52657C19.0219 8.15701 18.7223 7.85742 18.3527 7.85742C17.9832 7.85742 17.6836 8.15701 17.6836 8.52657Z" fill="#1CE7C2"/>
<path d="M19.022 24.6027C19.022 24.9723 19.3216 25.2719 19.6911 25.2719C20.0607 25.2719 20.3603 24.9723 20.3603 24.6027C20.3603 24.2332 20.0607 23.9336 19.6911 23.9336C19.3216 23.9336 19.022 24.2332 19.022 24.6027Z" fill="#1CE7C2"/>
<path d="M20.3601 23.2649C20.3601 23.6344 20.6597 23.934 21.0293 23.934C21.3988 23.934 21.6984 23.6344 21.6984 23.2649C21.6984 22.8953 21.3988 22.5957 21.0293 22.5957C20.6597 22.5957 20.3601 22.8953 20.3601 23.2649Z" fill="#1CE7C2"/>
<path d="M21.6982 21.9172C21.6982 22.2868 21.9978 22.5863 22.3674 22.5863C22.737 22.5863 23.0365 22.2868 23.0365 21.9172C23.0365 21.5476 22.737 21.248 22.3674 21.248C21.9978 21.248 21.6982 21.5476 21.6982 21.9172Z" fill="#1CE7C2"/>
<path d="M21.6982 12.552C21.6982 12.9215 21.9978 13.2211 22.3674 13.2211C22.737 13.2211 23.0365 12.9215 23.0365 12.552C23.0365 12.1824 22.737 11.8828 22.3674 11.8828C21.9978 11.8828 21.6982 12.1824 21.6982 12.552Z" fill="#1CE7C2"/>
<path d="M23.0366 20.5793C23.0366 20.9489 23.3362 21.2485 23.7058 21.2485C24.0753 21.2485 24.3749 20.9489 24.3749 20.5793C24.3749 20.2097 24.0753 19.9102 23.7058 19.9102C23.3362 19.9102 23.0366 20.2097 23.0366 20.5793Z" fill="#1CE7C2"/>
<path d="M23.0366 19.2414C23.0366 19.611 23.3362 19.9106 23.7058 19.9106C24.0753 19.9106 24.3749 19.611 24.3749 19.2414C24.3749 18.8719 24.0753 18.5723 23.7058 18.5723C23.3362 18.5723 23.0366 18.8719 23.0366 19.2414Z" fill="#1CE7C2"/>
<path d="M23.0366 17.9016C23.0366 18.2711 23.3362 18.5707 23.7058 18.5707C24.0753 18.5707 24.3749 18.2711 24.3749 17.9016C24.3749 17.532 24.0753 17.2324 23.7058 17.2324C23.3362 17.2324 23.0366 17.532 23.0366 17.9016Z" fill="#1CE7C2"/>
<path d="M23.0366 16.5676C23.0366 16.9371 23.3362 17.2367 23.7058 17.2367C24.0753 17.2367 24.3749 16.9371 24.3749 16.5676C24.3749 16.198 24.0753 15.8984 23.7058 15.8984C23.3362 15.8984 23.0366 16.198 23.0366 16.5676Z" fill="#1CE7C2"/>
<path d="M23.0366 15.2277C23.0366 15.5973 23.3362 15.8969 23.7058 15.8969C24.0753 15.8969 24.3749 15.5973 24.3749 15.2277C24.3749 14.8582 24.0753 14.5586 23.7058 14.5586C23.3362 14.5586 23.0366 14.8582 23.0366 15.2277Z" fill="#1CE7C2"/>
<path d="M23.0366 13.8899C23.0366 14.2594 23.3362 14.559 23.7058 14.559C24.0753 14.559 24.3749 14.2594 24.3749 13.8899C24.3749 13.5203 24.0753 13.2207 23.7058 13.2207C23.3362 13.2207 23.0366 13.5203 23.0366 13.8899Z" fill="#1CE7C2"/>
</g>
<path d="M16.3672 13.3643C16.3672 12.9395 16.5918 12.5537 16.853 12.2168C17.1606 11.8188 17.3437 11.3208 17.3437 10.7812C17.3437 9.4873 16.2939 8.4375 15 8.4375C13.7061 8.4375 12.6562 9.4873 12.6562 10.7812C12.6562 11.3208 12.8394 11.8188 13.147 12.2168C13.4082 12.5537 13.6328 12.9395 13.6328 13.3643C13.6328 14.0942 13.0396 14.6875 12.3096 14.6875H11.4844C9.97314 14.6875 8.75 15.9106 8.75 17.4219C8.75 17.9321 9.07715 18.3667 9.53125 18.5278V19.7656C9.53125 20.4126 10.0562 20.9375 10.7031 20.9375H19.2969C19.9438 20.9375 20.4687 20.4126 20.4687 19.7656V18.5278C20.9229 18.3667 21.25 17.9321 21.25 17.4219C21.25 15.9106 20.0269 14.6875 18.5156 14.6875H17.6904C16.9604 14.6875 16.3672 14.0942 16.3672 13.3643ZM18.9062 17.9687V19.375H11.0937V17.9687H18.9062Z" fill="#BAFDF0"/>
<defs>
<linearGradient id="paint0_linear_6864_70798" x1="15" y1="0" x2="15" y2="30" gradientUnits="userSpaceOnUse">
<stop stop-color="#054C9F"/>
<stop offset="1" stop-color="#142D53"/>
</linearGradient>
</defs>
</svg>
